<svg width="272" height="272" viewBox="0 0 272 272" fill="none" xmlns="http://www.w3.org/2000/svg">
<path d="M248.364 113.754C221.847 68.3438 149.927 84.5169 135.236 62.4278C127.714 51.1181 119.3 38.0082 107.094 31.1908C95.4585 24.6916 81.9667 22.3726 70.2049 23.2337C28.2038 26.3078 10.3943 63.8868 18.4656 105.155C29.2325 160.203 78.0314 216.435 136.004 216.829C166.325 217.035 195.272 206.196 217.979 190.874C218.149 190.76 218.318 190.645 218.487 190.53C241.172 175.089 268.609 148.423 248.364 113.754Z" fill="#00CC9B"/>
<path opacity="0.9" d="M248.364 113.754C221.847 68.3438 149.927 84.5169 135.236 62.4278C127.714 51.1181 119.3 38.0082 107.094 31.1908C95.4585 24.6916 81.9667 22.3726 70.2049 23.2337C28.2038 26.3078 10.3943 63.8868 18.4656 105.155C29.2325 160.203 78.0314 216.435 136.004 216.829C166.325 217.035 195.272 206.196 217.979 190.874C218.149 190.76 218.318 190.645 218.487 190.53C241.172 175.089 268.609 148.423 248.364 113.754Z" fill="#EDE9FF"/>
<path d="M42.5347 117.057H39.5868C32.9973 117.057 27.6558 122.399 27.6558 128.988V194.454C27.6558 201.043 32.9973 206.385 39.5868 206.385H80.0386C86.6281 206.385 91.9696 201.044 91.9696 194.454" stroke="#4D21FF" stroke-width="0.8" stroke-miterlimit="10" stroke-linecap="round" stroke-linejoin="round" stroke-dasharray="4.41 4.41"/>
<path d="M88.6523 55.2862V42.3542C88.6523 38.3188 91.924 35.0472 95.9593 35.0472H148.565C152.601 35.0472 155.872 38.3188 155.872 42.3542" stroke="#4D21FF" stroke-width="0.8" stroke-miterlimit="10" stroke-linecap="round" stroke-linejoin="round" stroke-dasharray="4.41 4.41"/>
<path d="M136 256.857C193.541 256.857 240.188 250.338 240.188 242.297C240.188 234.256 193.541 227.737 136 227.737C78.4586 227.737 31.812 234.256 31.812 242.297C31.812 250.338 78.4586 256.857 136 256.857Z" fill="#00CC9B"/>
<path opacity="0.5" d="M136 256.857C193.541 256.857 240.188 250.338 240.188 242.297C240.188 234.256 193.541 227.737 136 227.737C78.4586 227.737 31.812 234.256 31.812 242.297C31.812 250.338 78.4586 256.857 136 256.857Z" fill="#EDE9FF"/>
<path d="M234.214 72.6371V170.59C234.214 177.256 228.807 182.664 222.14 182.664H49.8602C43.1929 182.664 37.7861 177.257 37.7861 170.59V72.6371C37.7861 72.3493 37.7981 72.067 37.822 71.7852C38.254 65.5145 43.4807 60.5576 49.8597 60.5576H222.14C228.519 60.5576 233.745 65.5145 234.177 71.7852C234.202 72.067 234.214 72.3493 234.214 72.6371Z" fill="#EDE9FF" stroke="#4D21FF" stroke-width="0.8" stroke-miterlimit="10" stroke-linecap="round" stroke-linejoin="round"/>
<path d="M217.639 178.11H54.9766C48.7271 178.11 43.6614 173.044 43.6614 166.795V76.3102H228.954V166.794C228.954 173.044 223.888 178.11 217.639 178.11Z" fill="#4D21FF"/>
<path opacity="0.2" d="M228.957 76.3096V166.797C228.957 173.044 223.944 178.108 217.768 178.108H54.8509C48.6749 178.108 43.6614 173.044 43.6614 166.797V76.3096H228.957Z" fill="#EDE9FF"/>
<path d="M234.178 71.7852H37.822C38.254 65.5145 43.4807 60.5576 49.8597 60.5576H222.14C228.519 60.5576 233.745 65.5139 234.178 71.7852Z" fill="#00CC9B" stroke="#4D21FF" stroke-width="0.8" stroke-miterlimit="10"/>
<path d="M61.9512 66.1711C61.9512 67.3521 60.9938 68.3096 59.8128 68.3096C58.6318 68.3096 57.6743 67.3521 57.6743 66.1711C57.6743 64.9901 58.6318 64.0327 59.8128 64.0327C60.9938 64.0327 61.9512 64.9901 61.9512 66.1711Z" fill="#4D21FF"/>
<path d="M70.994 66.1711C70.994 67.3521 70.0365 68.3096 68.8555 68.3096C67.6745 68.3096 66.717 67.3521 66.717 66.1711C66.717 64.9901 67.6745 64.0327 68.8555 64.0327C70.036 64.0327 70.994 64.9901 70.994 66.1711Z" fill="#4D21FF"/>
<path d="M77.898 68.3096C79.079 68.3096 80.0364 67.3522 80.0364 66.1711C80.0364 64.9901 79.079 64.0327 77.898 64.0327C76.7169 64.0327 75.7595 64.9901 75.7595 66.1711C75.7595 67.3522 76.7169 68.3096 77.898 68.3096Z" fill="#4D21FF"/>
<path d="M228.954 76.3134V166.795C228.954 173.042 223.889 178.113 217.636 178.113H54.9759C49.4794 178.113 44.9005 174.188 43.8805 168.991L43.8745 168.985V168.962C43.7364 168.259 43.6646 167.534 43.6646 166.795V76.3134H228.954Z" stroke="#4D21FF" stroke-width="0.8" stroke-miterlimit="10"/>
<path d="M228.778 90.3084C227.986 89.8645 227.14 89.5163 226.264 89.2704L225.25 84.728H220.929L219.921 89.2704C219.039 89.5103 218.193 89.8645 217.401 90.3084L213.5 87.812L210.446 90.8665L212.9 94.767C212.45 95.565 212.102 96.411 211.862 97.2874L207.32 98.2954V102.616L211.862 103.63C212.102 104.518 212.45 105.37 212.9 106.168L210.404 110.093L213.458 113.147L217.383 110.651C218.175 111.101 219.021 111.449 219.903 111.695L220.911 116.232H225.232L226.246 111.695C227.122 111.449 227.968 111.095 228.76 110.651L228.958 110.777V90.1936L228.778 90.3084ZM223.101 106.061C220.017 106.061 217.52 103.565 217.52 100.48C217.52 97.4016 220.017 94.8992 223.101 94.8992C226.186 94.8992 228.682 97.4016 228.682 100.48C228.682 103.565 226.186 106.061 223.101 106.061Z" fill="#4D21FF"/>
<path d="M150.933 94.6843V85.575L141.356 83.4507C140.833 81.6022 140.102 79.8141 139.166 78.1337L140.324 76.3096H95.1189L96.2352 78.0858C95.293 79.7602 94.5608 81.5424 94.0511 83.3963L84.4734 85.5266V94.6359L94.0511 96.7722C94.5613 98.6387 95.293 100.439 96.2352 102.125L90.9726 110.4L97.4173 116.839L105.687 111.577C107.367 112.519 109.149 113.257 111.003 113.779L113.128 123.344H122.237L124.379 113.779C126.227 113.256 128.004 112.512 129.678 111.577L137.953 116.839L144.392 110.4L139.165 102.125C140.095 100.445 140.833 98.6686 141.355 96.8206L150.933 94.6843ZM117.748 101.898C111.249 101.898 105.98 96.6291 105.98 90.13C105.98 83.6308 111.249 78.3621 117.748 78.3621C124.247 78.3621 129.516 83.6308 129.516 90.13C129.516 96.6291 124.247 101.898 117.748 101.898Z" fill="#4D21FF"/>
<path d="M90.5133 157.236L90.8974 150.011L83.4081 147.898C83.0599 146.416 82.5437 144.97 81.8718 143.602L86.3963 137.247L81.5476 131.864L74.7667 135.699C73.4703 134.889 72.0902 134.222 70.6382 133.724L69.3419 126.043L62.117 125.659L60.0286 133.172C58.5402 133.503 57.1003 134.018 55.7321 134.697L49.3831 130.172L43.9942 135.021L47.8349 141.808C47.0069 143.098 46.3465 144.478 45.8547 145.93L43.6646 146.29V156.078L45.2547 156.528C45.5909 158.022 46.1066 159.468 46.7909 160.836L43.6646 165.211L43.8745 168.962V168.985L43.8805 168.991L47.1032 172.568L53.8961 168.734C55.1925 169.568 56.5845 170.24 58.0365 170.732L59.2725 178.107V178.113L59.3323 178.419L66.5572 178.803L66.7492 178.113V178.107L68.6456 171.29C70.1459 170.954 71.5859 170.444 72.966 169.766L79.3031 174.284L84.6919 169.441L80.8633 162.648C81.6793 161.358 82.3397 159.978 82.8195 158.532L90.5133 157.236ZM71.3221 145.948C67.8655 142.107 61.9489 141.795 58.1083 145.251C54.2677 148.708 53.9559 154.624 57.412 158.465C60.8686 162.306 66.7851 162.611 70.6257 159.155C74.4664 155.699 74.7786 149.788 71.3221 145.948Z" fill="#4D21FF"/>
<path d="M148.295 146.439C148.576 145.32 148.721 144.171 148.733 143.017L153.928 140.286L152.492 135.016L146.629 135.29C146.036 134.302 145.326 133.385 144.523 132.568L146.26 126.959L141.526 124.246L137.565 128.568C136.45 128.295 135.306 128.152 134.154 128.134L131.412 122.935L126.149 124.367L126.427 130.238C125.439 130.831 124.522 131.54 123.7 132.342L118.089 130.61L115.373 135.337L119.719 139.287C119.438 140.406 119.295 141.55 119.29 142.7L114.086 145.44L115.522 150.71L121.392 150.432C121.978 151.425 122.682 152.339 123.491 153.158L121.745 158.738L126.48 161.451L130.421 157.165C131.54 157.446 132.683 157.59 133.84 157.596L136.574 162.799L141.837 161.367L141.606 156.352L141.567 155.493C142.567 154.903 143.489 154.196 144.321 153.385L149.928 155.128L152.245 151.079L152.641 150.393L148.295 146.439ZM135.852 149.64C132.092 150.664 128.218 148.444 127.198 144.691C126.175 140.931 128.394 137.058 132.147 136.038C135.907 135.014 139.781 137.234 140.801 140.986C141.824 144.746 139.604 148.621 135.852 149.64Z" fill="#4D21FF"/>
<path d="M208.524 155.708L209.724 148.477L202.403 145.53C202.235 143.988 201.88 142.476 201.353 141.018L206.621 135.149L202.355 129.184L195.088 132.269C193.882 131.303 192.567 130.487 191.163 129.832L190.737 121.947L183.5 120.753L180.536 128.044C179 128.224 177.494 128.578 176.042 129.1L170.154 123.832L164.195 128.098L167.286 135.36C166.434 136.428 165.696 137.568 165.084 138.78C165 138.949 164.916 139.117 164.838 139.285L156.959 139.723L155.759 146.947L156.947 147.428L163.08 149.9C163.248 151.431 163.596 152.943 164.13 154.395L158.861 160.282L163.128 166.241L170.395 163.145C171.595 164.123 172.915 164.945 174.313 165.599L174.721 173.448L181.952 174.643L184.91 167.406C186.453 167.238 187.965 166.883 189.417 166.35L195.292 171.624L201.257 167.352L198.166 160.085C199.15 158.879 199.984 157.552 200.645 156.142L208.524 155.708ZM188.235 155.384C183.98 158.426 178.063 157.448 175.021 153.194C171.972 148.945 172.957 143.028 177.205 139.986C181.46 136.937 187.377 137.921 190.419 142.17C193.468 146.424 192.483 152.341 188.235 155.384Z" fill="#4D21FF"/>
<path d="M110.473 195.178H53.5835C49.6449 195.178 46.4517 191.985 46.4517 188.047V109.279C46.4517 105.34 49.6444 102.147 53.5835 102.147H110.473C114.412 102.147 117.605 105.34 117.605 109.279V188.047C117.605 191.986 114.412 195.178 110.473 195.178Z" fill="#00CC9B" stroke="#4D21FF" stroke-width="0.8" stroke-miterlimit="10"/>
<path opacity="0.2" d="M110.473 195.178H53.5835C49.6449 195.178 46.4517 191.985 46.4517 188.047V109.279C46.4517 105.34 49.6444 102.147 53.5835 102.147H110.473C114.412 102.147 117.605 105.34 117.605 109.279V188.047C117.605 191.986 114.412 195.178 110.473 195.178Z" fill="#4D21FF"/>
<path d="M124.229 116.306V195.073C124.229 199.015 121.037 202.208 117.094 202.208H60.205C56.2687 202.208 53.0759 199.016 53.0759 195.073V116.306C53.0759 112.369 56.2681 109.176 60.205 109.176H117.094C121.036 109.176 124.229 112.369 124.229 116.306Z" fill="#EDE9FF" stroke="#4D21FF" stroke-width="0.8" stroke-miterlimit="10" stroke-linecap="round" stroke-linejoin="round"/>
<path d="M124.229 116.306V120.524H53.0759V116.306C53.0759 112.369 56.2681 109.176 60.205 109.176H117.094C121.036 109.176 124.229 112.369 124.229 116.306Z" fill="#00CC9B" stroke="#4D21FF" stroke-width="0.8" stroke-miterlimit="10"/>
<path d="M77.2724 125.41H59.7676V128.346H77.2724V125.41Z" fill="#00CC9B"/>
<path d="M77.2724 151.734H59.7676V154.669H77.2724V151.734Z" fill="#00CC9B"/>
<path d="M77.2724 175.604H59.7676V178.54H77.2724V175.604Z" fill="#00CC9B"/>
<path d="M109.485 132.679H59.7676V134.833H109.485V132.679Z" fill="#4D21FF"/>
<path d="M100.52 136.801H59.7676V138.9H100.52V136.801Z" fill="#4D21FF"/>
<path d="M105.856 140.853H59.7676V142.952H105.856V140.853Z" fill="#4D21FF"/>
<path d="M105.856 144.901H59.7676V147H105.856V144.901Z" fill="#4D21FF"/>
<path d="M109.485 156.55H59.7676V158.704H109.485V156.55Z" fill="#4D21FF"/>
<path d="M100.52 160.672H59.7676V162.771H100.52V160.672Z" fill="#4D21FF"/>
<path d="M105.856 164.724H59.7676V166.822H105.856V164.724Z" fill="#4D21FF"/>
<path d="M109.485 182.763H59.7676V184.917H109.485V182.763Z" fill="#4D21FF"/>
<path d="M100.52 186.885H59.7676V188.984H100.52V186.885Z" fill="#4D21FF"/>
<path d="M105.856 190.937H59.7676V193.036H105.856V190.937Z" fill="#4D21FF"/>
<path d="M204.416 54.5599V86.3948C204.416 91.0933 200.611 94.8981 195.913 94.8981H122.588C117.896 94.8981 114.085 91.0933 114.085 86.3948V54.5599C114.085 49.8614 117.896 46.0507 122.588 46.0507H195.913C200.611 46.0507 204.416 49.8614 204.416 54.5599Z" fill="#EDE9FF" stroke="#714EFF" stroke-width="0.8" stroke-miterlimit="10"/>
<path d="M204.416 54.5599V55.2861H114.085V54.5599C114.085 49.8614 117.896 46.0507 122.588 46.0507H195.913C200.611 46.0507 204.416 49.8614 204.416 54.5599Z" fill="#00CC9B" stroke="#4D21FF" stroke-width="0.8" stroke-miterlimit="10"/>
<path d="M127.355 52.1897C126.847 52.6983 126.022 52.6983 125.513 52.1897C125.005 51.6811 125.005 50.8564 125.513 50.3477C126.022 49.8391 126.847 49.8391 127.355 50.3477C127.864 50.8564 127.864 51.6811 127.355 52.1897Z" fill="#4D21FF"/>
<path d="M133.405 52.1897C132.896 52.6983 132.071 52.6983 131.563 52.1897C131.054 51.6811 131.054 50.8564 131.563 50.3477C132.071 49.8391 132.896 49.8391 133.405 50.3477C133.913 50.8564 133.913 51.6811 133.405 52.1897Z" fill="#4D21FF"/>
<path d="M139.454 52.1897C138.945 52.6983 138.121 52.6983 137.612 52.1897C137.103 51.6811 137.103 50.8564 137.612 50.3477C138.121 49.8391 138.945 49.8391 139.454 50.3477C139.963 50.8564 139.963 51.6811 139.454 52.1897Z" fill="#4D21FF"/>
<path d="M149.372 61.1401H119.845V86.6635H149.372V61.1401Z" stroke="#4D21FF" stroke-width="0.8" stroke-miterlimit="10" stroke-linecap="round" stroke-linejoin="round" stroke-dasharray="4.41 4.41"/>
<path d="M187.91 61.1401H153.928V62.9326H187.91V61.1401Z" fill="#4D21FF"/>
<path d="M179.994 64.8573H153.928V66.6498H179.994V64.8573Z" fill="#4D21FF"/>
<path d="M192.744 68.5532H153.928V70.3669H192.744V68.5532Z" fill="#4D21FF"/>
<path d="M186.98 72.1643H153.928V73.978H186.98V72.1643Z" fill="#4D21FF"/>
<path d="M161.493 239.613C161.493 239.613 145.717 244.137 143.515 244.918C141.511 245.626 136.08 247.528 132.005 246.94C131.603 246.88 131.213 246.795 130.841 246.688C126.712 245.458 124.858 244.312 124.318 241.713C123.771 239.109 125.83 237.206 127.81 235.982C129.79 234.758 140.532 233.479 140.532 233.479L143.124 234.242H143.13L161.493 239.613Z" fill="#00CC9B"/>
<path d="M132.005 246.94C131.603 246.88 131.213 246.796 130.841 246.688C126.713 245.458 124.858 244.312 124.318 241.713C123.772 239.109 125.83 237.207 127.811 235.982C129.791 234.758 140.532 233.48 140.532 233.48L143.125 234.242C140.778 235.322 132.029 235.922 130.121 237.02C128.213 238.119 127.288 240.189 128.417 242.985C129.017 244.474 130.625 245.914 132.005 246.94Z" fill="#EDE9FF"/>
<path d="M159.12 240.257C159.12 240.257 147.272 243.326 142.574 245.291C137.876 247.256 128.912 248.116 125.719 244.063C122.526 240.011 125.351 236.525 128.543 235.751C131.736 234.976 138.192 233.748 141.718 234.239" stroke="#4D21FF" stroke-width="0.8" stroke-miterlimit="10" stroke-linecap="round" stroke-linejoin="round"/>
<path d="M132.243 246.725C132.243 246.725 126.214 243.419 128.216 238.786C129.694 235.367 137.736 236.109 141.718 234.239" stroke="#4D21FF" stroke-width="0.8" stroke-miterlimit="10" stroke-linecap="round" stroke-linejoin="round"/>
<path d="M209.543 247.672C209.381 249.286 208.81 250.835 207.178 251.795C206.092 252.437 204.544 252.821 202.33 252.797C196.797 252.725 186.398 248.77 186.398 248.77L176.658 243.387L181.723 235.37L183.109 233.174L186.691 233.978C186.691 233.978 189.656 235.658 192.638 236.996C195.621 238.334 202.858 238.616 205.408 240.68C207.959 242.739 209.819 244.984 209.543 247.672Z" fill="#00CC9B"/>
<path d="M209.543 247.672C209.381 249.286 208.811 250.835 207.179 251.795C207.485 250.54 207.737 248.806 206.903 246.934C205.822 244.492 202.276 242.337 197.619 241.978C192.969 241.618 189.398 239.439 187.532 238.467C186.074 237.711 183.002 236.061 181.723 235.371L183.109 233.174L186.692 233.978C186.692 233.978 189.656 235.659 192.639 236.996C195.621 238.335 202.858 238.616 205.408 240.681C207.959 242.739 209.819 244.984 209.543 247.672Z" fill="#EDE9FF"/>
<path d="M178.816 244.897C185.749 248.869 193.679 251.728 201.612 252.684C203.383 252.897 205.445 252.927 206.632 251.596C207.293 250.854 207.535 249.804 207.45 248.813C207.235 246.313 205.133 244.33 202.828 243.339C200.522 242.348 197.976 242.112 195.528 241.563C193.09 241.016 190.723 240.15 188.507 238.994C186.747 238.076 185.043 236.96 183.101 236.549C181.158 236.138 178.844 236.637 177.809 238.331" stroke="#4D21FF" stroke-width="0.8" stroke-miterlimit="10" stroke-linecap="round" stroke-linejoin="round"/>
<path d="M205.982 252.274C207.774 251.354 209.246 249.664 209.544 247.672C209.897 245.315 208.555 242.946 206.664 241.496C204.772 240.047 202.41 239.366 200.077 238.881C197.743 238.396 195.357 238.07 193.138 237.203C189.725 235.87 186.36 233.236 182.818 234.176" stroke="#4D21FF" stroke-width="0.8" stroke-miterlimit="10" stroke-linecap="round" stroke-linejoin="round"/>
<path d="M189.806 160.623L173.328 154.352L173.124 154.274C173.124 154.274 173.183 153.836 173.232 153.2C173.334 151.886 173.388 149.744 172.77 149.017C171.852 147.943 169.248 148.843 166.709 147.679C164.171 146.515 159.472 148.597 159.472 148.597C159.472 148.597 156.082 147.973 154.588 150.422C153.826 152.396 154.09 155.336 154.09 155.336C154.09 155.336 153.982 155.378 153.777 155.451C151.815 156.183 141.134 160.204 138.871 161.818C136.375 163.588 133.615 181.741 132.726 187.07C131.838 192.404 130.26 197.205 131.064 199.041C131.862 200.872 143.342 209.711 149.943 211.991C156.544 214.278 179.965 213.605 179.965 213.605C179.965 213.605 180.349 213.503 181.027 213.287C184.988 212.015 199.041 206.776 206.495 194.42C206.495 194.42 199.275 170.741 189.806 160.623ZM145.285 191.156C144.073 192.014 144.721 195.344 144.721 195.344L142.656 193.526L147.835 180.792L150.043 190.568C150.043 190.568 146.498 190.304 145.285 191.156ZM186.715 199.245C186.145 199.539 188.354 193.418 187.304 192.032C186.254 190.64 183.109 190.778 183.109 190.778L183.379 189.104C183.414 188.918 185.245 179.533 185.245 179.533L185.863 178.794C185.863 178.794 192.272 189.782 193.418 193.653C193.418 193.653 186.433 199.245 186.715 199.245Z" fill="#00CC9B"/>
<path d="M158.693 120.906L150.188 129.936C150.188 129.936 149.015 130.973 149.481 133.592C149.948 136.212 151.033 138.462 151.853 138.636C152.673 138.811 153.822 138.812 153.822 138.812C153.822 138.812 155.645 142.762 156.936 144.315C156.936 144.315 157.386 150.411 157.146 152.103C157.146 152.103 160.201 154.772 163.08 155.112C165.958 155.451 170.405 151.042 170.405 151.042L171.507 145.643C171.507 145.643 174.116 141.683 174.294 140.629C174.472 139.575 175.665 139.845 176.251 139.325C176.836 138.805 178.193 136.479 178.417 134.281C178.641 132.083 178.657 129.559 176.104 130.3C173.892 129.705 175.276 125.029 175.276 125.029L171.389 121.599L158.693 120.906Z" fill="#EDE9FF"/>
<path opacity="0.5" d="M173.327 154.352C173.195 154.701 173.051 155.03 172.889 155.336C171.485 157.983 165.37 163.024 165.37 163.024L163.521 157.341L162.507 163.024C160.467 162.135 154.244 156.741 154.244 156.741C154.244 156.741 154.034 156.237 153.776 155.451C153.98 155.379 154.088 155.336 154.088 155.336C154.088 155.336 153.825 152.396 154.587 150.422C156.081 147.973 159.471 148.597 159.471 148.597C159.471 148.597 164.17 146.515 166.708 147.679C169.246 148.843 171.851 147.943 172.769 149.017C173.687 150.091 173.123 154.274 173.123 154.274L173.327 154.352Z" fill="#EDE9FF"/>
<path opacity="0.2" d="M189.806 160.623L173.328 154.352L173.124 154.274C173.124 154.274 173.183 153.836 173.232 153.2L172.89 155.336L170.453 158.649C170.453 158.649 174.573 160.136 178.057 162C180.478 163.297 181.869 165.934 181.55 168.662L178.512 194.637L177.271 209.387L181.027 213.287C184.988 212.015 199.041 206.776 206.495 194.42C206.495 194.42 199.275 170.741 189.806 160.623ZM186.715 199.245C186.145 199.539 188.354 193.418 187.304 192.032C186.254 190.64 183.109 190.778 183.109 190.778L183.379 189.104C183.414 188.918 185.245 179.533 185.245 179.533L185.863 178.794C185.863 178.794 192.272 189.782 193.418 193.653C193.418 193.653 186.433 199.245 186.715 199.245Z" fill="#4D21FF"/>
<path opacity="0.2" d="M151.16 192.032L148.598 183.469C148.598 183.469 144.004 167.8 140.853 163.935L141.681 174.955C141.681 174.955 138.978 188.12 136.476 192.032C133.973 195.938 133.433 196.917 136.476 196.917C139.524 196.917 146.917 202.816 146.917 202.816L146.347 197.895L151.16 192.032ZM144.721 195.344L142.656 193.526L147.835 180.792L150.043 190.568C150.043 190.568 146.497 190.304 145.284 191.156C144.073 192.014 144.721 195.344 144.721 195.344Z" fill="#4D21FF"/>
<path d="M156.936 144.315C156.936 144.315 157.409 148.932 156.936 151.042" stroke="#4D21FF" stroke-width="0.8" stroke-miterlimit="10" stroke-linecap="round" stroke-linejoin="round"/>
<path d="M170.875 150.423C170.875 150.423 170.848 148.174 171.389 146.012" stroke="#4D21FF" stroke-width="0.8" stroke-miterlimit="10" stroke-linecap="round" stroke-linejoin="round"/>
<path d="M172.112 124.349C172.112 124.349 174.905 127.859 174.762 130.509C174.619 133.159 174.404 136.311 174.475 139.391C174.547 142.471 169.533 148.918 166.954 149.491C164.375 150.064 162.155 150.208 160.507 148.56C158.86 146.912 157.212 144.62 155.063 141.683C152.914 138.746 153.416 132.299 153.416 132.299" stroke="#4D21FF" stroke-width="0.8" stroke-miterlimit="10" stroke-linecap="round" stroke-linejoin="round"/>
<path d="M165.387 134.756C165.217 135.719 165.144 136.699 165.169 137.676C165.191 138.494 165.312 139.379 165.886 139.963C166.195 140.278 166.643 140.53 166.702 140.967C166.754 141.355 166.457 141.707 166.128 141.918C165.798 142.129 165.416 142.259 165.121 142.516" stroke="#4D21FF" stroke-width="0.8" stroke-miterlimit="10" stroke-linecap="round" stroke-linejoin="round"/>
<path d="M160.951 142.857C160.951 142.857 161.274 144.938 164.066 145.374" stroke="#4D21FF" stroke-width="0.8" stroke-miterlimit="10" stroke-linecap="round" stroke-linejoin="round"/>
<path d="M161.242 136.344C161.242 136.945 160.982 137.433 160.661 137.433C160.34 137.433 160.08 136.945 160.08 136.344C160.08 135.742 160.34 135.254 160.661 135.254C160.982 135.255 161.242 135.742 161.242 136.344Z" fill="#4D21FF"/>
<path d="M169.57 136.605C169.57 137.207 169.31 137.695 168.989 137.695C168.668 137.695 168.408 137.207 168.408 136.605C168.408 136.004 168.668 135.516 168.989 135.516C169.31 135.516 169.57 136.004 169.57 136.605Z" fill="#4D21FF"/>
<path d="M167.89 133.968C167.89 133.968 170.598 131.26 172.889 134.28" stroke="#4D21FF" stroke-width="0.8" stroke-miterlimit="10" stroke-linecap="round" stroke-linejoin="round"/>
<path d="M162.161 134.02C162.161 134.02 160.443 132.094 157.735 134.02" stroke="#4D21FF" stroke-width="0.8" stroke-miterlimit="10" stroke-linecap="round" stroke-linejoin="round"/>
<path d="M157.146 146.852C157.146 146.852 158.804 151.424 162.509 152.72C166.213 154.017 171.132 147.288 171.132 147.288L170.874 146.413C170.874 146.413 167.652 150.6 164.066 149.886C160.481 149.172 156.935 144.315 156.935 144.315L157.146 146.852Z" fill="#4D21FF"/>
<path d="M153.822 138.636C153.822 138.636 151.614 139.416 151.027 137.695C150.44 135.974 148.427 131.446 150.188 129.936C151.95 128.426 153.365 131.929 153.365 131.929" stroke="#4D21FF" stroke-width="0.8" stroke-miterlimit="10" stroke-linecap="round" stroke-linejoin="round"/>
<path d="M174.472 139.574C174.472 139.574 176.524 139.987 177.111 138.266C177.698 136.546 179.711 132.017 177.95 130.507C176.189 128.997 174.773 132.5 174.773 132.5" stroke="#4D21FF" stroke-width="0.8" stroke-miterlimit="10" stroke-linecap="round" stroke-linejoin="round"/>
<path d="M153.365 136.344C153.976 136.316 154.981 135.72 155.303 135.199C155.625 134.678 155.761 134.066 155.866 133.462C156.066 132.307 156.169 131.134 156.172 129.962C156.174 129.504 156.162 129.036 156.295 128.598C156.435 128.142 156.724 127.747 157.034 127.384C157.804 126.481 158.732 125.718 159.465 124.784C160.198 123.85 160.736 122.667 160.538 121.496C160.538 121.496 165.546 126.074 172.764 124.658C176.65 123.896 180.38 120.486 179.926 116.199C179.764 114.674 178.643 113.577 177.188 113.215C175.267 112.737 173.541 113.761 171.801 114.418C168.627 115.615 165.523 113.559 162.317 113.215C159.575 112.92 156.211 113.26 154.783 115.986C154.783 115.986 149.858 116.565 147.701 120.609C145.544 124.654 149.644 130.253 149.644 130.253C149.644 130.253 151.294 128.256 153.415 132.3L153.365 136.344Z" fill="#4D21FF"/>
<path d="M172.422 123.314C172.422 123.314 171.148 129.951 174.471 133.164C174.471 133.164 175.198 131.169 175.936 130.682C175.936 130.682 177.785 127.176 175.354 123.314C172.923 119.453 172.422 123.314 172.422 123.314Z" fill="#4D21FF"/>
<path opacity="0.2" d="M178.509 115.763C178.017 117.592 176.471 119.007 174.717 119.721C170.104 121.6 165.623 119.516 161.005 119.108C157.23 118.774 153.069 122.175 152.805 126.05" stroke="#EDE9FF" stroke-width="0.8" stroke-miterlimit="10" stroke-linecap="round" stroke-linejoin="round"/>
<path opacity="0.2" d="M149.94 125.028C150.01 121.977 152.026 119.058 154.854 117.911" stroke="#EDE9FF" stroke-width="0.8" stroke-miterlimit="10" stroke-linecap="round" stroke-linejoin="round"/>
<path d="M155.872 150.423C155.872 150.423 158.912 153.772 163.056 155.338C163.056 155.338 168.578 153.736 171.389 149.886" stroke="#4D21FF" stroke-width="0.8" stroke-miterlimit="10" stroke-linecap="round" stroke-linejoin="round"/>
<path d="M161.519 140.783C163.973 139.658 165.049 136.757 163.924 134.304C162.799 131.85 159.898 130.774 157.445 131.899C154.991 133.024 153.915 135.925 155.04 138.378C156.165 140.832 159.066 141.908 161.519 140.783Z" stroke="#4D21FF" stroke-width="0.8" stroke-miterlimit="10" stroke-linecap="round" stroke-linejoin="round"/>
<path d="M170.976 141.191C173.654 140.862 175.559 138.424 175.23 135.746C174.901 133.067 172.463 131.162 169.784 131.491C167.106 131.82 165.201 134.258 165.53 136.937C165.859 139.616 168.297 141.52 170.976 141.191Z" stroke="#4D21FF" stroke-width="0.8" stroke-miterlimit="10" stroke-linecap="round" stroke-linejoin="round"/>
<path d="M156.936 148.6C156.936 148.6 155.45 148.901 154.585 150.423C153.72 151.945 154.242 156.738 154.242 156.738C154.242 156.738 158.707 161.157 162.509 163.021L163.63 156.713L165.371 163.021C165.371 163.021 171.259 158.857 172.889 155.337C172.889 155.337 173.421 151.233 172.889 149.885C172.358 148.537 171.132 148.6 171.132 148.6" stroke="#4D21FF" stroke-width="0.8" stroke-miterlimit="10" stroke-linecap="round" stroke-linejoin="round"/>
<path d="M149.94 190.78C149.94 190.78 148.197 179.086 145.875 174.316" stroke="#4D21FF" stroke-width="0.8" stroke-miterlimit="10" stroke-linecap="round" stroke-linejoin="round"/>
<path d="M140.853 163.935C140.853 163.935 143.059 167.028 144.465 169.979" stroke="#4D21FF" stroke-width="0.8" stroke-miterlimit="10" stroke-linecap="round" stroke-linejoin="round"/>
<path d="M186.716 172.665C187.33 170.335 187.983 168.291 188.635 166.957" stroke="#4D21FF" stroke-width="0.8" stroke-miterlimit="10" stroke-linecap="round" stroke-linejoin="round"/>
<path d="M183.108 190.78C183.108 190.78 184.368 182.763 185.866 176.156" stroke="#4D21FF" stroke-width="0.8" stroke-miterlimit="10" stroke-linecap="round" stroke-linejoin="round"/>
<path d="M185.243 179.53C186.442 177.929 188.181 176.74 190.108 176.203" stroke="#4D21FF" stroke-width="0.8" stroke-miterlimit="10" stroke-linecap="round" stroke-linejoin="round"/>
<path d="M173.125 154.274C173.125 154.274 183.265 158.324 189.809 160.624C189.809 160.624 197.86 168.196 206.492 194.421C206.492 194.421 198.58 207.727 183.535 211.993" stroke="#4D21FF" stroke-width="0.8" stroke-miterlimit="10" stroke-linecap="round" stroke-linejoin="round"/>
<path d="M186.148 199.721L193.417 193.652C193.417 193.652 197.263 190.729 201.262 192.729" stroke="#4D21FF" stroke-width="0.8" stroke-miterlimit="10" stroke-linecap="round" stroke-linejoin="round"/>
<path d="M185.866 178.796C185.866 178.796 191.879 187.653 193.417 193.652" stroke="#4D21FF" stroke-width="0.8" stroke-miterlimit="10" stroke-linecap="round" stroke-linejoin="round"/>
<path d="M144.787 195.681L142.659 193.652C142.659 193.652 139.501 193.1 135.925 195.497" stroke="#4D21FF" stroke-width="0.8" stroke-miterlimit="10" stroke-linecap="round" stroke-linejoin="round"/>
<path d="M142.659 193.652C142.659 193.652 145.301 184.973 147.907 180.492" stroke="#4D21FF" stroke-width="0.8" stroke-miterlimit="10" stroke-linecap="round" stroke-linejoin="round"/>
<path d="M154.086 155.338C154.086 155.338 139.501 160.81 138.071 162.404C136.641 163.998 131.206 194.607 131.063 198.11C130.935 201.241 142.296 208.277 147.908 211.243" stroke="#4D21FF" stroke-width="0.8" stroke-miterlimit="10" stroke-linecap="round" stroke-linejoin="round"/>
<path d="M206.889 150.423H190.269C188.307 150.423 186.716 148.832 186.716 146.87V137.12C186.716 135.157 188.307 133.566 190.269 133.566H206.889C208.851 133.566 210.443 135.157 210.443 137.12V146.87C210.442 148.832 208.851 150.423 206.889 150.423Z" fill="#EDE9FF" stroke="#4D21FF" stroke-width="0.8" stroke-miterlimit="10" stroke-linecap="round" stroke-linejoin="round"/>
<path d="M194.371 138.636L189.809 141.5L194.043 145.255" stroke="#4D21FF" stroke-width="0.8" stroke-miterlimit="10" stroke-linecap="round" stroke-linejoin="round"/>
<path d="M202.684 145.528L206.785 142.034L202.052 138.931" stroke="#4D21FF" stroke-width="0.8" stroke-miterlimit="10" stroke-linecap="round" stroke-linejoin="round"/>
<path d="M196.589 147.678L199.957 137.117" stroke="#4D21FF" stroke-width="0.8" stroke-miterlimit="10" stroke-linecap="round" stroke-linejoin="round"/>
<path d="M164.993 165.678C164.993 166.208 164.564 166.638 164.034 166.638C163.504 166.638 163.075 166.208 163.075 165.678C163.075 165.149 163.504 164.719 164.034 164.719C164.564 164.719 164.993 165.149 164.993 165.678Z" fill="#4D21FF"/>
<path d="M181.87 216.934H148.676C148.246 216.934 147.898 216.585 147.898 216.156C147.898 215.726 148.247 215.378 148.676 215.378H181.87C182.3 215.378 182.648 215.727 182.648 216.156C182.648 216.585 182.3 216.934 181.87 216.934Z" fill="#4D21FF"/>
<path d="M183.032 214.355L187.48 193.465C187.775 192.083 186.72 190.78 185.306 190.78H146.524C145.123 190.78 144.071 192.059 144.343 193.433L148.331 213.627C148.533 214.65 149.418 215.395 150.461 215.419L180.806 216.114C181.875 216.138 182.809 215.4 183.032 214.355Z" fill="#EDE9FF" stroke="#4D21FF" stroke-width="0.8" stroke-miterlimit="10" stroke-linecap="round" stroke-linejoin="round"/>
<path d="M168.879 202.817C168.879 204.527 167.493 205.914 165.782 205.914C164.072 205.914 162.686 204.528 162.686 202.817C162.686 201.108 164.072 199.721 165.782 199.721C167.493 199.721 168.879 201.108 168.879 202.817Z" fill="#4D21FF"/>
<path d="M174.964 192.762H179.572" stroke="#4D21FF" stroke-width="0.8" stroke-miterlimit="10" stroke-linecap="round" stroke-linejoin="round"/>
<path d="M152.96 192.762H170.45" stroke="#4D21FF" stroke-width="0.8" stroke-miterlimit="10" stroke-linecap="round" stroke-linejoin="round"/>
<path d="M183.108 236.515L179.572 245.795C179.572 245.795 170.556 243.523 159.005 241.155C146.926 238.68 134.31 235.475 127.765 223.995C126.967 222.595 126.437 220.941 126.81 219.374C127.755 215.408 132.913 214.332 136.314 213.935C138.448 213.686 140.603 213.603 142.75 213.573C143.844 213.558 147.457 212.984 148.33 213.627C148.33 213.627 150.597 215.295 152.528 216.114C154.459 216.934 182.647 215.378 182.647 215.378C182.647 215.378 183.486 213.608 183.534 211.994C187.964 209.741 198.225 207.834 202.561 208.677C209.379 210.003 213.356 213.979 212.598 218.146C211.841 222.312 196.796 233.485 183.108 236.515Z" fill="#4D21FF"/>
<path d="M183.108 236.515C183.108 236.515 174.534 234.243 167.526 229.508C160.519 224.774 155.045 219.282 145.283 220.418" stroke="#EDE9FF" stroke-width="0.8" stroke-miterlimit="10" stroke-linecap="round" stroke-linejoin="round"/>
<path d="M165.915 228.391C170.341 227.118 173.589 224.255 177.141 221.506C180.902 218.593 184.881 215.773 189.159 213.609" stroke="#EDE9FF" stroke-width="0.8" stroke-miterlimit="10" stroke-linecap="round" stroke-linejoin="round"/>
<path d="M164.359 137.117H165.657" stroke="#4D21FF" stroke-width="0.8" stroke-miterlimit="10" stroke-linecap="round" stroke-linejoin="round"/>
</svg>
