<svg width="272" height="272" viewBox="0 0 272 272" fill="none" xmlns="http://www.w3.org/2000/svg">
<path d="M247.63 104.828C246.151 99.3306 244.365 93.9842 242.324 88.8727C227.799 52.4998 196.661 25.0615 157.87 17.4319C119.312 9.84802 52.5977 20.2509 42.8607 67.1905C40.8452 76.9058 42.7274 86.9568 42.6757 96.8793C42.5767 115.762 34.4983 129.616 25.7073 145.524C19.0873 157.503 13.4504 171.259 16.592 184.581C18.6304 193.224 24.2009 200.662 30.6647 206.752C52.5526 227.37 81.872 231.591 110.632 226.873C124.259 224.638 137.536 218.683 151.008 216.997C168.264 214.838 185.688 220.38 202.87 216.616C219.364 213.003 233.316 200.993 241.457 186.2C255.002 161.583 254.773 131.365 247.63 104.828Z" fill="#00CC9B"/>
<path opacity="0.9" d="M247.63 104.828C246.151 99.3306 244.365 93.9842 242.324 88.8727C227.799 52.4998 196.661 25.0615 157.87 17.4319C119.312 9.84802 52.5977 20.2509 42.8607 67.1905C40.8452 76.9058 42.7274 86.9568 42.6757 96.8793C42.5767 115.762 34.4983 129.616 25.7073 145.524C19.0873 157.503 13.4504 171.259 16.592 184.581C18.6304 193.224 24.2009 200.662 30.6647 206.752C52.5526 227.37 81.872 231.591 110.632 226.873C124.259 224.638 137.536 218.683 151.008 216.997C168.264 214.838 185.688 220.38 202.87 216.616C219.364 213.003 233.316 200.993 241.457 186.2C255.002 161.583 254.773 131.365 247.63 104.828Z" fill="#EDE9FF"/>
<path d="M107.361 48.5052H65.5583V78.2207H107.361V48.5052Z" fill="#4D21FF" stroke="#4D21FF" stroke-width="0.8" stroke-miterlimit="10" stroke-linecap="round" stroke-linejoin="round"/>
<path d="M105.598 50.2678H67.3208V76.4576H105.598V50.2678Z" fill="#EDE9FF" stroke="#4D21FF" stroke-width="0.8" stroke-miterlimit="10" stroke-linecap="round" stroke-linejoin="round"/>
<path d="M74.0884 59.3042H99.1037" stroke="#4D21FF" stroke-width="0.8" stroke-miterlimit="10" stroke-linecap="round" stroke-linejoin="round"/>
<path d="M69.9397 63.3265H102.623" stroke="#4D21FF" stroke-width="0.8" stroke-miterlimit="10" stroke-linecap="round" stroke-linejoin="round"/>
<path d="M69.9397 71.8744H77.3566" stroke="#4D21FF" stroke-width="0.8" stroke-miterlimit="10" stroke-linecap="round" stroke-linejoin="round"/>
<path d="M95.3325 71.8744H102.749" stroke="#4D21FF" stroke-width="0.8" stroke-miterlimit="10" stroke-linecap="round" stroke-linejoin="round"/>
<path d="M85.2761 68.7317L84.2703 74.7657L86.4071 73.2572L88.2931 74.64L86.9103 68.229L85.2761 68.7317Z" fill="#4D21FF" stroke="#4D21FF" stroke-width="0.8" stroke-miterlimit="10" stroke-linecap="round" stroke-linejoin="round"/>
<path d="M88.5446 67.4751C88.5446 66.1559 87.4751 65.0869 86.1565 65.0869C84.8373 65.0869 83.7683 66.1564 83.7683 67.4751C83.7683 68.7943 84.8378 69.8632 86.1565 69.8632C87.4751 69.8632 88.5446 68.7937 88.5446 67.4751Z" fill="#00CC9B" stroke="#4D21FF" stroke-width="0.8" stroke-miterlimit="10"/>
<path d="M156.588 25.098H114.784V73.6408H156.588V25.098Z" fill="#4D21FF" stroke="#4D21FF" stroke-width="0.8" stroke-miterlimit="10" stroke-linecap="round" stroke-linejoin="round"/>
<path d="M154.824 27.9779H116.547V70.7613H154.824V27.9779Z" fill="#EDE9FF" stroke="#4D21FF" stroke-width="0.8" stroke-miterlimit="10" stroke-linecap="round" stroke-linejoin="round"/>
<path d="M152.249 30.8562H119.123V67.8819H152.249V30.8562Z" fill="#EDE9FF" stroke="#4D21FF" stroke-width="0.8" stroke-miterlimit="10" stroke-linecap="round" stroke-linejoin="round"/>
<path d="M124.396 35.897H147.191" stroke="#4D21FF" stroke-width="0.8" stroke-miterlimit="10" stroke-linecap="round" stroke-linejoin="round"/>
<path d="M120.616 39.9198H150.399" stroke="#4D21FF" stroke-width="0.8" stroke-miterlimit="10" stroke-linecap="round" stroke-linejoin="round"/>
<path d="M121.392 62.5638H128.808" stroke="#4D21FF" stroke-width="0.8" stroke-miterlimit="10" stroke-linecap="round" stroke-linejoin="round"/>
<path d="M142.827 62.5638H150.244" stroke="#4D21FF" stroke-width="0.8" stroke-miterlimit="10" stroke-linecap="round" stroke-linejoin="round"/>
<path d="M143.059 48.5189L141.38 58.5916L144.947 56.0734L148.095 58.3816L145.787 47.6801L143.059 48.5189Z" fill="#4D21FF" stroke="#4D21FF" stroke-width="0.8" stroke-miterlimit="10" stroke-linecap="round" stroke-linejoin="round"/>
<path d="M145.436 50.3054C147.58 49.8011 148.909 47.6548 148.404 45.5114C147.9 43.3681 145.754 42.0393 143.61 42.5435C141.467 43.0478 140.138 45.1941 140.643 47.3375C141.147 49.4808 143.293 50.8096 145.436 50.3054Z" fill="#00CC9B" stroke="#4D21FF" stroke-width="0.8" stroke-miterlimit="10"/>
<path d="M205.686 48.5052H163.883V78.2207H205.686V48.5052Z" fill="#4D21FF" stroke="#4D21FF" stroke-width="0.8" stroke-miterlimit="10" stroke-linecap="round" stroke-linejoin="round"/>
<path d="M203.798 53.3501C202.319 53.3501 201.12 52.1512 201.12 50.672C201.12 50.5344 201.134 50.4 201.154 50.2678H168.392C168.413 50.4 168.426 50.5344 168.426 50.672C168.426 52.1512 167.227 53.3501 165.748 53.3501C165.713 53.3501 165.68 53.3463 165.646 53.3452V73.3291C165.68 73.328 165.714 73.3236 165.748 73.3236C167.227 73.3236 168.426 74.5226 168.426 76.0017C168.426 76.1579 168.41 76.3096 168.384 76.4582H201.161C201.136 76.3096 201.119 76.1573 201.119 76.0017C201.119 74.5226 202.318 73.3236 203.798 73.3236C203.84 73.3236 203.881 73.328 203.923 73.3302V53.3436C203.882 53.3458 203.841 53.3501 203.798 53.3501Z" fill="#EDE9FF" stroke="#4D21FF" stroke-width="0.8" stroke-miterlimit="10" stroke-linecap="round" stroke-linejoin="round"/>
<path d="M177.818 59.3042H197.429" stroke="#4D21FF" stroke-width="0.8" stroke-miterlimit="10" stroke-linecap="round" stroke-linejoin="round"/>
<path d="M177.592 63.3265H200.949" stroke="#4D21FF" stroke-width="0.8" stroke-miterlimit="10" stroke-linecap="round" stroke-linejoin="round"/>
<path d="M168.265 71.8744H175.681" stroke="#4D21FF" stroke-width="0.8" stroke-miterlimit="10" stroke-linecap="round" stroke-linejoin="round"/>
<path d="M193.657 71.8744H201.074" stroke="#4D21FF" stroke-width="0.8" stroke-miterlimit="10" stroke-linecap="round" stroke-linejoin="round"/>
<path d="M171.274 59.6311L169.918 67.7699L172.8 65.7353L175.344 67.6007L173.478 58.9528L171.274 59.6311Z" fill="#4D21FF" stroke="#4D21FF" stroke-width="0.8" stroke-miterlimit="10" stroke-linecap="round" stroke-linejoin="round"/>
<path d="M175.683 57.9354C175.683 56.156 174.24 54.7139 172.461 54.7139C170.682 54.7139 169.24 56.156 169.24 57.9354C169.24 59.7149 170.682 61.157 172.461 61.157C174.24 61.157 175.683 59.7149 175.683 57.9354Z" fill="#00CC9B" stroke="#4D21FF" stroke-width="0.8" stroke-miterlimit="10"/>
<path d="M222.383 85.4684H180.193V119.454H222.383V85.4684Z" stroke="#4D21FF" stroke-width="0.8" stroke-miterlimit="10" stroke-linecap="round" stroke-linejoin="round"/>
<path d="M220.2 87.2261H182.375V117.696H220.2V87.2261Z" fill="#4D21FF" stroke="#4D21FF" stroke-width="0.8" stroke-miterlimit="10" stroke-linecap="round" stroke-linejoin="round"/>
<path d="M216.927 89.8628H185.649V115.059H216.927V89.8628Z" fill="#EDE9FF" stroke="#4D21FF" stroke-width="0.8" stroke-miterlimit="10" stroke-linecap="round" stroke-linejoin="round"/>
<path d="M189.083 106.227L188.143 111.864L190.14 110.455L191.902 111.747L190.61 105.757L189.083 106.227Z" fill="#4D21FF" stroke="#4D21FF" stroke-width="0.8" stroke-miterlimit="10" stroke-linecap="round" stroke-linejoin="round"/>
<path d="M189.905 107.284C191.137 107.284 192.136 106.285 192.136 105.052C192.136 103.82 191.137 102.821 189.905 102.821C188.672 102.821 187.673 103.82 187.673 105.052C187.673 106.285 188.672 107.284 189.905 107.284Z" fill="#00CC9B" stroke="#4D21FF" stroke-width="0.8" stroke-miterlimit="10"/>
<path d="M213.948 98.2975C211.863 94.4585 206.979 91.7646 201.288 91.7646C195.975 91.7646 191.366 94.112 189.08 97.5479" stroke="#4D21FF" stroke-width="0.8" stroke-miterlimit="10" stroke-linecap="round" stroke-linejoin="round"/>
<path d="M193.594 101.399H209.609" stroke="#4D21FF" stroke-width="0.8" stroke-miterlimit="10" stroke-linecap="round" stroke-linejoin="round"/>
<path d="M193.594 103.926H209.609" stroke="#4D21FF" stroke-width="0.8" stroke-miterlimit="10" stroke-linecap="round" stroke-linejoin="round"/>
<path d="M193.594 109.771H209.609" stroke="#4D21FF" stroke-width="0.8" stroke-miterlimit="10" stroke-linecap="round" stroke-linejoin="round"/>
<path d="M89.5788 85.4684H47.3894V119.454H89.5788V85.4684Z" stroke="#4D21FF" stroke-width="0.8" stroke-miterlimit="10" stroke-linecap="round" stroke-linejoin="round"/>
<path d="M87.3969 87.2261H49.572V117.696H87.3969V87.2261Z" fill="#4D21FF" stroke="#4D21FF" stroke-width="0.8" stroke-miterlimit="10" stroke-linecap="round" stroke-linejoin="round"/>
<path d="M84.1236 89.8628H52.8452V115.059H84.1236V89.8628Z" fill="#EDE9FF" stroke="#4D21FF" stroke-width="0.8" stroke-miterlimit="10" stroke-linecap="round" stroke-linejoin="round"/>
<path d="M56.2788 106.227L55.3394 111.864L57.3358 110.455L59.0979 111.747L57.8059 105.757L56.2788 106.227Z" fill="#4D21FF" stroke="#4D21FF" stroke-width="0.8" stroke-miterlimit="10" stroke-linecap="round" stroke-linejoin="round"/>
<path d="M57.1014 107.284C58.3338 107.284 59.3329 106.285 59.3329 105.052C59.3329 103.82 58.3338 102.821 57.1014 102.821C55.8689 102.821 54.8699 103.82 54.8699 105.052C54.8699 106.285 55.8689 107.284 57.1014 107.284Z" fill="#00CC9B" stroke="#4D21FF" stroke-width="0.8" stroke-miterlimit="10"/>
<path d="M81.1445 98.2975C79.0588 94.4585 74.1754 91.7646 68.484 91.7646C63.1708 91.7646 58.562 94.112 56.2761 97.5479" stroke="#4D21FF" stroke-width="0.8" stroke-miterlimit="10" stroke-linecap="round" stroke-linejoin="round"/>
<path d="M60.7903 101.399H76.8051" stroke="#4D21FF" stroke-width="0.8" stroke-miterlimit="10" stroke-linecap="round" stroke-linejoin="round"/>
<path d="M60.7903 103.926H76.8051" stroke="#4D21FF" stroke-width="0.8" stroke-miterlimit="10" stroke-linecap="round" stroke-linejoin="round"/>
<path d="M60.7903 109.771H76.8051" stroke="#4D21FF" stroke-width="0.8" stroke-miterlimit="10" stroke-linecap="round" stroke-linejoin="round"/>
<path d="M181.972 188.585V257.077H178.681V188.585H176.586V259.217H177.055H178.681H181.972H184.068V257.077V188.585H181.972Z" fill="#4D21FF" stroke="#4D21FF" stroke-width="0.8" stroke-miterlimit="10" stroke-linecap="round" stroke-linejoin="round"/>
<path d="M243.925 188.585V257.077H240.932V188.585H238.837V259.217H238.852H240.932H243.925H245.865H246.02V188.585H243.925Z" fill="#4D21FF" stroke="#4D21FF" stroke-width="0.8" stroke-miterlimit="10" stroke-linecap="round" stroke-linejoin="round"/>
<path d="M241.194 166.737H181.412C179.903 166.737 178.68 167.96 178.68 169.468V211.293C178.68 212.802 179.903 214.025 181.412 214.025H241.194C242.702 214.025 243.925 212.802 243.925 211.293V169.468C243.925 167.96 242.702 166.737 241.194 166.737Z" fill="#EDE9FF" stroke="#4D21FF" stroke-width="0.8" stroke-miterlimit="10" stroke-linecap="round" stroke-linejoin="round"/>
<path d="M243.776 224.136H178.531C177.787 224.136 177.184 223.533 177.184 222.789V213.212C177.184 212.468 177.787 211.865 178.531 211.865L209.211 213.229C211.544 213.333 213.881 213.327 216.214 213.213L243.776 211.865C244.52 211.865 245.123 212.467 245.123 213.212V222.789C245.123 223.533 244.519 224.136 243.776 224.136Z" fill="#EDE9FF" stroke="#4D21FF" stroke-width="0.8" stroke-miterlimit="10" stroke-linecap="round" stroke-linejoin="round"/>
<path d="M23.3921 259.217H256.224" stroke="#4D21FF" stroke-width="0.8" stroke-miterlimit="10" stroke-linecap="round" stroke-linejoin="round"/>
<path d="M39.0454 161.352L46.7642 235.317" stroke="#4D21FF" stroke-width="0.8" stroke-miterlimit="10" stroke-linecap="round" stroke-linejoin="round"/>
<path d="M45.2434 220.854L42.0212 217.466" stroke="#4D21FF" stroke-width="0.8" stroke-miterlimit="10" stroke-linecap="round" stroke-linejoin="round"/>
<path d="M43.0842 218.573C43.0842 218.573 43.1843 216.939 41.6915 215.605C40.7934 214.803 36.066 212.814 35.6172 214.479C35.1293 216.29 39.9682 219.846 43.0842 218.573Z" fill="#00CC9B" stroke="#4D21FF" stroke-width="0.8" stroke-miterlimit="10"/>
<path d="M43.0842 218.573L38.5837 215.769" stroke="#4D21FF" stroke-width="0.8" stroke-miterlimit="10" stroke-linecap="round" stroke-linejoin="round"/>
<path d="M46.0441 228.494L42.8987 225.878" stroke="#4D21FF" stroke-width="0.8" stroke-miterlimit="10" stroke-linecap="round" stroke-linejoin="round"/>
<path d="M43.9621 226.986C43.9621 226.986 44.0622 225.351 42.5695 224.018C41.6713 223.215 36.944 221.227 36.4952 222.892C36.0072 224.702 40.8455 228.258 43.9621 226.986Z" fill="#00CC9B" stroke="#4D21FF" stroke-width="0.8" stroke-miterlimit="10"/>
<path d="M43.9622 226.986L39.4617 224.181" stroke="#4D21FF" stroke-width="0.8" stroke-miterlimit="10" stroke-linecap="round" stroke-linejoin="round"/>
<path d="M43.0564 199.798L39.8789 196.939" stroke="#4D21FF" stroke-width="0.8" stroke-miterlimit="10" stroke-linecap="round" stroke-linejoin="round"/>
<path d="M40.9419 198.046C40.9419 198.046 41.0419 196.412 39.5492 195.078C38.6511 194.276 33.9237 192.288 33.4749 193.952C32.9869 195.763 37.8258 199.319 40.9419 198.046Z" fill="#00CC9B" stroke="#4D21FF" stroke-width="0.8" stroke-miterlimit="10"/>
<path d="M40.9419 198.047L36.4414 195.242" stroke="#4D21FF" stroke-width="0.8" stroke-miterlimit="10" stroke-linecap="round" stroke-linejoin="round"/>
<path d="M43.9426 208.743L40.7563 205.351" stroke="#4D21FF" stroke-width="0.8" stroke-miterlimit="10" stroke-linecap="round" stroke-linejoin="round"/>
<path d="M41.8198 206.459C41.8198 206.459 41.9199 204.824 40.4272 203.491C39.529 202.688 34.8017 200.7 34.3534 202.365C33.8649 204.175 38.7038 207.731 41.8198 206.459Z" fill="#00CC9B" stroke="#4D21FF" stroke-width="0.8" stroke-miterlimit="10"/>
<path d="M41.8198 206.459L37.3193 203.654" stroke="#4D21FF" stroke-width="0.8" stroke-miterlimit="10" stroke-linecap="round" stroke-linejoin="round"/>
<path d="M41.6405 186.524L38.4526 183.275" stroke="#4D21FF" stroke-width="0.8" stroke-miterlimit="10" stroke-linecap="round" stroke-linejoin="round"/>
<path d="M39.5161 184.382C39.5161 184.382 39.6162 182.748 38.1234 181.414C37.2253 180.612 32.4979 178.624 32.0491 180.288C31.5612 182.099 36.3995 185.655 39.5161 184.382Z" fill="#00CC9B" stroke="#4D21FF" stroke-width="0.8" stroke-miterlimit="10"/>
<path d="M39.5161 184.382L35.0156 181.578" stroke="#4D21FF" stroke-width="0.8" stroke-miterlimit="10" stroke-linecap="round" stroke-linejoin="round"/>
<path d="M40.1058 171.911L37.0203 169.55" stroke="#4D21FF" stroke-width="0.8" stroke-miterlimit="10" stroke-linecap="round" stroke-linejoin="round"/>
<path d="M38.0837 170.658C38.0837 170.658 38.1838 169.022 36.6911 167.689C35.7929 166.887 31.0656 164.898 30.6168 166.563C30.1288 168.375 34.9677 171.931 38.0837 170.658Z" fill="#00CC9B" stroke="#4D21FF" stroke-width="0.8" stroke-miterlimit="10"/>
<path d="M38.0838 170.658L33.5833 167.853" stroke="#4D21FF" stroke-width="0.8" stroke-miterlimit="10" stroke-linecap="round" stroke-linejoin="round"/>
<path d="M44.9321 216.185L47.5928 211.846" stroke="#4D21FF" stroke-width="0.8" stroke-miterlimit="10" stroke-linecap="round" stroke-linejoin="round"/>
<path d="M46.7811 213.149C46.7811 213.149 46.3453 211.57 47.5312 209.957C48.2444 208.987 52.4593 206.065 53.2422 207.601C54.093 209.272 50.0929 213.751 46.7811 213.149Z" fill="#00CC9B" stroke="#4D21FF" stroke-width="0.8" stroke-miterlimit="10"/>
<path d="M46.7812 213.149L49.9479 210.178" stroke="#4D21FF" stroke-width="0.8" stroke-miterlimit="10" stroke-linecap="round" stroke-linejoin="round"/>
<path d="M42.6218 194.049L45.2831 189.71" stroke="#4D21FF" stroke-width="0.8" stroke-miterlimit="10" stroke-linecap="round" stroke-linejoin="round"/>
<path d="M44.4715 191.013C44.4715 191.013 44.0358 189.434 45.2212 187.821C45.9344 186.851 49.2321 184.42 50.0144 185.957C50.8657 187.628 47.7834 191.615 44.4715 191.013Z" fill="#00CC9B" stroke="#4D21FF" stroke-width="0.8" stroke-miterlimit="10"/>
<path d="M44.4714 191.013L48.5237 187.14" stroke="#4D21FF" stroke-width="0.8" stroke-miterlimit="10" stroke-linecap="round" stroke-linejoin="round"/>
<path d="M41.6067 184.321L44.2674 179.982" stroke="#4D21FF" stroke-width="0.8" stroke-miterlimit="10" stroke-linecap="round" stroke-linejoin="round"/>
<path d="M43.4556 181.285C43.4556 181.285 43.0199 179.706 44.2058 178.093C44.919 177.122 49.1339 174.2 49.9162 175.737C50.7681 177.408 46.7675 181.887 43.4556 181.285Z" fill="#00CC9B" stroke="#4D21FF" stroke-width="0.8" stroke-miterlimit="10"/>
<path d="M43.4558 181.285L47.5086 177.411" stroke="#4D21FF" stroke-width="0.8" stroke-miterlimit="10" stroke-linecap="round" stroke-linejoin="round"/>
<path d="M40.1184 170.059L42.7797 165.72" stroke="#4D21FF" stroke-width="0.8" stroke-miterlimit="10" stroke-linecap="round" stroke-linejoin="round"/>
<path d="M41.9673 167.024C41.9673 167.024 41.5316 165.445 42.7175 163.832C43.4307 162.861 47.6456 159.939 48.4284 161.476C49.2798 163.147 45.2798 167.625 41.9673 167.024Z" fill="#00CC9B" stroke="#4D21FF" stroke-width="0.8" stroke-miterlimit="10"/>
<path d="M41.9673 167.024L46.0201 163.151" stroke="#4D21FF" stroke-width="0.8" stroke-miterlimit="10" stroke-linecap="round" stroke-linejoin="round"/>
<path d="M38.9803 160.941C38.9803 160.941 38.5445 159.362 39.7305 157.75C40.4436 156.779 44.6586 153.857 45.4414 155.394C46.2922 157.064 42.2922 161.543 38.9803 160.941Z" fill="#00CC9B" stroke="#4D21FF" stroke-width="0.8" stroke-miterlimit="10"/>
<path d="M38.9802 160.941L43.0325 157.068" stroke="#4D21FF" stroke-width="0.8" stroke-miterlimit="10" stroke-linecap="round" stroke-linejoin="round"/>
<path d="M39.2153 161.108C39.2153 161.108 37.599 161.376 36.1194 160.028C35.2294 159.217 32.765 154.719 34.3753 154.102C36.1264 153.43 40.1613 157.878 39.2153 161.108Z" fill="#00CC9B" stroke="#4D21FF" stroke-width="0.8" stroke-miterlimit="10"/>
<path d="M39.2153 161.108L35.7881 156.672" stroke="#4D21FF" stroke-width="0.8" stroke-miterlimit="10" stroke-linecap="round" stroke-linejoin="round"/>
<path d="M50.6086 141.418V234.957" stroke="#4D21FF" stroke-width="0.8" stroke-miterlimit="10" stroke-linecap="round" stroke-linejoin="round"/>
<path d="M59.4048 171.538L51.7295 245.508" stroke="#4D21FF" stroke-width="0.8" stroke-miterlimit="10" stroke-linecap="round" stroke-linejoin="round"/>
<path d="M53.3505 230.396L51.5754 228.365" stroke="#4D21FF" stroke-width="0.8" stroke-miterlimit="10" stroke-linecap="round" stroke-linejoin="round"/>
<path d="M51.5754 228.365C51.5754 228.365 52.0101 226.786 50.8236 225.174C50.1099 224.204 45.8934 221.284 45.1116 222.821C44.2614 224.493 48.2636 228.969 51.5754 228.365Z" fill="#00CC9B" stroke="#4D21FF" stroke-width="0.8" stroke-miterlimit="10"/>
<path d="M51.5755 228.365L47.749 224.694" stroke="#4D21FF" stroke-width="0.8" stroke-miterlimit="10" stroke-linecap="round" stroke-linejoin="round"/>
<path d="M55.5195 209.277L52.8838 207.075" stroke="#4D21FF" stroke-width="0.8" stroke-miterlimit="10" stroke-linecap="round" stroke-linejoin="round"/>
<path d="M53.7053 207.837C53.7053 207.837 54.14 206.258 52.9535 204.646C52.2398 203.676 48.0232 200.756 47.2415 202.293C46.3912 203.965 50.394 208.441 53.7053 207.837Z" fill="#00CC9B" stroke="#4D21FF" stroke-width="0.8" stroke-miterlimit="10"/>
<path d="M53.7054 207.837L49.8789 204.166" stroke="#4D21FF" stroke-width="0.8" stroke-miterlimit="10" stroke-linecap="round" stroke-linejoin="round"/>
<path d="M54.6832 219.284L52.0198 214.947" stroke="#4D21FF" stroke-width="0.8" stroke-miterlimit="10" stroke-linecap="round" stroke-linejoin="round"/>
<path d="M52.8325 216.25C52.8325 216.25 53.2672 214.671 52.0807 213.058C51.367 212.088 47.1504 209.169 46.3687 210.706C45.5184 212.377 49.5206 216.854 52.8325 216.25Z" fill="#00CC9B" stroke="#4D21FF" stroke-width="0.8" stroke-miterlimit="10"/>
<path d="M52.8326 216.25L49.0061 212.579" stroke="#4D21FF" stroke-width="0.8" stroke-miterlimit="10" stroke-linecap="round" stroke-linejoin="round"/>
<path d="M56.8539 195.799L54.3113 192.869" stroke="#4D21FF" stroke-width="0.8" stroke-miterlimit="10" stroke-linecap="round" stroke-linejoin="round"/>
<path d="M55.1235 194.172C55.1235 194.172 55.5582 192.592 54.3717 190.98C53.658 190.01 49.4414 187.09 48.6597 188.628C47.8094 190.299 51.8122 194.775 55.1235 194.172Z" fill="#00CC9B" stroke="#4D21FF" stroke-width="0.8" stroke-miterlimit="10"/>
<path d="M55.1236 194.172L51.2971 190.501" stroke="#4D21FF" stroke-width="0.8" stroke-miterlimit="10" stroke-linecap="round" stroke-linejoin="round"/>
<path d="M58.1883 182.954L55.7349 179.144" stroke="#4D21FF" stroke-width="0.8" stroke-miterlimit="10" stroke-linecap="round" stroke-linejoin="round"/>
<path d="M56.5476 180.446C56.5476 180.446 56.9823 178.867 55.7958 177.255C55.0821 176.285 50.8655 173.365 50.0838 174.902C49.2335 176.574 53.2357 181.051 56.5476 180.446Z" fill="#00CC9B" stroke="#4D21FF" stroke-width="0.8" stroke-miterlimit="10"/>
<path d="M56.5477 180.446L52.7212 176.776" stroke="#4D21FF" stroke-width="0.8" stroke-miterlimit="10" stroke-linecap="round" stroke-linejoin="round"/>
<path d="M53.8755 226.409L57.3729 222.71" stroke="#4D21FF" stroke-width="0.8" stroke-miterlimit="10" stroke-linecap="round" stroke-linejoin="round"/>
<path d="M56.3098 223.819C56.3098 223.819 56.2086 222.184 57.7008 220.849C58.5984 220.046 63.3247 218.055 63.774 219.72C64.2636 221.53 59.4269 225.089 56.3098 223.819Z" fill="#00CC9B" stroke="#4D21FF" stroke-width="0.8" stroke-miterlimit="10"/>
<path d="M56.3098 223.819L61.0731 220.862" stroke="#4D21FF" stroke-width="0.8" stroke-miterlimit="10" stroke-linecap="round" stroke-linejoin="round"/>
<path d="M56.1721 204.271L59.6695 200.573" stroke="#4D21FF" stroke-width="0.8" stroke-miterlimit="10" stroke-linecap="round" stroke-linejoin="round"/>
<path d="M58.6072 201.681C58.6072 201.681 58.506 200.046 59.9982 198.712C60.8958 197.909 65.622 195.918 66.0714 197.582C66.5604 199.392 61.7243 202.952 58.6072 201.681Z" fill="#00CC9B" stroke="#4D21FF" stroke-width="0.8" stroke-miterlimit="10"/>
<path d="M58.6072 201.681L63.3704 198.725" stroke="#4D21FF" stroke-width="0.8" stroke-miterlimit="10" stroke-linecap="round" stroke-linejoin="round"/>
<path d="M57.1819 194.543L60.6793 190.844" stroke="#4D21FF" stroke-width="0.8" stroke-miterlimit="10" stroke-linecap="round" stroke-linejoin="round"/>
<path d="M59.6169 191.952C59.6169 191.952 59.5157 190.317 61.0079 188.983C61.9055 188.18 66.6318 186.188 67.0811 187.853C67.5702 189.664 62.7335 193.223 59.6169 191.952Z" fill="#00CC9B" stroke="#4D21FF" stroke-width="0.8" stroke-miterlimit="10"/>
<path d="M59.6169 191.952L64.3797 188.996" stroke="#4D21FF" stroke-width="0.8" stroke-miterlimit="10" stroke-linecap="round" stroke-linejoin="round"/>
<path d="M58.6218 179.551L62.1589 176.582" stroke="#4D21FF" stroke-width="0.8" stroke-miterlimit="10" stroke-linecap="round" stroke-linejoin="round"/>
<path d="M61.0964 177.69C61.0964 177.69 60.9952 176.055 62.4874 174.721C63.385 173.918 68.1113 171.926 68.5606 173.591C69.0497 175.402 64.2135 178.961 61.0964 177.69Z" fill="#00CC9B" stroke="#4D21FF" stroke-width="0.8" stroke-miterlimit="10"/>
<path d="M61.0964 177.69L65.8597 174.734" stroke="#4D21FF" stroke-width="0.8" stroke-miterlimit="10"/>
<path d="M59.4258 171.123C59.4258 171.123 59.3246 169.488 60.8168 168.154C61.7144 167.351 66.4406 165.36 66.89 167.024C67.379 168.835 62.5423 172.394 59.4258 171.123Z" fill="#00CC9B" stroke="#4D21FF" stroke-width="0.8" stroke-miterlimit="10"/>
<path d="M59.4258 171.123L64.1885 168.167" stroke="#4D21FF" stroke-width="0.8" stroke-miterlimit="10" stroke-linecap="round" stroke-linejoin="round"/>
<path d="M59.6211 171.335C59.6211 171.335 57.9848 171.264 56.8141 169.64C56.1102 168.663 54.6251 163.755 56.3278 163.482C58.1795 163.185 61.2118 168.368 59.6211 171.335Z" fill="#00CC9B" stroke="#4D21FF" stroke-width="0.8" stroke-miterlimit="10"/>
<path d="M59.621 171.335L57.1807 166.288" stroke="#4D21FF" stroke-width="0.8" stroke-miterlimit="10" stroke-linecap="round" stroke-linejoin="round"/>
<path d="M50.4816 220.72L47.5864 216.853" stroke="#4D21FF" stroke-width="0.8" stroke-miterlimit="10" stroke-linecap="round" stroke-linejoin="round"/>
<path d="M48.5292 218.065C48.5292 218.065 48.7984 216.449 47.452 214.968C46.642 214.077 42.1464 211.608 41.5279 213.218C40.8544 214.968 45.2978 219.007 48.5292 218.065Z" fill="#00CC9B" stroke="#4D21FF" stroke-width="0.8" stroke-miterlimit="10"/>
<path d="M48.5292 218.065L44.3442 214.809" stroke="#4D21FF" stroke-width="0.8" stroke-miterlimit="10" stroke-linecap="round" stroke-linejoin="round"/>
<path d="M50.5822 202.065L47.5864 199.275" stroke="#4D21FF" stroke-width="0.8" stroke-miterlimit="10" stroke-linecap="round" stroke-linejoin="round"/>
<path d="M48.5292 200.486C48.5292 200.486 48.7984 198.871 47.452 197.389C46.642 196.498 42.1464 194.03 41.5279 195.639C40.8544 197.39 45.2978 201.429 48.5292 200.486Z" fill="#00CC9B" stroke="#4D21FF" stroke-width="0.8" stroke-miterlimit="10"/>
<path d="M48.5292 200.486L44.3442 197.23" stroke="#4D21FF" stroke-width="0.8" stroke-miterlimit="10" stroke-linecap="round" stroke-linejoin="round"/>
<path d="M50.6834 182.676L47.5864 178.636" stroke="#4D21FF" stroke-width="0.8" stroke-miterlimit="10" stroke-linecap="round" stroke-linejoin="round"/>
<path d="M48.5292 179.848C48.5292 179.848 48.7984 178.232 47.452 176.751C46.642 175.86 42.1464 173.391 41.5279 175C40.8544 176.752 45.2978 180.791 48.5292 179.848Z" fill="#00CC9B" stroke="#4D21FF" stroke-width="0.8" stroke-miterlimit="10"/>
<path d="M48.5292 179.848L44.3442 176.592" stroke="#4D21FF" stroke-width="0.8" stroke-miterlimit="10" stroke-linecap="round" stroke-linejoin="round"/>
<path d="M50.4816 167.507L47.5864 164.898" stroke="#4D21FF" stroke-width="0.8" stroke-miterlimit="10" stroke-linecap="round" stroke-linejoin="round"/>
<path d="M48.5292 166.109C48.5292 166.109 48.7984 164.494 47.452 163.012C46.642 162.121 42.1464 159.653 41.5279 161.262C40.8544 163.012 45.2978 167.052 48.5292 166.109Z" fill="#00CC9B" stroke="#4D21FF" stroke-width="0.8" stroke-miterlimit="10"/>
<path d="M48.5292 166.109L44.3442 162.853" stroke="#4D21FF" stroke-width="0.8" stroke-miterlimit="10" stroke-linecap="round" stroke-linejoin="round"/>
<path d="M50.6486 153.762L47.6458 151.559" stroke="#4D21FF" stroke-width="0.8" stroke-miterlimit="10" stroke-linecap="round" stroke-linejoin="round"/>
<path d="M48.5292 152.311C48.5292 152.311 48.7984 150.695 47.452 149.214C46.642 148.323 42.1464 145.854 41.5279 147.463C40.8544 149.214 45.2978 153.253 48.5292 152.311Z" fill="#00CC9B" stroke="#4D21FF" stroke-width="0.8" stroke-miterlimit="10"/>
<path d="M48.5292 152.311L44.3442 149.054" stroke="#4D21FF" stroke-width="0.8" stroke-miterlimit="10" stroke-linecap="round" stroke-linejoin="round"/>
<path d="M51.2153 225.391L53.7117 222.221" stroke="#4D21FF" stroke-width="0.8" stroke-miterlimit="10" stroke-linecap="round" stroke-linejoin="round"/>
<path d="M52.7695 223.433C52.7695 223.433 52.5003 221.817 53.8467 220.336C54.6567 219.445 59.1523 216.976 59.7708 218.585C60.4437 220.336 56.0009 224.376 52.7695 223.433Z" fill="#00CC9B" stroke="#4D21FF" stroke-width="0.8" stroke-miterlimit="10"/>
<path d="M52.7695 223.433L57.202 220.001" stroke="#4D21FF" stroke-width="0.8" stroke-miterlimit="10" stroke-linecap="round" stroke-linejoin="round"/>
<path d="M50.6147 198.303L53.7117 194.263" stroke="#4D21FF" stroke-width="0.8" stroke-miterlimit="10" stroke-linecap="round" stroke-linejoin="round"/>
<path d="M52.7695 195.475C52.7695 195.475 52.5003 193.859 53.8467 192.378C54.6567 191.487 59.1523 189.018 59.7708 190.627C60.4437 192.378 56.0009 196.418 52.7695 195.475Z" fill="#00CC9B" stroke="#4D21FF" stroke-width="0.8" stroke-miterlimit="10"/>
<path d="M52.7695 195.475L57.202 192.043" stroke="#4D21FF" stroke-width="0.8" stroke-miterlimit="10" stroke-linecap="round" stroke-linejoin="round"/>
<path d="M50.6147 184.504L53.7117 180.464" stroke="#4D21FF" stroke-width="0.8" stroke-miterlimit="10" stroke-linecap="round" stroke-linejoin="round"/>
<path d="M52.7695 181.676C52.7695 181.676 52.5003 180.061 53.8467 178.579C54.6567 177.688 59.1523 175.22 59.7708 176.829C60.4437 178.579 56.0009 182.619 52.7695 181.676Z" fill="#00CC9B" stroke="#4D21FF" stroke-width="0.8" stroke-miterlimit="10"/>
<path d="M52.7695 181.676L57.202 178.245" stroke="#4D21FF" stroke-width="0.8" stroke-miterlimit="10" stroke-linecap="round" stroke-linejoin="round"/>
<path d="M50.6147 166.265L53.7117 162.226" stroke="#4D21FF" stroke-width="0.8" stroke-miterlimit="10" stroke-linecap="round" stroke-linejoin="round"/>
<path d="M52.7695 163.438C52.7695 163.438 52.5003 161.822 53.8467 160.341C54.6567 159.45 59.1523 156.981 59.7708 158.59C60.4437 160.341 56.0009 164.38 52.7695 163.438Z" fill="#00CC9B" stroke="#4D21FF" stroke-width="0.8" stroke-miterlimit="10"/>
<path d="M52.7695 163.438L57.202 160.006" stroke="#4D21FF" stroke-width="0.8" stroke-miterlimit="10" stroke-linecap="round" stroke-linejoin="round"/>
<path d="M50.7485 150.525L53.7841 148.157" stroke="#4D21FF" stroke-width="0.8" stroke-miterlimit="10" stroke-linecap="round" stroke-linejoin="round"/>
<path d="M52.7695 149.099C52.7695 149.099 52.5003 147.483 53.8467 146.002C54.6567 145.111 59.1523 142.642 59.7708 144.251C60.4437 146.003 56.0009 150.042 52.7695 149.099Z" fill="#00CC9B" stroke="#4D21FF" stroke-width="0.8" stroke-miterlimit="10"/>
<path d="M52.7695 149.099L57.202 145.667" stroke="#4D21FF" stroke-width="0.8" stroke-miterlimit="10" stroke-linecap="round" stroke-linejoin="round"/>
<path d="M50.4292 142.74C50.4292 142.74 50.1599 141.124 51.5063 139.643C52.3163 138.752 56.8114 136.283 57.4305 137.892C58.104 139.643 53.6611 143.682 50.4292 142.74Z" fill="#00CC9B" stroke="#4D21FF" stroke-width="0.8" stroke-miterlimit="10"/>
<path d="M50.4292 142.74L54.8617 139.308" stroke="#4D21FF" stroke-width="0.8" stroke-miterlimit="10" stroke-linecap="round" stroke-linejoin="round"/>
<path d="M50.6458 142.93C50.6458 142.93 49.0105 143.028 47.6788 141.534C46.8775 140.635 44.8941 135.906 46.5592 135.459C48.3708 134.973 51.922 139.816 50.6458 142.93Z" fill="#00CC9B" stroke="#4D21FF" stroke-width="0.8" stroke-miterlimit="10"/>
<path d="M50.6457 142.93L47.6978 138.162" stroke="#4D21FF" stroke-width="0.8" stroke-miterlimit="10" stroke-linecap="round" stroke-linejoin="round"/>
<path d="M54.4571 259.217H44.5509L43.3127 234.199H55.6953L54.4571 259.217Z" fill="#4D21FF" stroke="#4D21FF" stroke-width="0.8" stroke-miterlimit="10" stroke-linecap="round" stroke-linejoin="round"/>
<path d="M152.77 158.868L151.817 247.213L143.007 246.974L137.135 173.537L134.754 174.489L129.909 195.777L117.527 247.213L109.669 246.498L112.05 221.733L119.103 156.496L119.67 151.247L152.056 151.724L152.431 155.476L152.77 158.868Z" fill="#4D21FF" stroke="#4D21FF" stroke-width="0.8" stroke-miterlimit="10" stroke-linecap="round" stroke-linejoin="round"/>
<path d="M152.431 155.476L119.103 156.496L119.67 151.247L152.056 151.724L152.431 155.476Z" fill="#714EFF" stroke="#4D21FF" stroke-width="0.8" stroke-miterlimit="10" stroke-linecap="round" stroke-linejoin="round"/>
<path d="M122.773 157.022V152.719L124.924 152.846L125.051 156.896" fill="#4D21FF"/>
<path d="M122.773 157.022V152.719L124.924 152.846L125.051 156.896" stroke="#4D21FF" stroke-width="0.8" stroke-miterlimit="10" stroke-linecap="round" stroke-linejoin="round"/>
<path d="M145.808 156.643V152.339L147.959 152.466L148.086 156.516" fill="#4D21FF"/>
<path d="M145.808 156.643V152.339L147.959 152.466L148.086 156.516" stroke="#4D21FF" stroke-width="0.8" stroke-miterlimit="10" stroke-linecap="round" stroke-linejoin="round"/>
<path d="M139.732 153.225H133.657V156.136H139.732V153.225Z" fill="#EDE9FF" stroke="#4D21FF" stroke-width="0.8" stroke-miterlimit="10" stroke-linecap="round" stroke-linejoin="round"/>
<path d="M165.727 124.954C163.353 122.944 159.3 119.343 157.652 117.076C155.747 114.457 153.127 108.146 151.699 107.432C150.27 106.718 136.101 104.336 136.101 104.336L125.028 106.122L112.407 110.527L102.769 129.906L95.9626 133.448C95.9626 133.448 96.7357 136.057 98.2817 138.376C99.8278 140.695 103.887 143.884 105.433 143.98C106.979 144.077 109.974 140.212 109.974 140.212L113.067 135.574L113.05 135.558L116.456 130.768L118.122 146.722C118.122 146.722 117.17 151.485 118.122 152.675C119.075 153.866 120.147 153.866 120.147 153.866L138.84 153.271C138.84 153.271 151.341 153.271 151.699 153.271C152.056 153.271 153.366 151.842 153.485 150.652C153.604 149.461 151.46 144.579 151.46 144.579L152.056 130.649L160.585 133.99C162.225 134.828 165.169 136.245 166.343 136.245C168.01 136.245 170.074 135.452 170.709 133.07C171.344 130.689 171.344 125.767 171.344 125.767L165.727 124.954Z" fill="#EDE9FF" stroke="#4D21FF" stroke-width="0.8" stroke-miterlimit="10" stroke-linecap="round" stroke-linejoin="round"/>
<path d="M159.932 124.945C159.932 124.945 158.869 129.97 160.029 132.289" stroke="#4D21FF" stroke-width="0.8" stroke-miterlimit="10" stroke-linecap="round" stroke-linejoin="round"/>
<path d="M159.739 123.978C159.739 123.978 160.802 131.032 162.058 132.771" stroke="#4D21FF" stroke-width="0.8" stroke-miterlimit="10" stroke-linecap="round" stroke-linejoin="round"/>
<path d="M152.843 118.653L152.056 130.649L154.913 116.838" stroke="#4D21FF" stroke-width="0.8" stroke-miterlimit="10" stroke-linecap="round" stroke-linejoin="round"/>
<path d="M153.127 114.338L153.014 116.05" stroke="#4D21FF" stroke-width="0.8" stroke-miterlimit="10" stroke-linecap="round" stroke-linejoin="round"/>
<path d="M107.945 129.873L109.878 135.864" stroke="#4D21FF" stroke-width="0.8" stroke-miterlimit="10" stroke-linecap="round" stroke-linejoin="round"/>
<path d="M106.786 128.81L111.424 133.448" stroke="#4D21FF" stroke-width="0.8" stroke-miterlimit="10" stroke-linecap="round" stroke-linejoin="round"/>
<path d="M112.725 122.134L111.81 120.017" stroke="#4D21FF" stroke-width="0.8" stroke-miterlimit="10" stroke-linecap="round" stroke-linejoin="round"/>
<path d="M113.56 118.464L116.455 130.768L113.298 123.46" stroke="#4D21FF" stroke-width="0.8" stroke-miterlimit="10" stroke-linecap="round" stroke-linejoin="round"/>
<path d="M112.583 114.315L113.035 116.235" stroke="#4D21FF" stroke-width="0.8" stroke-miterlimit="10" stroke-linecap="round" stroke-linejoin="round"/>
<path d="M140.992 141.856L139.94 143.713L137.32 148.328L136.934 149.004L136.667 148.633L134.867 146.09L132.343 142.542L132.2 142.337L132.41 139.127L132.734 134.245L132.962 130.754L133.282 125.868L133.51 122.382L133.829 117.495L133.939 115.862L132.905 114.543L131.138 112.285L134.229 108.999L138.192 110.933L137.234 112.514L135.386 115.571L135.62 116.657L136.534 120.962L137.191 124.034L138.111 128.339L138.763 131.416L139.682 135.717L140.339 138.789L140.992 141.856Z" fill="#00CC9B" stroke="#4D21FF" stroke-width="0.8" stroke-miterlimit="10"/>
<path d="M137.234 112.514L132.905 114.543L133.939 115.862L133.829 117.496L135.62 116.658L135.387 115.572L137.234 112.514ZM136.534 120.962L133.51 122.382L133.282 125.867L137.192 124.034L136.534 120.962ZM138.111 128.339L132.962 130.754L132.734 134.245L138.763 131.416L138.111 128.339ZM139.682 135.717L132.41 139.126L132.201 142.337L132.344 142.541L140.34 138.788L139.682 135.717ZM134.867 146.09L136.667 148.633L137.32 148.328L139.939 143.713L134.867 146.09Z" fill="#4D21FF" stroke="#4D21FF" stroke-width="0.8" stroke-miterlimit="10" stroke-linecap="round" stroke-linejoin="round"/>
<path d="M128.761 102.622L126.573 102.967L123.808 106.539L128.877 114.833L132.449 112.068L134.522 113.221L136.942 111.378L140.398 112.53C140.398 112.53 139.476 105.618 139.131 104.581C138.785 103.544 135.79 102.162 135.79 102.162L128.761 102.622Z" fill="#EDE9FF" stroke="#4D21FF" stroke-width="0.8" stroke-miterlimit="10" stroke-linecap="round" stroke-linejoin="round"/>
<path d="M127.955 97.4375L127.725 104.234L131.641 110.109L134.522 113.22L136.71 109.073L137.287 104.81L136.826 99.6265L127.955 97.4375Z" fill="#EDE9FF" stroke="#4D21FF" stroke-width="0.8" stroke-miterlimit="10" stroke-linecap="round" stroke-linejoin="round"/>
<path d="M136.957 101.107L136.826 99.626L127.955 97.4375L127.817 101.513C129.365 101.884 133.502 102.632 136.957 101.107Z" fill="#4D21FF" stroke="#4D21FF" stroke-width="0.8" stroke-miterlimit="10" stroke-linecap="round" stroke-linejoin="round"/>
<path d="M160.151 119.458L160.509 105.051C160.509 105.051 158.365 103.503 157.532 102.67C156.699 101.836 156.341 99.8121 155.984 99.4552C155.627 99.0978 153.96 98.2644 152.888 98.1453C151.817 98.0261 151.341 97.1927 153.008 96.7167C154.674 96.2407 157.576 97.4152 157.576 97.4152L158.723 96.3599C158.723 96.3599 165.391 97.5507 165.628 98.1458C165.867 98.7409 165.867 101.36 165.867 102.432C165.867 103.504 165.986 105.646 165.986 105.646L169.677 119.696C169.677 119.696 169.677 122.077 168.963 122.553C168.248 123.03 162.89 123.744 161.461 122.673C160.033 121.601 160.151 119.458 160.151 119.458Z" fill="#EDE9FF" stroke="#4D21FF" stroke-width="0.8" stroke-miterlimit="10" stroke-linecap="round" stroke-linejoin="round"/>
<path d="M156.342 93.7399C156.342 93.7399 157.056 97.1927 157.889 97.3118C158.723 97.431 158.604 96.2402 158.842 95.1685C159.08 94.0968 158.842 93.2634 158.365 93.2634C157.889 93.2634 156.58 93.1442 156.342 93.7399Z" fill="#EDE9FF" stroke="#4D21FF" stroke-width="0.8" stroke-miterlimit="10" stroke-linecap="round" stroke-linejoin="round"/>
<path d="M159.318 93.7399C159.318 93.7399 158.604 97.1927 159.437 97.6692C160.27 98.1452 164.676 99.3361 165.152 98.7409C165.628 98.1458 165.51 95.8833 164.914 95.5264C164.319 95.1685 160.151 93.6208 159.318 93.7399Z" fill="#EDE9FF" stroke="#4D21FF" stroke-width="0.8" stroke-miterlimit="10" stroke-linecap="round" stroke-linejoin="round"/>
<path d="M161.283 94.3003L161.078 98.2372" stroke="#4D21FF" stroke-width="0.8" stroke-miterlimit="10" stroke-linecap="round" stroke-linejoin="round"/>
<path d="M163.498 95.0385L163.292 98.6468" stroke="#4D21FF" stroke-width="0.8" stroke-miterlimit="10" stroke-linecap="round" stroke-linejoin="round"/>
<path d="M157.056 96.9545C157.056 96.9545 157.223 97.499 158.166 97.622C159.11 97.7449 161.851 98.7437 162.749 101.366" stroke="#4D21FF" stroke-width="0.8" stroke-miterlimit="10" stroke-linecap="round" stroke-linejoin="round"/>
<path d="M160.151 119.458C160.151 119.458 158.604 125.173 159.318 126.244C160.032 127.315 165.152 129.697 167.653 129.697C170.153 129.697 172.534 127.434 172.653 126.482C172.772 125.53 169.676 119.696 169.676 119.696C169.676 119.696 169.081 121.72 166.7 121.72C162.333 121.719 160.151 119.458 160.151 119.458Z" fill="#EDE9FF" stroke="#4D21FF" stroke-width="0.8" stroke-miterlimit="10" stroke-linecap="round" stroke-linejoin="round"/>
<path d="M96.4458 125.911C96.4458 125.911 94.6098 126.877 94.5129 127.457C94.4161 128.037 94.1262 133.158 94.6098 134.511C95.0928 135.864 99.4416 136.83 102.437 136.637C105.432 136.444 108.621 131.902 108.718 131.032C108.815 130.162 108.235 128.036 107.848 126.877C107.462 125.717 105.722 124.655 105.046 124.655C104.37 124.655 96.4458 125.911 96.4458 125.911Z" fill="#EDE9FF" stroke="#4D21FF" stroke-width="0.8" stroke-miterlimit="10" stroke-linecap="round" stroke-linejoin="round"/>
<path d="M105.969 125.982L105.046 110.448C105.046 110.448 107.189 108.901 108.023 108.067C108.856 107.234 109.213 105.21 109.57 104.853C109.928 104.495 111.594 103.662 112.666 103.543C113.738 103.424 114.214 102.59 112.547 102.114C110.88 101.638 107.979 102.812 107.979 102.812L106.832 101.757C106.832 101.757 100.164 102.948 99.9262 103.543C99.688 104.138 99.688 106.757 99.688 107.829C99.688 108.901 99.5688 111.043 99.5688 111.043L95.9246 127.208C95.9246 127.208 95.9246 129.59 96.6388 130.066C97.3531 130.542 103.23 130.268 104.659 129.196C106.088 128.125 105.969 125.982 105.969 125.982Z" fill="#EDE9FF" stroke="#4D21FF" stroke-width="0.8" stroke-miterlimit="10" stroke-linecap="round" stroke-linejoin="round"/>
<path d="M109.213 99.1375C109.213 99.1375 108.499 102.59 107.665 102.709C106.832 102.829 106.951 101.638 106.713 100.566C106.474 99.4944 106.713 98.661 107.189 98.661C107.666 98.661 108.975 98.5418 109.213 99.1375Z" fill="#EDE9FF" stroke="#4D21FF" stroke-width="0.8" stroke-miterlimit="10" stroke-linecap="round" stroke-linejoin="round"/>
<path d="M106.237 99.1375C106.237 99.1375 106.951 102.59 106.117 103.067C105.284 103.543 100.879 104.734 100.402 104.138C99.9257 103.543 100.045 101.281 100.64 100.924C101.236 100.566 105.403 99.0184 106.237 99.1375Z" fill="#EDE9FF" stroke="#4D21FF" stroke-width="0.8" stroke-miterlimit="10" stroke-linecap="round" stroke-linejoin="round"/>
<path d="M104.272 99.6979L104.476 103.635" stroke="#4D21FF" stroke-width="0.8" stroke-miterlimit="10" stroke-linecap="round" stroke-linejoin="round"/>
<path d="M102.057 100.436L102.262 104.044" stroke="#4D21FF" stroke-width="0.8" stroke-miterlimit="10" stroke-linecap="round" stroke-linejoin="round"/>
<path d="M108.499 102.352C108.499 102.352 108.331 102.897 107.388 103.02C106.445 103.142 103.704 104.141 102.806 106.764" stroke="#4D21FF" stroke-width="0.8" stroke-miterlimit="10" stroke-linecap="round" stroke-linejoin="round"/>
<path d="M121.043 89.1431C121.043 89.1431 117.357 85.457 117.703 81.4249C118.048 77.3927 121.735 76.1258 122.886 76.1258C124.038 76.1258 125.421 76.0104 125.421 76.0104C125.421 76.0104 125.997 71.4028 129.453 69.9051C132.909 68.4075 137.977 73.4765 139.13 75.2042C140.282 76.932 139.821 78.4296 141.088 78.3148C142.355 78.1995 142.125 78.1995 141.779 79.0057C141.434 79.8119 139.015 81.0794 139.015 81.0794C139.015 81.0794 137.517 82.1163 136.596 82.1163C135.674 82.1163 132.103 80.6187 130.03 80.1579C127.956 79.6971 127.265 78.8909 127.265 80.734C127.265 82.5771 127.61 84.6508 126.574 85.8024C125.537 86.9546 124.961 87.991 124.961 87.991C124.961 87.991 126.228 92.1379 125.767 92.4839C125.306 92.8293 123.808 92.714 123.578 92.1384C123.348 91.5623 122.311 89.8346 122.311 89.8346L121.043 89.1431Z" fill="#4D21FF" stroke="#4D21FF" stroke-width="0.8" stroke-miterlimit="10" stroke-linecap="round" stroke-linejoin="round"/>
<path d="M139.245 84.7655C139.245 84.7655 140.512 82.9225 141.088 84.6502C141.664 86.378 140.166 88.7971 140.166 89.2584C140.166 89.7192 139.245 84.7655 139.245 84.7655Z" fill="#EDE9FF" stroke="#4D21FF" stroke-width="0.8" stroke-miterlimit="10" stroke-linecap="round" stroke-linejoin="round"/>
<path d="M126.342 78.891C126.342 78.891 126.342 83.614 125.536 85.1116C124.73 86.6093 123.578 87.5308 123.578 87.5308C123.578 87.5308 125.306 91.4476 124.96 91.793C124.615 92.1385 122.541 88.683 122.541 88.683C122.541 88.683 120.467 88.1069 120.583 91.1021C120.698 94.0974 122.195 94.7883 123.232 95.2491C124.269 95.7098 125.42 95.7098 125.42 95.7098C125.42 95.7098 127.609 99.1659 131.411 100.663C135.212 102.161 139.59 101.816 140.742 98.5898C141.894 95.3644 139.014 81.0795 139.014 81.0795C139.014 81.0795 134.982 81.4249 132.102 79.9273C129.222 78.4297 128.646 77.278 127.84 77.5081C127.034 77.7388 126.342 78.891 126.342 78.891Z" fill="#EDE9FF" stroke="#4D21FF" stroke-width="0.8" stroke-miterlimit="10" stroke-linecap="round" stroke-linejoin="round"/>
<path d="M133.715 85.2269C133.715 85.2269 136.134 91.6782 135.789 92.5998C135.443 93.5213 133.024 92.8304 133.024 92.8304" stroke="#4D21FF" stroke-width="0.8" stroke-miterlimit="10" stroke-linecap="round" stroke-linejoin="round"/>
<path d="M129.338 93.7513C129.338 93.7513 130.72 95.9398 133.831 96.4006C136.941 96.8614 138.439 91.9077 138.439 91.9077" stroke="#4D21FF" stroke-width="0.8" stroke-miterlimit="10" stroke-linecap="round" stroke-linejoin="round"/>
<path d="M129.914 93.1753L128.531 94.7883" stroke="#4D21FF" stroke-width="0.8" stroke-miterlimit="10" stroke-linecap="round" stroke-linejoin="round"/>
<path d="M129.222 90.8715C131.067 90.8715 132.563 89.3758 132.563 87.5308C132.563 85.6857 131.067 84.1901 129.222 84.1901C127.377 84.1901 125.882 85.6857 125.882 87.5308C125.882 89.3758 127.377 90.8715 129.222 90.8715Z" stroke="#4D21FF" stroke-width="0.8" stroke-miterlimit="10" stroke-linecap="round" stroke-linejoin="round"/>
<path d="M127.906 88.1187C127.906 88.1187 129.747 88.6143 130.81 87.3397" stroke="#4D21FF" stroke-width="0.8" stroke-miterlimit="10" stroke-linecap="round" stroke-linejoin="round"/>
<path d="M135.342 85.8525C135.342 85.8525 137.537 86.4901 138.812 85.0028" stroke="#4D21FF" stroke-width="0.8" stroke-miterlimit="10" stroke-linecap="round" stroke-linejoin="round"/>
<path d="M126.489 84.4359C126.489 84.4359 127.127 83.4442 129.393 82.6652L126.489 84.4359Z" fill="#EDE9FF"/>
<path d="M126.489 84.4359C126.489 84.4359 127.127 83.4442 129.393 82.6652" stroke="#4D21FF" stroke-width="0.8" stroke-miterlimit="10" stroke-linecap="round" stroke-linejoin="round"/>
<path d="M134.351 81.7447C134.351 81.7447 136.121 80.8237 138.246 81.532" stroke="#4D21FF" stroke-width="0.8" stroke-miterlimit="10" stroke-linecap="round" stroke-linejoin="round"/>
<path d="M137.171 88.5676C139.016 88.5676 140.512 87.072 140.512 85.2269C140.512 83.3819 139.016 81.8862 137.171 81.8862C135.326 81.8862 133.831 83.3819 133.831 85.2269C133.831 87.072 135.326 88.5676 137.171 88.5676Z" stroke="#4D21FF" stroke-width="0.8" stroke-miterlimit="10" stroke-linecap="round" stroke-linejoin="round"/>
<path d="M132.333 86.3785L133.83 86.0331" stroke="#4D21FF" stroke-width="0.8" stroke-miterlimit="10" stroke-linecap="round" stroke-linejoin="round"/>
<path d="M125.882 88.3369L122.771 89.3738" stroke="#4D21FF" stroke-width="0.8" stroke-miterlimit="10" stroke-linecap="round" stroke-linejoin="round"/>
<path d="M109.984 245.829L107.167 251.062L101.933 256.899C101.933 256.899 100.927 258.308 101.329 258.912C101.732 259.516 116.828 258.912 116.828 258.912L117.834 258.308L118.237 256.497L117.77 251.298L117.528 247.212L109.984 245.829Z" fill="#EDE9FF" stroke="#4D21FF" stroke-width="0.8" stroke-miterlimit="10" stroke-linecap="round" stroke-linejoin="round"/>
<path d="M101.415 257.825C101.25 258.217 101.15 258.644 101.329 258.912C101.731 259.516 116.827 258.912 116.827 258.912L117.834 258.309L118.11 257.066L101.415 257.825Z" fill="#EDE9FF" stroke="#4D21FF" stroke-width="0.8" stroke-miterlimit="10" stroke-linecap="round" stroke-linejoin="round"/>
<path d="M151.817 247.213L153.567 251.063L158.801 256.9C158.801 256.9 159.807 258.309 159.405 258.912C159.002 259.516 143.906 258.912 143.906 258.912L142.9 258.309L142.497 256.497L142.9 248.245L143.207 247.213H151.817Z" fill="#EDE9FF" stroke="#4D21FF" stroke-width="0.8" stroke-miterlimit="10" stroke-linecap="round" stroke-linejoin="round"/>
<path d="M159.405 258.912C159.653 258.54 159.366 257.864 159.109 257.399L142.532 256.659L142.899 258.309L143.906 258.912C143.906 258.912 159.002 259.516 159.405 258.912Z" fill="#EDE9FF" stroke="#4D21FF" stroke-width="0.8" stroke-miterlimit="10" stroke-linecap="round" stroke-linejoin="round"/>
</svg>
