<svg width="272" height="272" viewBox="0 0 272 272" fill="none" xmlns="http://www.w3.org/2000/svg">
<path d="M50.1351 75.0937C88.2531 31.7206 153.696 24.4963 182.877 38.4335C195.068 44.2598 205.382 51.3916 213.999 59.2307C215.217 60.335 216.403 61.4556 217.551 62.5871C221.25 66.2319 224.601 69.9964 227.631 73.8316C231.516 78.7439 234.867 83.7705 237.717 88.7916C242.309 96.8646 245.616 104.916 247.797 112.439C249.522 118.38 250.545 123.994 250.942 129.037C251.774 139.596 251.051 150.231 249.631 160.725C249.5 161.726 249.359 162.727 249.206 163.728C249.168 164.005 249.13 164.283 249.087 164.56C247.525 174.988 245.317 185.509 240.388 194.605C235.013 204.522 216.218 232.119 195.845 232.843C185.276 233.218 175.941 226.299 166.361 221.413C151.118 213.645 133.889 212.122 117.08 211.67C100.27 211.219 83.2538 211.703 66.8739 207.536C50.4941 203.374 34.4298 193.795 26.0576 177.861C23.2125 172.453 21.0528 164.663 21.0474 158.429C21.0419 140.036 24.0503 123.95 29.2944 109.975C31.0026 105.411 32.9501 101.075 35.1098 96.9571C38.4336 90.6086 42.2634 84.7823 46.4903 79.4566L50.1351 75.0937Z" fill="#00CC9B"/>
<g opacity="0.9">
<path opacity="0.9" d="M50.1351 75.0937C88.2531 31.7206 153.696 24.4963 182.877 38.4335C195.068 44.2598 205.382 51.3916 213.999 59.2307C215.217 60.335 216.403 61.4556 217.551 62.5871C221.25 66.2319 224.601 69.9964 227.631 73.8316C231.516 78.7439 234.867 83.7705 237.717 88.7916C242.309 96.8646 245.616 104.916 247.797 112.439C249.522 118.38 250.545 123.994 250.942 129.037C251.774 139.596 251.051 150.231 249.631 160.725C249.5 161.726 249.359 162.727 249.206 163.728C249.168 164.005 249.13 164.283 249.087 164.56C247.525 174.988 245.317 185.509 240.388 194.605C235.013 204.522 216.218 232.119 195.845 232.843C185.276 233.218 175.941 226.299 166.361 221.413C151.118 213.645 133.889 212.122 117.08 211.67C100.27 211.219 83.2538 211.703 66.8739 207.536C50.4941 203.374 34.4298 193.795 26.0576 177.861C23.2125 172.453 21.0528 164.663 21.0474 158.429C21.0419 140.036 24.0503 123.95 29.2944 109.975C31.0026 105.411 32.9501 101.075 35.1098 96.9571C38.4336 90.6086 42.2634 84.7823 46.4903 79.4566L50.1351 75.0937Z" fill="#EDE9FF"/>
</g>
<path d="M21.0491 232.202H254.996" stroke="#4D21FF" stroke-width="0.8" stroke-miterlimit="10" stroke-linecap="round" stroke-linejoin="round"/>
<path d="M201.09 153.284C201.085 153.289 201.085 153.294 201.09 153.299C201.095 153.319 201.1 153.339 201.105 153.358C201.125 153.457 201.145 153.561 201.169 153.669C201.352 154.542 201.564 155.751 201.717 157.276C201.821 158.317 201.9 159.501 201.924 160.823C201.974 163.374 201.831 166.433 201.298 169.931C201.179 170.73 201.036 171.555 200.868 172.403C200.602 173.785 200.272 175.23 199.872 176.73C199.689 177.426 199.487 178.137 199.27 178.857C199.181 179.148 199.097 179.439 199.013 179.73C198.914 180.085 198.815 180.44 198.722 180.796C198.722 180.8 198.717 180.805 198.717 180.81C198.085 183.218 197.597 185.69 197.222 188.142C196.758 191.216 196.472 194.266 196.314 197.157C196.102 201.006 196.112 204.563 196.205 207.504C196.205 207.553 196.205 207.597 196.21 207.647C196.309 210.627 196.491 212.956 196.62 214.288C196.689 215.063 196.738 215.502 196.743 215.532" stroke="#4D21FF" stroke-width="0.8" stroke-miterlimit="10" stroke-linecap="round" stroke-linejoin="round"/>
<path d="M201.106 153.358C201.101 153.349 201.101 153.349 201.096 153.349C201.091 153.339 201.091 153.339 201.086 153.339C200.696 152.993 200.267 152.697 199.813 152.451C199.315 152.189 198.782 151.982 198.229 151.854" fill="#EDE9FF"/>
<path d="M201.106 153.358C201.101 153.349 201.101 153.349 201.096 153.349C201.091 153.339 201.091 153.339 201.086 153.339C200.696 152.993 200.267 152.697 199.813 152.451C199.315 152.189 198.782 151.982 198.229 151.854" stroke="#4D21FF" stroke-width="0.8" stroke-miterlimit="10" stroke-linecap="round" stroke-linejoin="round"/>
<path d="M201.716 157.277L203.164 155.965" stroke="#4D21FF" stroke-width="0.8" stroke-miterlimit="10" stroke-linecap="round" stroke-linejoin="round"/>
<path d="M199.872 176.736V176.731C199.798 176.352 199.684 175.976 199.531 175.616C199.319 175.088 199.028 174.595 198.668 174.151C198.401 173.82 198.096 173.519 197.76 173.253" stroke="#4D21FF" stroke-width="0.8" stroke-miterlimit="10" stroke-linecap="round" stroke-linejoin="round"/>
<path d="M198.715 180.814C199.115 179.8 199.962 178.964 200.981 178.578" stroke="#4D21FF" stroke-width="0.8" stroke-miterlimit="10" stroke-linecap="round" stroke-linejoin="round"/>
<path d="M196.198 201.05C196.682 200.466 197.049 198.24 197.246 197.045C197.293 196.759 197.333 196.516 197.367 196.339" fill="#EDE9FF"/>
<path d="M196.198 201.05C196.682 200.466 197.049 198.24 197.246 197.045C197.293 196.759 197.333 196.516 197.367 196.339" stroke="#4D21FF" stroke-width="0.8" stroke-miterlimit="10" stroke-linecap="round" stroke-linejoin="round"/>
<path d="M192.471 205.068C192.633 205.058 192.797 205.063 192.959 205.083C194.37 205.211 195.688 206.183 196.206 207.505" fill="#EDE9FF"/>
<path d="M192.471 205.068C192.633 205.058 192.797 205.063 192.959 205.083C194.37 205.211 195.688 206.183 196.206 207.505" stroke="#4D21FF" stroke-width="0.8" stroke-miterlimit="10" stroke-linecap="round" stroke-linejoin="round"/>
<path d="M200.866 172.425C200.866 172.425 201.124 163.594 196.274 160.394" stroke="#4D21FF" stroke-width="0.8" stroke-miterlimit="10" stroke-linecap="round" stroke-linejoin="round"/>
<path d="M201.303 191.374C201.939 193.433 197.502 197.353 197.502 197.353C197.502 197.353 191.628 196.618 190.992 194.559C190.356 192.5 191.844 189.131 194.691 188.252C197.538 187.372 200.667 189.315 201.303 191.374Z" fill="#00CC9B"/>
<path d="M206.226 166.387C205.663 168.574 201.461 170.127 201.461 170.127C201.461 170.127 198.532 166.738 199.095 164.551C199.658 162.365 201.98 159.955 203.95 160.462C205.919 160.97 206.789 164.201 206.226 166.387Z" fill="#00CC9B"/>
<path d="M189.366 199.064C192.004 200.091 193.621 204.757 193.621 204.757C193.621 204.757 189.275 207.101 186.636 206.074C183.997 205.047 181.205 202.153 181.958 200.216C182.713 198.281 186.727 198.037 189.366 199.064Z" fill="#00CC9B"/>
<path d="M195.15 173.391C195.708 173.805 196.283 174.227 196.953 174.41C197.623 174.591 198.42 174.48 198.876 173.956C199.44 173.306 199.289 172.299 198.933 171.515C198.228 169.962 195.629 167.326 193.631 168.082C190.749 169.174 193.865 172.437 195.15 173.391Z" fill="#00CC9B"/>
<path d="M201.051 177.349C200.673 177.818 200.271 178.409 200.478 178.974C200.661 179.476 201.278 179.706 201.806 179.627C202.335 179.547 202.794 179.233 203.233 178.929C204.251 178.222 206.337 176.739 205.005 175.352C203.621 173.911 201.848 176.362 201.051 177.349Z" fill="#00CC9B"/>
<path d="M192.537 157.614C192.101 157.662 191.66 157.953 191.586 158.385C191.499 158.89 191.918 159.332 192.323 159.644C193.334 160.423 196.371 162.525 197.049 160.497C197.689 158.581 193.879 157.465 192.537 157.614Z" fill="#00CC9B"/>
<path d="M198.135 150.944C197.509 151.003 196.884 150.776 196.255 150.816C195.627 150.856 194.93 151.361 195.069 151.975C195.198 152.543 195.904 152.732 196.484 152.769C197.475 152.831 198.474 152.762 199.446 152.564C199.672 152.519 199.918 152.452 200.048 152.261C200.302 151.886 199.897 151.385 199.465 151.253C199.033 151.12 198.545 151.165 198.152 150.94L198.135 150.944Z" fill="#00CC9B"/>
<path d="M204.259 155.256C204.888 155.274 205.497 155.006 206.127 155.004C206.756 155.003 207.485 155.461 207.386 156.082C207.295 156.657 206.604 156.893 206.027 156.967C205.042 157.095 204.041 157.092 203.057 156.959C202.829 156.928 202.579 156.877 202.438 156.695C202.16 156.339 202.53 155.812 202.952 155.652C203.375 155.491 203.865 155.502 204.242 155.253L204.259 155.256Z" fill="#00CC9B"/>
<path d="M203.639 201.617C203.794 201.486 203.971 201.351 204.174 201.353C204.444 201.355 204.658 201.609 204.709 201.875C204.759 202.14 204.685 202.411 204.608 202.669C204.182 204.096 199.392 214.431 198.291 212.576C197.64 211.478 199.24 207.844 199.712 206.816C200.625 204.827 201.966 203.031 203.639 201.617Z" fill="#00CC9B"/>
<path d="M201.306 153.962C201.306 153.962 201.019 151.456 201.625 151.25" stroke="#4D21FF" stroke-width="0.8" stroke-miterlimit="10" stroke-linecap="round" stroke-linejoin="round"/>
<path d="M200.775 151.336C201.155 150.483 201.566 149.591 202.322 149.041C203.077 148.492 204.287 148.451 204.837 149.206C205.452 150.049 204.837 151.332 203.895 151.781C202.953 152.231 201.849 152.096 200.815 151.951C200.807 151.797 200.798 151.644 200.79 151.49L200.775 151.336Z" fill="#00CC9B"/>
<path d="M203.354 232.075C198.261 232.944 192.954 232.944 187.861 232.075L181.834 214.291H209.381L203.354 232.075Z" fill="#EDE9FF" stroke="#4D21FF" stroke-width="0.8" stroke-miterlimit="10" stroke-linecap="round" stroke-linejoin="round"/>
<path d="M98.2165 103.596C98.2116 103.6 98.2116 103.605 98.2165 103.61C98.2214 103.63 98.2263 103.65 98.2312 103.67C98.2508 103.768 98.2709 103.872 98.2954 103.98C98.4782 104.853 98.6903 106.063 98.8432 107.587C98.9466 108.628 99.026 109.812 99.0505 111.134C99.1 113.685 98.9569 116.745 98.4238 120.243C98.3052 121.042 98.1621 121.866 97.9946 122.714C97.728 124.096 97.3972 125.542 96.998 127.041C96.8152 127.737 96.6128 128.448 96.3957 129.168C96.3071 129.459 96.2233 129.75 96.139 130.041C96.0405 130.396 95.9415 130.752 95.8479 131.107C95.8479 131.112 95.843 131.117 95.843 131.121C95.2115 133.529 94.723 136.001 94.3481 138.453C93.8846 141.528 93.598 144.577 93.4402 147.468C93.228 151.317 93.2378 154.874 93.3314 157.815C93.3314 157.864 93.3314 157.909 93.3363 157.958C93.4348 160.938 93.6175 163.267 93.7459 164.599C93.815 165.374 93.8645 165.813 93.8694 165.843" stroke="#4D21FF" stroke-width="0.8" stroke-miterlimit="10" stroke-linecap="round" stroke-linejoin="round"/>
<path d="M98.2314 103.67C98.2265 103.66 98.2265 103.66 98.2216 103.66C98.2167 103.65 98.2167 103.65 98.2118 103.65C97.8217 103.305 97.3925 103.009 96.9388 102.762C96.4405 102.5 95.9074 102.293 95.3552 102.164" fill="#EDE9FF"/>
<path d="M98.2314 103.67C98.2265 103.66 98.2265 103.66 98.2216 103.66C98.2167 103.65 98.2167 103.65 98.2118 103.65C97.8217 103.305 97.3925 103.009 96.9388 102.762C96.4405 102.5 95.9074 102.293 95.3552 102.164" stroke="#4D21FF" stroke-width="0.8" stroke-miterlimit="10" stroke-linecap="round" stroke-linejoin="round"/>
<path d="M98.8423 107.588L100.29 106.276" stroke="#4D21FF" stroke-width="0.8" stroke-miterlimit="10" stroke-linecap="round" stroke-linejoin="round"/>
<path d="M96.998 127.047V127.042C96.924 126.663 96.8104 126.287 96.6575 125.927C96.4453 125.4 96.1543 124.906 95.7942 124.462C95.5276 124.131 95.2219 123.83 94.8862 123.564" stroke="#4D21FF" stroke-width="0.8" stroke-miterlimit="10" stroke-linecap="round" stroke-linejoin="round"/>
<path d="M95.8416 131.125C96.2408 130.111 97.0879 129.275 98.1068 128.889" stroke="#4D21FF" stroke-width="0.8" stroke-miterlimit="10" stroke-linecap="round" stroke-linejoin="round"/>
<path d="M93.3245 151.361C93.8086 150.777 94.1753 148.551 94.3722 147.356C94.4195 147.07 94.4592 146.826 94.493 146.65" fill="#EDE9FF"/>
<path d="M93.3245 151.361C93.8086 150.777 94.1753 148.551 94.3722 147.356C94.4195 147.07 94.4592 146.826 94.493 146.65" stroke="#4D21FF" stroke-width="0.8" stroke-miterlimit="10" stroke-linecap="round" stroke-linejoin="round"/>
<path d="M89.5969 155.379C89.7596 155.369 89.9228 155.374 90.0854 155.394C91.4966 155.522 92.8141 156.494 93.332 157.816" fill="#EDE9FF"/>
<path d="M89.5969 155.379C89.7596 155.369 89.9228 155.374 90.0854 155.394C91.4966 155.522 92.8141 156.494 93.332 157.816" stroke="#4D21FF" stroke-width="0.8" stroke-miterlimit="10" stroke-linecap="round" stroke-linejoin="round"/>
<path d="M97.9925 122.736C97.9925 122.736 98.2499 113.905 93.4006 110.705" stroke="#4D21FF" stroke-width="0.8" stroke-miterlimit="10" stroke-linecap="round" stroke-linejoin="round"/>
<path d="M98.4286 141.685C99.0646 143.744 94.6277 147.664 94.6277 147.664C94.6277 147.664 88.7536 146.929 88.1177 144.87C87.4817 142.811 88.9696 139.442 91.8169 138.563C94.6642 137.683 97.7927 139.626 98.4286 141.685Z" fill="#00CC9B"/>
<path d="M103.353 116.699C102.79 118.885 98.5877 120.439 98.5877 120.439C98.5877 120.439 95.6583 117.05 96.2213 114.863C96.7843 112.677 99.1067 110.267 101.076 110.774C103.045 111.281 103.916 114.512 103.353 116.699Z" fill="#00CC9B"/>
<path d="M86.4917 149.375C89.1301 150.402 90.7475 155.068 90.7475 155.068C90.7475 155.068 86.4004 157.412 83.762 156.385C81.1236 155.357 78.3312 152.463 79.0846 150.527C79.8392 148.592 83.8533 148.348 86.4917 149.375Z" fill="#00CC9B"/>
<path d="M92.2765 123.702C92.8341 124.116 93.4092 124.539 94.0794 124.721C94.7496 124.902 95.5465 124.791 96.0019 124.267C96.5665 123.617 96.4153 122.61 96.0595 121.826C95.355 120.272 92.7547 117.637 90.7577 118.393C87.875 119.485 90.9911 122.748 92.2765 123.702Z" fill="#00CC9B"/>
<path d="M98.177 127.661C97.7989 128.13 97.3974 128.721 97.6042 129.287C97.7875 129.788 98.4038 130.019 98.9321 129.939C99.4603 129.859 99.92 129.546 100.358 129.241C101.376 128.534 103.462 127.051 102.131 125.665C100.747 124.222 98.9739 126.673 98.177 127.661Z" fill="#00CC9B"/>
<path d="M89.6627 107.925C89.2269 107.973 88.7858 108.264 88.7118 108.696C88.6247 109.201 89.0436 109.643 89.4494 109.955C90.4602 110.734 93.4973 112.836 94.1752 110.808C94.8155 108.892 91.0053 107.776 89.6627 107.925Z" fill="#00CC9B"/>
<path d="M95.2617 101.255C94.635 101.314 94.0099 101.087 93.3816 101.127C92.7533 101.167 92.0564 101.672 92.1957 102.286C92.3246 102.853 93.0302 103.043 93.6106 103.079C94.6013 103.142 95.6 103.073 96.5727 102.875C96.7985 102.829 97.0444 102.762 97.1738 102.571C97.4279 102.197 97.0237 101.696 96.5912 101.563C96.1587 101.43 95.6713 101.474 95.2785 101.25L95.2617 101.255Z" fill="#00CC9B"/>
<path d="M101.385 105.567C102.015 105.585 102.623 105.317 103.253 105.315C103.882 105.314 104.611 105.772 104.512 106.393C104.421 106.968 103.73 107.204 103.153 107.278C102.169 107.406 101.167 107.403 100.184 107.27C99.9551 107.239 99.7054 107.188 99.5639 107.006C99.286 106.65 99.6559 106.123 100.079 105.963C100.501 105.802 100.991 105.813 101.368 105.564L101.385 105.567Z" fill="#00CC9B"/>
<path d="M100.766 151.928C100.921 151.797 101.097 151.662 101.3 151.664C101.57 151.666 101.785 151.92 101.835 152.186C101.885 152.451 101.811 152.722 101.734 152.98C101.308 154.407 96.5186 164.742 95.417 162.887C94.7659 161.789 96.3663 158.156 96.8385 157.127C97.7513 155.138 99.0923 153.342 100.766 151.928Z" fill="#00CC9B"/>
<path d="M98.4325 104.273C98.4325 104.273 98.1448 101.767 98.7508 101.562" stroke="#4D21FF" stroke-width="0.8" stroke-miterlimit="10" stroke-linecap="round" stroke-linejoin="round"/>
<path d="M97.9016 101.647C98.2813 100.794 98.6926 99.9018 99.4482 99.3523C100.203 98.8034 101.414 98.7621 101.964 99.5166C102.578 100.36 101.964 101.643 101.021 102.092C100.079 102.542 98.9755 102.407 97.9413 102.262C97.9332 102.108 97.9245 101.955 97.9163 101.801L97.9016 101.647Z" fill="#00CC9B"/>
<path d="M29.2944 163.728V109.975" stroke="#4D21FF" stroke-width="0.8" stroke-miterlimit="10" stroke-linecap="round" stroke-linejoin="round"/>
<path d="M197.121 163.728H190.475" stroke="#4D21FF" stroke-width="0.8" stroke-miterlimit="10" stroke-linecap="round" stroke-linejoin="round"/>
<path d="M249.207 163.728H235.677" stroke="#4D21FF" stroke-width="0.8" stroke-miterlimit="10" stroke-linecap="round" stroke-linejoin="round"/>
<path d="M189.867 82.0678H213.841V59.2307" stroke="#4D21FF" stroke-width="0.8" stroke-miterlimit="10" stroke-linecap="round" stroke-linejoin="round"/>
<path d="M50.135 75.0938H75.6051V93.6714H103.521" stroke="#4D21FF" stroke-width="0.8" stroke-miterlimit="10" stroke-linecap="round" stroke-linejoin="round"/>
<path d="M35.1099 138.007V96.9572" stroke="#4D21FF" stroke-width="0.8" stroke-miterlimit="10" stroke-linecap="round" stroke-linejoin="round"/>
<path d="M46.4875 79.1384V111.314" stroke="#4D21FF" stroke-width="0.8" stroke-miterlimit="10" stroke-linecap="round" stroke-linejoin="round"/>
<path d="M57.8633 79.1384V107.583" stroke="#4D21FF" stroke-width="0.8" stroke-miterlimit="10" stroke-linecap="round" stroke-linejoin="round"/>
<path d="M69.2388 79.1384V128.889" stroke="#4D21FF" stroke-width="0.8" stroke-miterlimit="10" stroke-linecap="round" stroke-linejoin="round"/>
<path d="M123.733 72.086V39.3748H170.044V72.086" stroke="#4D21FF" stroke-width="0.8" stroke-miterlimit="10" stroke-linecap="round" stroke-linejoin="round"/>
<path d="M127.129 55.623V43.2562H135.688" stroke="#4D21FF" stroke-width="0.8" stroke-miterlimit="10" stroke-linecap="round" stroke-linejoin="round"/>
<path d="M137.574 55.623V43.2562H146.133" stroke="#4D21FF" stroke-width="0.8" stroke-miterlimit="10" stroke-linecap="round" stroke-linejoin="round"/>
<path d="M148.019 55.623V43.2562H156.578" stroke="#4D21FF" stroke-width="0.8" stroke-miterlimit="10" stroke-linecap="round" stroke-linejoin="round"/>
<path d="M158.464 55.623V43.2562H167.023" stroke="#4D21FF" stroke-width="0.8" stroke-miterlimit="10" stroke-linecap="round" stroke-linejoin="round"/>
<path d="M127.129 72.086V59.7192H135.688" stroke="#4D21FF" stroke-width="0.8" stroke-miterlimit="10" stroke-linecap="round" stroke-linejoin="round"/>
<path d="M137.574 72.086V59.7192H146.133" stroke="#4D21FF" stroke-width="0.8" stroke-miterlimit="10" stroke-linecap="round" stroke-linejoin="round"/>
<path d="M148.019 72.086V59.7192H156.578" stroke="#4D21FF" stroke-width="0.8" stroke-miterlimit="10" stroke-linecap="round" stroke-linejoin="round"/>
<path d="M158.464 72.086V59.7192H167.023" stroke="#4D21FF" stroke-width="0.8" stroke-miterlimit="10" stroke-linecap="round" stroke-linejoin="round"/>
<path d="M217.549 62.0612V103.052" stroke="#4D21FF" stroke-width="0.8" stroke-miterlimit="10" stroke-linecap="round" stroke-linejoin="round"/>
<path d="M234.368 160.725H235.677" stroke="#4D21FF" stroke-width="0.8" stroke-miterlimit="10" stroke-linecap="round" stroke-linejoin="round"/>
<path d="M227.631 73.8317V119.723" stroke="#4D21FF" stroke-width="0.8" stroke-miterlimit="10" stroke-linecap="round" stroke-linejoin="round"/>
<path d="M237.717 149.005V160.725H245.763" stroke="#4D21FF" stroke-width="0.8" stroke-miterlimit="10" stroke-linecap="round" stroke-linejoin="round"/>
<path d="M237.717 88.7917V119.955" stroke="#4D21FF" stroke-width="0.8" stroke-miterlimit="10" stroke-linecap="round" stroke-linejoin="round"/>
<path d="M247.797 112.439V160.725H249.631" stroke="#4D21FF" stroke-width="0.8" stroke-miterlimit="10" stroke-linecap="round" stroke-linejoin="round"/>
<path d="M124.953 164.713H21.0491V232.201H124.953V164.713Z" fill="#EDE9FF" stroke="#4D21FF" stroke-width="0.8" stroke-miterlimit="10" stroke-linecap="round" stroke-linejoin="round"/>
<path d="M21.0491 164.713L73.0011 198.457L124.953 164.713H21.0491Z" fill="#EDE9FF" stroke="#4D21FF" stroke-width="0.8" stroke-miterlimit="10" stroke-linecap="round" stroke-linejoin="round"/>
<path d="M57.3834 188.313L21.0491 232.202" stroke="#4D21FF" stroke-width="0.8" stroke-miterlimit="10" stroke-linecap="round" stroke-linejoin="round"/>
<path d="M88.9006 188.313L125.235 232.202" stroke="#4D21FF" stroke-width="0.8" stroke-miterlimit="10" stroke-linecap="round" stroke-linejoin="round"/>
<path d="M180.555 78.595H156.402C154.984 78.595 153.677 79.368 152.995 80.6122L152.982 80.6361C151.143 83.9502 146.966 85.1459 143.652 83.3066C142.53 82.6837 141.604 81.7584 140.982 80.6361C140.304 79.3789 138.99 78.595 137.561 78.595H113.446C110.661 78.5597 108.374 80.7879 108.337 83.5732V219.798C108.374 222.583 110.661 224.811 113.446 224.776H180.554C183.34 224.811 185.628 222.584 185.667 219.798V83.5726C185.628 80.7873 183.341 78.5597 180.555 78.595Z" fill="#00CC9B"/>
<path d="M188.022 82.0652C188.022 78.2153 184.901 75.0944 181.051 75.0944C181.05 75.0944 181.048 75.0944 181.047 75.0944H112.954C109.104 75.0922 105.982 78.2115 105.98 82.0614C105.98 82.0625 105.98 82.0641 105.98 82.0652V225.231C105.98 229.081 109.101 232.202 112.951 232.202C112.952 232.202 112.954 232.202 112.955 232.202H181.048C184.898 232.204 188.021 229.084 188.022 225.235C188.022 225.233 188.022 225.232 188.022 225.231V82.0652H188.022ZM185.667 219.797C185.628 222.583 183.341 224.811 180.555 224.775H113.446C110.662 224.811 108.375 222.583 108.338 219.797V83.5726C108.375 80.7879 110.661 78.5596 113.446 78.5945H137.58C139.009 78.5945 140.322 79.3784 141.001 80.6355C142.84 83.9496 147.017 85.1453 150.331 83.306C151.453 82.6832 152.378 81.7578 153.001 80.6355L153.014 80.6116C153.696 79.3675 155.003 78.5945 156.421 78.5945H180.574C183.36 78.5591 185.647 80.7868 185.686 83.5726L185.667 219.797Z" fill="#4D21FF"/>
<path opacity="0.2" d="M164.885 75.0948L119.652 232.197L137.614 232.179L181.173 75.0948H164.885Z" fill="#EDE9FF"/>
<path opacity="0.2" d="M158.139 75.0948L110.317 232.202L112.936 232.182L159.859 75.0948H158.139Z" fill="#EDE9FF"/>
<path d="M159.202 191.886C159.317 198.47 154.074 203.808 147.49 203.808C140.906 203.808 135.474 198.47 135.358 191.886C135.242 185.302 140.485 179.964 147.07 179.964C153.654 179.964 159.086 185.302 159.202 191.886Z" fill="#EDE9FF" stroke="#4D21FF" stroke-width="0.8" stroke-miterlimit="10" stroke-linecap="round" stroke-linejoin="round"/>
<path d="M143.373 200.784C142.266 200.376 141.251 199.751 140.387 198.946C139.516 198.109 138.842 197.09 138.411 195.961C137.923 194.695 137.681 193.348 137.699 191.991C137.69 190.833 137.894 189.683 138.302 188.599C138.671 187.604 139.223 186.688 139.929 185.897C141.326 184.365 143.133 183.266 145.135 182.728C146.118 182.465 147.131 182.331 148.148 182.33C148.992 182.327 149.833 182.428 150.653 182.629C151.445 182.825 152.204 183.139 152.902 183.56C153.593 183.976 154.212 184.501 154.735 185.114C155.282 185.773 155.699 186.53 155.965 187.344C156.272 188.272 156.423 189.243 156.413 190.22C156.402 192.1 155.729 193.915 154.512 195.347C153.986 195.948 153.361 196.454 152.663 196.844C152.063 197.192 151.385 197.381 150.691 197.393C150.215 197.399 149.751 197.249 149.368 196.967C148.976 196.679 148.743 196.222 148.741 195.736C147.93 196.878 146.832 197.45 145.448 197.45C144.321 197.45 143.421 197.065 142.747 196.294C142.073 195.523 141.738 194.576 141.74 193.451C141.744 192.595 141.893 191.746 142.181 190.94C142.463 190.125 142.868 189.358 143.381 188.665C143.89 187.982 144.54 187.416 145.288 187.006C146.033 186.585 146.875 186.365 147.73 186.366C148.325 186.36 148.911 186.503 149.436 186.783C149.948 187.054 150.363 187.478 150.623 187.994L150.734 187.633C150.912 187.102 151.487 186.814 152.019 186.992C152.119 187.026 152.213 187.075 152.298 187.137C152.465 187.273 152.557 187.481 152.545 187.696C152.545 187.797 152.528 187.898 152.496 187.994L150.732 193.859C150.532 194.529 150.433 194.99 150.433 195.239C150.433 195.662 150.648 195.873 151.08 195.872C151.643 195.872 152.196 195.613 152.739 195.096C153.324 194.512 153.776 193.808 154.062 193.033C154.4 192.185 154.573 191.28 154.572 190.367C154.58 189.563 154.462 188.763 154.223 187.994C154.025 187.332 153.709 186.711 153.289 186.162C152.891 185.661 152.41 185.232 151.868 184.894C151.326 184.553 150.735 184.297 150.115 184.136C149.48 183.97 148.826 183.887 148.17 183.887C147.336 183.888 146.506 184.005 145.704 184.235C144.88 184.471 144.095 184.825 143.373 185.286C142.646 185.746 141.986 186.306 141.416 186.95C140.827 187.629 140.368 188.411 140.062 189.255C139.722 190.176 139.551 191.151 139.559 192.133C139.54 193.296 139.751 194.451 140.18 195.532C140.546 196.47 141.127 197.308 141.876 197.98C142.599 198.609 143.433 199.095 144.336 199.415C145.287 199.751 146.29 199.92 147.3 199.912C148.379 199.915 149.452 199.751 150.482 199.428C150.586 199.393 150.695 199.376 150.804 199.378C151.015 199.369 151.22 199.454 151.363 199.608C151.5 199.75 151.575 199.939 151.575 200.136C151.602 200.463 151.385 200.76 151.064 200.833C149.78 201.226 148.445 201.431 147.101 201.441C145.828 201.451 144.565 201.228 143.373 200.784ZM147.865 195.143C148.401 194.756 148.8 194.209 149.003 193.579L150.14 189.579L150.065 189.416C149.993 189.285 149.906 189.161 149.805 189.05C149.669 188.894 149.521 188.748 149.363 188.615C149.159 188.451 148.928 188.325 148.681 188.242C148.037 188.014 147.331 188.038 146.704 188.31C146.364 188.457 146.051 188.661 145.779 188.913C145.495 189.178 145.243 189.474 145.027 189.796C144.802 190.13 144.611 190.485 144.459 190.858C144.306 191.229 144.187 191.614 144.105 192.007C144.023 192.381 143.981 192.762 143.979 193.144C143.978 193.39 143.992 193.635 144.023 193.878C144.05 194.094 144.097 194.306 144.165 194.512C144.226 194.699 144.311 194.876 144.42 195.04C144.52 195.191 144.646 195.323 144.793 195.431C144.948 195.545 145.123 195.629 145.309 195.679C145.527 195.74 145.753 195.769 145.98 195.766C146.659 195.773 147.323 195.554 147.865 195.143Z" fill="#00CC9B" stroke="#4D21FF" stroke-width="0.8" stroke-miterlimit="10" stroke-linecap="round" stroke-linejoin="round"/>
<path d="M158.933 151.013C159.049 157.597 153.806 162.935 147.222 162.935C140.638 162.935 135.206 157.598 135.091 151.013C134.975 144.429 140.218 139.092 146.802 139.092C153.386 139.092 158.818 144.429 158.933 151.013Z" fill="#EDE9FF" stroke="#4D21FF" stroke-width="0.8" stroke-miterlimit="10" stroke-linecap="round" stroke-linejoin="round"/>
<path d="M154.493 149.927C150.761 147.477 143.432 147.477 139.87 149.927C138.545 150.175 137.566 151.347 137.615 152.75C137.671 154.332 144.246 154.332 144.19 152.75C144.166 152.068 143.894 151.447 143.475 150.952C145.83 150.421 148.569 150.421 150.96 150.952C150.577 151.447 150.348 152.068 150.372 152.75C150.427 154.332 157.002 154.332 156.946 152.75C156.897 151.347 155.837 150.175 154.493 149.927Z" fill="#00CC9B" stroke="#4D21FF" stroke-width="0.8" stroke-miterlimit="10" stroke-linecap="round" stroke-linejoin="round"/>
<path d="M158.934 111.313C158.998 114.247 157.4 116.866 154.833 118.612V125.732L149.724 120.623C148.918 120.765 148.082 120.836 147.22 120.836C140.638 120.836 135.204 116.574 135.089 111.313C134.973 106.056 140.216 101.794 146.802 101.794C153.385 101.794 158.819 106.056 158.934 111.313Z" fill="#EDE9FF" stroke="#4D21FF" stroke-width="0.8" stroke-miterlimit="10" stroke-linecap="round" stroke-linejoin="round"/>
<path d="M141.935 111.314C141.935 112.167 141.244 112.858 140.392 112.858C139.539 112.858 138.848 112.167 138.848 111.314C138.848 110.462 139.539 109.771 140.392 109.771C141.244 109.771 141.935 110.462 141.935 111.314Z" fill="#00CC9B" stroke="#4D21FF" stroke-width="0.8" stroke-miterlimit="10" stroke-linecap="round" stroke-linejoin="round"/>
<path d="M148.544 111.314C148.544 112.167 147.853 112.858 147.001 112.858C146.148 112.858 145.458 112.167 145.458 111.314C145.458 110.462 146.148 109.771 147.001 109.771C147.853 109.771 148.544 110.462 148.544 111.314Z" fill="#00CC9B" stroke="#4D21FF" stroke-width="0.8" stroke-miterlimit="10" stroke-linecap="round" stroke-linejoin="round"/>
<path d="M155.153 111.314C155.153 112.167 154.462 112.858 153.61 112.858C152.757 112.858 152.066 112.167 152.066 111.314C152.066 110.462 152.757 109.771 153.61 109.771C154.462 109.771 155.153 110.462 155.153 111.314Z" fill="#00CC9B" stroke="#4D21FF" stroke-width="0.8" stroke-miterlimit="10" stroke-linecap="round" stroke-linejoin="round"/>
<path d="M80.4049 133.026C80.2395 133.396 79.9109 133.664 79.5949 133.917C77.087 135.916 74.5166 137.837 71.8885 139.676C70.9251 140.353 69.9258 141.048 68.9956 141.807C63.4054 145.549 66.813 146.461 63.4054 154.384C63.4054 154.387 63.4022 154.387 63.4022 154.39C62.5954 156.284 62.7428 165.562 62.7428 165.562H62.4659C61.849 164.993 61.0058 164.177 60.3585 163.75C60.3585 163.75 60.3552 163.753 60.3552 163.75C60.2437 163.675 60.1387 163.612 60.0419 163.567C60.0419 163.567 60.0386 163.569 60.0386 163.567C59.9184 163.506 59.8069 163.47 59.7166 163.464C59.1655 163.431 57.0977 163.681 55.0023 163.543C54.8216 163.533 54.641 163.519 54.4604 163.498C54.1536 163.468 53.8522 163.428 53.5541 163.377C53.2593 163.323 52.9699 163.263 52.693 163.185C51.1214 162.748 48.9361 161.824 46.8531 160.93L46.8499 160.927C46.5305 160.788 46.2145 160.653 45.9017 160.518C45.745 160.448 45.5883 160.382 45.4349 160.316C45.2902 160.253 45.1488 160.192 45.0073 160.132C44.9051 160.087 44.8028 160.045 44.7032 160.003C44.6037 159.958 44.5047 159.919 44.4084 159.877C44.4051 159.877 44.4051 159.877 44.4024 159.88C43.9117 159.672 43.4482 159.483 43.0234 159.32C42.8248 159.245 42.6263 159.185 42.4304 159.14C42.4005 159.585 42.3581 160.04 42.3009 160.485C42.036 162.614 41.455 164.576 40.4192 164.85C40.398 164.86 40.3741 164.866 40.3502 164.868C40.2598 164.884 40.1663 164.896 40.076 164.896C40.0461 164.899 40.0189 164.899 39.9917 164.896C39.7686 164.893 39.5434 164.844 39.3171 164.766C39.3138 164.763 39.3111 164.763 39.3079 164.763C38.4287 164.444 37.5768 163.613 37.1226 162.722C36.9088 162.3 36.7826 161.867 36.7826 161.47C36.7826 159.889 36.3403 150.548 36.3403 147.827C36.3403 145.105 36.9121 140.349 38.24 138.585C39.044 137.516 39.7664 136.968 40.212 136.701C41.2657 135.81 42.5147 135.165 43.5657 134.825C45.0166 134.356 48.2528 133.146 50.5077 132.294V132.318C49.5084 132.706 48.298 133.176 47.1001 133.633C47.964 135.114 49.8364 137.459 53.163 137.742C56.3089 138.007 58.2565 135.163 59.2498 133.088C59.3358 133.119 64.8095 132.083 66.0803 132.139C70.2054 132.321 73.576 130.081 75.0987 129.196C77.0745 128.046 79.6449 128.979 80.3031 131.168C80.3075 131.183 80.3119 131.198 80.3167 131.213C80.4919 131.804 80.6638 132.463 80.4049 133.026Z" fill="#00CC9B" stroke="#4D21FF" stroke-width="0.8" stroke-linecap="round" stroke-linejoin="round"/>
<path d="M59.2541 133.08C59.2541 133.084 59.2509 133.084 59.2509 133.086C59.1698 133.056 59.0882 133.026 59.0039 132.999L59.2541 133.08Z" fill="#EDE9FF" stroke="#4D21FF" stroke-width="0.8" stroke-linecap="round" stroke-linejoin="round"/>
<path d="M63.8929 167.946C63.8929 167.967 63.8869 167.988 63.8836 168.009C63.8292 168.223 63.5377 168.304 63.3086 168.174C63.0617 168.033 62.6732 167.124 62.6732 167.124L62.2457 166.676L61.9595 166.377C61.9595 166.381 61.9595 166.381 61.9628 166.383C62.0047 166.489 62.3452 167.326 62.1673 167.708C62.1553 167.735 62.1434 167.759 62.1254 167.78C62.065 167.861 61.996 167.934 61.9176 167.997C61.6886 168.189 61.3937 168.298 61.0897 168.298H61.0744C60.8427 168.288 60.1534 168.379 59.5539 168.418C59.5327 168.418 59.5148 168.418 59.4936 168.421H59.4908C59.283 168.43 59.0872 168.436 58.9278 168.427C58.4464 168.361 57.9796 168.207 57.558 167.966C57.558 167.966 55.6105 167.666 54.7433 167.295C54.6862 167.271 54.6318 167.244 54.578 167.211C54.5268 167.181 54.4757 167.15 54.4305 167.121C54.3343 167.06 54.244 166.991 54.1624 166.916C53.7228 166.531 53.4459 166.043 53.3768 165.911C53.3676 165.893 53.3649 165.887 53.3649 165.887V165.883C53.3649 165.883 51.1584 165.79 48.1903 165.561C47.1094 165.477 45.9267 165.378 44.7136 165.255C42.8379 165.065 41.294 165.077 40.0809 164.909C40.051 164.903 40.0238 164.899 39.9939 164.893C39.7561 164.857 39.5304 164.815 39.3193 164.764C39.3161 164.761 39.3133 164.761 39.3101 164.761C38.2417 164.484 37.51 163.936 37.1248 162.72C37.0557 162.5 36.9986 162.256 36.9502 161.988L37.8924 160.35C37.8924 160.35 38.5398 159.793 39.5424 159.402C40.3312 159.089 41.3425 158.884 42.4321 159.137C42.6279 159.182 42.8265 159.243 43.025 159.318C43.4494 159.481 43.9129 159.67 44.4041 159.878C44.5036 159.917 44.6026 159.959 44.7049 160.001C44.8045 160.044 44.9067 160.086 45.009 160.131C45.1505 160.191 45.2919 160.251 45.4366 160.314C47.896 161.368 50.7591 162.647 52.6946 163.183C53.2484 163.336 53.8506 163.436 54.4616 163.496C54.6422 163.518 54.8228 163.532 55.0034 163.542C57.0989 163.68 59.1666 163.43 59.7177 163.463C60.3106 163.499 61.6081 164.77 62.466 165.561C62.701 165.778 62.9055 165.959 63.0502 166.067C63.0714 166.083 63.0921 166.101 63.1133 166.122C63.1313 166.134 63.1465 166.146 63.1645 166.164C63.4958 166.468 63.6911 166.935 63.7966 167.32C63.7966 167.32 63.7999 167.32 63.7966 167.323C63.8418 167.494 63.8689 167.651 63.8842 167.768C63.8929 167.843 63.8961 167.907 63.8929 167.946Z" fill="#EDE9FF" stroke="#4D21FF" stroke-width="0.8" stroke-linecap="round" stroke-linejoin="round"/>
<path d="M63.8929 167.946C63.8929 167.967 63.8869 167.988 63.8836 168.009C63.8205 168.217 63.5317 168.301 63.3086 168.166C63.0649 168.018 62.6732 167.115 62.6732 167.115L62.2457 166.676L61.9628 166.383L61.9568 166.381C61.9927 166.468 62.3452 167.317 62.1673 167.708C62.1554 167.735 62.1434 167.759 62.1254 167.78C62.0651 167.862 61.996 167.934 61.9176 167.997C61.6859 168.184 61.3938 168.289 61.0897 168.289C61.0864 168.289 61.0864 168.289 61.0837 168.289H61.0684C60.8275 168.28 60.1475 168.367 59.5539 168.409C59.5268 168.409 59.5028 168.413 59.4816 168.413C59.2738 168.422 59.0779 168.428 58.9218 168.419C58.4404 168.352 57.9736 168.199 57.552 167.958C57.552 167.958 55.6045 167.654 54.7374 167.287C54.683 167.263 54.6291 167.238 54.578 167.211C54.5268 167.182 54.4757 167.151 54.4306 167.121C54.3343 167.058 54.244 166.989 54.1624 166.917C53.7228 166.531 53.4459 166.043 53.3768 165.911C53.3708 165.899 53.3676 165.893 53.3649 165.887V165.884C53.3589 165.878 53.3589 165.875 53.3589 165.875C53.3589 165.875 51.2155 165.785 48.3138 165.561C47.197 165.477 45.9686 165.372 44.7076 165.245C42.9886 165.074 41.565 165.029 40.4209 164.848C40.3007 164.827 40.1799 164.806 40.0657 164.785C39.9243 164.755 39.7888 164.725 39.6561 164.692C39.587 164.129 39.593 163.416 39.8606 162.711C40.1827 161.86 40.8871 161.02 42.3021 160.484C42.3081 160.484 42.314 160.481 42.32 160.478C43.0006 160.228 43.6985 160.026 44.403 159.879C44.4063 159.876 44.4063 159.876 44.409 159.876C44.5053 159.917 44.6048 159.957 44.7038 160.002C44.8034 160.044 44.9057 160.086 45.0079 160.131C45.1494 160.192 45.2908 160.252 45.4355 160.315C47.8977 161.377 50.7548 162.66 52.6903 163.186C53.2474 163.34 53.8496 163.439 54.4605 163.496C54.6411 163.518 54.8217 163.532 55.0023 163.542C57.0978 163.683 59.1628 163.436 59.7133 163.467C60.3063 163.5 61.601 164.773 62.4556 165.562C62.6966 165.782 62.9012 165.966 63.0486 166.071C63.0698 166.086 63.0905 166.104 63.1117 166.122C63.1297 166.134 63.1449 166.146 63.1628 166.164C63.4969 166.462 63.6927 166.929 63.795 167.32C63.795 167.32 63.7982 167.32 63.795 167.323C63.8434 167.492 63.87 167.648 63.8826 167.769C63.8929 167.844 63.8962 167.907 63.8929 167.946Z" fill="#EDE9FF" stroke="#4D21FF" stroke-width="0.8" stroke-linecap="round" stroke-linejoin="round"/>
<path d="M57.3833 166.499C57.3833 166.499 58.6144 167.14 59.1083 167.36C59.6023 167.58 59.5539 168.48 59.5539 168.48" fill="#EDE9FF"/>
<path d="M57.3833 166.499C57.3833 166.499 58.6144 167.14 59.1083 167.36C59.6023 167.58 59.5539 168.48 59.5539 168.48" stroke="#4D21FF" stroke-width="0.8" stroke-linecap="round" stroke-linejoin="round"/>
<path d="M58.7014 165.626C58.7014 165.626 60.5891 167.001 60.9443 167.404C61.157 167.655 61.2103 168.005 61.0831 168.308" fill="#EDE9FF"/>
<path d="M58.7014 165.626C58.7014 165.626 60.5891 167.001 60.9443 167.404C61.157 167.655 61.2103 168.005 61.0831 168.308" stroke="#4D21FF" stroke-width="0.8" stroke-linecap="round" stroke-linejoin="round"/>
<path d="M61.9556 166.373C61.9556 166.373 60.1496 164.494 59.9146 164.416L61.9556 166.373Z" fill="#EDE9FF"/>
<path d="M61.9556 166.373C61.9556 166.373 60.1496 164.494 59.9146 164.416" stroke="#4D21FF" stroke-width="0.8" stroke-linecap="round" stroke-linejoin="round"/>
<path d="M59.2483 133.087C58.2598 135.16 56.3118 138.006 53.1664 137.74C49.8344 137.458 47.9657 135.114 47.1013 133.629C48.2987 133.172 49.5069 132.703 50.5062 132.313V132.291C50.5062 131.28 50.4725 130.066 50.3653 128.863C50.343 128.603 50.3087 128.338 50.2805 128.073C50.2522 127.864 50.2239 127.655 50.1902 127.452H56.5147C56.5147 127.452 56.475 127.706 56.4298 128.123C56.4298 128.129 56.4298 128.135 56.4244 128.14C56.3847 128.513 56.3341 129.016 56.3004 129.58C56.2498 130.331 56.2155 131.189 56.2383 132.042C56.5435 132.15 56.8536 132.263 57.1642 132.381C57.3617 132.449 57.5597 132.523 57.7626 132.59C57.9998 132.675 58.237 132.754 58.4856 132.833L59.0051 132.997C59.0905 133.025 59.1694 133.053 59.2483 133.087Z" fill="#EDE9FF" stroke="#4D21FF" stroke-width="0.8" stroke-linecap="round" stroke-linejoin="round"/>
<path d="M50.2803 128.074C50.2803 128.074 51.4602 131.14 53.1754 131.666C54.8907 132.192 56.4275 128.143 56.4275 128.143C56.4275 128.143 54.0143 130.725 53.1161 130.298C52.218 129.872 50.2803 128.074 50.2803 128.074Z" fill="#4D21FF"/>
<path d="M49.2668 111.13C47.6131 112.494 46.4734 114.379 45.5491 116.313C44.769 117.945 44.1119 119.822 44.7114 121.528C45.016 122.395 45.6171 123.121 46.2063 123.826C47.3829 125.235 49.0285 129.167 50.2052 130.576C50.2792 128.071 48.1788 124.018 48.4062 121.909C48.5825 120.274 49.2891 118.75 49.986 117.26C50.8596 115.392 51.7474 113.501 53.0661 111.917C53.7809 111.057 56.0668 109.527 53.7575 109.344C52.1979 109.22 50.4255 110.176 49.2668 111.13Z" fill="#4D21FF" stroke="#4D21FF" stroke-width="0.8" stroke-linecap="round" stroke-linejoin="round"/>
<path d="M47.7862 119.667C47.7862 119.667 46.9718 118.097 46.1215 119.588C45.5063 120.667 46.3925 122.388 46.7716 123.023C47.0235 123.403 47.4581 123.619 47.9124 123.592L47.7862 119.667Z" fill="#EDE9FF" stroke="#4D21FF" stroke-width="0.8" stroke-linecap="round" stroke-linejoin="round"/>
<path d="M58.4355 125.361C58.2849 125.846 57.4422 127.044 56.4276 128.143C56.2682 128.314 56.1056 128.486 55.9402 128.649C54.9289 129.651 53.8328 130.443 53.1163 130.299C52.4929 130.175 51.6774 129.531 50.8734 128.712C50.6748 128.511 50.4763 128.294 50.2804 128.074V128.071C49.2719 126.927 48.3781 125.633 48.056 124.919C47.9113 124.597 47.809 124.13 47.7367 123.589C47.5681 122.312 47.5773 120.626 47.5953 119.482C47.6045 119.001 47.6132 118.615 47.6132 118.399C47.6132 117.447 51.1563 114.157 51.1563 114.157C51.2314 114.124 51.3336 114.115 51.4571 114.127C51.8515 114.16 52.4777 114.395 53.1974 114.747C55.3467 115.792 58.342 117.863 58.5618 118.652C58.8778 119.789 58.7543 124.338 58.4355 125.361Z" fill="#EDE9FF" stroke="#4D21FF" stroke-width="0.8" stroke-linecap="round" stroke-linejoin="round"/>
<path d="M51.3923 120.994C51.3923 121.377 51.2508 121.69 51.0915 121.69C50.9321 121.69 50.7754 121.389 50.7754 120.994C50.7754 120.6 50.9168 120.296 51.0915 120.296C51.2661 120.296 51.3923 120.615 51.3923 120.994Z" fill="#4D21FF"/>
<path d="M55.4445 120.299C55.6191 120.299 55.7605 120.61 55.7605 120.994C55.7605 121.378 55.6191 121.69 55.4445 121.69C55.2699 121.69 55.1284 121.378 55.1284 120.994C55.1284 120.61 55.2699 120.299 55.4445 120.299Z" fill="#4D21FF"/>
<path d="M49.3665 119.284C49.3665 119.284 49.9382 118.207 51.8378 118.526" stroke="#4D21FF" stroke-width="0.8" stroke-linecap="round" stroke-linejoin="round"/>
<path d="M57.2338 119.284C57.2338 119.284 56.6648 118.207 54.7651 118.526" stroke="#4D21FF" stroke-width="0.8" stroke-linecap="round" stroke-linejoin="round"/>
<path d="M53.6733 123.657C54.0993 123.608 54.4464 123.315 54.504 122.955C54.504 122.955 53.4454 121.31 53.7664 119.722" stroke="#4D21FF" stroke-width="0.8" stroke-linecap="round" stroke-linejoin="round"/>
<path d="M47.098 115.893C46.6601 116.488 46.3299 117.155 46.1221 117.864" stroke="#EDE9FF" stroke-width="0.8" stroke-linecap="round" stroke-linejoin="round"/>
<path d="M51.6496 111.541C51.6496 111.541 51.0458 112.545 48.397 114.583C48.2273 114.71 48.0647 114.845 47.9102 114.987" stroke="#EDE9FF" stroke-width="0.8" stroke-linecap="round" stroke-linejoin="round"/>
<path d="M43.1169 143.412C42.7612 148.589 42.4048 153.765 42.0491 158.941C42.0512 158.808 42.0529 158.675 42.0551 158.543" fill="#4D21FF"/>
<path d="M43.1169 143.412C42.7612 148.589 42.4048 153.765 42.0491 158.941C42.0512 158.808 42.0529 158.675 42.0551 158.543" stroke="#4D21FF" stroke-width="0.8" stroke-linecap="round" stroke-linejoin="round"/>
<path d="M77.4821 126.339C78.4488 125.921 79.6146 126.106 80.4915 126.688C81.3684 127.271 81.9701 128.21 82.2813 129.216C82.5962 130.233 82.6245 131.369 82.1833 132.339C81.7427 133.308 80.7825 134.069 79.7179 134.106C78.9356 134.134 78.1811 133.785 77.5534 133.318C75.5074 131.794 74.4884 127.631 77.4821 126.339Z" fill="#EDE9FF" stroke="#4D21FF" stroke-width="0.8" stroke-linecap="round" stroke-linejoin="round"/>
<path d="M81.9885 108.969C81.9885 109.031 82.0054 109.466 82.0222 109.539C82.2143 110.375 82.6152 112.47 81.5984 112.894C81.9847 114.273 82.9312 123.267 82.8067 127.853C82.7729 129.219 82.5358 130.851 81.3047 131.439C79.232 132.421 77.2617 130.021 77.5212 128.146C77.8824 125.582 77.7584 122.974 78.0744 120.382C78.4073 117.694 79.0177 114.927 78.3453 112.312C78.1816 112.137 77.1371 110.065 76.7982 109.489C76.6513 109.24 76.5104 108.986 76.437 108.71C76.2847 108.122 76.2395 106.248 76.2395 105.875C76.5501 105.287 76.9511 105.83 77.1654 106.214C77.3177 106.491 77.3743 107.055 77.3406 107.694C77.3351 107.818 77.3237 107.948 77.3912 108.049C77.476 108.173 77.6452 108.258 77.7975 108.235C78.4639 108.14 78.4356 107.575 78.4302 107.157C78.4302 105.717 78.4247 104.277 78.4247 102.842C78.4247 102.605 78.496 101.955 78.7278 101.933C78.9818 101.91 79.2979 102.096 79.3316 102.868C79.3691 103.732 79.368 106.394 79.368 106.394C79.4132 106.434 79.4812 106.468 79.5372 106.445C79.5938 106.417 79.6161 106.349 79.633 106.293C79.955 104.954 80.2825 103.616 80.604 102.277C80.6437 102.119 80.8776 101.794 81.0419 101.794C81.4445 101.793 81.4554 102.262 81.4782 102.398C81.6191 103.115 80.6154 106.072 80.4463 106.755C80.418 106.874 80.4577 107.054 80.5703 107.021L82.149 103.84C82.2844 103.501 82.6424 103.118 83.0041 103.067C83.0324 103.062 83.0607 103.062 83.083 103.073C83.1113 103.084 83.1336 103.112 83.1505 103.141C83.3028 103.412 83.1505 103.79 83.0602 104.09C82.9699 104.383 81.7954 106.585 81.3776 107.472C81.3156 107.596 81.2193 107.878 81.3379 107.992C81.513 108.065 81.6768 107.868 81.7616 107.692C82.0271 107.167 82.2812 106.637 82.5238 106.1C82.5972 105.942 82.7142 105.723 82.891 105.761C83.9284 105.988 82.4237 108.212 81.9885 108.969Z" fill="#EDE9FF" stroke="#4D21FF" stroke-width="0.8" stroke-linecap="round" stroke-linejoin="round"/>
<path d="M79.0613 108.501C79.5895 108.956 80.1117 109.436 80.4697 110.035C80.8271 110.633 81.0039 111.374 80.7945 112.038C80.7667 112.126 80.733 112.211 80.69 112.292" fill="#EDE9FF"/>
<path d="M79.0613 108.501C79.5895 108.956 80.1117 109.436 80.4697 110.035C80.8271 110.633 81.0039 111.374 80.7945 112.038C80.7667 112.126 80.733 112.211 80.69 112.292" stroke="#4D21FF" stroke-width="0.8" stroke-linecap="round" stroke-linejoin="round"/>
<path d="M63.7368 142.486C64.3543 143.831 64.7367 144.968 64.8841 146.174C65.0408 147.456 65.0925 148.463 64.2155 152.071" stroke="#4D21FF" stroke-width="0.8" stroke-linecap="round" stroke-linejoin="round"/>
<path d="M51.4586 113.334C51.396 113.558 51.3482 113.797 51.4042 114.023C51.4776 114.32 51.7148 114.544 51.9444 114.745C53.6803 116.269 55.6327 117.545 57.7244 118.523C57.9665 118.636 58.2232 118.756 58.3685 118.98C58.5143 119.203 58.5203 119.487 58.5214 119.753C58.5284 121.154 58.5355 122.554 58.542 123.954C58.5442 124.388 58.5453 124.829 58.4153 125.242C58.1079 126.223 57.4366 127.014 56.9438 127.915C56.4536 128.811 56.1816 129.72 56.2148 130.741C56.0793 129.7 59.716 127.686 60.6974 123.594C60.835 123.021 63.666 119.588 61.9687 115.558C60.3394 111.689 57.7674 110.022 56.9024 109.824C55.5685 109.519 54.5453 109.681 53.4475 110.488C52.4993 111.185 51.7758 112.197 51.4586 113.334Z" fill="#4D21FF" stroke="#4D21FF" stroke-width="0.8" stroke-linecap="round" stroke-linejoin="round"/>
<path d="M55.0229 125.098C54.709 125.161 54.3946 125.223 54.0769 125.264C53.0188 125.397 51.8269 125.23 51.1165 124.435C51.1709 125.149 51.6735 127.843 53.12 127.913C54.6405 127.988 55.0229 125.098 55.0229 125.098Z" stroke="#4D21FF" stroke-width="0.8" stroke-linecap="round" stroke-linejoin="round"/>
<path d="M53.6069 111.687C54.2282 113.105 55.2395 114.349 56.4999 115.247C57.4193 115.902 58.4681 116.378 59.3102 117.13C60.4216 118.123 61.113 119.703 60.6936 121.133" stroke="#EDE9FF" stroke-width="0.8" stroke-linecap="round" stroke-linejoin="round"/>
<path d="M64.9749 133.666C64.9749 133.666 63.4038 134.765 63.0421 137.042C62.8604 138.184 62.9931 139.386 63.4533 140.447" stroke="#4D21FF" stroke-width="0.8" stroke-linecap="round" stroke-linejoin="round"/>
<path d="M44.712 142.642C44.6244 144.068 43.7355 145.302 42.8809 146.447L44.712 142.642Z" fill="#4D21FF"/>
<path d="M44.712 142.642C44.6244 144.068 43.7355 145.302 42.8809 146.447" stroke="#4D21FF" stroke-width="0.8" stroke-linecap="round" stroke-linejoin="round"/>
<path d="M42.5903 153.536C43.4629 155 44.9121 156.027 46.5822 156.366" stroke="#4D21FF" stroke-width="0.8" stroke-linecap="round" stroke-linejoin="round"/>
<path d="M63.4038 154.385C63.4038 154.385 61.941 156.58 56.9678 157.019" stroke="#4D21FF" stroke-width="0.8" stroke-linecap="round" stroke-linejoin="round"/>
<path d="M209.059 135.319C209.059 135.319 190.103 141.194 186.535 136.557L187.014 112.886H189.896L193.278 129.558L208.814 126.716C208.814 126.716 210.804 132.885 209.059 135.319Z" fill="#EDE9FF"/>
<mask id="mask0_136_4442" style="mask-type:luminance" maskUnits="userSpaceOnUse" x="186" y="112" width="24" height="27">
<path d="M209.059 135.319C209.059 135.319 190.103 141.194 186.535 136.557L187.014 112.886H189.896L193.278 129.558L208.814 126.716C208.814 126.716 210.804 132.885 209.059 135.319Z" fill="white"/>
</mask>
<g mask="url(#mask0_136_4442)">
<path d="M201.072 136.147C200.016 136.658 198.899 137.081 197.979 137.809C199.264 138.212 200.633 137.696 201.915 137.287C203.604 136.747 205.345 136.387 207.09 136.071C207.17 135.585 206.553 134.48 206.3 134.054C205.854 133.303 205.774 133.236 205.005 133.606C203.639 134.262 202.478 135.466 201.072 136.147Z" fill="#00CC9B"/>
</g>
<path d="M209.059 135.319C209.059 135.319 190.103 141.194 186.535 136.557L187.014 112.886H189.896L193.278 129.558L208.814 126.716C208.814 126.716 210.804 132.885 209.059 135.319Z" stroke="#4D21FF" stroke-width="0.8" stroke-miterlimit="10" stroke-linecap="round" stroke-linejoin="round"/>
<path d="M207.2 135.94L210.536 156.436C210.444 169.725 216.784 167.724 221.184 167.689C226.27 167.647 233.991 162.603 230.205 154.754L231.665 126.34L222.797 125.656C219.873 125.431 207.906 125.807 206.956 127.335C204.485 131.307 207.2 135.94 207.2 135.94Z" fill="#EDE9FF"/>
<mask id="mask1_136_4442" style="mask-type:luminance" maskUnits="userSpaceOnUse" x="205" y="125" width="27" height="43">
<path d="M207.2 135.94L210.536 156.436C210.444 169.725 216.784 167.724 221.184 167.689C226.27 167.647 233.991 162.603 230.205 154.754L231.665 126.34L222.797 125.656C219.873 125.431 207.906 125.807 206.956 127.335C204.485 131.307 207.2 135.94 207.2 135.94Z" fill="white"/>
</mask>
<g mask="url(#mask1_136_4442)">
<path d="M207.722 137.652C209.644 145.057 214.496 151.659 220.988 155.705C220.274 155.65 219.609 155.339 218.93 155.109C218.251 154.879 217.494 154.731 216.829 154.998C216.164 155.265 215.688 156.089 216.017 156.725C216.154 156.99 216.401 157.18 216.645 157.351C217.723 158.111 218.908 158.717 220.155 159.147C219.063 159.035 217.951 159.121 216.889 159.4C216.693 160.343 217.747 161.007 218.577 161.495C219.901 162.272 221.049 163.349 221.909 164.62C218.99 164.628 216.07 164.796 213.168 165.123C212.78 165.166 212.362 165.207 212.022 165.015C211.617 164.787 211.446 164.301 211.318 163.853C210.671 161.593 210.293 159.255 210.195 156.906C210.139 155.583 210.172 154.254 210.021 152.94C209.901 151.904 209.667 150.885 209.447 149.866C208.602 145.948 207.953 141.987 207.504 138.004C207.306 137.994 207.722 137.652 207.722 137.652Z" fill="#00CC9B"/>
<path d="M230.196 135.994C229.754 135.853 228.852 135.488 228.173 134.907C228.344 135.725 229.561 137.13 230.273 137.568C230.424 137.661 230.636 137.734 230.763 137.611C230.874 137.503 230.98 137.164 231.113 137.085L230.196 135.994Z" fill="#00CC9B"/>
</g>
<path d="M207.2 135.94L210.536 156.436C210.444 169.725 216.784 167.724 221.184 167.689C226.27 167.647 233.991 162.603 230.205 154.754L231.665 126.34L222.797 125.656C219.873 125.431 207.906 125.807 206.956 127.335C204.485 131.307 207.2 135.94 207.2 135.94Z" stroke="#4D21FF" stroke-width="0.8" stroke-miterlimit="10" stroke-linecap="round" stroke-linejoin="round"/>
<path d="M213.679 125.243C212.728 126.978 212.263 128.976 212.351 130.953C212.359 131.126 212.372 131.304 212.449 131.459C212.692 131.942 213.362 131.94 213.899 132.008C215.992 132.273 217.296 134.483 219.272 135.224C219.427 135.281 219.596 135.33 219.754 135.285C219.902 135.242 220.015 135.122 220.113 135.001C220.972 133.939 221.278 132.389 222.451 131.687C222.961 131.381 223.613 131.256 223.963 130.774C224.367 130.218 224.187 129.447 223.991 128.788C223.669 127.706 223.312 126.568 222.477 125.809C221.651 125.058 220.49 124.806 219.378 124.715C217.738 124.58 216.075 124.736 214.489 125.173C214.503 125.383 213.679 125.243 213.679 125.243Z" fill="#00CC9B" stroke="#4D21FF" stroke-width="0.8" stroke-linecap="round" stroke-linejoin="round"/>
<path d="M240.006 139.155C238.677 137.226 237.694 135.061 237.114 132.793C236.828 131.67 236.635 130.508 236.121 129.469C235.301 127.811 233.653 126.589 231.829 126.287C231.438 126.222 231.025 126.199 230.654 126.339C229.868 126.637 229.52 127.548 229.36 128.373C229.018 130.141 229.119 131.992 229.654 133.711C230.018 134.883 234.398 143.403 237.3 146.706C237.022 145.042 238.936 139.478 240.006 139.155Z" fill="#EDE9FF"/>
<mask id="mask2_136_4442" style="mask-type:luminance" maskUnits="userSpaceOnUse" x="229" y="126" width="12" height="21">
<path d="M240.006 139.155C238.677 137.226 237.694 135.061 237.114 132.793C236.828 131.67 236.635 130.508 236.121 129.469C235.301 127.811 233.653 126.589 231.829 126.287C231.438 126.222 231.025 126.199 230.654 126.339C229.868 126.637 229.52 127.548 229.36 128.373C229.018 130.141 229.119 131.992 229.654 133.711C230.018 134.883 234.398 143.403 237.3 146.706C237.022 145.042 238.936 139.478 240.006 139.155Z" fill="white"/>
</mask>
<g mask="url(#mask2_136_4442)">
<path d="M231.419 137.484C232.315 139.173 233.211 140.863 234.107 142.552C234.489 143.273 234.926 144.045 235.677 144.363C235.206 142.691 234.937 140.961 234.876 139.224C234.846 138.353 234.866 137.461 234.579 136.637C234.47 136.728 234.354 136.337 234.354 136.337C234.238 136.561 233.921 136.567 233.674 136.515C231.918 136.148 230.713 134.581 229.669 133.123C229.384 134.091 229.585 135.189 230.196 135.993C230.196 135.993 231.33 137.316 231.419 137.484Z" fill="#00CC9B"/>
</g>
<path d="M240.006 139.155C238.677 137.226 237.694 135.061 237.114 132.793C236.828 131.67 236.635 130.508 236.121 129.469C235.301 127.811 233.653 126.589 231.829 126.287C231.438 126.222 231.025 126.199 230.654 126.339C229.868 126.637 229.52 127.548 229.36 128.373C229.018 130.141 229.119 131.992 229.654 133.711C230.018 134.883 234.398 143.403 237.3 146.706C237.022 145.042 238.936 139.478 240.006 139.155Z" stroke="#4D21FF" stroke-width="0.8" stroke-miterlimit="10" stroke-linecap="round" stroke-linejoin="round"/>
<path d="M236.233 145.249C233.307 139.638 234.722 126.714 234.631 124.636L238.494 124.431C238.881 124.431 240.664 135.451 241.887 140.026C243.002 144.193 241.935 148.407 240.006 148.408C238.407 148.408 236.847 146.427 236.233 145.249Z" fill="#EDE9FF" stroke="#4D21FF" stroke-width="0.8" stroke-miterlimit="10" stroke-linecap="round" stroke-linejoin="round"/>
<path d="M201.354 130.687C204.084 126.716 209.41 126.398 209.41 126.398" stroke="#4D21FF" stroke-width="0.8" stroke-miterlimit="10" stroke-linecap="round" stroke-linejoin="round"/>
<path d="M190.864 132.911C191.806 132.125 192.518 130.807 192.748 130.194L190.864 132.911Z" fill="#EDE9FF"/>
<path d="M190.864 132.911C191.806 132.125 192.518 130.807 192.748 130.194" stroke="#4D21FF" stroke-width="0.8" stroke-miterlimit="10" stroke-linecap="round" stroke-linejoin="round"/>
<path d="M211.065 151.679C212.619 154.216 222.657 156.934 226.662 156.353" stroke="#4D21FF" stroke-width="0.8" stroke-miterlimit="10" stroke-linecap="round" stroke-linejoin="round"/>
<path d="M213.912 158.821C216.8 159.321 219.792 159.208 222.634 158.49" stroke="#4D21FF" stroke-width="0.8" stroke-miterlimit="10" stroke-linecap="round" stroke-linejoin="round"/>
<path d="M227.237 134.201C227.874 135.065 228.511 135.929 229.148 136.794C229.409 137.148 229.776 137.545 230.206 137.448" stroke="#4D21FF" stroke-width="0.8" stroke-miterlimit="10" stroke-linecap="round" stroke-linejoin="round"/>
<path d="M241.465 232.628C241.298 233.322 241.245 234.145 241.737 234.662C242.199 235.145 242.951 235.166 243.62 235.154C244.386 235.141 245.152 235.127 245.918 235.113C246.805 235.097 247.722 235.075 248.529 234.703C249.335 234.332 250.005 233.512 249.914 232.63C249.878 232.283 249.731 231.958 249.586 231.641C249.381 231.192 249.176 230.744 248.972 230.296C246.415 224.7 242.553 228.103 241.465 232.628Z" fill="#EDE9FF" stroke="#4D21FF" stroke-width="0.8" stroke-miterlimit="10" stroke-linecap="round" stroke-linejoin="round"/>
<path d="M238.223 226.034C238.304 228.6 238.088 231.176 237.58 233.692C237.464 234.265 237.569 235.128 238.151 235.075C238.357 235.057 238.523 234.907 238.67 234.763C240.662 232.805 242.109 230.3 242.809 227.597C242.96 227.013 243.066 226.352 242.749 225.84C242.607 225.611 242.393 225.437 242.183 225.267C240.36 223.791 238.054 222.33 238.223 226.034Z" fill="#EDE9FF" stroke="#4D21FF" stroke-width="0.8" stroke-miterlimit="10" stroke-linecap="round" stroke-linejoin="round"/>
<path d="M231.909 160.277C231.909 160.277 234.772 165.262 235.386 166.422C236.001 167.583 249.009 184.647 251.479 197.071C251.947 199.43 242.367 225.838 242.367 225.838L240.203 224.606C240.203 224.606 241.714 200.522 241.347 198.523C240.98 196.527 231.418 181.746 231.418 181.746C231.418 181.746 226.079 177.821 223.886 173.265L231.909 160.277Z" fill="#4D21FF"/>
<path d="M232.219 172.765C232.219 172.765 230.567 176.397 230.563 176.919C230.559 177.441 239.542 205.804 242.176 212.368C243.85 216.592 245.324 220.92 246.59 225.334C246.59 225.334 247.612 226.679 246.839 228.046C246.066 229.415 242.996 230.321 242.362 229.093C241.728 227.865 235.512 221.474 232.892 215.123C230.287 208.806 226.6 198.165 224.502 194.194C221.746 189.131 219.306 183.915 217.195 178.577C214.552 171.826 211.857 164.551 211.857 164.551C212.954 164.648 214.055 164.677 215.153 164.64C217.731 164.553 220.296 164.1 222.776 163.291C228.507 161.366 230.988 157.681 230.988 157.681C230.988 157.681 232.409 161.524 232.775 162.269L232.219 172.765Z" fill="#4D21FF"/>
<path d="M250.523 199.499C249.963 200.459 249.204 201.303 248.303 201.952" stroke="#EDE9FF" stroke-width="0.8" stroke-miterlimit="10" stroke-linecap="round" stroke-linejoin="round"/>
<path d="M251.225 197.918C251.141 198.182 251.043 198.442 250.931 198.696" stroke="#EDE9FF" stroke-width="0.8" stroke-miterlimit="10" stroke-linecap="round" stroke-linejoin="round"/>
<path d="M227.032 164.281C228.481 166.775 229.835 170.357 229.618 173.233C229.583 173.693 229.057 174.731 229.057 174.731" stroke="#EDE9FF" stroke-width="0.8" stroke-miterlimit="10" stroke-linecap="round" stroke-linejoin="round"/>
<path d="M218.273 167.056C218.43 168.445 218.643 170.749 218.341 172.113C218.039 173.477 217.303 174.796 216.118 175.537" stroke="#EDE9FF" stroke-width="0.8" stroke-miterlimit="10" stroke-linecap="round" stroke-linejoin="round"/>
<path d="M230.615 161.807C230.977 162.159 231.128 162.667 231.372 163.109C232.153 164.52 233.67 165.615 234.919 165.798" stroke="#EDE9FF" stroke-width="0.8" stroke-miterlimit="10" stroke-linecap="round" stroke-linejoin="round"/>
<path d="M225.996 167.368C227.915 171.568 229.384 175.776 232.366 182.913" stroke="#EDE9FF" stroke-width="0.8" stroke-miterlimit="10" stroke-linecap="round" stroke-linejoin="round"/>
<path d="M224.972 165.219C225.136 165.547 225.294 165.873 225.449 166.197" stroke="#EDE9FF" stroke-width="0.8" stroke-miterlimit="10" stroke-linecap="round" stroke-linejoin="round"/>
<path d="M240.955 197.344C241.832 199.039 242.955 200.607 244.277 201.983" stroke="#EDE9FF" stroke-width="0.8" stroke-miterlimit="10" stroke-linecap="round" stroke-linejoin="round"/>
<path d="M241.864 198.915C242.435 201.569 243.495 204.114 244.967 206.397" stroke="#EDE9FF" stroke-width="0.8" stroke-miterlimit="10" stroke-linecap="round" stroke-linejoin="round"/>
<path d="M228.337 199.048C224.1 190.006 219.581 181.036 214.025 167.369" stroke="#EDE9FF" stroke-width="0.8" stroke-miterlimit="10" stroke-linecap="round" stroke-linejoin="round"/>
<path d="M229.295 201.679C229.19 201.362 229.082 201.044 228.969 200.726" stroke="#EDE9FF" stroke-width="0.8" stroke-miterlimit="10" stroke-linecap="round" stroke-linejoin="round"/>
<path d="M243.944 229.476C242.859 228.057 234.926 216.978 232.954 211.936C231.645 208.588 230.655 206.219 229.669 202.88" stroke="#EDE9FF" stroke-width="0.8" stroke-miterlimit="10" stroke-linecap="round" stroke-linejoin="round"/>
<path d="M240.955 208.129L244.726 219.212" stroke="#EDE9FF" stroke-width="0.8" stroke-miterlimit="10" stroke-linecap="round" stroke-linejoin="round"/>
<path d="M238.416 124.432L237.269 124.528C236.406 124.599 235.371 124.922 232.93 124.326C232.02 124.104 229.918 123.449 229.673 123.404C229.175 123.306 228.278 123.135 227.777 123.102C225.86 122.984 226.831 122.271 227.63 122.303C228.686 122.352 229.041 122.328 229.848 122.389C229.755 122.336 229.453 122.274 229.448 122.038C229.436 121.467 230.199 121.504 230.199 121.504C230.199 121.504 229.375 121.153 229.489 120.721C229.591 120.342 230.154 120.182 230.505 120.211C230.505 120.211 230.04 119.991 230.064 119.75C230.158 118.825 232.058 118.76 232.058 118.76C231.516 118.438 231.132 118.327 230.782 117.969C230.641 117.824 230.539 117.632 230.494 117.438C230.39 116.983 230.869 116.641 231.277 116.865C231.782 117.143 232.212 117.583 232.694 117.924C233.281 118.34 233.962 118.609 234.582 118.984C234.851 119.147 235.708 120.11 236.013 120.86C236.104 121.024 238.416 124.432 238.416 124.432Z" fill="#EDE9FF" stroke="#4D21FF" stroke-width="0.8" stroke-miterlimit="10" stroke-linecap="round" stroke-linejoin="round"/>
<path d="M187.014 112.887V109.869C187.014 108.366 187.221 106.867 187.671 105.433C187.92 104.638 188.209 103.945 188.482 103.845C188.976 103.663 189.194 105.672 189.194 105.672C189.194 105.672 188.482 102.536 188.482 100.792C188.482 99.0482 190.83 106.295 190.83 106.295L189.896 112.886L187.014 112.887Z" fill="#EDE9FF" stroke="#4D21FF" stroke-width="0.8" stroke-miterlimit="10" stroke-linecap="round" stroke-linejoin="round"/>
<path d="M189.867 108.012C190.15 107.796 190.365 107.493 190.475 107.154L189.867 108.012Z" fill="#EDE9FF"/>
<path d="M189.867 108.012C190.15 107.796 190.365 107.493 190.475 107.154" stroke="#4D21FF" stroke-width="0.8" stroke-miterlimit="10" stroke-linecap="round" stroke-linejoin="round"/>
<path d="M212.638 119.14C213.661 120.849 214.23 122.791 214.293 124.781C214.389 128.09 218.22 132.722 219.316 132.941C220.412 133.16 221.419 127.722 221.371 126.07C221.322 124.418 220.714 119.868 220.714 119.868C220.714 119.868 215.451 115.905 212.638 119.14Z" fill="#EDE9FF" stroke="#4D21FF" stroke-width="0.8" stroke-miterlimit="10" stroke-linecap="round" stroke-linejoin="round"/>
<path d="M214.179 123.514C214.179 123.514 219.199 130.366 221.169 123.399C223.138 116.431 215.646 125.303 214.179 123.514Z" fill="#4D21FF"/>
<path d="M222.654 118.571C222.389 122.636 220.533 124.92 218.393 125.32C216.44 125.682 213.585 123.681 212.158 120.736C212.158 120.736 212.158 120.736 212.154 120.733C212.044 120.659 210.311 119.456 209.894 119.163C209.466 118.857 209.177 118.347 209.201 117.821C209.226 117.32 209.577 116.83 210.058 116.687C210.074 116.679 210.094 116.675 210.11 116.671C210.359 116.61 210.608 116.643 210.844 116.728C210.481 115.338 210.188 113.931 209.967 112.512C210.069 109.233 211.154 106.583 214.636 106.318C218.123 106.053 221.026 108.006 221.161 109.409C221.262 110.497 221.613 113.376 221.932 116.349C222.022 117.168 222.711 117.678 222.654 118.571Z" fill="#EDE9FF" stroke="#4D21FF" stroke-width="0.8" stroke-miterlimit="10" stroke-linecap="round" stroke-linejoin="round"/>
<path d="M221.169 113.891C221.169 113.891 218.925 112.861 219.306 116.201C219.382 116.861 220.609 117.859 220.609 117.859C220.609 117.859 220.296 118.844 219.714 118.844" fill="#EDE9FF"/>
<path d="M221.169 113.891C221.169 113.891 218.925 112.861 219.306 116.201C219.382 116.861 220.609 117.859 220.609 117.859C220.609 117.859 220.296 118.844 219.714 118.844" stroke="#4D21FF" stroke-width="0.8" stroke-miterlimit="10" stroke-linecap="round" stroke-linejoin="round"/>
<path d="M216.84 115.034C216.84 115.034 215.698 114.34 214.915 114.765C214.505 114.944 214.157 115.239 213.914 115.614" fill="#EDE9FF"/>
<path d="M216.84 115.034C216.84 115.034 215.698 114.34 214.915 114.765C214.505 114.944 214.157 115.239 213.914 115.614" stroke="#4D21FF" stroke-width="0.8" stroke-miterlimit="10" stroke-linecap="round" stroke-linejoin="round"/>
<path d="M216.187 116.943C216.273 117.346 216.168 117.708 215.951 117.752C215.734 117.796 215.492 117.51 215.406 117.107C215.321 116.703 215.429 116.346 215.647 116.298C215.864 116.25 216.104 116.551 216.187 116.943Z" fill="#4D21FF"/>
<path d="M220.606 115.788C220.692 116.188 220.583 116.548 220.369 116.597C220.156 116.646 219.907 116.351 219.825 115.952C219.743 115.553 219.844 115.187 220.061 115.142C220.278 115.098 220.519 115.388 220.606 115.788Z" fill="#4D21FF"/>
<path d="M209.712 108.336C209.291 108.695 209.072 109.235 208.918 109.766C208.254 112.057 208.562 114.612 209.75 116.68C209.75 116.68 210.354 116.603 210.845 116.728C211.224 116.825 211.715 117.476 211.895 117.823C212.075 118.171 212.119 118.571 212.16 118.96C212.075 117.929 211.99 116.898 211.906 115.868C211.871 115.452 211.838 115.024 211.96 114.626C211.961 114.622 211.962 114.617 211.964 114.614C212.231 113.767 211.937 111.765 212.013 109.973C214.272 112.735 217.55 112.247 218.64 112.156C220.271 112.021 221.666 110.351 221.575 109.161C221.481 107.947 221.169 104.902 215.789 104.587C214.609 104.518 213.361 104.656 212.37 105.299C211.699 105.735 211.269 106.443 211.148 107.226C211.072 107.724 211.265 107.771 210.883 108.014C210.569 108.212 210.086 108.017 209.712 108.336Z" fill="#4D21FF" stroke="#4D21FF" stroke-width="0.8" stroke-miterlimit="10" stroke-linecap="round" stroke-linejoin="round"/>
<path d="M216.84 120.737C216.84 120.737 217.639 121.615 219.31 121.033L216.84 120.737Z" fill="#EDE9FF"/>
<path d="M216.84 120.737C216.84 120.737 217.639 121.615 219.31 121.033" stroke="#4D21FF" stroke-width="0.8" stroke-miterlimit="10" stroke-linecap="round" stroke-linejoin="round"/>
</svg>
