<svg width="272" height="272" viewBox="0 0 272 272" fill="none" xmlns="http://www.w3.org/2000/svg">
<path d="M34.6463 75.7036C49.1793 47.5031 76.1399 26.1691 109.75 23.1646C132.623 21.1202 156.119 27.8419 174.339 41.8499C183.511 48.9018 191.663 57.924 197.074 68.2029C203.288 80.0093 205.097 93.6191 211.49 105.367C219.44 119.976 234.367 126 244.39 138.623C252.645 149.019 255.478 162.948 254.53 176.189C252.8 200.359 238.639 223.307 217.812 235.693C200.204 246.164 178.978 249.054 158.514 248.103C126.965 246.637 95.5531 236.235 70.7042 216.741C45.8554 197.247 27.9921 168.433 23.762 137.135C20.8869 115.864 25.0665 94.292 34.6463 75.7036Z" fill="#00CC9B"/>
<path opacity="0.9" d="M34.6463 75.7036C49.1793 47.5031 76.1399 26.1691 109.75 23.1646C132.623 21.1202 156.119 27.8419 174.339 41.8499C183.511 48.9018 191.663 57.924 197.074 68.2029C203.288 80.0093 205.097 93.6191 211.49 105.367C219.44 119.976 234.367 126 244.39 138.623C252.645 149.019 255.478 162.948 254.53 176.189C252.8 200.359 238.639 223.307 217.812 235.693C200.204 246.164 178.978 249.054 158.514 248.103C126.965 246.637 95.5531 236.235 70.7042 216.741C45.8554 197.247 27.9921 168.433 23.762 137.135C20.8869 115.864 25.0665 94.292 34.6463 75.7036Z" fill="#EDE9FF"/>
<path d="M25.0637 86.0135C25.7056 88.5556 25.3896 83.8761 26.6478 78.151C27.9061 72.4254 30.0609 74.7478 30.0609 74.7478" stroke="#4D21FF" stroke-width="0.8" stroke-miterlimit="10" stroke-linecap="round" stroke-linejoin="round"/>
<path d="M24.6687 80.1649L28.6132 78.5471" stroke="#4D21FF" stroke-width="0.8" stroke-miterlimit="10" stroke-linecap="round" stroke-linejoin="round"/>
<path d="M31.8756 76.6082C31.8756 76.6082 29.5174 81.4841 33.0724 83.5568" stroke="#4D21FF" stroke-width="0.8" stroke-miterlimit="10" stroke-linecap="round" stroke-linejoin="round"/>
<path d="M35.2202 75.2368C35.2202 75.2368 39.1125 77.3992 36.6743 82.0798" stroke="#4D21FF" stroke-width="0.8" stroke-miterlimit="10" stroke-linecap="round" stroke-linejoin="round"/>
<path d="M32.553 78.2598L35.3415 80.296" stroke="#4D21FF" stroke-width="0.8" stroke-miterlimit="10" stroke-linecap="round" stroke-linejoin="round"/>
<path d="M34.7398 77.3633L32.5579 80.8368" stroke="#4D21FF" stroke-width="0.8" stroke-miterlimit="10" stroke-linecap="round" stroke-linejoin="round"/>
<path d="M47.272 129.457C47.8026 126.223 45.6109 123.171 42.3766 122.64C39.1424 122.109 36.0903 124.301 35.5597 127.535C35.029 130.77 37.2208 133.822 40.455 134.352C43.6893 134.883 46.7414 132.691 47.272 129.457Z" stroke="#4D21FF" stroke-width="0.8" stroke-miterlimit="10" stroke-linecap="round" stroke-linejoin="round"/>
<path d="M53.3179 136.163C50.3639 138.284 46.2497 137.609 44.1281 134.655C42.0065 131.701 42.6816 127.587 45.6355 125.465C48.5894 123.344 52.7037 124.019 54.8253 126.973C56.9469 129.927 56.2718 134.041 53.3179 136.163Z" stroke="#4D21FF" stroke-width="0.8" stroke-miterlimit="10" stroke-linecap="round" stroke-linejoin="round"/>
<path d="M46.8246 126.05L44.0889 127.026" stroke="#4D21FF" stroke-width="0.8" stroke-miterlimit="10" stroke-linecap="round" stroke-linejoin="round"/>
<path d="M47.2043 127.177L43.2766 128.598" stroke="#4D21FF" stroke-width="0.8" stroke-miterlimit="10" stroke-linecap="round" stroke-linejoin="round"/>
<path d="M47.3502 128.535L42.9661 130.221" stroke="#4D21FF" stroke-width="0.8" stroke-miterlimit="10" stroke-linecap="round" stroke-linejoin="round"/>
<path d="M47.0385 130.391L43.0422 132.218" stroke="#4D21FF" stroke-width="0.8" stroke-miterlimit="10" stroke-linecap="round" stroke-linejoin="round"/>
<path d="M46.3346 131.819L43.2942 133.08" stroke="#4D21FF" stroke-width="0.8" stroke-miterlimit="10" stroke-linecap="round" stroke-linejoin="round"/>
<path d="M44.2837 119.456C44.1118 118.941 42.1882 118.575 42.0941 119.999C42.0005 121.423 44.1243 120.24 44.72 119.481C44.72 119.481 43.6276 120.949 44.0911 121.238" stroke="#4D21FF" stroke-width="0.8" stroke-miterlimit="10" stroke-linecap="round" stroke-linejoin="round"/>
<path d="M54.9362 121.231L53.2275 124.782C53.2275 124.782 54.0822 123.007 54.9961 123.169C56.1222 123.369 55.3742 125.211 54.0125 124.534" stroke="#4D21FF" stroke-width="0.8" stroke-miterlimit="10" stroke-linecap="round" stroke-linejoin="round"/>
<path d="M240.833 179.229L243.517 181.769" stroke="#4D21FF" stroke-width="0.8" stroke-miterlimit="10" stroke-linecap="round" stroke-linejoin="round"/>
<path d="M243.517 178.566L241.27 181.923" stroke="#4D21FF" stroke-width="0.8" stroke-miterlimit="10" stroke-linecap="round" stroke-linejoin="round"/>
<path d="M246.156 179.53L248.841 178.532" stroke="#4D21FF" stroke-width="0.8" stroke-miterlimit="10" stroke-linecap="round" stroke-linejoin="round"/>
<path d="M250.128 175.733L251.761 177.178" stroke="#4D21FF" stroke-width="0.8" stroke-miterlimit="10" stroke-linecap="round" stroke-linejoin="round"/>
<path d="M253.012 173.996L250.945 181.092" stroke="#4D21FF" stroke-width="0.8" stroke-miterlimit="10" stroke-linecap="round" stroke-linejoin="round"/>
<path d="M127.822 139.384L135.04 134.418L144.6 135.088L145.197 147.205L138.18 152.223L129.522 151.592L127.822 139.384Z" stroke="#4D21FF" stroke-width="0.8" stroke-miterlimit="10" stroke-linecap="round" stroke-linejoin="round"/>
<path d="M129.521 151.592L136.51 146.56L145.197 147.205" stroke="#4D21FF" stroke-width="0.8" stroke-miterlimit="10" stroke-linecap="round" stroke-linejoin="round"/>
<path d="M136.51 146.56L135.04 134.418" stroke="#4D21FF" stroke-width="0.8" stroke-miterlimit="10" stroke-linecap="round" stroke-linejoin="round"/>
<path d="M127.822 139.384L137.361 140.489L144.6 135.088" stroke="#4D21FF" stroke-width="0.8" stroke-miterlimit="10" stroke-linecap="round" stroke-linejoin="round"/>
<path d="M137.361 140.489L138.18 152.223" stroke="#4D21FF" stroke-width="0.8" stroke-miterlimit="10" stroke-linecap="round" stroke-linejoin="round"/>
<path d="M212.078 98.6658L208.88 108.605L218.834 107.262L212.078 98.6658Z" stroke="#4D21FF" stroke-width="0.8" stroke-miterlimit="10" stroke-linecap="round" stroke-linejoin="round"/>
<path d="M212.078 98.6658L213.857 107.875" stroke="#4D21FF" stroke-width="0.8" stroke-miterlimit="10" stroke-linecap="round" stroke-linejoin="round"/>
<path d="M213.572 106.399L214.736 106.214L215.008 107.778" stroke="#4D21FF" stroke-width="0.8" stroke-miterlimit="10" stroke-linecap="round" stroke-linejoin="round"/>
<path d="M86.7075 189.615L91.6819 192.058" stroke="#4D21FF" stroke-width="0.8" stroke-miterlimit="10" stroke-linecap="round" stroke-linejoin="round"/>
<path d="M90.0759 187.751L88.6528 192.946" stroke="#4D21FF" stroke-width="0.8" stroke-miterlimit="10" stroke-linecap="round" stroke-linejoin="round"/>
<path d="M90.7664 185.218C90.7664 185.218 91.4676 184.585 91.9648 185.371C92.462 186.157 91.485 187.798 91.485 187.798L93.4798 187.039" stroke="#4D21FF" stroke-width="0.8" stroke-miterlimit="10" stroke-linecap="round" stroke-linejoin="round"/>
<path d="M125.746 18.5134C130.494 21.1812 125.054 27.7092 125.054 31.5172C125.054 35.3252 130.494 34.7812 133.214 35.8692C134.302 35.8692 136.478 35.8692 136.419 38.636" stroke="#4D21FF" stroke-width="0.8" stroke-miterlimit="10" stroke-linecap="round" stroke-linejoin="round"/>
<path d="M120.454 21.9613C121.279 26.4629 126.445 24.8657 129.605 25.8938C135.037 27.6608 132.026 33.2765 130.401 36.6689C129.43 38.6974 128.463 41.5322 130.199 43.4563" stroke="#4D21FF" stroke-width="0.8" stroke-miterlimit="10" stroke-linecap="round" stroke-linejoin="round"/>
<path d="M121.148 23.707L126.811 19.0024" stroke="#4D21FF" stroke-width="0.8" stroke-miterlimit="10" stroke-linecap="round" stroke-linejoin="round"/>
<path d="M123.37 25.111L127.635 21.5739" stroke="#4D21FF" stroke-width="0.8" stroke-miterlimit="10" stroke-linecap="round" stroke-linejoin="round"/>
<path d="M125.876 28.6889L129.478 25.859" stroke="#4D21FF" stroke-width="0.8" stroke-miterlimit="10" stroke-linecap="round" stroke-linejoin="round"/>
<path d="M125.132 32.9245L132.172 27.8615" stroke="#4D21FF" stroke-width="0.8" stroke-miterlimit="10" stroke-linecap="round" stroke-linejoin="round"/>
<path d="M127.828 34.8987L132.734 31.2963" stroke="#4D21FF" stroke-width="0.8" stroke-miterlimit="10" stroke-linecap="round" stroke-linejoin="round"/>
<path d="M129.916 42.5522L136.049 37.5588" stroke="#4D21FF" stroke-width="0.8" stroke-miterlimit="10" stroke-linecap="round" stroke-linejoin="round"/>
<path d="M130.068 38.6235L134.069 35.8115" stroke="#4D21FF" stroke-width="0.8" stroke-miterlimit="10" stroke-linecap="round" stroke-linejoin="round"/>
<path d="M50.0139 192.335C55.8564 189.998 58.6987 183.368 56.3623 177.525C54.0259 171.683 47.3956 168.84 41.553 171.177C35.7105 173.513 32.8681 180.144 35.2045 185.986C37.5409 191.829 44.1713 194.671 50.0139 192.335Z" stroke="#4D21FF" stroke-width="0.8" stroke-miterlimit="10" stroke-linecap="round" stroke-linejoin="round"/>
<path d="M48.6564 170.728C52.627 166.068 56.0036 163.427 57.306 164.285C59.2834 165.589 55.7305 174.466 49.3706 184.113C43.0107 193.76 36.2521 200.524 34.2752 199.22C32.9728 198.362 34.0695 194.217 36.7879 188.731" stroke="#4D21FF" stroke-width="0.8" stroke-miterlimit="10" stroke-linecap="round" stroke-linejoin="round"/>
<path d="M34.6397 184.088C29.105 182.495 25.5685 180.636 25.7883 179.149C26.1348 176.806 35.682 176.278 47.112 177.969C58.5425 179.659 67.5277 182.929 67.1807 185.272C66.9408 186.893 62.3004 187.645 55.6805 187.396" stroke="#4D21FF" stroke-width="0.8" stroke-miterlimit="10" stroke-linecap="round" stroke-linejoin="round"/>
<path d="M36.0923 175.838C31.9154 168.299 29.8265 162.417 31.2436 161.499C33.103 160.295 40.2936 168.095 47.3052 178.923C54.3168 189.749 58.4931 199.502 56.6337 200.707C55.4043 201.503 51.8416 198.36 47.5413 193.007" stroke="#4D21FF" stroke-width="0.8" stroke-miterlimit="10" stroke-linecap="round" stroke-linejoin="round"/>
<path d="M58.9087 169.217C58.3391 170.081 57.1777 170.319 56.3138 169.75C55.45 169.181 55.2117 168.019 55.7807 167.155C56.3503 166.292 57.5117 166.053 58.3756 166.622C59.2395 167.192 59.4783 168.353 58.9087 169.217Z" fill="#4D21FF"/>
<path d="M52.7113 197.879C52.1417 198.743 50.9803 198.982 50.1164 198.413C49.2526 197.843 49.0143 196.682 49.5839 195.818C50.1534 194.954 51.3149 194.716 52.1787 195.285C53.0421 195.854 53.2809 197.016 52.7113 197.879Z" fill="#4D21FF"/>
<path d="M42.7163 178.442C42.1468 179.306 40.9853 179.544 40.1214 178.975C39.2576 178.406 39.0193 177.244 39.5883 176.381C40.1579 175.517 41.3193 175.278 42.1832 175.848C43.0471 176.417 43.2859 177.578 42.7163 178.442Z" fill="#4D21FF"/>
<path d="M162.021 97.0093H168.43L171.635 91.4584L168.43 85.9074H162.021L158.815 91.4584L162.021 97.0093Z" stroke="#4D21FF" stroke-width="0.8" stroke-miterlimit="10" stroke-linecap="round" stroke-linejoin="round"/>
<path d="M161.09 109.186L157.885 103.635H151.475" stroke="#4D21FF" stroke-width="0.8" stroke-miterlimit="10" stroke-linecap="round" stroke-linejoin="round"/>
<path d="M152.336 91.4584H158.746L161.95 85.9074L158.746 80.3564H152.336L149.131 85.9074L152.336 91.4584Z" stroke="#4D21FF" stroke-width="0.8" stroke-miterlimit="10" stroke-linecap="round" stroke-linejoin="round"/>
<path d="M162.021 85.9074H168.43L171.635 80.3564L168.43 74.8054H162.021L158.815 80.3564L162.021 85.9074Z" stroke="#4D21FF" stroke-width="0.8" stroke-miterlimit="10" stroke-linecap="round" stroke-linejoin="round"/>
<path d="M161.95 86.768C162.426 86.768 162.811 86.3827 162.811 85.9074C162.811 85.4321 162.426 85.0468 161.95 85.0468C161.475 85.0468 161.09 85.4321 161.09 85.9074C161.09 86.3827 161.475 86.768 161.95 86.768Z" fill="#4D21FF"/>
<path d="M148.566 75.1166C149.042 75.1166 149.427 74.7313 149.427 74.256C149.427 73.7807 149.042 73.3954 148.566 73.3954C148.091 73.3954 147.706 73.7807 147.706 74.256C147.706 74.7313 148.091 75.1166 148.566 75.1166Z" fill="#4D21FF"/>
<path d="M160.229 109.186C160.229 108.711 160.614 108.326 161.089 108.326C161.565 108.326 161.95 108.711 161.95 109.186C161.95 109.662 161.565 110.047 161.089 110.047C160.614 110.047 160.229 109.662 160.229 109.186Z" fill="#4D21FF"/>
<path d="M151.475 104.496C151.95 104.496 152.336 104.111 152.336 103.635C152.336 103.16 151.95 102.775 151.475 102.775C151 102.775 150.615 103.16 150.615 103.635C150.615 104.111 151 104.496 151.475 104.496Z" fill="#4D21FF"/>
<path d="M177.833 80.5028C177.833 80.0273 178.219 79.6422 178.694 79.6422C179.17 79.6422 179.555 80.0273 179.555 80.5028C179.555 80.9782 179.17 81.3634 178.694 81.3634C178.219 81.3634 177.833 80.9782 177.833 80.5028Z" fill="#4D21FF"/>
<path d="M157.819 104.496C158.295 104.496 158.68 104.111 158.68 103.635C158.68 103.16 158.295 102.775 157.819 102.775C157.344 102.775 156.959 103.16 156.959 103.635C156.959 104.111 157.344 104.496 157.819 104.496Z" fill="#4D21FF"/>
<path d="M170.774 80.5028C170.774 80.0273 171.159 79.6422 171.635 79.6422C172.11 79.6422 172.495 80.0273 172.495 80.5028C172.495 80.9782 172.11 81.3634 171.635 81.3634C171.159 81.3634 170.774 80.9782 170.774 80.5028Z" fill="#4D21FF"/>
<path d="M161.09 97.0094C161.09 96.5339 161.475 96.1487 161.95 96.1487C162.426 96.1487 162.811 96.5339 162.811 97.0094C162.811 97.4848 162.426 97.8705 161.95 97.8705C161.475 97.8705 161.09 97.4843 161.09 97.0094Z" fill="#4D21FF"/>
<path d="M171.635 80.5027H178.694" stroke="#4D21FF" stroke-width="0.8" stroke-miterlimit="10" stroke-linecap="round" stroke-linejoin="round"/>
<path d="M161.95 97.0093L157.819 103.635" stroke="#4D21FF" stroke-width="0.8" stroke-miterlimit="10" stroke-linecap="round" stroke-linejoin="round"/>
<path d="M152.336 80.3564L148.566 74.256" stroke="#4D21FF" stroke-width="0.8" stroke-miterlimit="10" stroke-linecap="round" stroke-linejoin="round"/>
<path d="M197.789 58.4811C199.237 53.5633 203.784 49.9734 209.171 49.9734C214.74 49.9734 219.413 53.8108 220.689 58.9854" stroke="#4D21FF" stroke-width="0.8" stroke-miterlimit="10" stroke-linecap="round" stroke-linejoin="round"/>
<path d="M207.826 73.6244C201.907 72.9564 197.308 67.9342 197.308 61.837" stroke="#4D21FF" stroke-width="0.8" stroke-miterlimit="10" stroke-linecap="round" stroke-linejoin="round"/>
<path d="M221.034 61.837C221.034 68.3884 215.723 73.7 209.171 73.7" stroke="#4D21FF" stroke-width="0.8" stroke-miterlimit="10" stroke-linecap="round" stroke-linejoin="round"/>
<path d="M221.706 54.3156C225.417 53.8396 227.904 54.098 228.287 55.2035C229.054 57.4143 221.117 62.1764 210.56 65.8397C200.002 69.5036 190.821 70.6813 190.054 68.4705C189.644 67.289 191.721 65.3779 195.356 63.2955" stroke="#4D21FF" stroke-width="0.8" stroke-miterlimit="10" stroke-linecap="round" stroke-linejoin="round"/>
<path d="M157.819 46.1845L158.956 48.4878L161.498 48.8572L159.658 50.6502L160.093 53.182L157.819 51.9868L155.545 53.182L155.98 50.6502L154.14 48.8572L156.682 48.4878L157.819 46.1845Z" stroke="#4D21FF" stroke-width="0.8" stroke-miterlimit="10" stroke-linecap="round" stroke-linejoin="round"/>
<path d="M77.5058 40.0531C77.5058 42.2726 76.5701 44.2745 75.0741 45.6726C73.6924 46.9782 71.8319 47.7724 69.7919 47.7724C69.5416 47.7724 69.2968 47.7615 69.0575 47.7398C67.4527 47.5875 65.9948 46.9455 64.8306 45.9663C63.8351 45.134 63.0517 44.0515 62.5839 42.8166C62.252 41.9571 62.0725 41.0268 62.0725 40.0531C62.0725 35.7935 65.5269 32.3391 69.7919 32.3391C70.9887 32.3391 72.1256 32.6111 73.1429 33.1062C74.3071 33.6665 75.308 34.5097 76.0533 35.5487C76.9672 36.8163 77.5058 38.3721 77.5058 40.0531Z" stroke="#4D21FF" stroke-width="0.8" stroke-miterlimit="10" stroke-linecap="round" stroke-linejoin="round"/>
<path d="M76.2672 41.449C76.2672 42.1083 75.733 42.6425 75.0737 42.6425C74.4143 42.6425 73.8801 42.1083 73.8801 41.449C73.8801 40.7896 74.4143 40.2554 75.0737 40.2554C75.733 40.2554 76.2672 40.7896 76.2672 41.449Z" stroke="#4D21FF" stroke-width="0.8" stroke-miterlimit="10" stroke-linecap="round" stroke-linejoin="round"/>
<path d="M65.527 44.4812C65.527 45.0796 65.255 45.6128 64.8307 45.9664C63.8352 45.134 63.0518 44.0515 62.584 42.8166C62.8723 42.6371 63.215 42.5392 63.5795 42.5392C64.6566 42.5392 65.527 43.4096 65.527 44.4812Z" stroke="#4D21FF" stroke-width="0.8" stroke-miterlimit="10" stroke-linecap="round" stroke-linejoin="round"/>
<path d="M75.0741 45.6726C73.6923 46.9782 71.8319 47.7724 69.7919 47.7724C69.5416 47.7724 69.2968 47.7616 69.0575 47.7398C69.0139 47.5331 68.9922 47.3209 68.9922 47.1033C68.9922 45.3299 70.4283 43.8883 72.2018 43.8883C73.4639 43.8883 74.5519 44.6172 75.0741 45.6726Z" stroke="#4D21FF" stroke-width="0.8" stroke-miterlimit="10" stroke-linecap="round" stroke-linejoin="round"/>
<path d="M67.9211 36.9941C68.9014 36.9941 69.6961 36.1994 69.6961 35.2191C69.6961 34.2387 68.9014 33.444 67.9211 33.444C66.9407 33.444 66.146 34.2387 66.146 35.2191C66.146 36.1994 66.9407 36.9941 67.9211 36.9941Z" stroke="#4D21FF" stroke-width="0.8" stroke-miterlimit="10" stroke-linecap="round" stroke-linejoin="round"/>
<path d="M69.5633 40.2554C69.5633 40.7091 69.1955 41.0763 68.7419 41.0763C68.2882 41.0763 67.9204 40.7086 67.9204 40.2554C67.9204 39.8017 68.2882 39.434 68.7419 39.434C69.1955 39.434 69.5633 39.8023 69.5633 40.2554Z" stroke="#4D21FF" stroke-width="0.8" stroke-miterlimit="10" stroke-linecap="round" stroke-linejoin="round"/>
<path d="M76.0534 35.5487C75.8467 35.6195 75.6182 35.6521 75.3843 35.6521C74.1331 35.6521 73.1267 34.6403 73.1267 33.3891C73.1267 33.2911 73.1321 33.1987 73.143 33.1062C74.3072 33.6665 75.3082 34.5097 76.0534 35.5487Z" stroke="#4D21FF" stroke-width="0.8" stroke-miterlimit="10" stroke-linecap="round" stroke-linejoin="round"/>
<path d="M253.421 129.631L254.253 127.76L252.905 127.016C252.953 126.683 252.963 126.35 252.933 126.022L254.315 125.349L253.581 123.437L252.103 123.864C251.906 123.6 251.676 123.359 251.418 123.144L251.92 121.688L250.049 120.856L249.305 122.204C248.972 122.156 248.639 122.146 248.311 122.177L247.638 120.794L245.727 121.528L246.153 123.007C245.889 123.203 245.648 123.434 245.433 123.693L243.978 123.19L243.146 125.061L244.494 125.805C244.446 126.138 244.436 126.471 244.466 126.799L243.083 127.472L243.818 129.383L245.295 128.957C245.492 129.221 245.722 129.462 245.981 129.677L245.479 131.132L247.35 131.965L248.094 130.617C248.427 130.665 248.76 130.674 249.088 130.644L249.761 132.027L251.672 131.293L251.246 129.815C251.51 129.618 251.751 129.388 251.966 129.129L253.421 129.631ZM247.732 128.585C246.531 128.051 245.991 126.644 246.525 125.444C247.059 124.243 248.465 123.702 249.666 124.237C250.867 124.771 251.407 126.177 250.873 127.378C250.339 128.578 248.933 129.118 247.732 128.585Z" stroke="#4D21FF" stroke-width="0.8" stroke-miterlimit="10" stroke-linecap="round" stroke-linejoin="round"/>
<path d="M243.48 139.233L244.61 136.692L242.78 135.681C242.845 135.229 242.857 134.777 242.816 134.331L244.694 133.417L243.697 130.821L241.69 131.4C241.422 131.042 241.11 130.714 240.759 130.422L241.441 128.446L238.9 127.316L237.89 129.146C237.437 129.081 236.985 129.068 236.539 129.11L235.625 127.231L233.029 128.229L233.608 130.236C233.25 130.503 232.922 130.816 232.63 131.167L230.654 130.484L229.523 133.025L231.354 134.036C231.289 134.488 231.276 134.941 231.317 135.386L229.438 136.3L230.436 138.896L232.443 138.317C232.711 138.676 233.023 139.003 233.374 139.296L232.692 141.272L235.233 142.402L236.243 140.572C236.695 140.637 237.148 140.65 237.594 140.609L238.508 142.487L241.103 141.49L240.524 139.483C240.883 139.215 241.21 138.903 241.502 138.551L243.48 139.233ZM235.754 137.812C234.123 137.086 233.389 135.176 234.114 133.545C234.839 131.915 236.749 131.181 238.38 131.906C240.011 132.631 240.745 134.541 240.02 136.172C239.295 137.803 237.385 138.537 235.754 137.812Z" stroke="#4D21FF" stroke-width="0.8" stroke-miterlimit="10" stroke-linecap="round" stroke-linejoin="round"/>
<path d="M130.706 115.114C129.951 116.548 129.107 117.907 128.186 119.184C123.231 126.076 116.037 130.682 108.161 132.528C104.252 133.444 100.173 133.679 96.1133 133.174C92.1089 132.681 88.1263 131.462 84.3449 129.469C83.5893 129.071 82.8533 128.645 82.1412 128.2C81.4313 127.76 80.7436 127.294 80.0811 126.809C79.2738 126.224 78.5029 125.607 77.762 124.958C77.7582 124.957 77.7565 124.951 77.7527 124.949C77.707 124.911 77.6619 124.873 77.62 124.828C77.6108 124.819 77.6037 124.814 77.6037 124.814C73.2544 120.975 70.0383 116.159 68.112 110.879C67.3221 108.714 66.7454 106.466 66.4071 104.173C65.3572 97.1949 66.4484 89.8264 69.9899 83.108C75.2308 73.1658 84.6605 66.8614 94.96 65.2191C102.033 64.0876 109.526 65.1554 116.351 68.7535C122.798 72.1518 127.718 77.3182 130.826 83.3435C135.805 92.9685 136.146 104.794 130.706 115.114Z" fill="#00CC9B"/>
<mask id="mask0_136_3936" style="mask-type:luminance" maskUnits="userSpaceOnUse" x="66" y="64" width="69" height="70">
<path d="M130.706 115.114C129.951 116.548 129.107 117.907 128.186 119.184C123.231 126.076 116.037 130.682 108.161 132.528C104.252 133.444 100.173 133.679 96.1133 133.174C92.1089 132.681 88.1263 131.462 84.3449 129.469C83.5893 129.071 82.8533 128.645 82.1412 128.2C81.4313 127.76 80.7436 127.294 80.0811 126.809C79.2738 126.224 78.5029 125.607 77.762 124.958C77.7582 124.957 77.7565 124.951 77.7527 124.949C77.707 124.911 77.6619 124.873 77.62 124.828C77.6108 124.819 77.6037 124.814 77.6037 124.814C73.2544 120.975 70.0383 116.159 68.112 110.879C67.3221 108.714 66.7454 106.466 66.4071 104.173C65.3572 97.1949 66.4484 89.8264 69.9899 83.108C75.2308 73.1658 84.6605 66.8614 94.96 65.2191C102.033 64.0876 109.526 65.1554 116.351 68.7535C122.798 72.1518 127.718 77.3182 130.826 83.3435C135.805 92.9685 136.146 104.794 130.706 115.114Z" fill="white"/>
</mask>
<g mask="url(#mask0_136_3936)">
<g opacity="0.6">
<path d="M130.707 115.116C129.951 116.547 129.108 117.907 128.188 119.185L127.524 118.663L126.382 118.059L125.18 117.428L125.381 115.975C125.381 115.975 125.381 115.975 125.316 114.664C125.245 113.353 126.192 114.425 126.975 114.028C127.748 113.62 128.362 112.418 128.362 112.418C128.362 112.418 128.917 110.671 128.727 109.97C128.536 109.268 127.693 107.609 127.693 107.609L125.746 110.312L124.141 110.187L122.541 109.349L122.34 107.201L121.546 106.787L121.214 105.552L116.922 104.35C116.922 104.35 116.922 104.35 116.432 103.491C115.943 102.631 113.968 102.19 113.968 102.19L114.452 101.07C114.452 101.07 114.452 101.07 115.214 99.8186C115.981 98.5674 116.775 100.645 116.775 100.645L117.684 101.119L119.37 99.7044C119.37 99.7044 119.37 99.7044 119.816 97.6752L122.563 97.833C122.563 97.833 122.367 96.8375 123.281 96.473C124.195 96.114 123.793 94.1284 123.444 93.394C123.085 92.665 121.834 93.2525 121.834 93.2525C121.834 93.2525 120.436 91.1255 120.246 90.2768C120.055 89.4336 122.911 89.7111 124.135 88.8788C125.354 88.0519 124.941 86.3274 124.342 86.2893C123.749 86.2458 125.512 82.4269 128.912 83.4768C129.858 83.7706 130.457 83.6672 130.827 83.3408C135.804 92.9696 136.147 104.796 130.707 115.116Z" fill="#EDE9FF"/>
<path d="M106.918 100.401C105.754 101.864 105.754 101.864 105.754 101.864C105.754 101.864 105.258 100.684 104.551 101.325C103.844 101.967 103.485 102.294 103.485 102.294L102.696 104.502L101.282 105.416L100.417 104.965L99.6009 104.53L98.7142 104.062L97.8655 105.672L97.1747 106.978C97.6969 107.995 98.4204 108.746 98.4204 108.746L99.9219 111.395L101.712 112.336C102.811 112.358 103.98 112.608 103.98 112.608L105.237 113.266L104.791 115.992C104.791 115.992 103.844 117.531 103.213 117.107C102.577 116.688 102.577 116.688 102.577 116.688L101.543 120.268L101.499 122.237C101.499 122.237 100.885 122.493 100.265 122.699C99.639 122.906 100.036 122.797 98.7359 123.2C97.4358 123.602 97.5391 123.586 96.4838 123.885C95.4284 124.184 93.8998 125.093 93.8998 125.093L93.9923 126.986L91.5062 127.35L90.1135 126.611L90.4563 125.414L90.6195 123.542L90.4291 122.144L89.8307 120.909L91.5062 119.392L91.1363 118.44L90.1843 116.547L88.1715 117.635L87.1379 118.189L84.7987 117.14L84.543 115.72L83.7487 113.157L83.0198 111.569L81.7251 109.817L81.3987 108.31L82.1276 106.929L82.5139 106.2L81.3225 104.595L80.9961 103.453L78.9887 101.63C78.9887 101.63 79.5708 101.592 79.4403 100.781C79.3097 99.9709 80.5881 98.6055 80.5881 98.6055C81.3116 98.9863 83.4822 100.499 83.4822 100.499L85.3807 100.76C85.4025 100.76 85.7615 100.749 86.1315 100.042C86.5123 99.3181 87.6438 98.2301 87.6438 98.2301C87.6438 98.2301 86.7679 95.1891 87.3935 94.7811C88.0137 94.3623 88.6556 92.3821 88.6556 92.3821L89.1561 91.4301C89.1561 91.4301 87.9756 90.9133 87.7526 90.2877C87.5295 89.6567 84.6191 90.4944 84.6191 90.4944L82.6118 91.8871L81.0777 93.1056L80.3923 94.4058C80.3923 94.4058 78.9942 92.7248 78.9887 93.6659C78.9833 94.6071 78.3577 96.5002 78.3577 96.5002C78.3577 96.5002 78.646 96.6525 78.2652 97.3815C77.879 98.105 77.471 98.0723 76.6115 98.1757C75.7519 98.2791 73.3692 97.9527 73.3692 97.9527C73.3692 97.9527 72.8252 99.9655 73.2006 100.314C73.5705 100.651 73.5705 100.651 73.5705 100.651C73.5705 100.651 72.9884 102.114 72.4118 101.81C71.8297 101.5 71.0083 101.07 71.0083 101.07L69.0444 101.864L66.8902 104.269L66.406 104.171C65.3561 97.1965 66.4495 89.8253 69.991 83.1069C75.2297 73.168 84.6627 66.8631 94.9606 65.2202C95.0857 65.7751 95.2217 66.2755 95.2217 66.2755L94.694 68.9629L93.9977 70.2903L93.3993 71.4272L92.5561 73.0266L94.6559 75.0176L94.1935 77.3731L93.0239 78.1075L92.6867 79.8755L94.694 83.7978L95.2598 85.3373C95.2598 85.3373 94.6342 86.7299 94.7756 87.6874C94.7756 87.6874 95.0204 89.1562 96.0921 89.7383C97.1638 90.3149 98.5727 91.0058 98.5727 91.0058L98.4585 93.1927L97.9743 93.7584L98.7795 96.1031C101.233 97.0659 100.999 97.8711 101.233 97.0659C101.472 96.2663 101.472 96.2663 101.472 96.2663L103.142 95.6624L105.269 98.2029C105.269 98.2029 105.928 98.1159 106.521 98.8666C107.119 99.6173 108.087 98.9373 106.918 100.401Z" fill="#EDE9FF"/>
<path d="M78.0858 119.348C78.1456 120.121 77.1664 121.089 77.1664 121.089L77.9661 121.508L78.2109 123.662L77.6071 124.815C73.2551 120.975 70.04 116.16 68.1143 110.878L68.5495 108.572L70.4698 108.3C70.4698 108.3 72.1888 107.157 72.9504 107.462C73.712 107.777 74.4083 109.621 74.4083 109.621C74.4083 109.621 74.9687 112.146 74.8816 112.097L74.8707 112.091L74.8381 112.113L74.8816 112.097L75.665 112.51L75.888 113.506L74.7946 115.573L73.0429 115.578C73.0429 115.578 72.6947 115.393 72.6621 116.302C72.6295 117.216 73.5706 117.896 73.5706 117.896L75.4637 117.412C75.9696 115.453 75.9696 115.453 75.9696 115.453L77.8301 115.089C77.8301 115.089 77.5635 116.291 77.9987 116.519C78.4394 116.753 78.4394 116.753 78.4394 116.753L78.7005 118.189C78.7005 118.189 78.0259 118.576 78.0858 119.348Z" fill="#EDE9FF"/>
<path d="M87.0834 122.425C86.9153 121.962 86.8446 121.554 85.6853 120.943C84.5299 120.334 84.5886 120.553 84.1398 121.056C83.6878 121.558 83.1677 121.842 82.4094 121.672C81.651 121.502 82.046 122.361 82.046 122.361L82.2277 124.683L80.0811 126.809C80.7436 127.294 81.4313 127.759 82.1412 128.199L82.5998 126.796L86.169 127.857C85.4117 127.632 85.8583 126.597 85.8583 126.597L85.0956 126.195C85.0956 126.195 87.2537 122.885 87.0834 122.425Z" fill="#EDE9FF"/>
<path d="M109.56 110.348L108.39 109.168L107.054 109.591L106.484 110.674L106.072 111.454L106.624 112.517L107.721 113.836L108.345 112.653C108.345 112.653 110.07 112.664 110.972 111.657C111.873 110.648 109.56 110.348 109.56 110.348Z" fill="#EDE9FF"/>
<path d="M106.126 105.023L108.302 106.17C108.302 106.17 108.302 106.17 108.386 105.658C108.47 105.146 108.976 104.538 108.976 104.538L107.309 102.778L106.126 105.023Z" fill="#EDE9FF"/>
<path d="M105.383 130.347L104.756 129.43L104.03 129.047L101.802 129.049L100.536 131.452C100.536 131.452 99.325 131.287 97.7295 131.149C96.1361 131.007 96.5299 131.664 96.5299 131.664L96.1138 133.174C100.173 133.678 104.253 133.443 108.161 132.528C107.52 132.072 106.735 131.65 106.735 131.65L105.383 130.347Z" fill="#EDE9FF"/>
</g>
</g>
<path d="M130.706 115.114C129.951 116.548 129.107 117.907 128.186 119.184C123.231 126.076 116.037 130.682 108.161 132.528C104.252 133.444 100.173 133.679 96.1133 133.174C92.1089 132.681 88.1263 131.462 84.3449 129.469C83.5893 129.071 82.8533 128.645 82.1412 128.2C81.4313 127.76 80.7436 127.294 80.0811 126.809C79.2738 126.224 78.5029 125.607 77.762 124.958C77.7582 124.957 77.7565 124.951 77.7527 124.949C77.707 124.911 77.6619 124.873 77.62 124.828C77.6108 124.819 77.6037 124.814 77.6037 124.814C73.2544 120.975 70.0383 116.159 68.112 110.879C67.3221 108.714 66.7454 106.466 66.4071 104.173C65.3572 97.1949 66.4484 89.8264 69.9899 83.108C75.2308 73.1658 84.6605 66.8614 94.96 65.2191C102.033 64.0876 109.526 65.1554 116.351 68.7535C122.798 72.1518 127.718 77.3182 130.826 83.3435C135.805 92.9685 136.146 104.794 130.706 115.114Z" stroke="#4D21FF" stroke-width="0.8" stroke-miterlimit="10" stroke-linecap="round" stroke-linejoin="round"/>
<path d="M108.161 132.528C104.252 133.444 100.173 133.679 96.1133 133.174L96.5294 131.665C96.5294 131.665 96.1356 131.007 97.729 131.149C99.3245 131.287 100.535 131.452 100.535 131.452L101.802 129.05L104.029 129.048L104.755 129.431L105.382 130.348L106.734 131.651C106.734 131.651 107.519 132.073 108.161 132.528Z" stroke="#4D21FF" stroke-width="0.8" stroke-miterlimit="10" stroke-linecap="round" stroke-linejoin="round"/>
<path d="M130.827 83.343C130.458 83.6688 129.861 83.7711 128.914 83.4779C125.514 82.4258 123.748 86.2468 124.344 86.2893C124.943 86.3279 125.356 88.0507 124.137 88.8792C122.911 89.7099 120.058 89.433 120.245 90.2773C120.437 91.1233 121.832 93.2508 121.832 93.2508C121.832 93.2508 123.083 92.6639 123.442 93.3966C123.795 94.131 124.198 96.1144 123.282 96.4751C122.369 96.8374 122.565 97.8357 122.565 97.8357L119.814 97.6746C119.372 99.7048 119.372 99.7049 119.372 99.7049L117.684 101.12L116.778 100.643C116.778 100.643 115.983 98.569 115.216 99.8191C114.455 101.068 114.455 101.068 114.455 101.068L113.968 102.188C113.968 102.188 115.942 102.629 116.436 103.489C116.925 104.347 116.925 104.347 116.925 104.347L121.215 105.554L121.55 106.785L122.342 107.203L122.543 109.347L124.144 110.187L125.745 110.314L127.696 107.608C127.696 107.608 128.54 109.271 128.728 109.97C128.921 110.671 128.366 112.418 128.366 112.418C128.366 112.418 127.75 113.621 126.974 114.027C126.196 114.427 125.247 113.355 125.315 114.666C125.38 115.975 125.38 115.975 125.38 115.975L125.182 117.426L126.385 118.06L127.526 118.662L128.188 119.184" stroke="#4D21FF" stroke-width="0.8" stroke-miterlimit="10" stroke-linecap="round" stroke-linejoin="round"/>
<path d="M66.4077 104.173L66.8881 104.266L69.0461 101.861L71.0067 101.067C71.0067 101.067 71.8319 101.502 72.4113 101.807C72.9907 102.113 73.5727 100.653 73.5727 100.653C73.5727 100.653 73.5727 100.653 73.2001 100.311C72.8237 99.9676 73.3715 97.951 73.3715 97.951C73.3715 97.951 75.7509 98.2823 76.6121 98.1784C77.4732 98.0745 77.8818 98.1077 78.2647 97.3814C78.6477 96.6552 78.3578 96.5029 78.3578 96.5029C78.3578 96.5029 78.9861 94.6081 78.9899 93.6681C78.9932 92.7281 80.3907 94.4063 80.3907 94.4063L81.0772 93.1045L82.6146 91.886L84.6176 90.4955C84.6176 90.4955 87.5285 89.6588 87.7543 90.2882C87.9762 90.916 89.1578 91.4312 89.1578 91.4312L88.6573 92.381C88.6573 92.381 88.0159 94.3628 87.3931 94.7795C86.7685 95.1908 87.6455 98.2306 87.6455 98.2306C87.6455 98.2306 86.5129 99.3208 86.1321 100.043C85.7491 100.769 85.3824 100.763 85.3824 100.763L83.4817 100.502C83.4817 100.502 81.3133 98.9884 80.5871 98.6054C80.5871 98.6054 79.3136 99.9725 79.4409 100.78C79.5698 101.594 78.9926 101.631 78.9926 101.631L80.9989 103.452L81.3247 104.594L82.5177 106.198L82.1309 106.931L81.402 108.314L81.724 109.819L83.0237 111.568L83.7515 113.156L84.5458 115.721L84.8009 117.14L87.139 118.189L88.1726 117.633L90.1838 116.547L91.1352 118.44L91.51 119.392L89.8345 120.908L90.4291 122.144L90.6233 123.545L90.4569 125.416L90.1125 126.613L91.5095 127.349L93.9912 126.989L93.9042 125.092C93.9042 125.092 95.4312 124.186 96.4855 123.885C97.5436 123.585 97.4353 123.603 98.7382 123.203C100.039 122.797 99.6385 122.909 100.264 122.7C100.884 122.492 101.5 122.241 101.5 122.241L101.546 120.269L102.576 116.687C102.576 116.687 102.576 116.687 103.213 117.107C103.847 117.531 104.792 115.995 104.792 115.995L105.237 113.268L103.982 112.607C103.982 112.607 102.814 112.361 101.714 112.339L99.9208 111.394L98.4237 108.749C98.4237 108.749 97.6997 107.997 97.1764 106.981L97.8645 105.675L98.7132 104.065L99.6004 104.533L100.418 104.964L101.284 105.421L102.696 104.502L103.485 102.294C103.485 102.294 103.845 101.968 104.552 101.328C105.261 100.685 105.755 101.864 105.755 101.864C105.755 101.864 105.755 101.864 106.92 100.402C108.088 98.9416 107.122 99.6178 106.524 98.8671C105.927 98.1164 105.271 98.2061 105.271 98.2061L103.142 95.6646L101.473 96.2706C101.473 96.2706 101.473 96.2706 101.236 97.0686C101 97.8721 101.236 97.0686 98.7828 96.1036L97.9744 93.7606L98.4597 93.1959L98.5772 91.0085C98.5772 91.0085 97.1638 90.3198 96.0954 89.7426C95.0248 89.1594 94.7784 87.6895 94.7784 87.6895C94.6359 86.7332 95.2609 85.3427 95.2609 85.3427L94.6968 83.7989L92.6873 79.8761L93.0273 78.1108L94.1931 77.3753L94.6555 75.0225L92.5562 73.0304L93.3988 71.4316L93.9983 70.2946L94.6979 68.9672L95.2212 66.2766C95.2212 66.2766 95.089 65.7805 94.9617 65.2213" stroke="#4D21FF" stroke-width="0.8" stroke-miterlimit="10" stroke-linecap="round" stroke-linejoin="round"/>
<path d="M77.7625 124.958C77.7081 124.892 77.6483 124.846 77.6206 124.827C77.6113 124.818 77.6042 124.813 77.6042 124.813L78.2113 123.662L77.9682 121.509L77.1685 121.087C77.1685 121.087 78.1423 120.12 78.0846 119.349C78.0253 118.573 78.6977 118.187 78.6977 118.187L78.4371 116.751C78.4371 116.751 78.4371 116.751 78.0008 116.521C77.5645 116.291 77.8295 115.086 77.8295 115.086L75.969 115.45C75.969 115.45 75.969 115.45 75.4614 117.409L73.5705 117.893C73.5705 117.893 72.6299 117.215 72.6609 116.303C72.6952 115.393 73.0439 115.577 73.0439 115.577L74.7945 115.572L75.8847 113.503L75.6665 112.512L74.8783 112.097" stroke="#4D21FF" stroke-width="0.8" stroke-miterlimit="10" stroke-linecap="round" stroke-linejoin="round"/>
<path d="M74.8717 112.093L74.8793 112.097C74.9674 112.143 74.4077 109.622 74.4077 109.622C74.4077 109.622 73.713 107.775 72.9503 107.462C72.1892 107.154 70.4696 108.301 70.4696 108.301L68.5499 108.573L68.113 110.878" stroke="#4D21FF" stroke-width="0.8" stroke-miterlimit="10" stroke-linecap="round" stroke-linejoin="round"/>
<path d="M82.6005 126.796L82.1419 128.199C81.432 127.759 80.7444 127.294 80.0818 126.809L82.2284 124.683L82.0467 122.361C82.0467 122.361 81.6518 121.502 82.4101 121.672C83.1684 121.842 83.6885 121.558 84.1406 121.056C84.5888 120.553 84.5306 120.334 85.6861 120.943C86.8448 121.554 86.9161 121.962 87.0842 122.425C87.2544 122.885 85.0969 126.195 85.0969 126.195L85.8596 126.597C85.8596 126.597 85.4124 127.632 86.1702 127.857L82.6005 126.796Z" stroke="#4D21FF" stroke-width="0.8" stroke-miterlimit="10" stroke-linecap="round" stroke-linejoin="round"/>
<path d="M107.055 109.591L108.39 109.168L109.56 110.348C109.56 110.348 111.874 110.649 110.972 111.656C110.07 112.664 108.346 112.652 108.346 112.652L107.722 113.836L106.625 112.516L106.072 111.454L106.484 110.673L107.055 109.591Z" stroke="#4D21FF" stroke-width="0.8" stroke-miterlimit="10" stroke-linecap="round" stroke-linejoin="round"/>
<path d="M108.976 104.539C108.976 104.539 108.47 105.147 108.386 105.658C108.302 106.17 108.302 106.17 108.302 106.17L106.126 105.023L107.309 102.778L108.976 104.539Z" stroke="#4D21FF" stroke-width="0.8" stroke-miterlimit="10" stroke-linecap="round" stroke-linejoin="round"/>
<path d="M227.027 232.858C224.112 235.284 201.651 250.7 169.597 248.216C167.873 233.626 161.296 173.683 168.776 164.288C168.776 164.288 186.924 155.633 203.641 159.267C220.358 162.901 226.864 166.382 228.056 169.396C228.959 171.676 227.669 214.117 227.027 232.858Z" fill="#4D21FF"/>
<path d="M203.086 165.67C193.457 174.009 181.054 172.247 181.326 165.844C181.369 164.843 182.441 163.603 182.441 163.603C182.441 163.603 182.3 163.39 182.066 163.026C181.707 162.482 181.125 161.595 180.45 160.562C179.259 158.717 177.768 156.4 176.729 154.714C175.859 153.277 197.559 139.928 197.559 147.604C197.559 158.418 202.868 160.453 202.868 160.453C204.854 161.258 206.714 162.531 203.086 165.67Z" fill="#EDE9FF" stroke="#4D21FF" stroke-width="0.8" stroke-miterlimit="10" stroke-linecap="round" stroke-linejoin="round"/>
<path d="M209.171 182.186C209.171 182.186 207.23 188.843 208.153 190.751" stroke="#EDE9FF" stroke-width="0.8" stroke-miterlimit="10" stroke-linecap="round" stroke-linejoin="round"/>
<path d="M206.906 162.85C206.906 169.276 187.739 175.569 182.123 169.125" stroke="#EDE9FF" stroke-width="0.8" stroke-miterlimit="10" stroke-linecap="round" stroke-linejoin="round"/>
<path d="M191.14 155.437C191.14 155.437 189.85 160.277 183.878 164.061C183.878 164.061 183.573 163.397 182.588 163.042C182.414 162.98 182.229 163.037 182.066 163.026C181.707 162.482 181.125 161.595 180.45 160.562C183.502 158.348 191.14 155.437 191.14 155.437Z" fill="#4D21FF"/>
<path d="M193.826 149.487C193.826 149.487 193.764 154.265 192.752 155.234C185.161 162.515 177.743 163.09 176.518 161.169C168.278 148.247 170.225 144.839 169.385 142.64C167.9 138.753 166.078 132.412 166.882 128.57C168.676 119.988 184.846 113.358 193.344 121.963C197.424 126.094 198.713 135.055 197.852 142.518" fill="#EDE9FF"/>
<path d="M193.826 149.487C193.826 149.487 193.764 154.265 192.752 155.234C185.161 162.515 177.743 163.09 176.518 161.169C168.278 148.247 170.225 144.839 169.385 142.64C167.9 138.753 166.078 132.412 166.882 128.57C168.676 119.988 184.846 113.358 193.344 121.963C197.424 126.094 198.713 135.055 197.852 142.518" stroke="#4D21FF" stroke-width="0.8" stroke-miterlimit="10" stroke-linecap="round" stroke-linejoin="round"/>
<path d="M170.413 138.642C170.413 138.642 168.148 137.625 167.656 138.839" stroke="#4D21FF" stroke-width="0.8" stroke-miterlimit="10" stroke-linecap="round" stroke-linejoin="round"/>
<path d="M175.914 138.695C175.914 138.695 180.631 136.72 182.751 139.116" stroke="#4D21FF" stroke-width="0.8" stroke-miterlimit="10" stroke-linecap="round" stroke-linejoin="round"/>
<path d="M181.132 142.064C181.209 142.772 180.863 143.39 180.359 143.445C179.856 143.5 179.384 142.971 179.307 142.263C179.23 141.555 179.575 140.937 180.079 140.882C180.583 140.826 181.054 141.356 181.132 142.064Z" fill="#4D21FF"/>
<path d="M171.895 142.278C171.973 142.985 171.627 143.604 171.123 143.659C170.62 143.714 170.149 143.185 170.071 142.476C169.994 141.769 170.34 141.15 170.843 141.095C171.347 141.041 171.818 141.57 171.895 142.278Z" fill="#4D21FF"/>
<path d="M172.131 140.419C172.79 141.48 172.429 143.29 171.562 145.773C170.695 148.257 171.459 149.159 174.796 149.41" fill="#EDE9FF"/>
<path d="M172.131 140.419C172.79 141.48 172.429 143.29 171.562 145.773C170.695 148.257 171.459 149.159 174.796 149.41" stroke="#4D21FF" stroke-width="0.8" stroke-miterlimit="10" stroke-linecap="round" stroke-linejoin="round"/>
<path d="M174.797 153.713C174.797 153.713 179.16 153.314 181.143 152.222" stroke="#4D21FF" stroke-width="0.8" stroke-miterlimit="10" stroke-linecap="round" stroke-linejoin="round"/>
<path d="M202.36 129.048C202.359 125.815 199.172 119.184 193.575 118.44C190.365 115.077 185.779 113.841 180.22 115.119C167.374 118.071 163.464 130.754 162.899 132.857C162.844 133.052 162.821 133.16 162.821 133.16L166.259 132.287L164.776 135.18L166.579 136.369L166.166 136.827L168.254 138.839L167.601 135.164C168.004 132.787 170.733 129.473 170.733 129.473C169.142 131.381 168.941 133.928 168.941 133.928C170.02 131.103 176.558 128.509 176.558 128.509C174.44 130.225 173.312 133.59 173.312 133.59C175.328 131.109 180.045 129.502 183.062 128.649C184.081 131.106 185.696 133.668 188.003 135.088C190.176 136.425 190.1 139.185 190.1 139.185C193.878 141.655 194.986 145.911 194.986 145.911L197.619 149.512C197.619 149.512 202.364 143.663 202.36 129.048Z" fill="#4D21FF"/>
<path d="M191.288 140.091C190.407 138.201 193.606 133.09 195.871 133.723C197.145 134.079 198.809 136.402 199.132 138.842C199.456 141.283 197.732 145.893 195.893 146.919C194.726 147.57 193.764 145.795 193.764 145.795" fill="#EDE9FF"/>
<path d="M191.288 140.091C190.407 138.201 193.606 133.09 195.871 133.723C197.145 134.079 198.809 136.402 199.132 138.842C199.456 141.283 197.732 145.893 195.893 146.919C194.726 147.57 193.764 145.795 193.764 145.795" stroke="#4D21FF" stroke-width="0.8" stroke-miterlimit="10" stroke-linecap="round" stroke-linejoin="round"/>
<path d="M52.502 232.423L113.966 218.054L242.176 232.858L209.171 255.435L52.502 232.423Z" fill="#EDE9FF"/>
<path d="M52.502 232.423L113.966 218.054L242.176 232.858" fill="#EDE9FF"/>
<path d="M52.502 232.423L113.966 218.054L242.176 232.858" stroke="#4D21FF" stroke-width="0.8" stroke-miterlimit="10" stroke-linecap="round" stroke-linejoin="round"/>
<path d="M105.694 235.307L130.577 224.31L162.034 225.934L148.046 237.896L105.694 235.307Z" fill="#EDE9FF" stroke="#4D21FF" stroke-width="0.8" stroke-miterlimit="10" stroke-linecap="round" stroke-linejoin="round"/>
<path d="M169.991 163.752C162.01 167.016 160.288 174.352 146.73 203.351C146.73 203.351 140.704 204.588 137.476 211.905C134.248 219.223 139.628 225.001 145.869 224.802C145.869 224.802 148.364 226.97 153.465 226.755C158.566 226.54 181.23 191.912 181.23 191.912L169.991 163.752Z" fill="#4D21FF"/>
<path d="M149.104 205.048C152.675 208.229 154.723 212.89 153.635 218.055" stroke="#EDE9FF" stroke-width="0.8" stroke-miterlimit="10" stroke-linecap="round" stroke-linejoin="round"/>
<path d="M152.547 206.576C152.547 206.576 156.935 207.533 157.611 213.152" stroke="#EDE9FF" stroke-width="0.8" stroke-miterlimit="10" stroke-linecap="round" stroke-linejoin="round"/>
<path d="M165.385 190.149C165.385 190.149 162.034 182.753 163.308 174.009" stroke="#EDE9FF" stroke-width="0.8" stroke-miterlimit="10" stroke-linecap="round" stroke-linejoin="round"/>
<path d="M164.758 182.752C164.425 185.037 166.786 197.199 166.77 209.992" stroke="#EDE9FF" stroke-width="0.8" stroke-miterlimit="10" stroke-linecap="round" stroke-linejoin="round"/>
<path d="M224.411 166.146C234.395 171.164 235.582 186.598 226.161 205.048C219.509 218.074 210.325 237.304 204.515 238.595C198.704 239.887 193.04 236.266 193.04 236.266C193.04 236.266 188.141 236.037 186.664 232.557C182.617 223.019 192.905 211.019 196.952 213.894C196.952 213.894 209.877 185.786 212.232 184.016" fill="#4D21FF"/>
<path d="M185.738 226.77C184.398 220.206 194.728 212.459 196.952 213.894C196.952 213.894 204.628 214.324 205.776 219.632" stroke="#EDE9FF" stroke-width="0.8" stroke-miterlimit="10" stroke-linecap="round" stroke-linejoin="round"/>
<path d="M213.857 228.173C218.351 220.245 226.16 205.048 226.16 205.048" stroke="#EDE9FF" stroke-width="0.8" stroke-miterlimit="10" stroke-linecap="round" stroke-linejoin="round"/>
<path d="M196.952 213.894C196.952 213.894 202.332 210.678 206.35 213.72" stroke="#EDE9FF" stroke-width="0.8" stroke-miterlimit="10" stroke-linecap="round" stroke-linejoin="round"/>
<path d="M198.766 209.992C198.766 209.992 201.738 203.476 204.763 197.463C207.789 191.45 214.671 182.616 217.54 182.186" stroke="#EDE9FF" stroke-width="0.8" stroke-miterlimit="10" stroke-linecap="round" stroke-linejoin="round"/>
<path d="M142.071 221.718C141.445 221.685 140.82 221.528 140.221 221.212C130.957 216.387 123.782 208.412 119.451 202.689C116.443 198.712 114.811 195.818 114.811 195.818L117.031 186.309C117.031 186.309 119.12 191.727 127.513 197.097C135.902 202.466 145.879 204.207 149.105 209.587C151.961 214.352 146.929 221.963 142.071 221.718Z" fill="#EDE9FF"/>
<mask id="mask1_136_3936" style="mask-type:luminance" maskUnits="userSpaceOnUse" x="114" y="186" width="36" height="36">
<path d="M142.071 221.718C141.445 221.685 140.82 221.528 140.221 221.212C130.957 216.387 123.782 208.412 119.451 202.689C116.443 198.712 114.811 195.818 114.811 195.818L117.031 186.309C117.031 186.309 119.12 191.727 127.513 197.097C135.902 202.466 145.879 204.207 149.105 209.587C151.961 214.352 146.929 221.963 142.071 221.718Z" fill="white"/>
</mask>
<g mask="url(#mask1_136_3936)">
<path opacity="0.4" d="M142.071 221.718C141.973 221.082 141.799 220.412 141.516 219.711C139.574 214.847 127.824 205.181 127.824 205.181C125.027 205.093 121.954 203.929 119.451 202.689C116.443 198.712 114.811 195.818 114.811 195.818L117.031 186.309C117.031 186.309 119.12 191.727 127.513 197.097C135.902 202.466 145.879 204.207 149.105 209.587C151.961 214.352 146.929 221.963 142.071 221.718Z" fill="#00CC9B"/>
</g>
<path d="M142.071 221.718C141.445 221.685 140.82 221.528 140.221 221.212C130.957 216.387 123.782 208.412 119.451 202.689C116.443 198.712 114.811 195.818 114.811 195.818L117.031 186.309C117.031 186.309 119.12 191.727 127.513 197.097C135.902 202.466 145.879 204.207 149.105 209.587C151.961 214.352 146.929 221.963 142.071 221.718Z" stroke="#4D21FF" stroke-width="0.8" stroke-miterlimit="10" stroke-linecap="round" stroke-linejoin="round"/>
<path d="M121.126 195.261C121.126 195.261 119.979 200.335 116.954 199.198C115.314 198.581 112.177 193.705 111.583 191.249L121.126 195.261Z" fill="#EDE9FF" stroke="#4D21FF" stroke-width="0.8" stroke-miterlimit="10" stroke-linecap="round" stroke-linejoin="round"/>
<path d="M107.795 164.045L110.264 162.768C110.264 162.768 117.245 162.83 121.575 166.349C125.508 169.546 127.5 174.558 127.5 174.558C127.5 174.558 142.784 166.12 158.388 170.962L164.757 206.438L135.495 208.369L117.232 191.002L107.795 164.045Z" fill="#EDE9FF" stroke="#4D21FF" stroke-width="0.8" stroke-miterlimit="10" stroke-linecap="round" stroke-linejoin="round"/>
<path d="M166.769 207.857C166.769 207.857 163.336 207.754 158.745 207.906C151.803 208.124 142.212 208.907 137.828 211.458L137.621 211.388L133.606 209.989C133.606 209.989 133.579 209.951 133.525 209.87C132.785 208.771 126.817 200.214 118.304 196.727L106.249 163.042C106.249 163.042 118.766 163.603 125.599 174.891L129.031 176.131C129.031 176.131 149.458 170.082 160.893 172.258L166.769 207.857Z" fill="#00CC9B"/>
<mask id="mask2_136_3936" style="mask-type:luminance" maskUnits="userSpaceOnUse" x="106" y="163" width="61" height="49">
<path d="M166.769 207.857C166.769 207.857 163.336 207.754 158.745 207.906C151.803 208.124 142.212 208.907 137.828 211.458L137.621 211.388L133.606 209.989C133.606 209.989 133.579 209.951 133.525 209.87C132.785 208.771 126.817 200.214 118.304 196.727L106.249 163.042C106.249 163.042 118.766 163.603 125.599 174.891L129.031 176.131C129.031 176.131 149.458 170.082 160.893 172.258L166.769 207.857Z" fill="white"/>
</mask>
<g mask="url(#mask2_136_3936)">
<path opacity="0.3" d="M133.525 209.87C132.785 208.771 126.817 200.214 118.304 196.727L106.249 163.042C106.249 163.042 118.766 163.603 125.599 174.891L133.525 209.87Z" fill="#714EFF"/>
</g>
<mask id="mask3_136_3936" style="mask-type:luminance" maskUnits="userSpaceOnUse" x="106" y="163" width="61" height="49">
<path d="M166.769 207.857C166.769 207.857 163.336 207.754 158.745 207.906C151.803 208.124 142.212 208.907 137.828 211.458L137.621 211.388L133.606 209.989C133.606 209.989 133.579 209.951 133.525 209.87C132.785 208.771 126.817 200.214 118.304 196.727L106.249 163.042C106.249 163.042 118.766 163.603 125.599 174.891L129.031 176.131C129.031 176.131 149.458 170.082 160.893 172.258L166.769 207.857Z" fill="white"/>
</mask>
<g mask="url(#mask3_136_3936)">
<path opacity="0.3" d="M158.745 207.906C151.803 208.124 142.212 208.907 137.828 211.458L137.621 211.388L129.603 177.355C129.603 177.355 136.162 175.881 138.181 176.626C138.181 176.626 151.515 186.469 158.745 207.906Z" fill="#714EFF"/>
</g>
<path d="M166.769 207.857C166.769 207.857 163.336 207.754 158.745 207.906C151.803 208.124 142.212 208.907 137.828 211.458L137.621 211.388L133.606 209.989C133.606 209.989 133.579 209.951 133.525 209.87C132.785 208.771 126.817 200.214 118.304 196.727L106.249 163.042C106.249 163.042 118.766 163.603 125.599 174.891L129.031 176.131C129.031 176.131 149.458 170.082 160.893 172.258L166.769 207.857Z" stroke="#4D21FF" stroke-width="0.8" stroke-miterlimit="10" stroke-linecap="round" stroke-linejoin="round"/>
<path d="M129.03 176.132L136.903 208.788" stroke="#4D21FF" stroke-width="0.8" stroke-miterlimit="10" stroke-linecap="round" stroke-linejoin="round"/>
<path d="M133.607 209.992L125.959 177.356" stroke="#4D21FF" stroke-width="0.8" stroke-miterlimit="10" stroke-linecap="round" stroke-linejoin="round"/>
<path d="M114.175 195.869C112.427 195.382 108.908 184.887 110.521 180.371C110.521 180.371 112.436 177.046 113.215 176.819C114.436 176.463 119.354 176.567 119.116 177.394C118.566 179.307 114.793 179.275 114.793 179.275L113.569 181.515L113.621 182.752C113.621 182.752 115.397 181.458 116.053 181.493C116.386 181.51 118.13 182.365 119.511 183.096C120.693 183.722 121.415 184.06 121.15 184.63C120.276 186.511 116.544 185.191 116.544 185.191L115.143 187.303C115.143 187.303 116.498 187.537 117.092 187.606C117.742 187.681 122.608 190.948 122.459 191.358C121.878 192.957 117.209 191.227 117.209 191.227L116.381 191.916C116.381 191.916 119.823 192.806 120.172 192.934C120.72 193.136 122.815 194.749 122.782 194.933C122.53 196.346 119.641 195.306 119.641 195.306L117.113 195.203C117.113 195.203 116.603 195.697 115.761 195.901" fill="#EDE9FF"/>
<path d="M114.175 195.869C112.427 195.382 108.908 184.887 110.521 180.371C110.521 180.371 112.436 177.046 113.215 176.819C114.436 176.463 119.354 176.567 119.116 177.394C118.566 179.307 114.793 179.275 114.793 179.275L113.569 181.515L113.621 182.752C113.621 182.752 115.397 181.458 116.053 181.493C116.386 181.51 118.13 182.365 119.511 183.096C120.693 183.722 121.415 184.06 121.15 184.63C120.276 186.511 116.544 185.191 116.544 185.191L115.143 187.303C115.143 187.303 116.498 187.537 117.092 187.606C117.742 187.681 122.608 190.948 122.459 191.358C121.878 192.957 117.209 191.227 117.209 191.227L116.381 191.916C116.381 191.916 119.823 192.806 120.172 192.934C120.72 193.136 122.815 194.749 122.782 194.933C122.53 196.346 119.641 195.306 119.641 195.306L117.113 195.203C117.113 195.203 116.603 195.697 115.761 195.901" stroke="#4D21FF" stroke-width="0.8" stroke-miterlimit="10" stroke-linecap="round" stroke-linejoin="round"/>
<path d="M113.621 182.752C113.621 182.752 112.007 184.124 111.567 184.519C111.126 184.914 111.251 186.179 111.251 186.179" stroke="#4D21FF" stroke-width="0.8" stroke-miterlimit="10" stroke-linecap="round" stroke-linejoin="round"/>
<path d="M112.439 188.962C112.428 190.347 113.365 191.183 113.791 191.629C114.217 192.075 113.109 193.29 114.331 194.161" stroke="#4D21FF" stroke-width="0.8" stroke-miterlimit="10" stroke-linecap="round" stroke-linejoin="round"/>
<path d="M193.017 232.761C189.562 233.702 185.809 227.631 181.228 221.005V221C178.203 216.626 174.82 212.008 170.93 209.016C170.62 208.782 170.305 208.553 169.989 208.336L172.263 196.928C176.985 199.403 179.912 203.369 184.813 207.444C192.701 214.01 199.691 218.041 201.628 220.946C203.565 223.851 198.935 231.146 193.017 232.761Z" fill="#EDE9FF"/>
<mask id="mask4_136_3936" style="mask-type:luminance" maskUnits="userSpaceOnUse" x="169" y="196" width="34" height="37">
<path d="M193.017 232.761C189.562 233.702 185.809 227.631 181.228 221.005V221C178.203 216.626 174.82 212.008 170.93 209.016C170.62 208.782 170.305 208.553 169.989 208.336L172.263 196.928C176.985 199.403 179.912 203.369 184.813 207.444C192.701 214.01 199.691 218.041 201.628 220.946C203.565 223.851 198.935 231.146 193.017 232.761Z" fill="white"/>
</mask>
<g mask="url(#mask4_136_3936)">
<path opacity="0.4" d="M181.228 221C178.203 216.626 174.82 212.008 170.93 209.016C171.626 209.005 172.16 208.934 172.437 208.787C172.437 208.787 178.584 213.792 181.228 221Z" fill="#00CC9B"/>
</g>
<path d="M193.017 232.761C189.562 233.702 185.809 227.631 181.228 221.005V221C178.203 216.626 174.82 212.008 170.93 209.016C170.62 208.782 170.305 208.553 169.989 208.336L172.263 196.928C176.985 199.403 179.912 203.369 184.813 207.444C192.701 214.01 199.691 218.041 201.628 220.946C203.565 223.851 198.935 231.146 193.017 232.761Z" stroke="#4D21FF" stroke-width="0.8" stroke-miterlimit="10" stroke-linecap="round" stroke-linejoin="round"/>
<path d="M173.541 207.906C173.351 208.303 172.965 208.586 172.437 208.787C172.317 208.836 172.192 208.874 172.062 208.912C172.034 208.918 171.996 208.923 171.958 208.934C168.308 209.886 160.094 207.906 160.094 207.906C160.094 207.906 154.713 205.349 154.387 204.745C154.186 204.359 153.941 203.706 153.783 203.277C153.696 203.021 153.636 202.847 153.636 202.847C153.636 202.847 151.7 201.77 151.482 200.91C151.27 200.051 150.835 199.833 152.021 199.67C153.207 199.512 159.658 199.67 159.658 199.67L152.668 196.819C152.668 196.819 148.039 194.485 147.609 193.664C147.179 192.837 146.64 192.299 149.007 192.625C151.373 192.946 156.541 194.453 156.541 194.453L160.589 195.312L156.541 193.588C156.541 193.588 148.577 192.625 150.084 190.15C150.084 190.15 153.098 190.15 154.605 190.15C156.111 190.15 160.931 190.716 162.242 191.118C163.559 191.521 172.263 196.928 172.263 196.928" fill="#EDE9FF"/>
<mask id="mask5_136_3936" style="mask-type:luminance" maskUnits="userSpaceOnUse" x="147" y="190" width="27" height="20">
<path d="M173.541 207.906C173.351 208.303 172.965 208.586 172.437 208.787C172.317 208.836 172.192 208.874 172.062 208.912C172.034 208.918 171.996 208.923 171.958 208.934C168.308 209.886 160.094 207.906 160.094 207.906C160.094 207.906 154.713 205.349 154.387 204.745C154.186 204.359 153.941 203.706 153.783 203.277C153.696 203.021 153.636 202.847 153.636 202.847C153.636 202.847 151.7 201.77 151.482 200.91C151.27 200.051 150.835 199.833 152.021 199.67C153.207 199.512 159.658 199.67 159.658 199.67L152.668 196.819C152.668 196.819 148.039 194.485 147.609 193.664C147.179 192.837 146.64 192.299 149.007 192.625C151.373 192.946 156.541 194.453 156.541 194.453L160.589 195.312L156.541 193.588C156.541 193.588 148.577 192.625 150.084 190.15C150.084 190.15 153.098 190.15 154.605 190.15C156.111 190.15 160.931 190.716 162.242 191.118C163.559 191.521 172.263 196.928 172.263 196.928" fill="white"/>
</mask>
<g mask="url(#mask5_136_3936)">
<path opacity="0.4" d="M171.958 208.934C168.308 209.886 160.094 207.906 160.094 207.906C160.094 207.906 154.713 205.349 154.387 204.745C154.186 204.359 153.941 203.706 153.783 203.276L160.387 204.016C160.387 204.016 159.593 205.306 160.387 206.725C161.122 208.042 169.488 209.38 171.958 208.934Z" fill="#00CC9B"/>
</g>
<path d="M173.541 207.906C173.351 208.303 172.965 208.586 172.437 208.787C172.317 208.836 172.192 208.874 172.062 208.912C172.034 208.918 171.996 208.923 171.958 208.934C168.308 209.886 160.094 207.906 160.094 207.906C160.094 207.906 154.713 205.349 154.387 204.745C154.186 204.359 153.941 203.706 153.783 203.277C153.696 203.021 153.636 202.847 153.636 202.847C153.636 202.847 151.7 201.77 151.482 200.91C151.27 200.051 150.835 199.833 152.021 199.67C153.207 199.512 159.658 199.67 159.658 199.67L152.668 196.819C152.668 196.819 148.039 194.485 147.609 193.664C147.179 192.837 146.64 192.299 149.007 192.625C151.373 192.946 156.541 194.453 156.541 194.453L160.589 195.312L156.541 193.588C156.541 193.588 148.577 192.625 150.084 190.15C150.084 190.15 153.098 190.15 154.605 190.15C156.111 190.15 160.931 190.716 162.242 191.118C163.559 191.521 172.263 196.928 172.263 196.928" stroke="#4D21FF" stroke-width="0.8" stroke-miterlimit="10" stroke-linecap="round" stroke-linejoin="round"/>
<path d="M153.635 202.846L161.586 204.015" stroke="#4D21FF" stroke-width="0.8" stroke-miterlimit="10" stroke-linecap="round" stroke-linejoin="round"/>
<path d="M74.4111 227.184L94.3297 233.187L130.784 224.869C130.784 224.869 108.518 218.532 108.309 218.684C108.1 218.837 74.4111 227.184 74.4111 227.184Z" fill="#00CC9B"/>
<mask id="mask6_136_3936" style="mask-type:luminance" maskUnits="userSpaceOnUse" x="74" y="218" width="57" height="16">
<path d="M74.4111 227.184L94.3297 233.187L130.784 224.869C130.784 224.869 108.518 218.532 108.309 218.684C108.1 218.837 74.4111 227.184 74.4111 227.184Z" fill="white"/>
</mask>
<g mask="url(#mask6_136_3936)">
<path opacity="0.3" d="M74.4111 227.184L94.3297 233.187L130.784 224.869C130.784 224.869 108.518 218.532 108.309 218.684C108.1 218.837 74.4111 227.184 74.4111 227.184Z" fill="#714EFF"/>
</g>
<path d="M74.4111 227.184L94.3297 233.187L130.784 224.869C130.784 224.869 108.518 218.532 108.309 218.684C108.1 218.837 74.4111 227.184 74.4111 227.184Z" stroke="#4D21FF" stroke-width="0.8" stroke-miterlimit="10" stroke-linecap="round" stroke-linejoin="round"/>
<path d="M74.6972 220.168C73.3013 220.265 72.9504 225.305 74.411 227.184L106.589 220.507L109.171 214.401L74.6972 220.168Z" fill="#00CC9B"/>
<mask id="mask7_136_3936" style="mask-type:luminance" maskUnits="userSpaceOnUse" x="73" y="214" width="37" height="14">
<path d="M74.6972 220.168C73.3013 220.265 72.9504 225.305 74.411 227.184L106.589 220.507L109.171 214.401L74.6972 220.168Z" fill="white"/>
</mask>
<g mask="url(#mask7_136_3936)">
<path opacity="0.3" d="M74.6972 220.168C73.3013 220.265 72.9504 225.305 74.411 227.184L106.589 220.507L109.171 214.401L74.6972 220.168Z" fill="#714EFF"/>
</g>
<path d="M74.6972 220.168C73.3013 220.265 72.9504 225.305 74.411 227.184L106.589 220.507L109.171 214.401L74.6972 220.168Z" stroke="#4D21FF" stroke-width="0.8" stroke-miterlimit="10" stroke-linecap="round" stroke-linejoin="round"/>
<path d="M129.217 220.095C129.217 220.095 128.738 222.748 129.049 224.377L94.2909 232.245L75.9695 226.86C75.9695 226.86 74.0644 223.491 75.7242 220.883L109.203 215.201L129.217 220.095Z" fill="#EDE9FF" stroke="#4D21FF" stroke-width="0.8" stroke-miterlimit="10" stroke-linecap="round" stroke-linejoin="round"/>
<path d="M74.6973 220.168L109.171 214.401L130.577 219.824L94.5723 227L74.6973 220.168Z" fill="#00CC9B" stroke="#4D21FF" stroke-width="0.8" stroke-miterlimit="10" stroke-linecap="round" stroke-linejoin="round"/>
<path d="M75.9194 223.389L94.15 228.815L123.986 222.81" stroke="#4D21FF" stroke-width="0.8" stroke-miterlimit="10" stroke-linecap="round" stroke-linejoin="round"/>
<path d="M128.949 223.365L96.864 230.211" stroke="#4D21FF" stroke-width="0.8" stroke-miterlimit="10" stroke-linecap="round" stroke-linejoin="round"/>
<path d="M76.353 225.524C76.6261 225.552 90.0939 229.699 90.0939 229.699" stroke="#4D21FF" stroke-width="0.8" stroke-miterlimit="10" stroke-linecap="round" stroke-linejoin="round"/>
<path d="M126.327 222.109L128.88 221.695" stroke="#4D21FF" stroke-width="0.8" stroke-miterlimit="10" stroke-linecap="round" stroke-linejoin="round"/>
<path d="M93.5545 230.706L92.2048 230.402" stroke="#4D21FF" stroke-width="0.8" stroke-miterlimit="10" stroke-linecap="round" stroke-linejoin="round"/>
<path d="M75.7244 220.884C75.7244 220.884 78.1936 223.494 75.9697 226.861C75.9697 226.861 73.9117 224.117 75.7244 220.884Z" fill="#4D21FF"/>
<mask id="mask8_136_3936" style="mask-type:luminance" maskUnits="userSpaceOnUse" x="74" y="220" width="3" height="7">
<path d="M75.7244 220.884C75.7244 220.884 78.1936 223.494 75.9697 226.861C75.9697 226.861 73.9117 224.117 75.7244 220.884Z" fill="white"/>
</mask>
<g mask="url(#mask8_136_3936)">
<path opacity="0.3" d="M75.7244 220.884C75.7244 220.884 78.1936 223.494 75.9697 226.861C75.9697 226.861 73.9117 224.117 75.7244 220.884Z" fill="#EDE9FF"/>
</g>
<path d="M75.7244 220.884C75.7244 220.884 78.1936 223.494 75.9697 226.861C75.9697 226.861 73.9117 224.117 75.7244 220.884Z" stroke="#4D21FF" stroke-width="0.8" stroke-miterlimit="10" stroke-linecap="round" stroke-linejoin="round"/>
<path d="M150.183 228.815L184.972 230.243L181.579 242.218L138.787 240.586L150.183 228.815Z" fill="#EDE9FF"/>
<mask id="mask9_136_3936" style="mask-type:luminance" maskUnits="userSpaceOnUse" x="138" y="228" width="47" height="15">
<path d="M150.183 228.815L184.972 230.243L181.579 242.218L138.787 240.586L150.183 228.815Z" fill="white"/>
</mask>
<g mask="url(#mask9_136_3936)">
<path opacity="0.4" d="M150.183 228.815L184.972 230.243L181.579 242.218L138.787 240.586L150.183 228.815Z" fill="#00CC9B"/>
</g>
<path d="M150.183 228.815L184.972 230.243L181.579 242.218L138.787 240.586L150.183 228.815Z" stroke="#4D21FF" stroke-width="0.8" stroke-miterlimit="10" stroke-linecap="round" stroke-linejoin="round"/>
</svg>
