<svg width="59" height="37" viewBox="0 0 59 37" fill="none" xmlns="http://www.w3.org/2000/svg">
<g clip-path="url(#clip0_127_488)">
<path d="M49.4269 27.3974V27.7385H51.4745V27.3974C51.4745 27.3974 54.3699 27.3974 55.2285 27.3974C56.9247 27.3974 58.3 26.0228 58.3 24.3275C58.3 22.736 57.0837 21.4425 55.5323 21.2884C55.5473 21.1649 55.5698 21.0441 55.5698 20.9166C55.5698 19.2213 54.1945 17.8467 52.4983 17.8467C51.5168 17.8467 50.6534 18.3147 50.091 19.031C49.9954 17.2328 48.5198 15.8002 46.6967 15.8002C44.8121 15.8002 43.2839 17.3276 43.2839 19.2111C43.2839 19.5154 43.3365 19.8046 43.4116 20.0857C42.9734 19.5556 42.3188 19.2111 41.5775 19.2111C40.3619 19.2111 39.3702 20.1218 39.2193 21.2952C39.0958 21.2802 38.975 21.2577 38.8473 21.2577C37.1512 21.2577 35.7759 22.6323 35.7759 24.3275C35.7759 26.0228 37.1512 27.3974 38.8473 27.3974C40.5435 27.3974 45.3316 27.3974 45.3316 27.3974H49.4269Z" fill="#EDE9FF"/>
<path d="M46.6969 15.4591C44.6267 15.4591 42.9429 17.1421 42.9429 19.2111C42.9429 19.2221 42.9429 19.2323 42.9429 19.2432C42.532 19.001 42.0624 18.87 41.5778 18.87C40.328 18.87 39.2496 19.7303 38.9445 20.92C38.9124 20.918 38.8803 20.9166 38.8476 20.9166C36.9658 20.9166 35.4348 22.4468 35.4348 24.3275C35.4348 26.2083 36.9658 27.7385 38.8476 27.7385H49.4271C49.6155 27.7385 49.7683 27.5857 49.7683 27.3974C49.7683 27.2091 49.6155 27.0563 49.4271 27.0563H38.8476C37.3419 27.0563 36.1174 25.8324 36.1174 24.3275C36.1174 22.8226 37.3419 21.5988 38.8476 21.5988C38.9274 21.5988 39.0045 21.6104 39.0817 21.6206L39.1779 21.6336C39.1922 21.6356 39.2059 21.6363 39.2202 21.6363C39.3881 21.6363 39.5356 21.5101 39.5581 21.3382C39.6885 20.3197 40.5567 19.5522 41.5778 19.5522C42.1818 19.5522 42.7538 19.8258 43.1483 20.3026C43.2152 20.3831 43.3128 20.4268 43.4118 20.4268C43.465 20.4268 43.5182 20.4145 43.5674 20.3886C43.71 20.3156 43.7817 20.1526 43.7408 19.9977C43.6623 19.7009 43.6254 19.4513 43.6254 19.2111C43.6254 17.5186 45.0035 16.1413 46.6969 16.1413C48.322 16.1413 49.6639 17.4183 49.7506 19.0495C49.7581 19.1914 49.853 19.3135 49.9888 19.3564C50.0229 19.3674 50.0577 19.3728 50.0926 19.3728C50.1949 19.3728 50.2946 19.3257 50.3601 19.2418C50.8864 18.5719 51.6651 18.1879 52.4985 18.1879C54.0042 18.1879 55.2287 19.4117 55.2287 20.9166C55.2287 20.9964 55.2171 21.0735 55.2069 21.1506L55.1939 21.2468C55.183 21.3382 55.2089 21.4296 55.2663 21.5012C55.3236 21.5729 55.4076 21.6186 55.4983 21.6274C56.9017 21.7673 57.9589 22.9284 57.9589 24.3275C57.9589 25.8324 56.7344 27.0563 55.2287 27.0563H51.4747C51.2863 27.0563 51.1334 27.2091 51.1334 27.3974C51.1334 27.5857 51.2863 27.7385 51.4747 27.7385H55.2287C57.1105 27.7385 58.6415 26.2083 58.6415 24.3275C58.6415 22.6923 57.4887 21.3171 55.9092 21.0005C55.9106 20.9725 55.9113 20.9446 55.9113 20.9166C55.9113 19.0358 54.3803 17.5057 52.4985 17.5057C51.6959 17.5057 50.9335 17.7895 50.326 18.2997C49.9178 16.6598 48.4408 15.4591 46.6969 15.4591Z" fill="#714EFF"/>
<path d="M45.6729 20.2344C44.7153 20.2344 43.8921 20.9159 43.6846 21.8314C43.4341 21.6799 43.1481 21.5987 42.8574 21.5987C42.0369 21.5987 41.3571 22.2107 41.2513 23.0095C41.1128 22.9781 40.981 22.9631 40.8527 22.9631C39.8091 22.9631 38.9341 23.7817 38.861 24.8269C38.8542 24.921 38.9252 25.0029 39.0187 25.0097C39.0228 25.0097 39.0269 25.0097 39.031 25.0097C39.1197 25.0097 39.1948 24.9408 39.201 24.8514C39.2617 23.9844 39.9866 23.3042 40.852 23.3042C41.0083 23.3042 41.1728 23.3329 41.3558 23.3909C41.3708 23.3956 41.3865 23.3977 41.4015 23.3977C41.439 23.3977 41.4766 23.384 41.508 23.3608C41.5517 23.3295 41.5776 23.2735 41.5776 23.2189C41.5776 22.5136 42.1516 21.9398 42.8574 21.9398C43.1625 21.9398 43.4614 22.0545 43.6976 22.2625C43.7297 22.2905 43.7699 22.3055 43.8102 22.3055C43.8321 22.3055 43.8532 22.3014 43.8737 22.2925C43.9338 22.2687 43.9747 22.2127 43.9795 22.1479C44.0505 21.2658 44.7938 20.5755 45.6729 20.5755C45.8149 20.5755 45.963 20.5987 46.1384 20.6485C46.1541 20.6532 46.1705 20.6553 46.1862 20.6553C46.2606 20.6553 46.3275 20.6055 46.3493 20.5311C46.3752 20.4404 46.3227 20.3463 46.2319 20.3203C46.0258 20.2617 45.8476 20.2344 45.6729 20.2344ZM55.1487 21.2577C54.2437 21.2577 53.4369 21.8696 53.1871 22.7462C53.1611 22.8369 53.2137 22.9311 53.3045 22.957C53.3209 22.9611 53.3365 22.9631 53.3516 22.9631C53.426 22.9631 53.4942 22.914 53.5154 22.839C53.7236 22.109 54.3952 21.5987 55.1487 21.5987C55.2286 21.5987 55.3057 21.6083 55.3821 21.6185C55.3903 21.6199 55.3978 21.6206 55.406 21.6206C55.4886 21.6206 55.5623 21.5578 55.5739 21.4725C55.5869 21.3791 55.5214 21.2931 55.4279 21.2809C55.3364 21.2686 55.2436 21.2577 55.1487 21.2577Z" fill="#714EFF"/>
<path d="M7.1089 20.9166H0.283413C0.0950297 20.9166 -0.0578613 20.7637 -0.0578613 20.5755C-0.0578613 20.3872 0.0950297 20.2344 0.283413 20.2344H7.1089C7.29729 20.2344 7.45018 20.3872 7.45018 20.5755C7.45018 20.7637 7.29797 20.9166 7.1089 20.9166ZM9.15655 20.9166H8.474C8.28562 20.9166 8.13273 20.7637 8.13273 20.5755C8.13273 20.3872 8.28562 20.2344 8.474 20.2344H9.15655C9.34493 20.2344 9.49782 20.3872 9.49782 20.5755C9.49782 20.7637 9.34562 20.9166 9.15655 20.9166ZM12.5632 22.2809H6.42635C6.23797 22.2809 6.08508 22.1281 6.08508 21.9398C6.08508 21.7515 6.23797 21.5987 6.42635 21.5987H12.5632C12.7515 21.5987 12.9044 21.7515 12.9044 21.9398C12.9044 22.1281 12.7515 22.2809 12.5632 22.2809ZM5.06126 22.2809H4.37871C4.19032 22.2809 4.03743 22.1281 4.03743 21.9398C4.03743 21.7515 4.19032 21.5987 4.37871 21.5987H5.06126C5.24964 21.5987 5.40253 21.7515 5.40253 21.9398C5.40253 22.1281 5.25032 22.2809 5.06126 22.2809ZM3.01361 22.2809H1.64851C1.46013 22.2809 1.30724 22.1281 1.30724 21.9398C1.30724 21.7515 1.46013 21.5987 1.64851 21.5987H3.01361C3.20199 21.5987 3.35488 21.7515 3.35488 21.9398C3.35488 22.1281 3.20268 22.2809 3.01361 22.2809ZM7.1089 23.6453H5.7438C5.55542 23.6453 5.40253 23.4925 5.40253 23.3042C5.40253 23.1159 5.55542 22.9631 5.7438 22.9631H7.1089C7.29729 22.9631 7.45018 23.1159 7.45018 23.3042C7.45018 23.4925 7.29729 23.6453 7.1089 23.6453ZM9.15655 17.5056C9.03574 17.5056 8.59481 17.5056 8.474 17.5056C8.28562 17.5056 8.13273 17.6584 8.13273 17.8467C8.13273 18.035 8.28562 18.1878 8.474 18.1878C8.59481 18.1878 9.03574 18.1878 9.15655 18.1878C9.34493 18.1878 9.49782 18.035 9.49782 17.8467C9.49782 17.6584 9.34493 17.5056 9.15655 17.5056ZM9.15655 18.87C9.03574 18.87 5.86462 18.87 5.7438 18.87C5.55542 18.87 5.40253 19.0228 5.40253 19.2111C5.40253 19.3994 5.55542 19.5522 5.7438 19.5522C5.86462 19.5522 9.03574 19.5522 9.15655 19.5522C9.34493 19.5522 9.49782 19.3994 9.49782 19.2111C9.49782 19.0228 9.34493 18.87 9.15655 18.87ZM12.5693 20.2344C12.4485 20.2344 10.6425 20.2344 10.5216 20.2344C10.3333 20.2344 10.1804 20.3872 10.1804 20.5755C10.1804 20.7637 10.3333 20.9166 10.5216 20.9166C10.6425 20.9166 12.4485 20.9166 12.5693 20.9166C12.7577 20.9166 12.9106 20.7637 12.9106 20.5755C12.9106 20.3872 12.7577 20.2344 12.5693 20.2344Z" fill="#714EFF"/>
<path d="M46.0142 2.49749H39.1887C39.0003 2.49749 38.8474 2.34468 38.8474 2.1564C38.8474 1.96811 39.0003 1.8153 39.1887 1.8153H46.0142C46.2026 1.8153 46.3555 1.96811 46.3555 2.1564C46.3555 2.34468 46.2026 2.49749 46.0142 2.49749ZM48.7444 2.49749H47.3793C47.1909 2.49749 47.038 2.34468 47.038 2.1564C47.038 1.96811 47.1909 1.8153 47.3793 1.8153H48.7444C48.9328 1.8153 49.0856 1.96811 49.0856 2.1564C49.0856 2.34468 48.9328 2.49749 48.7444 2.49749ZM52.1571 3.86187H45.3316C45.1432 3.86187 44.9904 3.70906 44.9904 3.52077C44.9904 3.33249 45.1432 3.17968 45.3316 3.17968H52.1571C52.3455 3.17968 52.4984 3.33249 52.4984 3.52077C52.4984 3.70906 52.3462 3.86187 52.1571 3.86187ZM43.9665 3.86187H43.284C43.0956 3.86187 42.9427 3.70906 42.9427 3.52077C42.9427 3.33249 43.0956 3.17968 43.284 3.17968H43.9665C44.1549 3.17968 44.3078 3.33249 44.3078 3.52077C44.3078 3.70906 44.1549 3.86187 43.9665 3.86187ZM41.8984 3.86187H40.5538C40.3654 3.86187 40.2125 3.70906 40.2125 3.52077C40.2125 3.33249 40.3654 3.17968 40.5538 3.17968H41.8984C42.0868 3.17968 42.2397 3.33249 42.2397 3.52077C42.2397 3.70906 42.0868 3.86187 41.8984 3.86187ZM48.0618 1.13312H44.6491C44.4607 1.13312 44.3078 0.980305 44.3078 0.792021C44.3078 0.603738 44.4607 0.450928 44.6491 0.450928H48.0618C48.2502 0.450928 48.4031 0.603738 48.4031 0.792021C48.4031 0.980305 48.2509 1.13312 48.0618 1.13312ZM46.0142 5.22624H44.6491C44.4607 5.22624 44.3078 5.07343 44.3078 4.88515C44.3078 4.69686 44.4607 4.54405 44.6491 4.54405H46.0142C46.2026 4.54405 46.3555 4.69686 46.3555 4.88515C46.3555 5.07343 46.2026 5.22624 46.0142 5.22624Z" fill="#714EFF"/>
<path d="M32.0219 4.37354C27.8131 4.37354 23.7767 6.04459 20.8006 9.01907C17.8245 11.9936 16.1526 16.0278 16.1526 20.2344C16.1526 24.441 17.8245 28.4752 20.8006 31.4497C23.7767 34.4242 27.8131 36.0953 32.0219 36.0953C36.2306 36.0953 40.2671 34.4242 43.2431 31.4497C46.2192 28.4752 47.8911 24.441 47.8911 20.2344C47.8911 16.0278 46.2192 11.9936 43.2431 9.01907C40.2671 6.04459 36.2306 4.37354 32.0219 4.37354Z" fill="#A3A3CD"/>
<path d="M32.0219 36.5728C23.0081 36.5728 15.6748 29.2434 15.6748 20.2344C15.6748 11.2254 23.0081 3.896 32.0219 3.896C41.0356 3.896 48.3689 11.2254 48.3689 20.2344C48.3689 29.2434 41.0356 36.5728 32.0219 36.5728ZM32.0219 4.85106C23.535 4.85106 16.6304 11.7514 16.6304 20.2344C16.6304 28.7174 23.535 35.6177 32.0219 35.6177C40.5087 35.6177 47.4133 28.7174 47.4133 20.2344C47.4133 11.7514 40.5087 4.85106 32.0219 4.85106Z" fill="#714EFF"/>
<path d="M32.0219 6.93176C30.274 6.93176 28.5433 7.27585 26.9285 7.94437C25.3137 8.61289 23.8464 9.59276 22.6105 10.828C21.3746 12.0633 20.3942 13.5298 19.7253 15.1437C19.0564 16.7577 18.7122 18.4875 18.7122 20.2344C18.7122 21.9813 19.0564 23.7112 19.7253 25.3251C20.3942 26.9391 21.3746 28.4056 22.6105 29.6408C23.8464 30.8761 25.3137 31.8559 26.9285 32.5245C28.5433 33.193 30.274 33.5371 32.0219 33.5371C33.7697 33.5371 35.5005 33.193 37.1153 32.5245C38.7301 31.8559 40.1973 30.8761 41.4332 29.6408C42.6692 28.4056 43.6496 26.9391 44.3184 25.3251C44.9873 23.7112 45.3316 21.9813 45.3316 20.2344C45.3316 18.4875 44.9873 16.7577 44.3184 15.1437C43.6496 13.5298 42.6692 12.0633 41.4332 10.828C40.1973 9.59276 38.7301 8.61289 37.1153 7.94437C35.5005 7.27585 33.7697 6.93176 32.0219 6.93176Z" fill="#565FA1"/>
<path d="M44.7331 16.8145C44.587 16.8145 44.4519 16.7204 44.4068 16.5737C44.3495 16.3861 44.2874 16.1998 44.2218 16.017C43.9659 15.3021 43.6424 14.6056 43.2608 13.9459C43.1659 13.7829 43.2219 13.5741 43.385 13.48C43.5488 13.3831 43.757 13.4404 43.8512 13.6048C44.2532 14.3 44.5938 15.034 44.8634 15.7858C44.9331 15.9788 44.9979 16.1753 45.0593 16.3724C45.1146 16.5532 45.0136 16.7436 44.8334 16.7988C44.8 16.8097 44.7658 16.8145 44.7331 16.8145Z" fill="#714EFF"/>
<path d="M32.022 33.902C24.4819 33.902 18.3472 27.7889 18.3472 20.2746C18.3472 12.761 24.4812 6.64795 32.022 6.64795C35.9358 6.64795 39.6693 8.32408 42.2651 11.2459C42.4609 11.4662 42.65 11.6941 42.8322 11.9281C42.9476 12.0768 42.921 12.291 42.7729 12.4063C42.6248 12.5243 42.4098 12.495 42.2937 12.3463C42.121 12.1246 41.9415 11.9083 41.7552 11.6989C39.2885 8.92236 35.7412 7.33014 32.0227 7.33014C24.8587 7.33014 19.0304 13.1369 19.0304 20.2746C19.0304 27.4124 24.858 33.2198 32.022 33.2198C39.1861 33.2198 45.0144 27.4124 45.0144 20.2746C45.0144 19.6232 44.9652 18.9703 44.869 18.3331C44.841 18.1469 44.9693 17.9729 45.1556 17.945C45.3427 17.9156 45.516 18.0446 45.544 18.2308C45.6457 18.9014 45.6969 19.589 45.6969 20.2746C45.6969 27.7889 39.5622 33.902 32.022 33.902Z" fill="#714EFF"/>
<path d="M21.4424 36.2658C21.4424 36.2658 22.5119 36.2658 23.8313 36.2658C25.1507 36.2658 26.2202 35.1968 26.2202 33.8781C26.2202 32.6631 25.309 31.6719 24.135 31.5212C24.1541 31.399 24.1726 31.2769 24.1726 31.1494C24.1726 29.8307 23.103 28.7617 21.7837 28.7617C21.0793 28.7617 20.4527 29.0721 20.0158 29.5565C19.7538 28.3231 18.6596 27.3973 17.3471 27.3973C15.8393 27.3973 14.6169 28.6191 14.6169 30.1261C14.6169 30.2564 14.6374 30.3812 14.6551 30.5067C14.363 30.2721 13.9971 30.1261 13.5931 30.1261C12.7549 30.1261 12.0607 30.7312 11.9174 31.528C11.7952 31.5089 11.6731 31.4905 11.5454 31.4905C10.226 31.4905 9.15649 32.5595 9.15649 33.8781C9.15649 35.1968 10.226 36.2658 11.5454 36.2658C12.8648 36.2658 16.6645 36.2658 16.6645 36.2658V36.6069H21.4424V36.2658Z" fill="#EDE9FF"/>
<path d="M22.6367 33.196C22.5425 33.196 22.4661 33.1196 22.4661 33.0254C22.4661 32.1911 23.1452 31.5123 23.98 31.5123C24.0032 31.5185 24.483 31.5116 24.8291 31.6051C24.9198 31.6297 24.9738 31.7231 24.9492 31.8139C24.9246 31.9053 24.8311 31.9592 24.7403 31.9339C24.4373 31.8521 23.9895 31.8521 23.9807 31.8534C23.3336 31.8534 22.8074 32.3794 22.8074 33.0254C22.8073 33.1196 22.7309 33.196 22.6367 33.196ZM18.0295 35.9247C17.939 35.9247 17.8522 35.9607 17.7882 36.0246C17.7242 36.0886 17.6882 36.1753 17.6882 36.2658C17.6882 36.3563 17.7242 36.443 17.7882 36.507C17.8522 36.571 17.939 36.6069 18.0295 36.6069C18.12 36.6069 18.2068 36.571 18.2708 36.507C18.3348 36.443 18.3708 36.3563 18.3708 36.2658C18.3708 36.1753 18.3348 36.0886 18.2708 36.0246C18.2068 35.9607 18.12 35.9247 18.0295 35.9247Z" fill="#714EFF"/>
<path d="M23.8313 36.6069H21.4423C21.254 36.6069 21.1011 36.4541 21.1011 36.2658C21.1011 36.0775 21.254 35.9247 21.4423 35.9247H23.8313C24.9602 35.9247 25.8789 35.0065 25.8789 33.8781C25.8789 32.8576 25.111 31.9899 24.092 31.8596C24.0005 31.8473 23.9179 31.7995 23.8627 31.7258C23.8074 31.6522 23.7842 31.5594 23.7985 31.4687C23.8142 31.3636 23.8313 31.2585 23.8313 31.1494C23.8313 30.0211 22.9126 29.1028 21.7836 29.1028C21.2035 29.1028 20.6656 29.345 20.269 29.785C20.1837 29.8798 20.0499 29.9201 19.9278 29.886C19.8035 29.8526 19.7087 29.753 19.682 29.6274C19.4493 28.5332 18.4671 27.7385 17.347 27.7385C16.0297 27.7385 14.9581 28.8095 14.9581 30.1261C14.9581 30.2237 14.9725 30.3171 14.9861 30.4113C15.0059 30.5498 14.9431 30.7101 14.8209 30.7797C14.6988 30.8492 14.5506 30.8602 14.4414 30.7728C14.1923 30.5729 13.8995 30.4672 13.593 30.4672C12.9337 30.4672 12.3699 30.9386 12.2532 31.5887C12.2204 31.7709 12.0512 31.893 11.8648 31.865C11.7597 31.8486 11.6546 31.8316 11.5454 31.8316C10.4164 31.8316 9.49773 32.7498 9.49773 33.8781C9.49773 35.0065 10.4164 35.9247 11.5454 35.9247H16.6645C16.8529 35.9247 17.0058 36.0775 17.0058 36.2658C17.0058 36.4541 16.8529 36.6069 16.6645 36.6069H11.5454C10.0397 36.6069 8.81519 35.3831 8.81519 33.8781C8.81519 32.3732 10.0397 31.1494 11.5454 31.1494C11.5857 31.1494 11.6246 31.1508 11.6641 31.1535C11.9467 30.3444 12.7132 29.785 13.593 29.785C13.8312 29.785 14.0633 29.8266 14.2831 29.9078C14.3957 28.3163 15.7267 27.0563 17.347 27.0563C18.5968 27.0563 19.7128 27.8251 20.1817 28.9487C20.6458 28.6089 21.2069 28.4206 21.7836 28.4206C23.2893 28.4206 24.5138 29.6445 24.5138 31.1494C24.5138 31.1821 24.5131 31.2142 24.5111 31.2463C25.7008 31.5519 26.5615 32.6291 26.5615 33.8781C26.5615 35.3831 25.337 36.6069 23.8313 36.6069Z" fill="#714EFF"/>
<path d="M20.0773 35.9247C19.9688 35.9247 19.5033 35.9247 19.3947 35.9247C19.2064 35.9247 19.0535 36.0775 19.0535 36.2658C19.0535 36.4541 19.2064 36.6069 19.3947 36.6069C19.5033 36.6069 19.9688 36.6069 20.0773 36.6069C20.2657 36.6069 20.4186 36.4541 20.4186 36.2658C20.4186 36.0775 20.2657 35.9247 20.0773 35.9247Z" fill="#714EFF"/>
<path d="M39.8987 14.6609C40.0932 13.5796 39.9772 12.2739 39.5403 10.9655C37.3425 10.9655 35.6491 12.4594 35.3604 12.731H29.0714C28.782 12.4601 27.0893 10.9655 24.8915 10.9655C24.4983 12.1443 24.3659 13.319 24.484 14.3314C23.2472 15.4536 22.4664 17.0683 22.4664 18.87C22.4664 22.2611 25.2164 25.0097 28.6093 25.0097H29.8618C28.8783 25.4599 28.1602 26.374 27.9807 27.4758C26.8757 27.5883 25.5385 27.486 24.8915 26.5159C23.6834 24.7047 23.0793 24.7047 22.4753 24.7047C21.8712 24.7047 21.8712 25.3084 22.4753 25.9122C23.0793 26.5159 23.0793 26.5159 23.6834 27.7234C24.1809 28.718 25.4662 29.8443 27.9275 29.5387V31.8111C27.9275 32.2558 27.9391 32.5813 28.0981 32.9681C29.5772 33.4797 32.3954 33.8631 35.8914 32.9892C36.032 32.6222 36.1174 32.2279 36.1174 31.8111V28.0079C36.1174 26.6735 35.3215 25.5308 34.1823 25.009H35.4348C38.8278 25.009 41.5778 22.2604 41.5778 18.8693C41.5778 17.2389 40.9368 15.7599 39.8987 14.6609Z" fill="#EDE9FF"/>
<path d="M31.8166 33.8515C29.8311 33.8515 28.4871 33.4647 27.9862 33.2914C27.894 33.2594 27.8196 33.1898 27.7821 33.0991C27.5998 32.6563 27.5855 32.2866 27.5855 31.8118V29.9153C24.7386 30.1179 23.6499 28.4213 23.3776 27.8769C22.7981 26.7186 22.7981 26.7186 22.2336 26.1544C21.764 25.685 21.5777 25.1768 21.7354 24.7968C21.8494 24.5226 22.119 24.3643 22.4746 24.3643C23.2889 24.3643 23.9591 24.5049 25.1747 26.3277C25.6901 27.0999 26.7828 27.2125 27.6961 27.1586C27.864 26.4593 28.2319 25.8338 28.7472 25.3521H28.6093C25.0341 25.3521 22.1251 22.4447 22.1251 18.8714C22.1251 17.1127 22.8527 15.4195 24.127 14.1977C24.0342 13.1553 24.185 12.0045 24.5679 10.8577C24.6144 10.7185 24.7447 10.6244 24.8915 10.6244C27.0279 10.6244 28.6994 11.9431 29.2038 12.3899H35.2287C35.7331 11.9431 37.4046 10.6244 39.5403 10.6244C39.6871 10.6244 39.8175 10.7185 39.8639 10.8577C40.2891 12.1307 40.4283 13.435 40.2625 14.5531C41.332 15.7449 41.919 17.2709 41.919 18.87C41.919 22.4433 39.01 25.3508 35.4348 25.3508H35.2976C36.0245 26.0289 36.4586 26.988 36.4586 28.0086V31.8118C36.4586 32.2436 36.3747 32.6802 36.2095 33.1113C36.1699 33.215 36.0819 33.2935 35.9733 33.3208C34.3912 33.7164 32.9913 33.8515 31.8166 33.8515ZM28.3609 32.6972C29.2748 32.9858 31.8883 33.5991 35.6307 32.702C35.7276 32.4039 35.7761 32.1058 35.7761 31.8118V28.0086C35.7761 26.857 35.0949 25.8024 34.0404 25.3208C33.8943 25.2532 33.8144 25.0943 33.8486 24.9374C33.8827 24.7811 34.0213 24.6686 34.1823 24.6686H35.4348C38.6339 24.6686 41.2365 22.0674 41.2365 18.87C41.2365 17.3896 40.6734 15.9782 39.6502 14.8949C39.5758 14.8164 39.5438 14.7073 39.5629 14.6009C39.7383 13.6247 39.642 12.4656 39.2926 11.3127C37.3562 11.4171 35.8798 12.7112 35.5932 12.9786C35.5304 13.038 35.4464 13.0714 35.3597 13.0714H29.0707C28.984 13.0714 28.9001 13.038 28.8373 12.9786C28.5513 12.7105 27.0743 11.4171 25.1379 11.3127C24.8246 12.3483 24.7147 13.3729 24.8225 14.2911C24.8355 14.4003 24.7946 14.5088 24.7133 14.5831C23.5025 15.6828 22.8077 17.2457 22.8077 18.87C22.8077 22.0674 25.4102 24.6686 28.6093 24.6686H29.8618C30.0222 24.6686 30.1608 24.7805 30.1949 24.9374C30.229 25.0936 30.1498 25.2532 30.0038 25.3201C29.1062 25.7314 28.4755 26.5576 28.3172 27.531C28.2919 27.6839 28.1684 27.8005 28.0148 27.8155C26.3801 27.9813 25.2014 27.5972 24.6069 26.7056C23.4998 25.0458 23.0015 25.0458 22.4746 25.0458C22.3879 25.0458 22.3592 25.0656 22.3592 25.0656C22.3463 25.1059 22.3961 25.3508 22.7162 25.6714C23.3598 26.314 23.383 26.3618 23.9885 27.5713C24.2226 28.0386 25.1959 29.5387 27.8851 29.201C27.9821 29.1881 28.0803 29.2188 28.1534 29.2836C28.2264 29.3484 28.2687 29.4412 28.2687 29.5394V31.8118C28.268 32.1699 28.2749 32.4251 28.3609 32.6972Z" fill="#714EFF"/>
<path d="M39.5968 20.8518C39.0153 22.1398 37.7389 23.2094 35.4919 23.3895L39.5968 20.8518Z" fill="#EDE9FF"/>
<path d="M35.4913 23.56C35.4033 23.56 35.3289 23.4918 35.3214 23.4031C35.3138 23.3097 35.3835 23.2271 35.4777 23.2196C37.9321 23.0232 38.9873 21.785 39.4405 20.7822C39.4794 20.6955 39.5798 20.6573 39.6665 20.6969C39.7518 20.7358 39.7907 20.8361 39.7518 20.922C39.0576 22.4597 37.5492 23.3963 35.505 23.5594C35.5009 23.56 35.4961 23.56 35.4913 23.56Z" fill="#714EFF"/>
<path d="M39.9339 18.3004C40.0056 18.7868 40.0042 19.3025 39.9148 19.8128L39.9339 18.3004Z" fill="#EDE9FF"/>
<path d="M39.9149 19.9834C39.9046 19.9834 39.8951 19.9827 39.8848 19.9806C39.792 19.9649 39.7299 19.8763 39.7463 19.7835C39.8295 19.3107 39.8357 18.8066 39.7647 18.325C39.7504 18.2322 39.8152 18.1449 39.908 18.1319C39.9988 18.1196 40.0882 18.1824 40.1019 18.2758C40.1797 18.7998 40.1729 19.3271 40.0821 19.8421C40.0684 19.9254 39.9961 19.9834 39.9149 19.9834Z" fill="#714EFF"/>
<path d="M38.7219 16.0177C39.1308 16.3083 39.4625 16.779 39.683 17.3452L38.7219 16.0177Z" fill="#EDE9FF"/>
<path d="M39.683 17.5158C39.6147 17.5158 39.5506 17.4742 39.524 17.4073C39.309 16.8555 38.9977 16.4236 38.623 16.1576C38.5465 16.103 38.5281 15.9966 38.5827 15.9195C38.638 15.8424 38.7445 15.824 38.8209 15.8786C39.2496 16.1835 39.6031 16.6692 39.842 17.2832C39.8762 17.3712 39.8325 17.4694 39.7451 17.5042C39.7246 17.5117 39.7035 17.5158 39.683 17.5158Z" fill="#714EFF"/>
</g>
<defs>
<clipPath id="clip0_127_488">
<rect width="59" height="37" fill="white"/>
</clipPath>
</defs>
</svg>
