<svg width="272" height="181" viewBox="0 0 272 181" fill="none" xmlns="http://www.w3.org/2000/svg">
<path d="M125.185 20.1348C125.185 20.1348 52.5744 23.6701 25.3011 55.1359C-1.97217 86.6016 4.04955 123.37 62.8462 152.361C121.643 181.352 188.586 160.846 223.651 144.229C258.717 127.613 269.475 78.2423 248.445 55.8428C227.415 33.4434 191.419 16.9528 125.185 20.1348Z" fill="#00CC9B"/>
<path opacity="0.9" d="M125.185 20.1348C125.185 20.1348 52.5744 23.6701 25.3011 55.1359C-1.97217 86.6016 4.04955 123.37 62.8462 152.361C121.643 181.352 188.586 160.846 223.651 144.229C258.717 127.613 269.475 78.2423 248.445 55.8428C227.415 33.4434 191.419 16.9528 125.185 20.1348Z" fill="#EDE9FF"/>
<path d="M76.6633 103.675C76.6633 103.675 94.8365 105.47 104.047 116.715C104.047 116.715 113.779 103.688 131.257 103.955C136.329 97.8533 139.38 90.0171 139.383 81.4688C139.39 61.9961 123.58 46.2046 104.072 46.1981C84.5632 46.1912 68.7426 61.9719 68.7361 81.4446C68.7332 89.886 71.7038 97.6343 76.6582 103.706L76.6633 103.675Z" fill="#00CC9B"/>
<path opacity="0.4" d="M76.6633 103.675C76.6633 103.675 94.8365 105.47 104.047 116.715C104.047 116.715 113.779 103.688 131.257 103.955C136.329 97.8533 139.38 90.0171 139.383 81.4688C139.39 61.9961 123.58 46.2046 104.072 46.1981C84.5632 46.1912 68.7426 61.9719 68.7361 81.4446C68.7332 89.886 71.7038 97.6343 76.6582 103.706L76.6633 103.675Z" fill="#EDE9FF"/>
<path d="M86.8818 90.9366C95.9601 93.8061 101.598 102.227 103.068 104.659L102.936 164.591H105.548L105.155 112.021C107.134 109.029 112.797 101.565 121.543 98.8973C121.543 98.8973 111.156 101.357 105.09 109.619L104.75 97.033C106.245 94.642 112.096 86.1636 121.544 83.2821C121.544 83.2821 110.679 85.8526 104.684 94.5725L104.342 81.8884L104.366 82.0574C104.366 82.0574 110.501 71.0349 121.544 67.6672C121.544 67.6672 110.174 70.3605 104.279 79.5741L103.446 62.5018L103.188 86.973C97.4108 78.2083 86.8818 75.628 86.8818 75.628C96.1813 78.5674 101.872 87.3354 103.17 89.5197L103.085 102.134C97.2878 93.4898 86.8818 90.9366 86.8818 90.9366Z" fill="#4D21FF"/>
<path d="M86.8818 90.9366C95.9601 93.8061 101.598 102.227 103.068 104.659L102.936 164.591H105.548L105.155 112.021C107.134 109.029 112.797 101.565 121.543 98.8973C121.543 98.8973 111.156 101.357 105.09 109.619L104.75 97.033C106.245 94.642 112.096 86.1636 121.544 83.2821C121.544 83.2821 110.679 85.8526 104.684 94.5725L104.342 81.8884L104.366 82.0574C104.366 82.0574 110.501 71.0349 121.544 67.6672C121.544 67.6672 110.174 70.3605 104.279 79.5741L103.446 62.5018L103.188 86.973C97.4108 78.2083 86.8818 75.628 86.8818 75.628C96.1813 78.5674 101.872 87.3354 103.17 89.5197L103.085 102.134C97.2878 93.4898 86.8818 90.9366 86.8818 90.9366Z" fill="#4D21FF"/>
<path d="M149.339 113.743C149.339 113.743 164.509 115.241 172.198 124.628C172.198 124.628 180.321 113.753 194.911 113.976C199.144 108.883 201.691 102.342 201.694 95.2064C201.699 78.9518 188.503 65.7703 172.218 65.7645C155.934 65.7591 142.728 78.9312 142.722 95.1857C142.72 102.232 145.2 108.7 149.335 113.768L149.339 113.743Z" fill="#00CC9B"/>
<path opacity="0.4" d="M149.339 113.743C149.339 113.743 164.509 115.241 172.198 124.628C172.198 124.628 180.321 113.753 194.911 113.976C199.144 108.883 201.691 102.342 201.694 95.2064C201.699 78.9518 188.503 65.7703 172.218 65.7645C155.934 65.7591 142.728 78.9312 142.722 95.1857C142.72 102.232 145.2 108.7 149.335 113.768L149.339 113.743Z" fill="#EDE9FF"/>
<path d="M157.869 103.109C165.447 105.505 170.152 112.534 171.38 114.563L171.27 164.591H173.451L173.122 120.709C174.774 118.212 179.502 111.981 186.802 109.754C186.802 109.754 178.131 111.807 173.068 118.704L172.785 108.198C174.032 106.202 178.916 99.125 186.802 96.7199C186.802 96.7199 177.734 98.8655 172.729 106.144L172.443 95.5564L172.464 95.6976C172.464 95.6976 177.585 86.497 186.802 83.6857C186.802 83.6857 177.312 85.9337 172.392 93.6248L171.696 79.3739L171.48 99.8009C166.657 92.4845 157.869 90.3306 157.869 90.3306C165.631 92.7842 170.382 100.103 171.465 101.927L171.394 112.456C166.555 105.241 157.869 103.109 157.869 103.109Z" fill="#4D21FF"/>
<path d="M157.869 103.109C165.447 105.505 170.152 112.534 171.38 114.563L171.27 164.591H173.451L173.122 120.709C174.774 118.212 179.502 111.981 186.802 109.754C186.802 109.754 178.131 111.807 173.068 118.704L172.785 108.198C174.032 106.202 178.916 99.125 186.802 96.7199C186.802 96.7199 177.734 98.8655 172.729 106.144L172.443 95.5564L172.464 95.6976C172.464 95.6976 177.585 86.497 186.802 83.6857C186.802 83.6857 177.312 85.9337 172.392 93.6248L171.696 79.3739L171.48 99.8009C166.657 92.4845 157.869 90.3306 157.869 90.3306C165.631 92.7842 170.382 100.103 171.465 101.927L171.394 112.456C166.555 105.241 157.869 103.109 157.869 103.109Z" fill="#4D21FF"/>
<path d="M15.6867 113.743C15.6867 113.743 30.8563 115.241 38.5452 124.628C38.5452 124.628 46.6682 113.753 61.2579 113.976C65.4917 108.883 68.0383 102.342 68.0409 95.2064C68.0463 78.9518 54.85 65.7703 38.5651 65.7645C22.2807 65.7591 9.0749 78.9312 9.06909 95.1857C9.06656 102.232 11.5465 108.7 15.6816 113.768L15.6867 113.743Z" fill="#00CC9B"/>
<path opacity="0.4" d="M15.6867 113.743C15.6867 113.743 30.8563 115.241 38.5452 124.628C38.5452 124.628 46.6682 113.753 61.2579 113.976C65.4917 108.883 68.0383 102.342 68.0409 95.2064C68.0463 78.9518 54.85 65.7703 38.5651 65.7645C22.2807 65.7591 9.0749 78.9312 9.06909 95.1857C9.06656 102.232 11.5465 108.7 15.6816 113.768L15.6867 113.743Z" fill="#EDE9FF"/>
<path d="M24.2166 103.109C31.7945 105.505 36.5001 112.534 37.7281 114.563L37.6178 164.591H39.7985L39.4703 120.709C41.1223 118.211 45.85 111.981 53.1505 109.754C53.1505 109.754 44.4795 111.807 39.4163 118.704L39.1327 108.198C40.3802 106.202 45.2643 99.1247 53.1505 96.7195C53.1505 96.7195 44.0816 98.8651 39.0772 106.144L38.7914 95.5561L38.8117 95.6972C38.8117 95.6972 43.9326 86.4966 53.1505 83.6854C53.1505 83.6854 43.6602 85.9334 38.7395 93.6244L38.0436 79.3736L37.8278 99.8005C33.0054 92.4841 24.2169 90.3302 24.2169 90.3302C31.9794 92.7839 36.73 100.103 37.8137 101.926L37.7426 112.455C32.9024 105.241 24.2166 103.109 24.2166 103.109Z" fill="#4D21FF"/>
<path d="M24.2166 103.109C31.7945 105.505 36.5001 112.534 37.7281 114.563L37.6178 164.591H39.7985L39.4703 120.709C41.1223 118.211 45.85 111.981 53.1505 109.754C53.1505 109.754 44.4795 111.807 39.4163 118.704L39.1327 108.198C40.3802 106.202 45.2643 99.1247 53.1505 96.7195C53.1505 96.7195 44.0816 98.8651 39.0772 106.144L38.7914 95.5561L38.8117 95.6972C38.8117 95.6972 43.9326 86.4966 53.1505 83.6854C53.1505 83.6854 43.6602 85.9334 38.7395 93.6244L38.0436 79.3736L37.8278 99.8005C33.0054 92.4841 24.2169 90.3302 24.2169 90.3302C31.9794 92.7839 36.73 100.103 37.8137 101.926L37.7426 112.455C32.9024 105.241 24.2166 103.109 24.2166 103.109Z" fill="#4D21FF"/>
<path d="M201.797 103.762C201.797 103.762 219.945 105.554 229.143 116.783C229.143 116.783 238.86 103.775 256.314 104.041C261.378 97.9478 264.425 90.1225 264.428 81.5865C264.435 62.1413 248.648 46.3726 229.167 46.3657C209.686 46.3592 193.888 62.1171 193.881 81.5619C193.878 89.9914 196.844 97.7284 201.792 103.792L201.797 103.762Z" fill="#00CC9B"/>
<path opacity="0.4" d="M201.797 103.762C201.797 103.762 219.945 105.554 229.143 116.783C229.143 116.783 238.86 103.775 256.314 104.041C261.378 97.9478 264.425 90.1225 264.428 81.5865C264.435 62.1413 248.648 46.3726 229.167 46.3657C209.686 46.3592 193.888 62.1171 193.881 81.5619C193.878 89.9914 196.844 97.7284 201.792 103.792L201.797 103.762Z" fill="#EDE9FF"/>
<path d="M212.002 91.0412C221.067 93.9068 226.697 102.316 228.165 104.744L228.033 164.591H230.642L230.249 112.095C232.225 109.108 237.881 101.654 246.614 98.9907C246.614 98.9907 236.241 101.447 230.184 109.697L229.845 97.1289C231.337 94.7412 237.18 86.2751 246.614 83.3976C246.614 83.3976 235.765 85.9645 229.779 94.6717L229.437 82.0057L229.461 82.1744C229.461 82.1744 235.587 71.1677 246.614 67.8044C246.614 67.8044 235.261 70.4941 229.375 79.6943L228.542 62.6459L228.284 87.0827C222.515 78.3303 212.002 75.7536 212.002 75.7536C221.288 78.6887 226.971 87.4444 228.267 89.6258L228.182 102.222C222.393 93.5911 212.002 91.0412 212.002 91.0412Z" fill="#4D21FF"/>
<path d="M212.002 91.0412C221.067 93.9068 226.697 102.316 228.165 104.744L228.033 164.591H230.642L230.249 112.095C232.225 109.108 237.881 101.654 246.614 98.9907C246.614 98.9907 236.241 101.447 230.184 109.697L229.845 97.1289C231.337 94.7412 237.18 86.2751 246.614 83.3976C246.614 83.3976 235.765 85.9645 229.779 94.6717L229.437 82.0057L229.461 82.1744C229.461 82.1744 235.587 71.1677 246.614 67.8044C246.614 67.8044 235.261 70.4941 229.375 79.6943L228.542 62.6459L228.284 87.0827C222.515 78.3303 212.002 75.7536 212.002 75.7536C221.288 78.6887 226.971 87.4444 228.267 89.6258L228.182 102.222C222.393 93.5911 212.002 91.0412 212.002 91.0412Z" fill="#4D21FF"/>
<path d="M146.575 20.2709C146.496 20.0269 146.414 19.7815 146.325 19.5357C143.057 10.4651 127.854 9.83952 127.853 20.9873C127.853 23.1343 122.691 20.9873 120.755 23.7783C118.819 26.5693 120.97 28.287 118.389 29.1461C115.808 30.0047 115.593 27.8577 112.366 28.0727C109.139 28.2874 109.57 31.2935 108.494 32.1521C107.419 33.0108 107.419 32.5814 105.053 32.7961C102.686 33.0108 102.256 34.7285 102.256 34.7285H158.829C158.829 34.7285 160.98 28.2874 157.108 25.9254C153.236 23.5637 153.236 26.784 150.224 25.496C147.737 24.4321 147.271 22.4118 146.575 20.2709Z" stroke="#714EFF" stroke-width="0.8" stroke-miterlimit="10" stroke-linecap="round" stroke-linejoin="round"/>
<path d="M148.531 32.3795C148.531 32.3795 149.703 28.7638 146.827 26.1056C143.95 23.4471 140.967 24.9356 140.115 26.1056C139.262 27.2753 139.262 29.5084 137.877 29.7213C136.492 29.9341 136.812 27.3817 133.829 28.0199C130.846 28.6577 132.018 31.6355 130.633 32.2734C129.248 32.9112 129.248 30.572 127.33 31.3163C125.413 32.0605 125.519 33.443 125.519 33.443" stroke="#714EFF" stroke-width="0.8" stroke-miterlimit="10" stroke-linecap="round" stroke-linejoin="round"/>
<path d="M133.23 25.1554C133.23 25.1554 130.857 23.261 127.773 24.6819C124.689 26.1027 126.113 29.0628 124.689 29.7731C123.266 30.4833 122.554 29.6547 120.775 30.4833C118.996 31.3123 119.114 32.496 119.114 32.496" stroke="#714EFF" stroke-width="0.8" stroke-miterlimit="10" stroke-linecap="round" stroke-linejoin="round"/>
<path d="M81.9477 36.2652C81.9132 36.1591 81.8773 36.0523 81.8389 35.9452C80.4172 31.999 73.8029 31.7268 73.8029 36.5768C73.8029 37.5108 71.5569 36.5768 70.7148 37.7914C69.8727 39.0055 70.8084 39.753 69.6856 40.1266C68.5624 40.5002 68.4688 39.5662 67.0653 39.6596C65.6614 39.753 65.8485 41.0609 65.3807 41.4345C64.9129 41.8081 64.9129 41.6213 63.8832 41.7147C62.854 41.8081 62.6665 42.5553 62.6665 42.5553H87.2789C87.2789 42.5553 88.2146 39.753 86.5303 38.7253C84.8461 37.6976 84.8457 39.0989 83.5354 38.5385C82.4532 38.0755 82.2505 37.1969 81.9477 36.2652Z" stroke="#714EFF" stroke-width="0.8" stroke-miterlimit="10" stroke-linecap="round" stroke-linejoin="round"/>
<path d="M82.7989 41.5339C82.7989 41.5339 83.3088 39.9607 82.0572 38.804C80.8056 37.6472 79.508 38.2949 79.1374 38.804C78.7667 39.313 78.7667 40.2848 78.164 40.3771C77.5616 40.4698 77.7005 39.359 76.4025 39.6367C75.1049 39.9144 75.6144 41.2098 75.012 41.4875C74.4097 41.7652 74.4096 40.7471 73.5752 41.0711C72.741 41.3952 72.7871 41.9966 72.7871 41.9966" stroke="#714EFF" stroke-width="0.8" stroke-miterlimit="10" stroke-linecap="round" stroke-linejoin="round"/>
<path d="M76.1417 38.3905C76.1417 38.3905 75.1096 37.5661 73.7681 38.1845C72.4262 38.8025 73.0457 40.0907 72.4262 40.3999C71.8072 40.7091 71.4974 40.3485 70.7231 40.7091C69.9492 41.0697 70.0007 41.5849 70.0007 41.5849" stroke="#714EFF" stroke-width="0.8" stroke-miterlimit="10" stroke-linecap="round" stroke-linejoin="round"/>
<path d="M208.357 35.7884C208.322 35.6823 208.286 35.5756 208.248 35.4684C206.826 31.5222 200.212 31.25 200.211 36.1001C200.211 37.034 197.965 36.1001 197.123 37.3146C196.281 38.5287 197.217 39.2763 196.094 39.6499C194.971 40.0234 194.877 39.0895 193.474 39.1829C192.07 39.2763 192.257 40.5842 191.789 40.9578C191.321 41.3314 191.321 41.1446 190.292 41.238C189.263 41.3314 189.075 42.0785 189.075 42.0785H213.688C213.688 42.0785 214.623 39.2763 212.939 38.2486C211.255 37.2212 211.255 38.6221 209.944 38.0618C208.862 37.5988 208.659 36.7202 208.357 35.7884Z" stroke="#714EFF" stroke-width="0.8" stroke-miterlimit="10" stroke-linecap="round" stroke-linejoin="round"/>
<path d="M209.208 41.0571C209.208 41.0571 209.718 39.484 208.466 38.3272C207.215 37.1704 205.917 37.8182 205.546 38.3272C205.176 38.8363 205.176 39.808 204.573 39.9003C203.971 39.993 204.109 38.8822 202.811 39.1599C201.513 39.4376 202.024 40.7331 201.421 41.0108C200.819 41.2884 200.819 40.2704 199.984 40.5944C199.15 40.9184 199.196 41.5198 199.196 41.5198" stroke="#714EFF" stroke-width="0.8" stroke-miterlimit="10" stroke-linecap="round" stroke-linejoin="round"/>
<path d="M202.551 37.9134C202.551 37.9134 201.519 37.089 200.177 37.7074C198.835 38.3254 199.455 39.6136 198.835 39.9228C198.216 40.232 197.906 39.8714 197.132 40.232C196.358 40.5926 196.41 41.1078 196.41 41.1078" stroke="#714EFF" stroke-width="0.8" stroke-miterlimit="10" stroke-linecap="round" stroke-linejoin="round"/>
<path d="M179.623 152.944C179.623 152.944 178.25 160.144 178.164 160.572C178.078 161.001 177.648 164.515 177.648 164.515L184.26 164.429L183.573 158.944L185.29 153.972L179.623 152.944Z" fill="#EDE9FF" stroke="#4D21FF" stroke-width="0.8" stroke-miterlimit="10" stroke-linecap="round" stroke-linejoin="round"/>
<path d="M187.781 120.374C187.781 120.374 179.022 148.487 178.679 150.459C178.335 152.43 178.421 153.202 178.421 153.202L186.064 155.087L188.897 147.973L188.983 118.232L187.781 120.374Z" fill="#00CC9B" stroke="#4D21FF" stroke-width="0.8" stroke-miterlimit="10" stroke-linecap="round" stroke-linejoin="round"/>
<path d="M185.732 164.591L187.409 151.269L222.868 151.762L223.815 164.521L185.732 164.591Z" fill="#4D21FF" stroke="#4D21FF" stroke-width="0.8" stroke-miterlimit="10" stroke-linecap="round" stroke-linejoin="round"/>
<path d="M187.145 150.54L186.952 154.186C186.952 154.186 191.036 157.642 203.341 157.547C215.645 157.451 219.732 155.914 220.982 155.53C222.232 155.146 223.097 154.666 223.097 153.803C223.097 152.939 222.616 150.636 222.616 150.636C222.616 150.636 211.465 152.075 203.006 152.363C194.547 152.651 187.145 150.54 187.145 150.54Z" fill="#00CC9B" stroke="#4D21FF" stroke-width="0.8" stroke-miterlimit="10" stroke-linecap="round" stroke-linejoin="round"/>
<path d="M199.777 92.9551C199.777 92.9551 192.746 97.7157 192.291 99.2597C191.836 100.804 187.013 115.519 187.286 117.608C187.559 119.697 187.741 125.874 187.741 125.874C187.741 125.874 185.557 149.764 186.285 151.126C187.013 152.489 194.839 154.669 206.215 154.305C217.59 153.942 222.413 152.216 222.868 151.762C223.323 151.308 223.869 150.49 223.687 149.037C223.505 147.583 223.505 138.137 223.505 138.137L230.421 135.593C230.421 135.593 227.327 97.8967 226.144 95.8985C224.961 93.9003 214.951 90.9026 213.403 90.9934C211.857 91.0846 199.777 92.9551 199.777 92.9551Z" fill="#00CC9B" stroke="#4D21FF" stroke-width="0.8" stroke-miterlimit="10" stroke-linecap="round" stroke-linejoin="round"/>
<path d="M195.164 122.474L203.657 127.702" stroke="#4D21FF" stroke-width="0.8" stroke-miterlimit="10" stroke-linecap="round" stroke-linejoin="round"/>
<path d="M192.275 120.695L194.246 121.909" stroke="#4D21FF" stroke-width="0.8" stroke-miterlimit="10" stroke-linecap="round" stroke-linejoin="round"/>
<path d="M206.051 127.859L207.072 128.459" stroke="#4D21FF" stroke-width="0.8" stroke-miterlimit="10" stroke-linecap="round" stroke-linejoin="round"/>
<path d="M200.622 124.672L204.803 127.127" stroke="#4D21FF" stroke-width="0.8" stroke-miterlimit="10" stroke-linecap="round" stroke-linejoin="round"/>
<path d="M194.555 63.4181C194.555 63.4181 193.162 69.1865 193.162 69.8121C193.162 70.4376 193.649 71.8277 193.58 72.1748C193.51 72.5224 189.681 76.3447 190.168 76.9007C190.656 77.4568 191.839 79.1944 191.839 79.1944C191.839 79.1944 193.51 86.4919 194.137 86.4919C194.764 86.4919 200.055 85.2409 200.055 85.2409L199.777 92.9554L198.315 94.415C198.315 94.415 197.409 102.685 198.524 102.547C199.638 102.408 213.842 91.9827 214.05 91.4267C214.259 90.8707 213.911 90.5232 213.493 90.3147C213.076 90.1061 212.031 88.3685 212.031 88.3685C212.031 88.3685 211.335 79.7508 211.335 79.5423C211.335 79.3337 213.076 71.8975 213.215 71.6887C213.354 71.4802 214.19 67.7968 208.411 65.1557C202.631 62.5145 195.878 61.8198 195.32 62.028C194.763 62.2365 194.555 63.4181 194.555 63.4181Z" fill="#EDE9FF" stroke="#4D21FF" stroke-width="0.8" stroke-miterlimit="10" stroke-linecap="round" stroke-linejoin="round"/>
<path d="M200.055 85.2406L203.734 84.6703L200.196 88.5802L200.055 85.2406Z" fill="#4D21FF" stroke="#4D21FF" stroke-width="0.8" stroke-miterlimit="10" stroke-linecap="round" stroke-linejoin="round"/>
<path d="M193.65 79.4031C193.65 79.4031 195.808 79.6116 197.27 78.0823C197.27 78.0823 197.201 80.7239 196.226 81.0714C195.251 81.4186 193.65 79.4031 193.65 79.4031Z" fill="#4D21FF" stroke="#4D21FF" stroke-width="0.8" stroke-miterlimit="10" stroke-linecap="round" stroke-linejoin="round"/>
<path d="M195.738 71.9664C195.738 72.427 195.567 72.8006 195.355 72.8006C195.144 72.8006 194.972 72.427 194.972 71.9664C194.972 71.5059 195.144 71.1323 195.355 71.1323C195.567 71.1323 195.738 71.5059 195.738 71.9664Z" fill="#4D21FF"/>
<path d="M194.416 69.1216C194.416 69.1216 195.411 68.3981 197.131 69.1216" stroke="#4D21FF" stroke-width="0.8" stroke-miterlimit="10" stroke-linecap="round" stroke-linejoin="round"/>
<path d="M202.516 55.0964C202.516 55.0964 199.067 52.6525 196.507 52.6525C193.947 52.6525 191.944 54.5411 191.944 55.9851C191.944 57.4291 192.5 58.5397 191.833 59.0954C191.165 59.6507 189.607 57.9848 188.717 60.3172C187.826 62.6499 191.61 64.9826 192.389 65.2049C193.168 65.4271 194.392 63.7609 195.06 64.3162C195.728 64.8715 196.062 66.0936 197.731 66.0936C199.4 66.0936 200.958 64.7607 201.403 65.4272C201.848 66.0936 200.736 68.0929 201.515 68.6486C202.294 69.2039 203.852 70.5368 203.852 70.5368C203.852 70.5368 203.073 72.6472 203.629 72.8695C204.185 73.0918 204.185 73.0918 204.185 73.0918C204.185 73.0918 205.187 70.759 206.634 70.9813C208.08 71.2036 208.525 71.7589 208.525 74.2028C208.525 76.6466 205.855 77.5353 205.855 77.5353C205.855 77.5353 208.414 80.5345 209.193 80.7568C209.972 80.979 211.196 81.7566 211.642 80.979C212.087 80.2015 214.535 75.4249 214.98 74.8696C215.425 74.3143 218.653 74.2031 219.32 71.6481C219.988 69.0931 218.096 67.8714 218.875 67.0938C219.654 66.3162 222.882 65.9828 221.88 62.5395C220.878 59.0961 218.208 58.8739 217.206 58.5405C216.204 58.2071 214.98 55.6524 213.422 54.986C211.864 54.3195 210.974 54.7637 210.64 54.8748C210.306 54.986 210.084 53.3197 206.857 53.6531C203.629 53.9858 202.516 55.0964 202.516 55.0964Z" fill="#4D21FF" stroke="#4D21FF" stroke-width="0.8" stroke-miterlimit="10" stroke-linecap="round" stroke-linejoin="round"/>
<path d="M194.78 74.7636C193.901 74.7636 192.83 74.4305 192.469 74.0098C191.993 73.4551 191.674 70.5736 191.987 69.667C192.108 69.3187 192.313 69.2093 192.465 69.1793C192.557 69.1608 192.803 69.1119 196.541 69.3353C196.835 69.3527 197.11 69.4928 197.297 69.7191C197.484 69.9458 197.569 70.243 197.53 70.5348V70.5352C197.443 71.1854 197.324 72.0703 197.281 72.3657C197.199 72.9396 196.461 74.1586 195.705 74.5771C195.471 74.7071 195.142 74.7636 194.78 74.7636ZM192.676 69.8853C192.469 70.3802 192.644 73.0551 193.021 73.5395C193.326 73.8954 194.866 74.2133 195.354 73.9439C195.865 73.6601 196.508 72.6467 196.563 72.2629C196.605 71.9685 196.724 71.0866 196.811 70.4385C196.824 70.344 196.798 70.2517 196.738 70.1789C196.678 70.1061 196.593 70.0631 196.498 70.0576C194.131 69.9164 192.994 69.8762 192.676 69.8853Z" fill="#4D21FF"/>
<path d="M197.171 70.4867L205.277 71.5497L204.581 72.1753L199.429 71.7582L198.524 72.1753L196.922 72.3143L197.171 70.4867Z" fill="#4D21FF" stroke="#4D21FF" stroke-width="0.8" stroke-miterlimit="10" stroke-linecap="round" stroke-linejoin="round"/>
<path d="M186.949 129.779C186.949 129.779 184.246 127.023 184.707 126.679C185.166 126.334 185.972 126.334 186.489 126.908C187.007 127.483 189.766 130.812 189.766 130.812L186.949 129.779Z" fill="#EDE9FF" stroke="#4D21FF" stroke-width="0.8" stroke-miterlimit="10" stroke-linecap="round" stroke-linejoin="round"/>
<path d="M190.457 132.304C190.457 132.304 187.639 130.926 187.064 130.582C186.489 130.238 183.556 128.401 183.902 127.999C184.247 127.597 185.224 127.425 185.914 128.114C186.604 128.803 189.364 130.066 189.537 130.123C189.709 130.18 191.089 132.075 191.089 132.075L190.457 132.304Z" fill="#EDE9FF" stroke="#4D21FF" stroke-width="0.8" stroke-miterlimit="10" stroke-linecap="round" stroke-linejoin="round"/>
<path d="M204.947 132.246C204.947 132.246 200.979 130.639 200.691 130.467C200.404 130.294 199.771 128.974 198.851 128.286C197.931 127.597 196.839 127.425 195.919 127.08C194.999 126.736 193.216 125.817 192.929 125.645C192.641 125.473 191.491 126.334 193.044 127.539C194.596 128.744 195.746 129.605 195.746 129.605C195.746 129.605 193.446 129.72 192.699 129.835C191.951 129.95 190.341 129.777 190.111 129.491C189.881 129.204 188.214 126.908 187.696 126.449C187.178 125.99 186.028 125.817 185.799 126.564C185.569 127.31 186.431 127.252 187.754 129.089C189.076 130.926 190.859 133.393 191.779 133.336C192.699 133.279 199.484 134.025 199.484 134.025L205.521 136.78L204.947 132.246Z" fill="#EDE9FF" stroke="#4D21FF" stroke-width="0.8" stroke-miterlimit="10" stroke-linecap="round" stroke-linejoin="round"/>
<path d="M218.591 105.073C218.591 105.073 216.225 113.339 216.861 115.792C217.499 118.244 221.32 131.052 221.32 131.052C221.32 131.052 208.398 131.325 206.851 131.325C205.304 131.325 204.485 131.506 204.485 131.506L204.394 139.5C204.394 139.5 215.587 142.406 222.959 141.68C230.33 140.953 234.88 139.863 235.153 138.591C235.426 137.319 235.335 135.866 235.335 135.866C235.335 135.866 230.876 109.251 229.693 104.891C228.51 100.531 227.236 95.5354 226.235 94.8085C225.234 94.082 219.592 93.0825 219.592 93.0825" fill="#00CC9B"/>
<path d="M218.591 105.073C218.591 105.073 216.225 113.339 216.861 115.792C217.499 118.244 221.32 131.052 221.32 131.052C221.32 131.052 208.398 131.325 206.851 131.325C205.304 131.325 204.485 131.506 204.485 131.506L204.394 139.5C204.394 139.5 215.587 142.406 222.959 141.68C230.33 140.953 234.88 139.863 235.153 138.591C235.426 137.319 235.335 135.866 235.335 135.866C235.335 135.866 230.876 109.251 229.693 104.891C228.51 100.531 227.236 95.5354 226.235 94.8085C225.234 94.082 219.592 93.0825 219.592 93.0825" stroke="#4D21FF" stroke-width="0.8" stroke-miterlimit="10" stroke-linecap="round" stroke-linejoin="round"/>
<path d="M244.251 21.9911H213.945C212.006 21.9911 210.434 23.5597 210.434 25.4949V42.3837C210.434 44.3189 212.006 45.8875 213.945 45.8875H225.292L222.552 53.1369L229.305 45.8875H244.25C246.189 45.8875 247.761 44.3186 247.761 42.3837V25.4949C247.761 23.5597 246.19 21.9911 244.251 21.9911Z" fill="#EDE9FF" stroke="#4D21FF" stroke-width="0.8" stroke-miterlimit="10" stroke-linecap="round" stroke-linejoin="round"/>
<path d="M222.646 33.4436C222.646 32.5157 221.892 31.7633 220.963 31.7633C220.033 31.7633 219.28 32.5157 219.28 33.4436C219.28 34.3716 220.033 35.1239 220.963 35.1239C221.892 35.1239 222.646 34.3716 222.646 33.4436Z" fill="#4D21FF"/>
<path d="M230.781 33.4436C230.781 32.5157 230.027 31.7633 229.098 31.7633C228.168 31.7633 227.415 32.5157 227.415 33.4436C227.415 34.3716 228.168 35.1239 229.098 35.1239C230.027 35.1239 230.781 34.3716 230.781 33.4436Z" fill="#4D21FF"/>
<path d="M238.916 33.4436C238.916 32.5157 238.162 31.7633 237.233 31.7633C236.303 31.7633 235.55 32.5157 235.55 33.4436C235.55 34.3716 236.303 35.1239 237.233 35.1239C238.162 35.1239 238.916 34.3716 238.916 33.4436Z" fill="#4D21FF"/>
<path d="M161.27 164.591C161.364 162.871 161.484 160.129 161.363 159.107C161.182 157.571 157.436 146.591 157.436 146.591L114.028 146.55L112.871 164.592H161.27V164.591Z" fill="#4D21FF" stroke="#4D21FF" stroke-width="0.8" stroke-miterlimit="10" stroke-linecap="round" stroke-linejoin="round"/>
<path d="M160.549 147.724L159.192 148.989L156.567 151.157L161.364 159.107C161.364 159.107 163.265 157.12 163.536 156.307C163.808 155.494 164.441 153.055 164.441 153.055L164.984 151.79L160.549 147.724Z" fill="#EDE9FF" stroke="#4D21FF" stroke-width="0.8" stroke-miterlimit="10" stroke-linecap="round" stroke-linejoin="round"/>
<path d="M126.658 89.1747C126.658 89.1747 111.326 93.8923 110.75 96.1935C110.174 98.4948 101.413 122.198 101.413 122.198L115.361 123.694C115.361 123.694 112.249 147.051 112.825 147.742C113.401 148.432 132.191 149.122 135.649 149.237C139.108 149.353 156.975 147.396 157.436 146.591C157.897 145.785 157.782 143.944 157.782 143.944L157.206 126.915L157.321 119.896L163.661 132.323C163.661 132.323 165.506 133.819 168.849 133.359C172.192 132.899 174.612 131.402 173.921 126.8C173.229 122.198 164.123 101.141 163.085 98.0347C162.047 94.928 161.01 93.4322 159.396 92.6267C157.782 91.8213 142.105 87.9092 142.105 87.9092L126.658 89.1747Z" fill="#00CC9B" stroke="#4D21FF" stroke-width="0.8" stroke-miterlimit="10" stroke-linecap="round" stroke-linejoin="round"/>
<path d="M157.321 119.896L157.782 104.593" stroke="#4D21FF" stroke-width="0.8" stroke-miterlimit="10" stroke-linecap="round" stroke-linejoin="round"/>
<path d="M157.782 113.798L159.28 105.283" stroke="#4D21FF" stroke-width="0.8" stroke-miterlimit="10" stroke-linecap="round" stroke-linejoin="round"/>
<path d="M115.361 123.693L117.09 102.982" stroke="#4D21FF" stroke-width="0.8" stroke-miterlimit="10" stroke-linecap="round" stroke-linejoin="round"/>
<path d="M116.053 111.497L114.784 103.212" stroke="#4D21FF" stroke-width="0.8" stroke-miterlimit="10" stroke-linecap="round" stroke-linejoin="round"/>
<path d="M126.773 85.7227C126.773 85.7227 123.315 88.484 123.43 89.0596C123.545 89.6348 123.545 92.1663 124.813 92.7415C126.081 93.3167 134.15 99.6452 134.15 99.6452L126.773 85.7227Z" fill="#00CC9B" stroke="#4D21FF" stroke-width="0.8" stroke-miterlimit="10" stroke-linecap="round" stroke-linejoin="round"/>
<path d="M125.273 76.224L127.004 90.4405L134.151 99.6454L142.681 86.9884L142.796 78.1285C142.796 78.1285 141.989 80.7751 137.033 80.5448C132.076 80.315 125.273 76.224 125.273 76.224Z" fill="#EDE9FF" stroke="#4D21FF" stroke-width="0.8" stroke-miterlimit="10" stroke-linecap="round" stroke-linejoin="round"/>
<path d="M134.13 83.8041L126.773 85.7227L124.996 74.8019L134.13 83.8041Z" fill="#4D21FF" stroke="#4D21FF" stroke-width="0.8" stroke-miterlimit="10" stroke-linecap="round" stroke-linejoin="round"/>
<path d="M134.15 99.6452C134.15 99.6452 136.687 91.4756 136.917 90.3252C137.148 89.1747 143.027 84.5719 143.027 84.5719C143.027 84.5719 144.179 84.5719 144.179 85.7223C144.179 86.8728 144.295 88.2538 144.295 88.2538L134.15 99.6452Z" fill="#00CC9B" stroke="#4D21FF" stroke-width="0.8" stroke-miterlimit="10" stroke-linecap="round" stroke-linejoin="round"/>
<path d="M144.41 67.8305C144.41 67.8305 146.024 66.5649 146.831 68.5208C147.638 70.4771 145.101 73.5837 144.525 74.159C143.949 74.7342 143.949 74.7342 143.949 74.7342C143.949 74.7342 143.603 71.5124 143.603 70.3619C143.603 69.2111 143.373 67.6002 144.41 67.8305Z" fill="#EDE9FF" stroke="#4D21FF" stroke-width="0.8" stroke-miterlimit="10" stroke-linecap="round" stroke-linejoin="round"/>
<path d="M122.627 69.5482C122.627 69.5482 120.897 69.777 120.896 71.2727C120.895 72.7685 121.815 74.8406 122.968 75.5317C124.12 76.2231 125.272 76.2238 125.272 76.2238C125.272 76.2238 125.616 78.9855 127.228 80.8277C128.841 82.6699 130.914 84.0524 131.951 84.7438C132.988 85.4353 135.293 86.4724 136.676 85.8983C138.06 85.3241 140.137 83.2546 140.137 83.2546C140.137 83.2546 142.097 82.4506 142.906 79.9202C143.715 77.3895 144.641 73.0179 144.643 70.8318C144.644 68.6457 144.07 65.9988 143.956 65.3084C143.841 64.6181 141.999 61.9701 136.581 61.9657C131.163 61.9614 126.781 63.6834 125.973 64.9486C125.166 66.2134 122.627 69.5482 122.627 69.5482Z" fill="#EDE9FF" stroke="#4D21FF" stroke-width="0.8" stroke-miterlimit="10" stroke-linecap="round" stroke-linejoin="round"/>
<path d="M124.039 68.783L124.707 71.6161C124.707 71.6161 125.375 71.6994 125.375 71.1994C125.375 70.6994 124.698 67.8305 124.698 67.8305L124.039 68.783Z" fill="#4D21FF" stroke="#4D21FF" stroke-width="0.8" stroke-miterlimit="10" stroke-linecap="round" stroke-linejoin="round"/>
<path d="M133.804 74.6203C133.804 74.6203 133.688 75.541 134.956 75.8871C136.224 76.2332 138.068 75.8896 138.299 75.1996C138.53 74.5095 138.185 73.7036 138.185 73.7036" stroke="#4D21FF" stroke-width="0.8" stroke-miterlimit="10" stroke-linecap="round" stroke-linejoin="round"/>
<path d="M132.303 77.6104C132.303 77.6104 135.645 79.3392 139.336 77.0408" stroke="#4D21FF" stroke-width="0.8" stroke-miterlimit="10" stroke-linecap="round" stroke-linejoin="round"/>
<path d="M132.133 71.5131C132.547 71.5131 132.883 71.0235 132.883 70.4197C132.883 69.8158 132.547 69.3263 132.133 69.3263C131.719 69.3263 131.384 69.8158 131.384 70.4197C131.384 71.0235 131.719 71.5131 132.133 71.5131Z" fill="#4D21FF"/>
<path d="M140.664 70.4197C140.664 71.0236 140.328 71.5131 139.914 71.5131C139.501 71.5131 139.165 71.0236 139.165 70.4197C139.165 69.8158 139.501 69.3263 139.914 69.3263C140.328 69.3263 140.664 69.8158 140.664 70.4197Z" fill="#4D21FF"/>
<path d="M129.54 68.7512C129.54 68.7512 131.153 67.1401 133.805 67.7154" stroke="#4D21FF" stroke-width="0.8" stroke-miterlimit="10" stroke-linecap="round" stroke-linejoin="round"/>
<path d="M138.185 67.4855C138.185 67.4855 140.26 66.7951 142.22 68.2911" stroke="#4D21FF" stroke-width="0.8" stroke-miterlimit="10" stroke-linecap="round" stroke-linejoin="round"/>
<path d="M124.698 67.8305C124.698 67.8305 123.545 69.5565 122.623 69.5565C121.701 69.5565 118.589 67.1401 118.358 65.0691C118.128 62.9981 122.854 61.3872 124.583 58.8558C126.313 56.3243 130.923 52.0672 134.612 52.7575C138.301 53.4479 140.722 57.4751 143.027 58.1654C145.333 58.8558 149.021 61.157 148.676 63.4582C148.33 65.7595 147.408 66.7952 146.485 66.9103C145.563 67.0254 144.411 66.3351 144.411 66.3351C144.411 66.3351 141.183 62.538 136.572 61.9628C131.961 61.3876 130.347 62.538 128.733 64.264C127.119 65.9897 124.698 67.8305 124.698 67.8305Z" fill="#4D21FF" stroke="#4D21FF" stroke-width="0.8" stroke-miterlimit="10" stroke-linecap="round" stroke-linejoin="round"/>
<path d="M124.698 67.8305C124.698 67.8305 126.312 68.6359 128.272 67.4851C130.231 66.3343 131.384 63.3428 136.226 64.1482C141.067 64.9537 141.643 66.5646 142.796 66.7948C143.949 67.025 144.41 66.9099 143.949 65.299C143.488 63.6881 139.453 60.8117 135.418 60.5814C131.384 60.3516 124.929 64.3788 124.698 67.8305Z" fill="#714EFF" stroke="#4D21FF" stroke-width="0.8" stroke-miterlimit="10" stroke-linecap="round" stroke-linejoin="round"/>
<path d="M123.586 113.808C123.586 113.808 124.985 109.655 125.407 109.159C125.83 108.663 128.523 107.638 128.523 107.638L130.292 106.856C130.537 106.747 130.822 106.889 130.885 107.149C131.078 107.938 131.014 108.086 130.56 108.513C130.022 109.018 127.904 109.997 127.904 109.997L131.821 109.145L138.331 107.806C138.621 107.746 138.899 107.952 138.925 108.247L138.926 108.255C138.948 108.526 133.442 110.647 133.442 110.647L133.531 111.184L137.904 110.786L139.75 110.502C140.101 110.448 140.435 110.672 140.517 111.017C140.592 111.334 140.433 111.659 140.135 111.794C139.476 112.091 138.401 112.574 138.279 112.615C138.102 112.674 133.942 113.463 133.942 113.463L136.313 114.133L140.335 114.096C140.57 114.094 140.763 114.282 140.766 114.517C140.768 114.674 140.685 114.819 140.547 114.895C140.149 115.114 139.319 115.558 138.891 115.693C138.316 115.875 136.345 116.215 135.852 116.3C135.359 116.386 133.686 116.475 133.55 116.486C133.415 116.497 136.448 116.933 136.587 116.967C136.726 117.001 138.414 117.091 138.383 117.275C138.353 117.459 138.419 117.726 138.111 117.841C137.803 117.957 136.584 118.055 135.355 118.018C134.125 117.981 132.49 117.977 132.49 117.977C132.49 117.977 129.169 118.471 127.815 118.58C126.462 118.689 124.63 119.063 124.63 119.063L122.123 120.081L121.047 114.637L123.586 113.808Z" fill="#EDE9FF" stroke="#4D21FF" stroke-width="0.8" stroke-miterlimit="10" stroke-linecap="round" stroke-linejoin="round"/>
<path d="M122.717 114.027L124.075 120.17C124.075 120.17 106.969 132.998 106.697 132.998C106.425 132.998 104.615 133.27 102.353 131.282C100.09 129.294 99.547 126.494 99.909 124.687C100.271 122.88 102.081 120.622 102.986 119.809C103.891 118.996 122.717 114.027 122.717 114.027Z" fill="#00CC9B" stroke="#4D21FF" stroke-width="0.8" stroke-miterlimit="10" stroke-linecap="round" stroke-linejoin="round"/>
<path d="M168.333 127.488C168.333 127.488 165.074 130.198 164.35 131.463C163.626 132.728 159.916 148.086 159.916 148.086L165.617 153.054L168.604 148.989C168.604 148.989 175.573 133.36 175.845 132.276C176.117 131.192 174.759 127.126 173.311 125.139" fill="#00CC9B"/>
<path d="M168.333 127.488C168.333 127.488 165.074 130.198 164.35 131.463C163.626 132.728 159.916 148.086 159.916 148.086L165.617 153.054L168.604 148.989C168.604 148.989 175.573 133.36 175.845 132.276C176.117 131.192 174.759 127.126 173.311 125.139" stroke="#4D21FF" stroke-width="0.8" stroke-miterlimit="10" stroke-linecap="round" stroke-linejoin="round"/>
<path d="M175.057 31.8151H144.751C142.812 31.8151 141.24 33.384 141.24 35.3189V52.2076C141.24 54.1429 142.812 55.7114 144.751 55.7114H156.099L153.358 62.9608L160.111 55.7114H175.057C176.995 55.7114 178.567 54.1425 178.567 52.2076V35.3189C178.567 33.3836 176.996 31.8151 175.057 31.8151Z" fill="#EDE9FF" stroke="#4D21FF" stroke-width="0.8" stroke-miterlimit="10" stroke-linecap="round" stroke-linejoin="round"/>
<path d="M153.682 43.7842C153.682 42.8562 152.929 42.1039 151.999 42.1039C151.07 42.1039 150.316 42.8562 150.316 43.7842C150.316 44.7121 151.07 45.4644 151.999 45.4644C152.929 45.4644 153.682 44.7121 153.682 43.7842Z" fill="#4D21FF"/>
<path d="M161.817 43.7842C161.817 42.8562 161.064 42.1039 160.134 42.1039C159.205 42.1039 158.451 42.8562 158.451 43.7842C158.451 44.7121 159.205 45.4644 160.134 45.4644C161.064 45.4644 161.817 44.7121 161.817 43.7842Z" fill="#4D21FF"/>
<path d="M169.952 43.7842C169.952 42.8562 169.199 42.1039 168.269 42.1039C167.34 42.1039 166.586 42.8562 166.586 43.7842C166.586 44.7121 167.34 45.4644 168.269 45.4644C169.199 45.4644 169.952 44.7121 169.952 43.7842Z" fill="#4D21FF"/>
<path d="M59.3549 53.265C59.3549 53.265 49.6348 59.8574 49.5104 62.0964C49.3856 64.3354 49.1364 70.5545 47.8903 71.6742C46.6442 72.7935 44.2764 74.6596 44.2764 76.0276C44.2764 77.3956 44.7747 79.1372 44.7747 79.7591C44.7747 80.381 43.2794 81.5007 43.1546 82.8687C43.0299 84.237 43.9024 86.8489 43.9024 87.5953C43.9024 88.3418 41.9085 89.5856 41.6594 90.5807C41.4102 91.5759 42.0333 92.1978 41.4102 93.1929C40.7871 94.188 39.541 95.8051 39.541 95.8051C39.541 95.8051 41.7841 98.5415 49.6348 99.7857C57.4854 101.029 68.8256 101.403 73.561 100.408C78.2963 99.4124 87.3934 93.3174 87.3934 93.3174C87.3934 93.3174 86.5212 92.8201 86.5212 91.4517C86.5212 90.0833 88.2657 87.9689 87.3934 86.3518C86.5212 84.7348 84.5273 84.6103 84.5273 82.2471C84.5273 79.8836 85.3995 80.2568 84.5273 78.5156C83.6551 76.774 81.7859 76.5253 81.5364 75.157C81.2872 73.7886 82.9072 72.0474 81.9103 69.9326C80.9133 67.8178 78.795 66.3253 78.4211 65.3301C78.0472 64.335 79.1689 61.5986 77.9228 59.9816C76.6766 58.3645 68.0782 53.3892 65.212 52.7673C62.3459 52.1454 59.3549 53.265 59.3549 53.265Z" fill="#4D21FF" stroke="#4D21FF" stroke-width="0.8" stroke-miterlimit="10" stroke-linecap="round" stroke-linejoin="round"/>
<path d="M75.4592 78.2456C74.5322 84.1751 69.7094 88.2462 69.7094 88.2462V91.3956L66.1129 90.9739L57.0919 89.9139V81.9506C57.0919 81.9506 56.3481 81.9506 55.2376 81.7642C54.1235 81.5814 52.8226 79.5441 53.9367 75.6555C55.0508 71.7632 57.0919 76.3943 57.0919 76.3943C57.0919 76.3943 57.8321 76.5807 60.4303 71.5804C63.0284 66.5801 64.3257 59.7253 64.3257 59.7253L74.1615 65.0988C74.1615 65.0988 76.3861 72.3196 75.4592 78.2456Z" fill="#EDE9FF" stroke="#4D21FF" stroke-width="0.8" stroke-miterlimit="10" stroke-linecap="round" stroke-linejoin="round"/>
<path d="M71.0421 70.5252C71.0421 70.5252 70.4401 72.2422 70.4401 72.7573C70.4401 73.2724 71.8161 78.9384 71.9883 79.2816C72.1602 79.6252 68.634 80.1399 68.634 80.1399" stroke="#4D21FF" stroke-width="0.8" stroke-miterlimit="10" stroke-linecap="round" stroke-linejoin="round"/>
<path d="M71.902 81.5138C71.902 81.5138 68.3758 82.8875 66.3115 80.827" stroke="#4D21FF" stroke-width="0.8" stroke-miterlimit="10" stroke-linecap="round" stroke-linejoin="round"/>
<path d="M67.3438 69.1514C67.3438 69.1514 64.3336 68.6362 62.7854 70.5251" stroke="#4D21FF" stroke-width="0.8" stroke-miterlimit="10" stroke-linecap="round" stroke-linejoin="round"/>
<path d="M71.8162 69.3234C71.8162 69.3234 73.9664 68.7224 74.8263 70.096" stroke="#4D21FF" stroke-width="0.8" stroke-miterlimit="10" stroke-linecap="round" stroke-linejoin="round"/>
<path d="M66.1419 73.1427C66.1419 73.8679 65.8021 74.4558 65.3828 74.4558C64.9636 74.4558 64.6238 73.8679 64.6238 73.1427C64.6238 72.4175 64.9636 71.8295 65.3828 71.8295C65.8021 71.8295 66.1419 72.4175 66.1419 73.1427Z" fill="#4D21FF"/>
<path d="M74.085 73.1427C74.085 73.8679 73.7452 74.4558 73.326 74.4558C72.9067 74.4558 72.5669 73.8679 72.5669 73.1427C72.5669 72.4175 72.9067 71.8295 73.326 71.8295C73.7452 71.8295 74.085 72.4175 74.085 73.1427Z" fill="#4D21FF"/>
<path d="M69.7095 88.2462V91.3956L66.1129 90.9739C63.4437 88.7237 60.9725 84.6751 60.7893 84.3728C63.8288 88.8992 69.7095 88.2462 69.7095 88.2462Z" fill="#4D21FF" stroke="#4D21FF" stroke-width="0.8" stroke-miterlimit="10" stroke-linecap="round" stroke-linejoin="round"/>
<path d="M80.1231 98.2551C80.1231 98.2551 90.4467 135.485 91.1942 139.216C91.942 142.948 93.8112 159.553 93.8112 159.553L94.3719 164.404H88.2033L89.5118 157.314L82.2218 133.059C82.2218 133.059 79.6048 115.147 79.4181 110.11C79.2313 105.072 80.1231 98.2551 80.1231 98.2551Z" fill="#EDE9FF" stroke="#4D21FF" stroke-width="0.8" stroke-miterlimit="10" stroke-linecap="round" stroke-linejoin="round"/>
<path d="M80.1231 98.2551C80.1231 98.2551 79.2313 105.072 79.4181 110.11C79.6048 115.147 82.2218 133.059 82.2218 133.059L85.0934 142.613L91.5852 141.59C91.4372 140.585 91.3034 139.762 91.1942 139.216C90.4467 135.485 80.1231 98.2551 80.1231 98.2551Z" fill="#00CC9B" stroke="#4D21FF" stroke-width="0.8" stroke-miterlimit="10" stroke-linecap="round" stroke-linejoin="round"/>
<path d="M56.8005 97.609L65.7729 107.311L72.689 97.4222L68.9506 94.8103L58.8565 94.2503L56.8005 97.609Z" fill="#EDE9FF" stroke="#4D21FF" stroke-width="0.8" stroke-miterlimit="10" stroke-linecap="round" stroke-linejoin="round"/>
<path d="M68.3898 96.4895L74.3713 98.1688L83.1565 150.411L84.6522 164.591H44.8372L49.3233 100.408L57.6103 95.5566L68.3898 96.4895Z" fill="#EDE9FF" stroke="#4D21FF" stroke-width="0.8" stroke-miterlimit="10" stroke-linecap="round" stroke-linejoin="round"/>
<path d="M60.1648 119.999L74.1844 120.558" stroke="#4D21FF" stroke-width="0.8" stroke-miterlimit="10" stroke-linecap="round" stroke-linejoin="round"/>
<path d="M67.4551 120.185L66.894 127.835" stroke="#4D21FF" stroke-width="0.8" stroke-miterlimit="10" stroke-linecap="round" stroke-linejoin="round"/>
<path d="M68.9503 120.745L68.7632 134.738" stroke="#4D21FF" stroke-width="0.8" stroke-miterlimit="10" stroke-linecap="round" stroke-linejoin="round"/>
<path d="M70.4456 124.663L70.8195 131.753" stroke="#4D21FF" stroke-width="0.8" stroke-miterlimit="10" stroke-linecap="round" stroke-linejoin="round"/>
<path d="M54.2457 95.059C54.2457 95.059 45.1486 99.9102 44.775 101.527C44.4011 103.144 39.9773 123.544 39.9773 123.917C39.9773 124.29 44.4011 135.858 44.4011 135.858L43.4832 154.05C43.4832 154.05 47.9694 155.045 50.7108 154.92C53.4522 154.796 57.5644 154.547 57.5644 154.547L58.2328 95.059H54.2457Z" fill="#00CC9B" stroke="#4D21FF" stroke-width="0.8" stroke-miterlimit="10" stroke-linecap="round" stroke-linejoin="round"/>
<path d="M48.5757 129.887L50.2577 115.147" stroke="#4D21FF" stroke-width="0.8" stroke-miterlimit="10" stroke-linecap="round" stroke-linejoin="round"/>
<path d="M48.6382 127.648L39.0428 103.891C39.0428 103.891 37.6719 100.159 36.5505 99.1641C35.4292 98.169 34.1827 97.4229 33.4352 96.6765C32.6874 95.93 32.563 94.1888 32.0643 96.0545C31.566 97.9203 33.5596 99.2886 33.5596 99.2886L34.8057 101.403L26.8303 99.9106C26.8303 99.9106 22.7181 97.9203 22.3441 98.7913C21.9702 99.6619 24.0889 100.408 25.8334 101.777C27.5778 103.145 28.5748 104.389 31.4409 105.384C34.3071 106.379 36.5502 108.369 36.5502 108.369C36.5502 108.369 37.1732 133.62 38.6685 134.739C40.1638 135.859 45.273 138.844 47.1426 136.356C49.0117 133.868 49.0117 131.629 48.6382 127.648Z" fill="#EDE9FF" stroke="#4D21FF" stroke-width="0.8" stroke-miterlimit="10" stroke-linecap="round" stroke-linejoin="round"/>
<path d="M48.6383 127.648L47.09 123.815L37.4282 127.062C37.7459 131.131 38.1561 134.354 38.6693 134.739C40.1645 135.858 45.2738 138.843 47.1433 136.356C49.0118 133.868 49.0118 131.629 48.6383 127.648Z" fill="#00CC9B" stroke="#4D21FF" stroke-width="0.8" stroke-miterlimit="10" stroke-linecap="round" stroke-linejoin="round"/>
<path d="M30.083 104.247C30.083 104.247 26.7903 102.256 26.1919 101.26C25.5932 100.264 23.498 96.3801 24.1965 96.2806C24.895 96.181 26.7508 99.0245 26.7907 99.4673C26.8302 99.91 28.8858 101.858 28.8858 101.858" fill="#EDE9FF"/>
<path d="M30.083 104.247C30.083 104.247 26.7903 102.256 26.1919 101.26C25.5932 100.264 23.498 96.3801 24.1965 96.2806C24.895 96.181 26.7508 99.0245 26.7907 99.4673C26.8302 99.91 28.8858 101.858 28.8858 101.858" stroke="#4D21FF" stroke-width="0.8" stroke-miterlimit="10" stroke-linecap="round" stroke-linejoin="round"/>
<path d="M30.3824 105.044C30.3824 105.044 29.0855 104.247 28.2873 102.455C27.489 100.662 26.5911 98.1723 26.5911 96.7783C26.5911 95.3842 27.3893 95.882 27.6885 96.8778C27.9877 97.8737 28.9854 100.264 29.3847 100.762C29.7836 101.26 31.1806 103.252 31.1806 103.252" fill="#EDE9FF"/>
<path d="M30.3824 105.044C30.3824 105.044 29.0855 104.247 28.2873 102.455C27.489 100.662 26.5911 98.1723 26.5911 96.7783C26.5911 95.3842 27.3893 95.882 27.6885 96.8778C27.9877 97.8737 28.9854 100.264 29.3847 100.762C29.7836 101.26 31.1806 103.252 31.1806 103.252" stroke="#4D21FF" stroke-width="0.8" stroke-miterlimit="10" stroke-linecap="round" stroke-linejoin="round"/>
<path d="M38.0649 106.04C37.9652 105.741 36.6679 103.65 36.269 103.55C35.8701 103.451 33.1762 104.148 33.1762 104.148L31.3802 102.753C31.3802 102.753 31.2805 99.7658 31.2805 98.6704C31.2805 97.5749 29.7838 100.264 29.6841 102.057C29.5843 103.849 30.981 105.741 30.981 105.741C30.981 105.741 32.5774 106.04 32.8766 106.139C33.1758 106.239 36.5501 108.368 36.5501 108.368" fill="#EDE9FF"/>
<path d="M38.0649 106.04C37.9652 105.741 36.6679 103.65 36.269 103.55C35.8701 103.451 33.1762 104.148 33.1762 104.148L31.3802 102.753C31.3802 102.753 31.2805 99.7658 31.2805 98.6704C31.2805 97.5749 29.7838 100.264 29.6841 102.057C29.5843 103.849 30.981 105.741 30.981 105.741C30.981 105.741 32.5774 106.04 32.8766 106.139C33.1758 106.239 36.5501 108.368 36.5501 108.368" stroke="#4D21FF" stroke-width="0.8" stroke-miterlimit="10" stroke-linecap="round" stroke-linejoin="round"/>
<path d="M54.7442 95.059L53.498 131.504L58.8564 131.38L57.6103 95.5564L54.7442 95.059Z" fill="#714EFF" stroke="#4D21FF" stroke-width="0.8" stroke-miterlimit="10" stroke-linecap="round" stroke-linejoin="round"/>
<path d="M54.7441 95.059L57.2367 134.365L64.9626 134.241L59.8534 95.4322L54.7441 95.059Z" fill="#714EFF" stroke="#4D21FF" stroke-width="0.8" stroke-miterlimit="10" stroke-linecap="round" stroke-linejoin="round"/>
<path d="M71.0063 96.8625L71.0549 97.5648L74.9319 153.583L85.2167 152.912L82.409 126.902C82.409 126.902 80.6837 98.628 80.1231 98.2548C79.5624 97.8815 71.0067 95.9293 71.0067 95.9293V96.8625H71.0063Z" fill="#00CC9B" stroke="#4D21FF" stroke-width="0.8" stroke-miterlimit="10" stroke-linecap="round" stroke-linejoin="round"/>
<path d="M55.9902 87.8444C55.9902 87.8444 68.7009 90.332 69.8226 90.332C70.9444 90.332 71.6918 91.0785 71.4427 91.9491C71.1935 92.8197 71.0688 93.5661 71.0688 94.0635C71.0688 94.5609 72.4396 96.5512 71.3179 97.5463C70.1962 98.5415 58.4824 96.6757 56.8624 96.5512C55.2423 96.4267 53.7471 96.3025 53.7471 95.4319C53.7471 94.5613 55.6163 93.0684 55.6163 92.4465C55.6166 91.8249 54.121 89.9592 55.9902 87.8444Z" fill="#714EFF" stroke="#4D21FF" stroke-width="0.8" stroke-miterlimit="10" stroke-linecap="round" stroke-linejoin="round"/>
<path d="M22.7258 22.5378H56.4828C58.6422 22.5378 60.3927 24.2851 60.3927 26.4405V45.2525C60.3927 47.4079 58.6422 49.1553 56.4828 49.1553H43.8428L46.8954 57.23L39.3733 49.1553H22.7258C20.5665 49.1553 18.8159 47.4079 18.8159 45.2525V26.4408C18.8159 24.2855 20.5665 22.5378 22.7258 22.5378Z" fill="#EDE9FF" stroke="#4D21FF" stroke-width="0.8" stroke-miterlimit="10" stroke-linecap="round" stroke-linejoin="round"/>
<path d="M33.2095 35.9505C33.2095 35.0225 32.4559 34.2702 31.5264 34.2702C30.5969 34.2702 29.8433 35.0225 29.8433 35.9505C29.8433 36.8784 30.5969 37.6308 31.5264 37.6308C32.4559 37.6308 33.2095 36.8784 33.2095 35.9505Z" fill="#4D21FF"/>
<path d="M41.3445 35.9505C41.3445 35.0225 40.5909 34.2702 39.6614 34.2702C38.7319 34.2702 37.9783 35.0225 37.9783 35.9505C37.9783 36.8784 38.7319 37.6308 39.6614 37.6308C40.5909 37.6308 41.3445 36.8784 41.3445 35.9505Z" fill="#4D21FF"/>
<path d="M49.4796 35.9505C49.4796 35.0225 48.7259 34.2702 47.7964 34.2702C46.8669 34.2702 46.1133 35.0225 46.1133 35.9505C46.1133 36.8784 46.8669 37.6308 47.7964 37.6308C48.7259 37.6308 49.4796 36.8784 49.4796 35.9505Z" fill="#4D21FF"/>
<path d="M12.7002 164.591H258.38" stroke="#4D21FF" stroke-width="0.8" stroke-miterlimit="10" stroke-linecap="round" stroke-linejoin="round"/>
</svg>
