<svg width="59" height="37" viewBox="0 0 59 37" fill="none" xmlns="http://www.w3.org/2000/svg">
<g clip-path="url(#clip0_127_524)">
<path d="M7.37066 19.1867H0.240188C0.0439949 19.1867 -0.115234 19.0273 -0.115234 18.8309C-0.115234 18.6345 0.0439949 18.4751 0.240188 18.4751H7.36995C7.56614 18.4751 7.72537 18.6345 7.72537 18.8309C7.72537 19.0273 7.56685 19.1867 7.37066 19.1867ZM9.41789 19.1867H8.39001C8.19381 19.1867 8.03458 19.0273 8.03458 18.8309C8.03458 18.6345 8.19381 18.4751 8.39001 18.4751H9.41789C9.61408 18.4751 9.77331 18.6345 9.77331 18.8309C9.77331 19.0273 9.61479 19.1867 9.41789 19.1867ZM12.3004 19.1867H10.4905C10.2944 19.1867 10.1351 19.0273 10.1351 18.8309C10.1351 18.6345 10.2944 18.4751 10.4905 18.4751H12.3004C12.4965 18.4751 12.6558 18.6345 12.6558 18.8309C12.6558 19.0273 12.4965 19.1867 12.3004 19.1867ZM12.3004 20.5137H5.46489C5.26869 20.5137 5.10946 20.3543 5.10946 20.1579C5.10946 19.9615 5.26869 19.8022 5.46489 19.8022H12.3004C12.4965 19.8022 12.6558 19.9615 12.6558 20.1579C12.6558 20.3543 12.4965 20.5137 12.3004 20.5137ZM4.23371 20.5137H3.82142C3.62522 20.5137 3.466 20.3543 3.466 20.1579C3.466 19.9615 3.62522 19.8022 3.82142 19.8022H4.23371C4.4299 19.8022 4.58913 19.9615 4.58913 20.1579C4.58913 20.3543 4.43061 20.5137 4.23371 20.5137ZM2.54403 20.5137H1.50904C1.31285 20.5137 1.15362 20.3543 1.15362 20.1579C1.15362 19.9615 1.31285 19.8022 1.50904 19.8022H2.54403C2.74022 19.8022 2.89945 19.9615 2.89945 20.1579C2.89945 20.3543 2.74093 20.5137 2.54403 20.5137ZM9.0383 17.8596H5.46489C5.26869 17.8596 5.10946 17.7003 5.10946 17.5039C5.10946 17.3075 5.26869 17.1481 5.46489 17.1481H9.0383C9.23449 17.1481 9.39372 17.3075 9.39372 17.5039C9.39372 17.7003 9.2352 17.8596 9.0383 17.8596ZM9.0383 16.5326H8.14477C7.94857 16.5326 7.78934 16.3732 7.78934 16.1769C7.78934 15.9805 7.94857 15.8211 8.14477 15.8211H9.0383C9.23449 15.8211 9.39372 15.9805 9.39372 16.1769C9.39372 16.3732 9.2352 16.5326 9.0383 16.5326ZM6.71526 21.8407H5.46489C5.26869 21.8407 5.10946 21.6813 5.10946 21.4849C5.10946 21.2886 5.26869 21.1292 5.46489 21.1292H6.71526C6.91145 21.1292 7.07068 21.2886 7.07068 21.4849C7.07068 21.6813 6.91145 21.8407 6.71526 21.8407ZM47.1957 3.30442H40.0659C39.8697 3.30442 39.7105 3.14503 39.7105 2.94865C39.7105 2.75227 39.8697 2.59288 40.0659 2.59288H47.1957C47.3918 2.59288 47.5511 2.75227 47.5511 2.94865C47.5511 3.14503 47.3926 3.30442 47.1957 3.30442ZM49.2443 3.30442H48.2164C48.0202 3.30442 47.861 3.14503 47.861 2.94865C47.861 2.75227 48.0202 2.59288 48.2164 2.59288H49.2443C49.4405 2.59288 49.5997 2.75227 49.5997 2.94865C49.5997 3.14503 49.4405 3.30442 49.2443 3.30442ZM52.1261 3.30442H50.3163C50.1201 3.30442 49.9608 3.14503 49.9608 2.94865C49.9608 2.75227 50.1201 2.59288 50.3163 2.59288H52.1261C52.3223 2.59288 52.4815 2.75227 52.4815 2.94865C52.4815 3.14503 52.3223 3.30442 52.1261 3.30442ZM52.1261 4.63144H45.2906C45.0944 4.63144 44.9352 4.47205 44.9352 4.27567C44.9352 4.07929 45.0944 3.9199 45.2906 3.9199H52.1261C52.3223 3.9199 52.4815 4.07929 52.4815 4.27567C52.4815 4.47205 52.3223 4.63144 52.1261 4.63144ZM44.0594 4.63144H43.6471C43.4509 4.63144 43.2917 4.47205 43.2917 4.27567C43.2917 4.07929 43.4509 3.9199 43.6471 3.9199H44.0594C44.2556 3.9199 44.4148 4.07929 44.4148 4.27567C44.4148 4.47205 44.2563 4.63144 44.0594 4.63144ZM42.3697 4.63144H41.3348C41.1386 4.63144 40.9793 4.47205 40.9793 4.27567C40.9793 4.07929 41.1386 3.9199 41.3348 3.9199H42.3697C42.5659 3.9199 42.7252 4.07929 42.7252 4.27567C42.7252 4.47205 42.5666 4.63144 42.3697 4.63144ZM48.864 1.97811H45.2906C45.0944 1.97811 44.9352 1.81873 44.9352 1.62234C44.9352 1.42596 45.0944 1.26657 45.2906 1.26657H48.864C49.0602 1.26657 49.2194 1.42596 49.2194 1.62234C49.2194 1.81873 49.0602 1.97811 48.864 1.97811ZM48.864 0.650381H47.9705C47.7743 0.650381 47.6151 0.490997 47.6151 0.294612C47.6151 0.0982274 47.7743 -0.0611572 47.9705 -0.0611572H48.864C49.0602 -0.0611572 49.2194 0.0982274 49.2194 0.294612C49.2194 0.490997 49.0602 0.650381 48.864 0.650381ZM46.541 5.95846H45.2906C45.0944 5.95846 44.9352 5.79907 44.9352 5.60269C44.9352 5.4063 45.0944 5.24692 45.2906 5.24692H46.541C46.7372 5.24692 46.8964 5.4063 46.8964 5.60269C46.8964 5.79907 46.7372 5.95846 46.541 5.95846Z" fill="#714EFF"/>
<path d="M47.6017 19.7794C47.6017 19.7794 55.148 19.7794 55.1942 19.7794C56.9372 19.7794 58.3496 18.3656 58.3496 16.6209C58.3496 15.0989 57.2741 13.8288 55.8425 13.53C55.8588 13.3969 55.8702 13.2617 55.8702 13.1244C55.8702 11.3178 54.4073 9.85274 52.6024 9.85274C51.5369 9.85274 50.5929 10.3658 49.9965 11.1556C49.8437 9.14476 48.0495 7.5929 45.9497 7.84976C44.4142 8.03761 43.144 9.22588 42.8618 10.7479C42.7715 11.236 42.7807 11.7099 42.871 12.1546C42.4594 11.7106 41.8737 11.4316 41.2204 11.4316C40.0262 11.4316 39.0509 12.3623 38.9742 13.5385C38.4318 13.4183 37.8418 13.4261 37.2205 13.6595C36.0327 14.1056 35.1868 15.2249 35.1377 16.4935C35.0674 18.2959 36.5061 19.7787 38.2903 19.7787C38.4261 19.7787 38.9024 19.7787 39.0118 19.7787H45.5644" fill="#EDE9FF"/>
<path d="M55.1942 20.1351H47.6017C47.4055 20.1351 47.2462 19.9757 47.2462 19.7793C47.2462 19.5829 47.4055 19.4235 47.6017 19.4235H55.1942C56.7381 19.4235 57.9942 18.1662 57.9942 16.6208C57.9942 15.3009 57.0587 14.1468 55.77 13.8778C55.5894 13.8401 55.4679 13.67 55.4899 13.4865C55.5048 13.3676 55.5148 13.2474 55.5148 13.1243C55.5148 11.5169 54.2082 10.2084 52.6017 10.2084C51.6833 10.2084 50.8367 10.6318 50.2794 11.3703C50.1906 11.4892 50.0384 11.5411 49.8956 11.497C49.7541 11.455 49.6524 11.3305 49.6418 11.1825C49.575 10.3016 49.1442 9.47409 48.4596 8.91269C47.768 8.34488 46.8908 8.09442 45.9923 8.20329C44.6083 8.37263 43.4646 9.44634 43.2108 10.8132C43.1312 11.2408 43.134 11.6678 43.2186 12.084C43.2506 12.2406 43.1745 12.3985 43.0331 12.4718C42.8923 12.5451 42.7182 12.5145 42.6101 12.3978C42.2455 12.005 41.7514 11.7887 41.2197 11.7887C40.2245 11.7887 39.3936 12.5679 39.3282 13.5633C39.321 13.6672 39.2699 13.7625 39.1867 13.8244C39.1035 13.8863 38.9969 13.9084 38.8967 13.8871C38.3607 13.7689 37.8532 13.8038 37.3449 13.9938C36.2793 14.3937 35.5351 15.4048 35.4924 16.5091C35.4626 17.2797 35.7391 18.0097 36.2715 18.5647C36.8047 19.1197 37.5212 19.425 38.2896 19.425H45.5637C45.7599 19.425 45.9191 19.5843 45.9191 19.7807C45.9191 19.9771 45.7599 20.1365 45.5637 20.1365H38.2903C37.3271 20.1365 36.4279 19.753 35.7597 19.0578C35.0922 18.3619 34.7446 17.4476 34.7823 16.4813C34.8363 15.0952 35.7654 13.828 37.0954 13.3278C37.6079 13.1357 38.1368 13.0695 38.6742 13.1293C38.9315 11.9517 39.9836 11.0772 41.2204 11.0772C41.6491 11.0772 42.0692 11.1846 42.4431 11.3839C42.4459 11.1512 42.4687 10.9178 42.512 10.6844C42.822 9.01515 44.2173 7.7045 45.9063 7.49815C46.9982 7.36082 48.0666 7.67106 48.9103 8.36338C49.5494 8.88779 50.0072 9.60288 50.2233 10.392C50.8765 9.81706 51.7125 9.49829 52.6024 9.49829C54.6006 9.49829 56.2263 11.1256 56.2263 13.1257C56.2263 13.1712 56.2256 13.2168 56.2235 13.2623C57.6793 13.7092 58.7057 15.0746 58.7057 16.6229C58.705 18.5583 57.1298 20.1351 55.1942 20.1351Z" fill="#714EFF"/>
<path d="M45.7728 12.8212C44.6056 12.7444 43.6011 13.5513 43.5286 14.6236C43.5194 14.7566 43.5258 14.8875 43.545 15.0149C43.3196 14.7602 42.9862 14.588 42.6038 14.5624C41.9036 14.5161 41.2987 14.9793 41.2113 15.609C41.084 15.5742 40.9511 15.5507 40.8132 15.5414C39.7917 15.4746 38.9124 16.1804 38.8499 17.1182" fill="#EDE9FF"/>
<path d="M38.8505 17.2968C38.8462 17.2968 38.8419 17.2968 38.8384 17.2968C38.7403 17.2904 38.6664 17.2058 38.6727 17.1076C38.7431 16.0737 39.7006 15.2981 40.8252 15.365C40.9084 15.3707 40.9922 15.3807 41.0761 15.3963C41.2609 14.7716 41.8993 14.3347 42.6158 14.3859C42.8795 14.403 43.1333 14.4863 43.3508 14.6222C43.3508 14.6186 43.3515 14.6158 43.3515 14.6122C43.4297 13.4446 44.5216 12.5715 45.7847 12.6448C45.8828 12.6512 45.9568 12.7359 45.9504 12.8341C45.944 12.9323 45.8615 13.0055 45.7613 12.9999C44.6858 12.9266 43.7716 13.6637 43.7062 14.6364C43.6984 14.7531 43.7034 14.8719 43.7212 14.99C43.7332 15.0676 43.692 15.1444 43.6202 15.1779C43.5498 15.2113 43.4645 15.1942 43.4119 15.1345C43.2101 14.9061 42.9115 14.763 42.593 14.7417C41.9874 14.7019 41.4628 15.0946 41.3882 15.6354C41.3811 15.6859 41.3526 15.7307 41.31 15.7592C41.2666 15.7877 41.2147 15.7962 41.165 15.7827C41.0441 15.75 40.9219 15.7293 40.8024 15.7215C39.8798 15.6624 39.0843 16.2943 39.0275 17.1325C39.0211 17.225 38.9436 17.2968 38.8505 17.2968Z" fill="#714EFF"/>
<path d="M56.4716 13.8999C55.3748 13.3826 54.1066 13.7483 53.6389 14.7181C53.5806 14.8384 53.538 14.9629 53.5095 15.0888" fill="#EDE9FF"/>
<path d="M53.5088 15.2668C53.496 15.2668 53.4825 15.2653 53.469 15.2625C53.3731 15.2404 53.3133 15.1451 53.3354 15.0498C53.3674 14.9082 53.4157 14.7701 53.4783 14.6413C53.9872 13.5854 55.3656 13.182 56.547 13.7398C56.6358 13.7818 56.6742 13.8878 56.6323 13.9768C56.5903 14.0657 56.4844 14.1034 56.3956 14.0621C55.3883 13.5868 54.2232 13.9163 53.7981 14.7972C53.747 14.9025 53.7079 15.0142 53.6816 15.1302C53.6638 15.2106 53.5906 15.2668 53.5088 15.2668Z" fill="#714EFF"/>
<path d="M40.703 35.0262H22.4187C19.7416 35.0262 17.5515 32.834 17.5515 30.1543V11.8521C17.5515 9.17248 19.7416 6.98022 22.4187 6.98022H40.703C43.38 6.98022 45.5701 9.17248 45.5701 11.8521V30.1543C45.5708 32.834 43.38 35.0262 40.703 35.0262Z" fill="#006DEF"/>
<path d="M40.703 35.5242H22.4187C19.4602 35.5242 17.054 33.1149 17.054 30.1542V11.852C17.054 8.89061 19.4609 6.48206 22.4187 6.48206H40.703C43.6615 6.48206 46.0685 8.89133 46.0685 11.852V30.1542C46.0685 33.1157 43.6615 35.5242 40.703 35.5242ZM22.4187 7.47821C20.0089 7.47821 18.0491 9.43992 18.0491 11.852V30.1542C18.0491 32.5663 20.0089 34.5281 22.4187 34.5281H40.703C43.1128 34.5281 45.0726 32.5663 45.0726 30.1542V11.852C45.0726 9.43992 43.1121 7.47821 40.703 7.47821H22.4187Z" fill="#714EFF"/>
<path d="M39.6246 33.0232H23.497C21.3275 33.0232 19.5525 31.2465 19.5525 29.0749V12.9315C19.5525 10.7599 21.3275 8.98315 23.497 8.98315H39.6246C41.7941 8.98315 43.569 10.7599 43.569 12.9315V29.0749C43.569 31.2465 41.7941 33.0232 39.6246 33.0232Z" fill="#EDE9FF"/>
<path d="M39.9196 33.2722H23.202C21.0524 33.2722 19.3037 31.5219 19.3037 29.3702V12.6362C19.3037 10.4845 21.0524 8.73413 23.202 8.73413H39.1213C39.2585 8.73413 39.3701 8.84584 39.3701 8.98317C39.3701 9.1205 39.2585 9.23221 39.1213 9.23221H23.202C21.3268 9.23221 19.8013 10.7592 19.8013 12.6362V29.3695C19.8013 31.2465 21.3268 32.7735 23.202 32.7735H39.9196C41.7948 32.7735 43.3203 31.2465 43.3203 29.3695V20.1123C43.3203 19.975 43.4319 19.8633 43.5691 19.8633C43.7063 19.8633 43.8179 19.975 43.8179 20.1123V29.3695C43.8179 31.5219 42.0692 33.2722 39.9196 33.2722Z" fill="#714EFF"/>
<path d="M43.5691 19.0265C43.4319 19.0265 43.3203 18.9148 43.3203 18.7775V16.9965C43.3203 16.8591 43.4319 16.7474 43.5691 16.7474C43.7063 16.7474 43.8179 16.8591 43.8179 16.9965V18.7775C43.8179 18.9148 43.7063 19.0265 43.5691 19.0265ZM43.5691 16.3554C43.4319 16.3554 43.3203 16.2437 43.3203 16.1063V15.2162C43.3203 15.0789 43.4319 14.9672 43.5691 14.9672C43.7063 14.9672 43.8179 15.0789 43.8179 15.2162V16.1063C43.8179 16.2437 43.7063 16.3554 43.5691 16.3554Z" fill="#714EFF"/>
<path d="M38.0259 22.2484V26.571H35.4803L35.4448 22.2854C35.4448 21.2003 34.9515 20.429 33.9783 20.429C33.2355 20.429 32.7955 20.9263 32.6007 21.4095C32.531 21.581 32.5104 21.8229 32.5104 22.0641V26.571H29.9322C29.9322 26.571 29.967 19.2592 29.9322 18.5028H32.5104V19.748C32.5047 19.7573 32.499 19.7672 32.4926 19.7765H32.5104V19.748C32.8687 19.1489 33.5227 18.4516 34.9507 18.4516C36.72 18.448 38.0259 19.5516 38.0259 22.2484ZM27.0035 14.6982C26.2074 14.6982 25.6877 15.2447 25.6877 15.9634C25.6877 16.6656 26.1917 17.2285 26.9729 17.2285H26.9879C27.7997 17.2285 28.3036 16.6656 28.3036 15.9634C28.2866 15.2454 27.7975 14.6982 27.0035 14.6982ZM25.7233 26.571H28.2688V18.5028H25.7233V26.571Z" fill="#127AD8"/>
<path d="M38.0259 26.82H35.4803C35.3439 26.82 35.2323 26.7097 35.2315 26.5731L35.1967 22.2875C35.1967 21.8023 35.078 20.678 33.979 20.678C33.2447 20.678 32.932 21.2551 32.8324 21.5027C32.7841 21.6201 32.7599 21.8087 32.7599 22.0641V26.571C32.7599 26.7083 32.6483 26.82 32.5111 26.82H29.9329C29.8668 26.82 29.8028 26.7937 29.7566 26.7467C29.7097 26.6998 29.6834 26.6357 29.6841 26.5696C29.6841 26.4963 29.7182 19.255 29.6841 18.5135C29.6813 18.4452 29.7054 18.3798 29.7531 18.33C29.8 18.2809 29.8647 18.2531 29.9329 18.2531H32.5111C32.6483 18.2531 32.7599 18.3648 32.7599 18.5021V19.018C33.3044 18.4701 34.0274 18.2019 34.9515 18.2019C34.9543 18.2019 34.9572 18.2019 34.9593 18.2019C35.8976 18.2019 36.6618 18.4893 37.2283 19.0557C37.9228 19.7495 38.2747 20.8239 38.2747 22.2477V26.5703C38.2754 26.7083 38.1638 26.82 38.0259 26.82ZM35.7277 26.3219H37.7778V22.2484C37.7778 20.9612 37.475 20.0056 36.8771 19.4086C36.4066 18.9383 35.7611 18.6999 34.9593 18.6999C34.9572 18.6999 34.9543 18.6999 34.9522 18.6999C33.6094 18.6999 33.0464 19.3489 32.7407 19.8498C32.6697 20.0312 32.3804 20.0661 32.2865 19.8982C32.2496 19.832 32.2382 19.7537 32.2631 19.6854V18.7512H30.1888C30.2101 20.0853 30.1888 25.1173 30.1838 26.3212H32.2631V22.0634C32.2631 21.7382 32.2986 21.4935 32.3718 21.3149C32.6583 20.604 33.2604 20.1792 33.9797 20.1792C35.0375 20.1792 35.695 20.9861 35.695 22.2847L35.7277 26.3219ZM28.2688 26.82H25.7233C25.5861 26.82 25.4745 26.7083 25.4745 26.571V18.5029C25.4745 18.3655 25.5861 18.2538 25.7233 18.2538H28.2688C28.406 18.2538 28.5176 18.3655 28.5176 18.5029V26.571C28.5176 26.7083 28.406 26.82 28.2688 26.82ZM25.9721 26.3219H28.0193V18.7519H25.9721V26.3219ZM26.9886 17.4775C26.0844 17.4775 25.439 16.8407 25.439 15.9634C25.439 15.086 26.0972 14.4492 27.0035 14.4492C27.8935 14.4492 28.5311 15.0697 28.5532 15.957C28.5532 16.8407 27.8949 17.4775 26.9886 17.4775ZM27.0035 14.948C26.3659 14.948 25.9373 15.3564 25.9373 15.9641C25.9373 16.5625 26.3638 16.9802 26.9737 16.9802C27.6269 16.9802 28.0556 16.5717 28.0556 15.9641C28.0399 15.3493 27.6277 14.948 27.0035 14.948Z" fill="#714EFF"/>
<path d="M24.2583 36.8143C25.4738 36.8143 26.5287 36.8143 26.5437 36.8143C27.9056 36.8143 29.0096 35.7327 29.0096 34.3979C29.0096 33.2338 28.1694 32.2625 27.0505 32.0334C27.0633 31.9317 27.0725 31.8285 27.0725 31.7232C27.0725 30.3414 25.9288 29.2207 24.5185 29.2207C23.6854 29.2207 22.9482 29.6128 22.4819 30.2176C22.3625 28.6792 20.96 27.4924 19.3187 27.6888C18.1188 27.8325 17.1264 28.7411 16.9053 29.9059C16.8343 30.2795 16.8421 30.6417 16.9125 30.9818C16.5904 30.6424 16.1327 30.4289 15.623 30.4289C14.6896 30.4289 13.9276 31.1412 13.8672 32.0405C13.4435 31.9488 12.9822 31.9545 12.4967 32.133C11.5683 32.4746 10.9072 33.3306 10.8689 34.3011C10.8141 35.6794 11.938 36.8143 13.3334 36.8143C13.4393 36.8143 13.8118 36.8143 13.8978 36.8143H19.0187M20.0778 36.8143H20.3103H20.0778Z" fill="#EDE9FF"/>
<path d="M26.5437 37.1701H24.2583C24.0621 37.1701 23.9029 37.0107 23.9029 36.8143C23.9029 36.6179 24.0621 36.4585 24.2583 36.4585H26.5437C27.7073 36.4585 28.6542 35.5343 28.6542 34.3979C28.6542 33.4288 27.9497 32.5807 26.9794 32.3821C26.7974 32.3451 26.6744 32.1737 26.6979 31.9894C26.7093 31.9019 26.7164 31.8136 26.7164 31.7233C26.7164 30.5393 25.7305 29.5766 24.5178 29.5766C23.8225 29.5766 23.1835 29.8889 22.762 30.4347C22.6724 30.5506 22.5203 30.5997 22.3788 30.5578C22.2381 30.5158 22.1378 30.3913 22.1265 30.2447C22.076 29.595 21.7661 29.0059 21.2543 28.5854C20.7261 28.152 20.0551 27.9578 19.3599 28.0418C18.3114 28.167 17.4449 28.9611 17.2536 29.9715C17.1939 30.2867 17.1954 30.6019 17.2593 30.9093C17.2913 31.0651 17.2167 31.223 17.0759 31.297C16.9359 31.3703 16.7632 31.3419 16.6537 31.2259C16.3836 30.9413 16.0168 30.784 15.6215 30.784C14.8837 30.784 14.2688 31.3461 14.2205 32.0641C14.2134 32.1673 14.1622 32.2619 14.0797 32.3245C13.9973 32.3871 13.8928 32.4099 13.7904 32.3878C13.3859 32.3003 13.0021 32.3259 12.6182 32.4661C11.8164 32.7614 11.2555 33.5042 11.2228 34.3147C11.2008 34.8711 11.4027 35.4005 11.7915 35.8054C12.1953 36.2259 12.7419 36.4571 13.3319 36.4571H19.0172C19.2134 36.4571 19.3727 36.6165 19.3727 36.8129C19.3727 37.0093 19.2134 37.1687 19.0172 37.1687H13.3319C12.5585 37.1687 11.81 36.8513 11.279 36.2985C10.7551 35.7527 10.4829 35.0383 10.5127 34.2862C10.5568 33.1912 11.3046 32.1915 12.3737 31.798C12.764 31.655 13.1677 31.6016 13.5736 31.6357C13.8096 30.7335 14.6448 30.0718 15.6223 30.0718C15.9286 30.0718 16.2293 30.1387 16.5044 30.2632C16.5122 30.1216 16.5293 29.98 16.5563 29.8384C16.8051 28.5263 17.924 27.4967 19.2767 27.3345C20.1617 27.2285 21.0268 27.4768 21.7057 28.0339C22.1805 28.4239 22.521 28.9269 22.7001 29.4912C23.2098 29.087 23.8446 28.8636 24.5178 28.8636C26.1221 28.8636 27.4272 30.1458 27.4272 31.7218C27.4272 31.7361 27.4272 31.7503 27.4272 31.7645C28.5674 32.1345 29.3657 33.1961 29.3657 34.3972C29.365 35.9263 28.0997 37.1701 26.5437 37.1701ZM20.3096 37.1701H20.0771C19.8809 37.1701 19.7217 37.0107 19.7217 36.8143C19.7217 36.6179 19.8809 36.4585 20.0771 36.4585H20.3096C20.5058 36.4585 20.665 36.6179 20.665 36.8143C20.665 37.0107 20.5065 37.1701 20.3096 37.1701Z" fill="#714EFF"/>
<path d="M25.4411 33.4046C25.4283 33.4046 25.4155 33.4032 25.402 33.4003C25.3061 33.379 25.2464 33.2836 25.2677 33.1876C25.2919 33.0794 25.3288 32.9741 25.3786 32.8745C25.7724 32.0755 26.86 31.7802 27.8026 32.2163C27.8914 32.2576 27.9305 32.3636 27.8893 32.4526C27.8481 32.5422 27.7421 32.5799 27.6533 32.5394C26.8849 32.1843 26.007 32.4049 25.697 33.0318C25.6608 33.1058 25.6331 33.184 25.6146 33.2651C25.5961 33.3477 25.5229 33.4046 25.4411 33.4046ZM22.1115 37.1701H21.3964C21.2002 37.1701 21.041 37.0107 21.041 36.8143C21.041 36.6179 21.2002 36.4585 21.3964 36.4585H22.1108C22.307 36.4585 22.4663 36.6179 22.4663 36.8143C22.4663 37.0107 22.3077 37.1701 22.1115 37.1701Z" fill="#714EFF"/>
</g>
<defs>
<clipPath id="clip0_127_524">
<rect width="59" height="37" fill="white"/>
</clipPath>
</defs>
</svg>
