<svg width="272" height="272" viewBox="0 0 272 272" fill="none" xmlns="http://www.w3.org/2000/svg">
<path d="M253.363 205.3C268.492 172.828 269.51 129.562 259.066 94.8752C250.074 65.0102 230.064 42.2323 206.951 28.6682C180.135 12.9303 148.171 8.24648 119.394 18.1788C111.823 20.7922 104.454 23.1853 97.3173 27.4769C68.0593 45.0704 73.7049 88.425 63.4397 103.506C54.8031 116.195 38.2889 112.453 27.8773 122.176C-0.216497 148.412 -0.29048 214.73 32.1276 235.461C66.5187 257.453 215.889 285.728 253.363 205.3Z" fill="#00CC9B"/>
<path opacity="0.9" d="M253.363 205.3C268.492 172.828 269.51 129.562 259.066 94.8752C250.074 65.0102 230.064 42.2323 206.951 28.6682C180.135 12.9303 148.171 8.24648 119.394 18.1788C111.823 20.7922 104.454 23.1853 97.3173 27.4769C68.0593 45.0704 73.7049 88.425 63.4397 103.506C54.8031 116.195 38.2889 112.453 27.8773 122.176C-0.216497 148.412 -0.29048 214.73 32.1276 235.461C66.5187 257.453 215.889 285.728 253.363 205.3Z" fill="#EDE9FF"/>
<path d="M3.96729 242.524H268.037" stroke="#4D21FF" stroke-width="0.8" stroke-miterlimit="10" stroke-linecap="round" stroke-linejoin="round"/>
<path d="M194.38 15.9997L188.644 21.735L194.38 27.4703L200.115 21.735L194.38 15.9997Z" stroke="#4D21FF" stroke-width="0.8" stroke-miterlimit="10" stroke-linecap="round" stroke-linejoin="round"/>
<path d="M247.527 59.4412L241.792 65.1765L247.527 70.9118L253.262 65.1765L247.527 59.4412Z" stroke="#4D21FF" stroke-width="0.8" stroke-miterlimit="10" stroke-linecap="round" stroke-linejoin="round"/>
<path d="M62.3142 21.9056L56.5789 27.6409L62.3142 33.3762L68.0495 27.6409L62.3142 21.9056Z" stroke="#4D21FF" stroke-width="0.8" stroke-miterlimit="10" stroke-linecap="round" stroke-linejoin="round"/>
<path d="M157.756 209.743L152.02 215.479L157.756 221.214L163.491 215.479L157.756 209.743Z" stroke="#4D21FF" stroke-width="0.8" stroke-miterlimit="10" stroke-linecap="round" stroke-linejoin="round"/>
<path d="M167.207 200.293L161.471 206.028L167.207 211.763L172.942 206.028L167.207 200.293Z" stroke="#4D21FF" stroke-width="0.8" stroke-miterlimit="10" stroke-linecap="round" stroke-linejoin="round"/>
<path d="M182.394 27.8634L178.751 31.5057L182.394 35.1481L186.036 31.5057L182.394 27.8634Z" stroke="#4D21FF" stroke-width="0.8" stroke-miterlimit="10" stroke-linecap="round" stroke-linejoin="round"/>
<path d="M26.5423 181.576L22.8999 185.218L26.5423 188.86L30.1846 185.218L26.5423 181.576Z" stroke="#4D21FF" stroke-width="0.8" stroke-miterlimit="10" stroke-linecap="round" stroke-linejoin="round"/>
<path d="M223.741 214.692L220.098 218.335L223.741 221.977L227.383 218.335L223.741 214.692Z" stroke="#4D21FF" stroke-width="0.8" stroke-miterlimit="10" stroke-linecap="round" stroke-linejoin="round"/>
<path d="M248.862 174.465H219.289C218.087 174.465 217.113 173.491 217.113 172.289V146.899C217.113 145.697 218.087 144.723 219.289 144.723H248.862C250.064 144.723 251.039 145.697 251.039 146.899V172.289C251.039 173.491 250.064 174.465 248.862 174.465Z" stroke="#4D21FF" stroke-width="0.8" stroke-miterlimit="10"/>
<path d="M221.988 153.794H219.051V156.731H221.988V153.794Z" stroke="#4D21FF" stroke-width="0.8" stroke-miterlimit="10"/>
<path d="M227.411 153.794H224.474V156.731H227.411V153.794Z" stroke="#4D21FF" stroke-width="0.8" stroke-miterlimit="10"/>
<path d="M232.833 153.794H229.896V156.731H232.833V153.794Z" stroke="#4D21FF" stroke-width="0.8" stroke-miterlimit="10"/>
<path d="M238.256 153.794H235.319V156.731H238.256V153.794Z" stroke="#4D21FF" stroke-width="0.8" stroke-miterlimit="10"/>
<path d="M243.678 153.794H240.74V156.731H243.678V153.794Z" stroke="#4D21FF" stroke-width="0.8" stroke-miterlimit="10"/>
<path d="M249.1 153.794H246.163V156.731H249.1V153.794Z" stroke="#4D21FF" stroke-width="0.8" stroke-miterlimit="10"/>
<path d="M221.988 159.926H219.051V162.863H221.988V159.926Z" stroke="#4D21FF" stroke-width="0.8" stroke-miterlimit="10"/>
<path d="M227.411 159.926H224.474V162.863H227.411V159.926Z" stroke="#4D21FF" stroke-width="0.8" stroke-miterlimit="10"/>
<path d="M232.833 159.926H229.896V162.863H232.833V159.926Z" stroke="#4D21FF" stroke-width="0.8" stroke-miterlimit="10"/>
<path d="M238.256 159.926H235.319V162.863H238.256V159.926Z" stroke="#4D21FF" stroke-width="0.8" stroke-miterlimit="10"/>
<path d="M243.678 159.926H240.74V162.863H243.678V159.926Z" stroke="#4D21FF" stroke-width="0.8" stroke-miterlimit="10"/>
<path d="M249.1 159.926H246.163V162.863H249.1V159.926Z" stroke="#4D21FF" stroke-width="0.8" stroke-miterlimit="10"/>
<path d="M221.988 166.059H219.051V168.996H221.988V166.059Z" stroke="#4D21FF" stroke-width="0.8" stroke-miterlimit="10"/>
<path d="M227.411 166.059H224.474V168.996H227.411V166.059Z" stroke="#4D21FF" stroke-width="0.8" stroke-miterlimit="10"/>
<path d="M232.833 166.059H229.896V168.996H232.833V166.059Z" stroke="#4D21FF" stroke-width="0.8" stroke-miterlimit="10"/>
<path d="M238.256 166.059H235.319V168.996H238.256V166.059Z" stroke="#4D21FF" stroke-width="0.8" stroke-miterlimit="10"/>
<path d="M243.678 166.059H240.74V168.996H243.678V166.059Z" stroke="#4D21FF" stroke-width="0.8" stroke-miterlimit="10"/>
<path d="M249.1 166.059H246.163V168.996H249.1V166.059Z" stroke="#4D21FF" stroke-width="0.8" stroke-miterlimit="10"/>
<path d="M244.133 147.906H224.019V150.114H244.133V147.906Z" stroke="#4D21FF" stroke-width="0.8" stroke-miterlimit="10"/>
<path d="M63.9202 176.207C72.457 167.67 72.457 153.829 63.9202 145.292C55.3833 136.755 41.5424 136.755 33.0056 145.292C24.4688 153.829 24.4688 167.67 33.0056 176.207C41.5424 184.744 55.3833 184.744 63.9202 176.207Z" stroke="#4D21FF" stroke-width="0.8" stroke-miterlimit="10"/>
<path d="M48.4644 179.772C58.97 179.772 67.4865 171.256 67.4865 160.75C67.4865 150.245 58.97 141.728 48.4644 141.728C37.9588 141.728 29.4424 150.245 29.4424 160.75C29.4424 171.256 37.9588 179.772 48.4644 179.772Z" stroke="#4D21FF" stroke-width="0.8" stroke-miterlimit="10"/>
<path d="M42.6746 165.969L48.4644 160.75L37.6567 150.914" stroke="#4D21FF" stroke-width="0.8" stroke-miterlimit="10"/>
<path d="M258.025 157.19V233.722H182.634V41.8477C182.634 40.0471 184.093 38.5875 185.894 38.5875H254.764C256.565 38.5875 258.025 40.0471 258.025 41.8477V152.118" stroke="#4D21FF" stroke-width="0.8" stroke-miterlimit="10" stroke-linecap="round" stroke-linejoin="round"/>
<path d="M258.025 50.2906H182.634V41.8477C182.634 40.0471 184.093 38.5875 185.894 38.5875H254.764C256.565 38.5875 258.025 40.0471 258.025 41.8477V50.2906H258.025Z" fill="#4D21FF" stroke="#4D21FF" stroke-width="0.8" stroke-miterlimit="10" stroke-linecap="round" stroke-linejoin="round"/>
<path d="M143.906 233.722H100.847V41.8477C100.847 40.0471 102.306 38.5875 104.107 38.5875H172.977C174.778 38.5875 176.237 40.0471 176.237 41.8477V233.722H148.977" stroke="#4D21FF" stroke-width="0.8" stroke-miterlimit="10" stroke-linecap="round" stroke-linejoin="round"/>
<path d="M176.238 50.2906H100.846V41.8477C100.846 40.0471 102.306 38.5875 104.106 38.5875H172.976C174.777 38.5875 176.236 40.0471 176.236 41.8477V50.2906H176.238Z" fill="#4D21FF" stroke="#4D21FF" stroke-width="0.8" stroke-miterlimit="10" stroke-linecap="round" stroke-linejoin="round"/>
<path d="M19.0586 181.535V41.8477C19.0586 40.0471 20.5181 38.5875 22.3188 38.5875H91.1892C92.9898 38.5875 94.4494 40.0471 94.4494 41.8477V233.722H19.0586V186.269" stroke="#4D21FF" stroke-width="0.8" stroke-miterlimit="10" stroke-linecap="round" stroke-linejoin="round"/>
<path d="M94.4499 50.2906H19.0586V41.8477C19.0586 40.0471 20.5181 38.5875 22.3188 38.5875H91.1892C92.9898 38.5875 94.4494 40.0471 94.4494 41.8477V50.2906H94.4499Z" fill="#4D21FF" stroke="#4D21FF" stroke-width="0.8" stroke-miterlimit="10" stroke-linecap="round" stroke-linejoin="round"/>
<path d="M39.2941 216.015C38.2262 216.33 35.7559 215.965 35.7543 215.965C35.7287 215.961 36.4898 214.41 36.5485 214.318C37.2345 213.249 39.188 211.587 40.5627 211.95C41.5533 212.212 41.9874 213.29 41.6409 214.211C41.2873 215.15 40.2037 215.746 39.2941 216.015Z" fill="#4D21FF"/>
<path d="M16.2328 214.981C16.2094 214.992 15.9885 213.278 15.9869 213.169C15.9695 211.899 16.6816 209.435 18.0291 208.98C18.9996 208.652 19.9565 209.312 20.1757 210.27C20.3993 211.249 19.8237 212.343 19.2133 213.07C18.4964 213.923 16.2344 214.98 16.2328 214.981Z" fill="#4D21FF"/>
<path d="M10.9463 210.397C11.6916 210.815 13.4514 210.996 13.8888 211.036C14.1064 211.334 14.336 211.656 14.5818 212.017C15.0089 212.656 15.4854 213.381 15.95 214.204C16.074 214.423 16.1992 214.664 16.3243 214.895C16.0327 214.55 15.6252 214.081 15.5806 214.04C14.7603 213.283 12.7301 212.304 11.6415 212.918C10.8576 213.361 10.7276 214.375 11.2259 215.08C11.7351 215.801 12.7894 216.066 13.6222 216.093C14.4915 216.121 16.1752 215.449 16.5419 215.298C16.8117 215.814 17.0761 216.35 17.3198 216.925C17.7419 217.918 18.1401 218.998 18.4013 220.146C18.3654 220.162 18.3719 220.159 18.3354 220.175C18.1048 219.823 17.6038 219.096 17.5559 219.041C16.8237 218.198 14.9131 217.001 13.7637 217.493C12.9357 217.847 12.6952 218.84 13.1136 219.596C13.5406 220.368 14.559 220.748 15.3842 220.866C16.3352 221.002 18.3664 220.399 18.4426 220.376C18.6738 221.451 18.8294 222.572 18.9235 223.721C18.9926 224.552 19.0285 225.398 19.0568 226.246C18.9017 225.995 18.2446 225.04 18.1891 224.976C17.4569 224.134 15.5464 222.937 14.3969 223.428C13.5689 223.783 13.3285 224.775 13.7463 225.532C14.1733 226.304 15.1917 226.684 16.0169 226.802C16.9455 226.935 18.8941 226.365 19.0579 226.317C19.0704 226.702 19.0851 227.087 19.0943 227.474C19.1259 228.735 19.152 229.999 19.2167 231.247C19.2385 231.679 19.2766 232.104 19.3125 232.53C19.0682 232.16 18.6107 231.497 18.565 231.444C17.8322 230.602 15.9223 229.405 14.7728 229.897C13.9448 230.251 13.7044 231.244 14.1227 232C14.5497 232.772 15.5681 233.152 16.3934 233.27C17.2224 233.389 18.8713 232.945 19.3337 232.814C19.3984 233.522 19.4789 234.222 19.5904 234.909C19.6448 235.204 19.6818 235.508 19.7504 235.789C19.8135 236.073 19.8755 236.353 19.9375 236.631C20.0855 237.203 20.2215 237.733 20.3727 238.261C20.4472 238.529 20.524 238.779 20.5996 239.038C20.4081 238.627 20.0942 237.98 20.0588 237.924C19.4626 236.981 17.7555 235.509 16.5451 235.82C15.6731 236.045 15.2852 236.99 15.5833 237.8C15.8885 238.628 16.8378 239.158 17.6353 239.4C18.515 239.666 20.4619 239.415 20.7002 239.383C20.889 240.015 21.0788 240.63 21.2671 241.2C21.4199 241.667 21.569 242.104 21.7148 242.524H22.5368C22.3534 242.037 22.163 241.517 21.9677 240.962C21.7866 240.45 21.6027 239.903 21.4199 239.34C21.6392 239.253 23.3326 238.562 24.0208 237.917C24.7236 238.38 25.526 238.774 25.6675 238.842C25.476 239.474 25.2959 240.091 25.1376 240.671C24.9565 241.33 24.7971 241.948 24.654 242.525H25.4591C25.5783 242.001 25.7077 241.451 25.8562 240.859C25.9873 240.332 26.1359 239.775 26.2936 239.204C26.5335 239.254 28.4538 239.639 29.3487 239.434C30.1615 239.248 31.145 238.786 31.5073 237.981C31.8615 237.193 31.5405 236.223 30.6859 235.938C29.5 235.543 27.695 236.894 27.034 237.793C26.9916 237.851 26.5683 238.588 26.3605 238.969C26.4574 238.625 26.552 238.282 26.6586 237.925C26.8077 237.41 26.9829 236.871 27.1488 236.348C27.2451 236.08 27.3419 235.809 27.4404 235.535C27.5334 235.257 27.6563 235.003 27.764 234.732C27.9311 234.339 28.1231 233.942 28.3135 233.545C28.8287 233.729 30.3491 234.241 31.1543 234.183C31.986 234.122 33.0283 233.814 33.5076 233.074C33.9771 232.348 33.8068 231.341 33.0055 230.93C31.893 230.36 29.9041 231.421 29.1148 232.211C29.0892 232.236 28.9396 232.42 28.7645 232.641C28.9625 232.259 29.1583 231.877 29.3721 231.497C29.977 230.418 30.6277 229.337 31.2745 228.252C31.4094 228.026 31.5405 227.798 31.6743 227.572C32.1068 227.728 33.7491 228.299 34.5929 228.237C35.4241 228.177 36.467 227.869 36.9462 227.128C37.4162 226.403 37.2454 225.396 36.4441 224.985C35.3316 224.415 33.3428 225.476 32.5534 226.265C32.5251 226.293 32.3472 226.513 32.1503 226.762C32.4936 226.167 32.8281 225.57 33.1415 224.967C33.6909 223.914 34.1756 222.847 34.563 221.776C34.7147 221.833 36.6269 222.54 37.5648 222.472C38.3965 222.412 39.4388 222.104 39.9181 221.363C40.3876 220.638 40.2173 219.63 39.4154 219.22C38.303 218.649 36.3141 219.711 35.5248 220.5C35.4687 220.556 34.8306 221.357 34.6125 221.652C34.6168 221.639 34.6233 221.626 34.6277 221.614C35.0237 220.486 35.2631 219.36 35.4377 218.281C35.6134 217.205 35.6874 216.177 35.7315 215.23C35.7777 214.282 35.7614 213.412 35.7407 212.642C35.726 212.225 35.7054 211.844 35.682 211.489C35.6858 211.493 35.7026 211.506 35.7026 211.506C35.7206 211.52 36.2439 210.094 36.2668 210C36.5295 208.916 36.399 206.665 35.3333 206.012C34.5651 205.542 33.6164 205.921 33.2421 206.7C32.8597 207.495 33.1399 208.545 33.5212 209.287C33.9123 210.046 35.2805 211.168 35.6238 211.442C35.6406 211.811 35.6542 212.206 35.6602 212.643C35.664 213.411 35.6613 214.279 35.5949 215.222C35.5781 215.473 35.5492 215.742 35.5264 216.004C35.4736 215.555 35.3926 214.94 35.3779 214.881C35.1108 213.797 33.958 211.86 32.7112 211.772C31.813 211.709 31.1455 212.483 31.1722 213.346C31.1994 214.228 31.9322 215.031 32.6122 215.513C33.3216 216.016 35.0972 216.384 35.4861 216.46C35.4263 217.039 35.3512 217.633 35.237 218.247C35.0417 219.308 34.7778 220.428 34.3622 221.53C34.3236 221.523 34.3307 221.525 34.292 221.518C34.2937 221.097 34.2774 220.214 34.2676 220.141C34.1212 219.035 33.1883 216.983 31.9588 216.758C31.0727 216.597 30.3247 217.293 30.2561 218.154C30.1859 219.033 30.8262 219.912 31.4491 220.466C32.1672 221.104 34.1941 221.721 34.2703 221.744C33.8699 222.769 33.3814 223.79 32.8265 224.799C32.4256 225.531 31.9888 226.256 31.5443 226.979C31.5536 226.684 31.5323 225.524 31.5215 225.441C31.3751 224.335 30.4422 222.283 29.2122 222.058C28.326 221.897 27.578 222.592 27.5095 223.453C27.4398 224.333 28.0796 225.212 28.7024 225.765C29.4037 226.388 31.343 226.989 31.5068 227.038C31.3044 227.367 31.1042 227.696 30.8986 228.023C30.2295 229.093 29.5533 230.162 28.919 231.237C28.6992 231.61 28.4963 231.985 28.2912 232.36C28.2912 231.917 28.2754 231.111 28.2662 231.042C28.1204 229.936 27.1869 227.883 25.9574 227.659C25.0712 227.498 24.3232 228.193 24.2547 229.054C24.1845 229.934 24.8248 230.813 25.4477 231.366C26.0738 231.923 27.6933 232.463 28.1519 232.608C27.8152 233.235 27.4953 233.863 27.2103 234.498C27.0933 234.774 26.9557 235.048 26.8583 235.32C26.7544 235.591 26.651 235.86 26.5493 236.126C26.3578 236.684 26.1777 237.202 26.0129 237.725C25.9275 237.99 25.8535 238.24 25.7741 238.498C25.841 238.05 25.9362 237.337 25.9373 237.271C25.9607 236.155 25.3492 233.985 24.1677 233.577C23.3163 233.284 22.4715 233.857 22.2729 234.698C22.2479 234.806 22.2337 234.914 22.2288 235.023C21.6451 235.831 21.2959 237.014 21.2594 237.755C21.2556 237.826 21.3095 238.674 21.3459 239.107C21.2366 238.765 21.1267 238.428 21.019 238.071C20.8596 237.559 20.7078 237.014 20.5577 236.486C20.4897 236.209 20.4217 235.929 20.3526 235.647C20.277 235.363 20.2394 235.084 20.1796 234.798C20.1018 234.378 20.0425 233.941 19.9827 233.504C20.5136 233.373 22.0646 232.963 22.7038 232.47C23.3642 231.961 24.0632 231.128 24.0551 230.246C24.0469 229.382 23.3484 228.636 22.4535 228.736C21.211 228.874 20.1377 230.856 19.9147 231.95C19.9076 231.985 19.8842 232.221 19.8597 232.501C19.814 232.074 19.7667 231.647 19.7352 231.212C19.6448 229.978 19.5915 228.718 19.5322 227.457C19.5197 227.194 19.504 226.931 19.4904 226.669C19.9375 226.561 21.6223 226.13 22.292 225.614C22.9524 225.104 23.6514 224.272 23.6432 223.39C23.6345 222.526 22.9371 221.78 22.0417 221.88C20.7992 222.018 19.7259 224 19.5029 225.094C19.4947 225.133 19.468 225.415 19.4403 225.73C19.3984 225.045 19.3484 224.362 19.2776 223.687C19.1547 222.505 18.9697 221.348 18.7021 220.241C18.8604 220.204 20.8455 219.74 21.5896 219.165C22.2495 218.656 22.9496 217.824 22.9409 216.942C22.9328 216.078 22.2343 215.332 21.3394 215.431C20.0969 215.569 19.0236 217.552 18.8006 218.646C18.7848 218.723 18.695 219.744 18.6749 220.109C18.6716 220.096 18.67 220.082 18.6667 220.069C18.3752 218.909 17.953 217.838 17.5037 216.842C17.0565 215.848 16.5511 214.949 16.0653 214.135C15.5806 213.319 15.0872 212.602 14.6455 211.971C14.4034 211.632 14.176 211.326 13.9606 211.042C13.9655 211.043 13.9872 211.044 13.9872 211.044C14.0101 211.046 13.6603 209.568 13.6277 209.478C13.248 208.428 11.8977 206.623 10.6487 206.667C9.74894 206.698 9.16632 207.538 9.28382 208.394C9.40622 209.268 10.2195 209.989 10.9463 210.397Z" fill="#4D21FF"/>
<path d="M197.097 61.3463H188.185V75.8526H197.097V61.3463Z" fill="#00CC9B" stroke="#4D21FF" stroke-width="0.8" stroke-miterlimit="10" stroke-linecap="round" stroke-linejoin="round"/>
<path d="M210.577 61.3463H201.666V75.8526H210.577V61.3463Z" fill="#00CC9B" stroke="#4D21FF" stroke-width="0.8" stroke-miterlimit="10" stroke-linecap="round" stroke-linejoin="round"/>
<path d="M197.097 82.5645H188.185V97.0708H197.097V82.5645Z" fill="#4D21FF" stroke="#4D21FF" stroke-width="0.8" stroke-miterlimit="10" stroke-linecap="round" stroke-linejoin="round"/>
<path d="M210.577 82.5645H201.666V97.0708H210.577V82.5645Z" fill="#4D21FF" stroke="#4D21FF" stroke-width="0.8" stroke-miterlimit="10" stroke-linecap="round" stroke-linejoin="round"/>
<path d="M224.386 82.5645H215.475V97.0708H224.386V82.5645Z" fill="#EDE9FF" stroke="#4D21FF" stroke-width="0.8" stroke-miterlimit="10" stroke-linecap="round" stroke-linejoin="round"/>
<path d="M117.199 61.3463H108.287V75.8526H117.199V61.3463Z" fill="#00CC9B" stroke="#4D21FF" stroke-width="0.8" stroke-miterlimit="10" stroke-linecap="round" stroke-linejoin="round"/>
<path d="M130.68 61.3463H121.768V75.8526H130.68V61.3463Z" fill="#00CC9B" stroke="#4D21FF" stroke-width="0.8" stroke-miterlimit="10" stroke-linecap="round" stroke-linejoin="round"/>
<path d="M117.199 82.5645H108.287V97.0708H117.199V82.5645Z" fill="#4D21FF" stroke="#4D21FF" stroke-width="0.8" stroke-miterlimit="10" stroke-linecap="round" stroke-linejoin="round"/>
<path d="M131.008 82.5645H122.097V97.0708H131.008V82.5645Z" fill="#EDE9FF" stroke="#4D21FF" stroke-width="0.8" stroke-miterlimit="10" stroke-linecap="round" stroke-linejoin="round"/>
<path d="M117.121 103.782H108.21V118.288H117.121V103.782Z" fill="#714EFF" stroke="#4D21FF" stroke-width="0.8" stroke-miterlimit="10" stroke-linecap="round" stroke-linejoin="round"/>
<path d="M34.7387 61.3463H25.8274V75.8526H34.7387V61.3463Z" fill="#00CC9B" stroke="#4D21FF" stroke-width="0.8" stroke-miterlimit="10" stroke-linecap="round" stroke-linejoin="round"/>
<path d="M48.1466 61.3463H39.2354V75.8526H48.1466V61.3463Z" fill="#00CC9B" stroke="#4D21FF" stroke-width="0.8" stroke-miterlimit="10" stroke-linecap="round" stroke-linejoin="round"/>
<path d="M61.5546 61.3463H52.6433V75.8526H61.5546V61.3463Z" fill="#00CC9B" stroke="#4D21FF" stroke-width="0.8" stroke-miterlimit="10" stroke-linecap="round" stroke-linejoin="round"/>
<path d="M74.9625 61.3463H66.0513V75.8526H74.9625V61.3463Z" fill="#00CC9B" stroke="#4D21FF" stroke-width="0.8" stroke-miterlimit="10" stroke-linecap="round" stroke-linejoin="round"/>
<path d="M88.3705 61.3463H79.4592V75.8526H88.3705V61.3463Z" fill="#00CC9B" stroke="#4D21FF" stroke-width="0.8" stroke-miterlimit="10" stroke-linecap="round" stroke-linejoin="round"/>
<path d="M34.7387 82.5645H25.8274V97.0708H34.7387V82.5645Z" fill="#4D21FF" stroke="#4D21FF" stroke-width="0.8" stroke-miterlimit="10" stroke-linecap="round" stroke-linejoin="round"/>
<path d="M48.1466 82.5645H39.2354V97.0708H48.1466V82.5645Z" fill="#4D21FF" stroke="#4D21FF" stroke-width="0.8" stroke-miterlimit="10" stroke-linecap="round" stroke-linejoin="round"/>
<path d="M61.5546 82.5645H52.6433V97.0708H61.5546V82.5645Z" fill="#4D21FF" stroke="#4D21FF" stroke-width="0.8" stroke-miterlimit="10" stroke-linecap="round" stroke-linejoin="round"/>
<path d="M74.9625 82.5645H66.0513V97.0708H74.9625V82.5645Z" fill="#EDE9FF" stroke="#4D21FF" stroke-width="0.8" stroke-miterlimit="10" stroke-linecap="round" stroke-linejoin="round"/>
<path d="M88.3705 82.5645H79.4592V97.0708H88.3705V82.5645Z" fill="#EDE9FF" stroke="#4D21FF" stroke-width="0.8" stroke-miterlimit="10" stroke-linecap="round" stroke-linejoin="round"/>
<path d="M34.7387 103.782H25.8274V118.288H34.7387V103.782Z" fill="#EDE9FF" stroke="#4D21FF" stroke-width="0.8" stroke-miterlimit="10" stroke-linecap="round" stroke-linejoin="round"/>
<path d="M48.1466 103.782H39.2354V118.288H48.1466V103.782Z" fill="#714EFF" stroke="#4D21FF" stroke-width="0.8" stroke-miterlimit="10" stroke-linecap="round" stroke-linejoin="round"/>
<path d="M61.5546 103.782H52.6433V118.288H61.5546V103.782Z" fill="#714EFF" stroke="#4D21FF" stroke-width="0.8" stroke-miterlimit="10" stroke-linecap="round" stroke-linejoin="round"/>
<path d="M168.726 108.442C168.726 108.442 167.716 109.686 167.172 110.307C166.628 110.929 166.706 111.395 167.25 111.317C167.794 111.239 169.115 109.841 169.115 109.841C169.115 109.841 168.959 110.773 169.115 111.161C169.27 111.55 169.892 111.861 170.513 112.094C171.135 112.327 171.834 112.793 172.068 112.249C172.301 111.705 171.99 110.151 171.99 110.151L168.726 108.442Z" fill="#EDE9FF" stroke="#4D21FF" stroke-width="0.8" stroke-miterlimit="10" stroke-linecap="round" stroke-linejoin="round"/>
<path d="M187.455 119.71C187.455 119.71 176.575 111.472 175.565 110.307C174.554 109.141 173.311 108.675 172.534 108.519C171.757 108.364 169.969 108.131 169.969 108.131C169.969 108.131 168.182 106.887 167.249 106.421C166.317 105.955 165.851 105.022 165.695 105.644C165.54 106.265 166.006 106.887 166.939 107.431C167.871 107.975 169.348 109.296 169.348 109.296C169.348 109.296 171.524 110.462 171.446 111.394C171.368 112.327 170.125 112.871 169.658 112.793C169.192 112.715 167.793 111.627 167.638 112.482C167.482 113.337 169.27 113.959 170.202 114.192C171.135 114.425 174.554 114.892 175.021 114.892C175.487 114.892 177.197 116.601 177.197 116.601L185.357 124.373L187.455 119.71Z" fill="#EDE9FF" stroke="#4D21FF" stroke-width="0.8" stroke-miterlimit="10" stroke-linecap="round" stroke-linejoin="round"/>
<path d="M187.222 119.089C187.222 119.089 185.124 121.575 184.735 123.518C184.347 125.462 184.969 125.85 185.823 126.394C186.678 126.938 187.688 127.482 187.688 127.482C187.688 127.482 186.756 126.006 188.62 123.985C190.485 121.965 191.573 121.032 191.573 121.032C191.573 121.032 188.62 118.933 187.222 119.089Z" fill="#EDE9FF" stroke="#4D21FF" stroke-width="0.8" stroke-miterlimit="10" stroke-linecap="round" stroke-linejoin="round"/>
<path d="M188.62 123.984C188.62 123.984 186.755 125.694 186.911 126.626C187.066 127.559 188.076 128.181 188.387 128.336C188.698 128.492 190.175 130.046 190.874 130.512C191.573 130.978 193.127 130.901 193.282 131.212C193.437 131.523 194.059 132.999 194.059 132.999C194.059 132.999 197.634 129.735 198.489 127.87C199.344 126.006 198.567 123.985 197.479 122.819C196.391 121.653 193.049 120.721 192.661 120.643C192.272 120.565 191.573 121.031 191.573 121.031L188.62 123.984Z" fill="#EDE9FF" stroke="#4D21FF" stroke-width="0.8" stroke-miterlimit="10" stroke-linecap="round" stroke-linejoin="round"/>
<path d="M192.666 197.074C192.666 197.074 193.435 200.589 195.522 210.803C197.609 221.017 196.51 221.566 197.279 229.144C198.048 236.722 196.949 239.029 196.949 239.029C196.949 239.029 192.886 240.347 190.47 240.676C188.053 241.006 183.77 241.555 183.66 242.653C183.551 243.751 188.713 245.618 193.325 246.277C197.938 246.936 201.123 248.254 201.891 247.595C202.66 246.936 203.21 244.52 203.21 243.422C203.21 242.323 202.88 240.895 202.88 238.919C202.88 236.942 204.417 225.081 205.077 221.786C205.735 218.491 205.406 213.988 204.747 211.571C204.088 209.155 202.77 205.311 202.77 205.311L203.319 195.646L192.666 197.074Z" fill="#EDE9FF" stroke="#4D21FF" stroke-width="0.8" stroke-miterlimit="10" stroke-linecap="round" stroke-linejoin="round"/>
<path d="M193.646 199.911C193.646 199.911 194.242 200.176 198.214 199.911C202.186 199.646 203.113 199.05 203.113 199.05L203.32 195.647L193.646 199.911Z" fill="#4D21FF" stroke="#4D21FF" stroke-width="0.8" stroke-miterlimit="10" stroke-linecap="round" stroke-linejoin="round"/>
<path d="M190.579 244.52C190.579 244.52 188.163 243.092 188.163 241.995C188.163 241.615 188.375 241.25 188.649 240.933C186.356 241.278 183.745 241.799 183.66 242.653C183.55 243.752 188.712 245.619 193.324 246.278C197.937 246.936 201.122 248.254 201.891 247.596C202.659 246.937 203.209 244.52 203.209 243.422C203.209 242.964 203.151 242.443 203.084 241.853C202.284 242.292 201.203 242.979 200.463 243.422C199.366 244.081 190.579 244.52 190.579 244.52Z" fill="#4D21FF" stroke="#4D21FF" stroke-width="0.8" stroke-miterlimit="10" stroke-linecap="round" stroke-linejoin="round"/>
<path d="M180.146 196.196C180.146 196.196 180.914 208.057 181.683 211.462C182.452 214.867 192.776 236.613 193.764 238.48C194.752 240.347 194.752 240.347 194.752 240.347C194.752 240.347 191.787 242.763 187.723 243.862C183.66 244.96 181.024 245.07 181.353 246.058C181.683 247.047 184.538 247.925 189.151 248.255C193.763 248.585 200.024 248.914 200.792 248.585C201.561 248.255 202.001 245.07 202.001 243.533C202.001 241.995 200.792 240.238 200.353 238.81C199.914 237.382 196.51 225.082 195.85 221.787C195.191 218.492 194.642 218.492 192.775 214.538C190.908 210.584 190.908 212.341 190.249 209.596C189.59 206.85 192.666 197.075 192.666 197.075L180.146 196.196Z" fill="#EDE9FF" stroke="#4D21FF" stroke-width="0.8" stroke-miterlimit="10" stroke-linecap="round" stroke-linejoin="round"/>
<path d="M182.958 198.844L191.15 202.121L192.117 200.04L182.958 198.844Z" fill="#4D21FF" stroke="#4D21FF" stroke-width="0.8" stroke-miterlimit="10" stroke-linecap="round" stroke-linejoin="round"/>
<path d="M187.174 244.85C187.026 244.603 186.959 244.334 186.938 244.066C183.326 244.977 181.046 245.135 181.353 246.058C181.683 247.046 184.538 247.925 189.151 248.254C193.763 248.584 200.024 248.913 200.792 248.584C201.561 248.254 202.001 245.07 202.001 243.532C202.001 243.532 192.995 246.387 190.688 246.387C188.383 246.387 187.834 245.948 187.174 244.85Z" fill="#4D21FF" stroke="#4D21FF" stroke-width="0.8" stroke-miterlimit="10" stroke-linecap="round" stroke-linejoin="round"/>
<path d="M180.585 178.953C180.585 178.953 179.377 187.739 179.487 191.583C179.597 195.427 179.377 197.953 179.377 197.953C179.377 197.953 187.285 200.589 192.117 200.04C196.949 199.491 203.868 196.635 203.868 196.635C203.868 196.635 204.747 185.432 204.747 184.993C204.747 184.554 205.506 179.683 205.406 176.427C205.306 173.17 205.296 170.936 205.296 170.936C205.296 170.936 194.533 173.571 190.798 173.242C187.064 172.913 181.792 172.693 181.792 172.693L180.585 178.953Z" fill="#00CC9B" stroke="#4D21FF" stroke-width="0.8" stroke-miterlimit="10" stroke-linecap="round" stroke-linejoin="round"/>
<path d="M193.571 132.189C193.571 132.189 185.934 139.175 185.002 144.577C184.071 149.979 179.601 178.572 179.973 180.901C179.973 180.901 187.797 179.317 189.66 179.317C191.522 179.317 198.601 185.092 199.998 185.65C201.395 186.209 201.395 184.626 202.885 182.763C204.375 180.901 204.375 178.851 204.655 176.896C204.935 174.94 205.307 173.17 205.307 173.17C205.307 173.17 206.238 169.724 206.331 168.234C206.424 166.744 205.493 162.366 205.493 160.503C205.493 158.64 210.15 148.022 210.522 140.664C210.895 133.306 210.708 131.723 210.708 131.723L209.777 127.811C209.777 127.811 196.272 130.047 193.571 132.189Z" fill="#EDE9FF" stroke="#4D21FF" stroke-width="0.8" stroke-miterlimit="10" stroke-linecap="round" stroke-linejoin="round"/>
<path d="M195.839 150.319C195.839 150.319 197.764 155.834 199.84 159.064L195.839 150.319Z" fill="#EDE9FF"/>
<path d="M195.839 150.319C195.839 150.319 197.764 155.834 199.84 159.064" stroke="#4D21FF" stroke-width="0.8" stroke-miterlimit="10" stroke-linecap="round" stroke-linejoin="round"/>
<path d="M198.782 164.655C199.01 165.235 199.248 165.799 199.495 166.332L198.782 164.655Z" fill="#EDE9FF"/>
<path d="M198.782 164.655C199.01 165.235 199.248 165.799 199.495 166.332" stroke="#4D21FF" stroke-width="0.8" stroke-miterlimit="10" stroke-linecap="round" stroke-linejoin="round"/>
<path d="M195.918 155.142C195.918 155.142 196.778 158.98 198.097 162.796L195.918 155.142Z" fill="#EDE9FF"/>
<path d="M195.918 155.142C195.918 155.142 196.778 158.98 198.097 162.796" stroke="#4D21FF" stroke-width="0.8" stroke-miterlimit="10" stroke-linecap="round" stroke-linejoin="round"/>
<path d="M207.262 110.302C207.262 110.302 205.12 104.9 201.115 104.434C197.11 103.969 193.105 105.366 191.708 108.253C190.311 111.141 189.566 112.724 189.566 114.214C189.566 115.704 190.59 115.891 190.218 117.288C189.845 118.685 188.821 118.778 189.286 119.43C189.752 120.082 190.59 120.362 190.59 120.362C190.59 120.362 192.36 125.391 193.478 125.67C194.595 125.95 195.806 124.832 195.806 124.832L197.855 128.278L205.307 126.229C205.307 126.229 204.561 119.989 205.027 118.405C205.493 116.822 207.914 114.586 208.101 113.376C208.287 112.165 207.262 110.302 207.262 110.302Z" fill="#EDE9FF" stroke="#4D21FF" stroke-width="0.8" stroke-miterlimit="10" stroke-linecap="round" stroke-linejoin="round"/>
<path d="M191.178 117.159C191.178 117.687 191.035 118.117 190.859 118.117C190.683 118.117 190.54 117.688 190.54 117.159C190.54 116.63 190.683 116.201 190.859 116.201C191.036 116.201 191.178 116.63 191.178 117.159Z" fill="#4D21FF"/>
<path d="M190.001 115.558C190.001 115.558 190.64 114.555 191.187 115.376L190.001 115.558Z" fill="#EDE9FF"/>
<path d="M190.001 115.558C190.001 115.558 190.64 114.555 191.187 115.376" stroke="#4D21FF" stroke-width="0.8" stroke-miterlimit="10" stroke-linecap="round" stroke-linejoin="round"/>
<path d="M191.361 122.267L192.273 121.628" stroke="#4D21FF" stroke-width="0.8" stroke-miterlimit="10" stroke-linecap="round" stroke-linejoin="round"/>
<path d="M205.772 125.576C205.772 125.576 197.482 127.719 196.271 128.836C195.06 129.954 193.57 132.189 193.57 132.189C193.57 132.189 200.463 129.861 202.511 129.488C204.561 129.116 206.609 128.743 206.609 128.743C206.609 128.743 206.144 126.415 205.772 125.576Z" fill="#EDE9FF" stroke="#4D21FF" stroke-width="0.8" stroke-miterlimit="10" stroke-linecap="round" stroke-linejoin="round"/>
<path d="M207.262 110.302C207.262 110.302 205.12 104.9 201.115 104.434C197.866 104.056 194.617 104.906 192.76 106.781L192.443 106.861C192.443 106.861 190.129 106.676 189.296 108.156C188.641 109.321 189.928 110.938 190.51 111.579C190.383 112.343 190.432 113.032 190.87 113.376C192.174 114.4 193.292 114.028 193.571 115.146C193.851 116.264 194.223 117.008 194.782 116.636C195.341 116.263 195.062 114.494 196.366 114.4C197.669 114.307 198.321 115.518 198.135 116.822C197.949 118.126 197.483 118.778 197.576 119.058C197.669 119.337 201.209 122.317 203.724 122.131C204.079 122.105 204.483 121.921 204.914 121.63C204.849 120.282 204.85 119.008 205.028 118.406C205.493 116.822 207.915 114.587 208.101 113.377C208.287 112.165 207.262 110.302 207.262 110.302Z" fill="#4D21FF" stroke="#4D21FF" stroke-width="0.8" stroke-miterlimit="10" stroke-linecap="round" stroke-linejoin="round"/>
<path d="M207.262 110.302C207.262 110.302 202.233 112.444 201.86 118.312C201.488 124.18 204.747 126.508 204.375 127.719C204.003 128.93 202.699 129.674 203.63 130.42C204.561 131.165 205.4 131.258 205.12 132.003C204.84 132.749 204.561 134.146 204.561 134.797C204.561 135.45 206.424 136.474 206.238 137.312C206.052 138.151 205.214 138.337 205.958 138.896C206.704 139.454 206.61 139.827 207.728 139.641C208.846 139.455 208.38 137.685 209.218 137.592C210.056 137.499 210.336 138.244 211.639 137.126C212.943 136.008 212.571 134.425 212.757 133.96C212.943 133.494 213.688 133.587 214.154 132.935C214.62 132.283 214.806 131.352 214.527 130.42C214.247 129.489 214.154 128.93 214.434 128.092C214.713 127.254 215.085 126.136 214.806 125.298C214.527 124.46 214.434 123.528 214.434 123.528C214.434 123.528 215.645 121.852 215.645 120.641C215.645 119.43 215.459 117.661 214.899 116.45C214.341 115.239 213.13 114.215 213.037 113.656C212.944 113.097 212.757 111.793 211.64 111.048C210.522 110.302 208.38 109.929 207.262 110.302Z" fill="#4D21FF" stroke="#4D21FF" stroke-width="0.8" stroke-miterlimit="10" stroke-linecap="round" stroke-linejoin="round"/>
<path d="M166.654 133.493L174.477 147.278L179.88 146.812L172.149 133.4L166.654 133.493Z" fill="#4D21FF" stroke="#4D21FF" stroke-width="0.8" stroke-miterlimit="10" stroke-linecap="round" stroke-linejoin="round"/>
<path d="M177.166 148.371C177.166 148.371 176.696 145.483 176.293 144.811C175.89 144.139 175.823 143.87 175.621 142.796C175.419 141.721 175.218 141.586 174.546 142.124C173.874 142.661 174.076 143.87 174.143 144.206C174.21 144.542 173.807 144.274 173.202 143.669C172.598 143.064 171.12 141.923 171.12 141.923C171.12 141.923 170.113 142.124 170.516 143.064C170.919 144.005 171.12 144.878 171.12 144.878C171.12 144.878 170.784 147.497 171.187 148.438C171.591 149.379 173.202 150.319 173.202 150.319L174.882 151.259L179.248 157.977C179.248 157.977 178.307 157.909 179.852 155.894C181.397 153.879 182.338 153.207 182.27 153.005C182.203 152.804 177.501 149.177 177.501 149.177L177.166 148.371Z" fill="#EDE9FF" stroke="#4D21FF" stroke-width="0.8" stroke-miterlimit="10" stroke-linecap="round" stroke-linejoin="round"/>
<path d="M181.599 151.998C181.599 151.998 179.248 152.267 178.442 153.879C177.636 155.491 177.099 155.961 177.502 156.7C177.905 157.439 178.778 159.051 179.315 159.387C179.853 159.722 180.323 159.924 180.323 159.924C180.323 159.924 179.45 157.64 180.726 156.095C182.002 154.551 183.748 153.744 183.748 153.744C183.748 153.744 182.472 152.468 181.599 151.998Z" fill="#EDE9FF" stroke="#4D21FF" stroke-width="0.8" stroke-miterlimit="10" stroke-linecap="round" stroke-linejoin="round"/>
<path d="M198.526 140.243C198.526 140.243 198.593 142.124 198.526 143.803C198.459 145.483 196.914 147.901 196.914 147.901C196.914 147.901 195.974 149.11 195.839 150.319C195.705 151.528 195.571 153.409 195.369 153.879C195.168 154.349 190.533 164.626 189.593 165.163C188.652 165.701 187.712 165.499 186.033 164.626C184.353 163.753 180.323 159.924 180.323 159.924C180.323 159.924 178.98 158.11 180.726 156.095C182.472 154.08 183.748 153.744 183.748 153.744L184.958 154.08C184.958 154.08 185.428 150.318 186.033 148.639C186.637 146.96 187.04 144.945 187.04 144.072C187.04 143.199 187.175 141.989 187.846 140.982C188.518 139.975 189.526 138.295 191.071 137.691" fill="#EDE9FF"/>
<path d="M198.526 140.243C198.526 140.243 198.593 142.124 198.526 143.803C198.459 145.483 196.914 147.901 196.914 147.901C196.914 147.901 195.974 149.11 195.839 150.319C195.705 151.528 195.571 153.409 195.369 153.879C195.168 154.349 190.533 164.626 189.593 165.163C188.652 165.701 187.712 165.499 186.033 164.626C184.353 163.753 180.323 159.924 180.323 159.924C180.323 159.924 178.98 158.11 180.726 156.095C182.472 154.08 183.748 153.744 183.748 153.744L184.958 154.08C184.958 154.08 185.428 150.318 186.033 148.639C186.637 146.96 187.04 144.945 187.04 144.072C187.04 143.199 187.175 141.989 187.846 140.982C188.518 139.975 189.526 138.295 191.071 137.691" stroke="#4D21FF" stroke-width="0.8" stroke-miterlimit="10" stroke-linecap="round" stroke-linejoin="round"/>
<path d="M184.958 154.08C184.958 154.08 185.361 158.782 186.1 160.327L184.958 154.08Z" fill="#EDE9FF"/>
<path d="M184.958 154.08C184.958 154.08 185.361 158.782 186.1 160.327" stroke="#4D21FF" stroke-width="0.8" stroke-miterlimit="10" stroke-linecap="round" stroke-linejoin="round"/>
<path d="M184.984 160.326C185.142 160.875 185.315 161.394 185.495 161.805L184.984 160.326Z" fill="#EDE9FF"/>
<path d="M184.984 160.326C185.142 160.875 185.315 161.394 185.495 161.805" stroke="#4D21FF" stroke-width="0.8" stroke-miterlimit="10" stroke-linecap="round" stroke-linejoin="round"/>
<path d="M184.152 156.633C184.152 156.633 184.356 157.814 184.673 159.133L184.152 156.633Z" fill="#EDE9FF"/>
<path d="M184.152 156.633C184.152 156.633 184.356 157.814 184.673 159.133" stroke="#4D21FF" stroke-width="0.8" stroke-miterlimit="10" stroke-linecap="round" stroke-linejoin="round"/>
<path d="M242.905 92.5208H225.039C222.552 92.5208 220.536 94.5368 220.536 97.024V107.98C220.536 110.467 222.552 112.483 225.039 112.483H227.062L219.385 120.16L232.403 112.483H242.905C245.392 112.483 247.408 110.467 247.408 107.98V97.024C247.408 94.5368 245.392 92.5208 242.905 92.5208Z" fill="#EDE9FF" stroke="#4D21FF" stroke-width="0.8" stroke-miterlimit="10" stroke-linecap="round" stroke-linejoin="round"/>
<path d="M229.747 102.814C229.747 101.977 229.069 101.299 228.232 101.299C227.395 101.299 226.717 101.977 226.717 102.814C226.717 103.65 227.395 104.329 228.232 104.329C229.069 104.329 229.747 103.65 229.747 102.814Z" fill="#4D21FF"/>
<path d="M235.698 102.814C235.698 101.977 235.019 101.299 234.183 101.299C233.346 101.299 232.668 101.977 232.668 102.814C232.668 103.65 233.346 104.329 234.183 104.329C235.019 104.329 235.698 103.65 235.698 102.814Z" fill="#4D21FF"/>
<path d="M241.648 102.814C241.648 101.977 240.97 101.299 240.133 101.299C239.297 101.299 238.618 101.977 238.618 102.814C238.618 103.65 239.297 104.329 240.133 104.329C240.97 104.329 241.648 103.65 241.648 102.814Z" fill="#4D21FF"/>
<path d="M127.169 109.681C127.169 109.681 127.325 113.149 127.057 114.223C126.788 115.297 124.909 116.572 124.909 116.572L124.775 119.19C124.775 119.19 122.627 119.66 120.882 120.129C119.137 120.599 116.25 121.606 115.042 120.801L115.109 113.686C115.109 113.686 113.499 108.987 117.123 106.235C120.748 103.483 124.238 105.497 125.245 106.705C126.252 107.913 127.169 109.681 127.169 109.681Z" fill="#EDE9FF" stroke="#4D21FF" stroke-width="0.8" stroke-miterlimit="10" stroke-linecap="round" stroke-linejoin="round"/>
<path d="M122.414 99.0319C122.414 99.0319 124.126 98.3666 125.742 99.2223C127.359 100.078 125.838 102.551 125.838 102.551C125.838 102.551 127.835 103.501 127.644 105.023C127.454 106.545 126.978 106.925 126.978 106.925L127.169 109.682C127.169 109.682 126.218 108.256 125.647 109.397C125.076 110.539 124.221 111.87 124.126 113.011C124.03 114.152 122.794 116.624 120.608 117.004C118.421 117.384 115.092 116.719 114.617 115.958C114.142 115.197 112.145 109.967 112.715 105.688C113.286 101.409 116.519 99.1271 118.61 98.7469C120.703 98.3661 122.414 99.0319 122.414 99.0319Z" fill="#4D21FF" stroke="#4D21FF" stroke-width="0.8" stroke-miterlimit="10" stroke-linecap="round" stroke-linejoin="round"/>
<path d="M126.318 110.061C126.318 110.061 126.05 110.061 126.184 111.672C126.318 113.283 125.915 113.954 125.446 113.283C124.976 112.612 124.842 111.398 125.245 110.397C125.647 109.396 126.385 108.853 126.318 110.061Z" fill="#EDE9FF" stroke="#4D21FF" stroke-width="0.8" stroke-miterlimit="10" stroke-linecap="round" stroke-linejoin="round"/>
<path d="M119.802 239.942C119.802 239.942 120.839 241.349 121.58 242.608C122.32 243.866 122.913 244.607 121.802 245.422C120.691 246.236 119.95 246.311 118.321 246.162C116.692 246.014 112.322 244.533 111.508 243.792C110.693 243.052 111.36 241.497 111.36 241.497L112.149 239.477L119.802 239.942Z" fill="#EDE9FF" stroke="#4D21FF" stroke-width="0.8" stroke-miterlimit="10" stroke-linecap="round" stroke-linejoin="round"/>
<path d="M111.121 242.434C113.186 243.328 116.455 244.682 118.617 244.829C120.789 244.977 121.904 244.6 122.409 244.331C122.451 244.715 122.294 245.061 121.802 245.422C120.691 246.236 119.95 246.311 118.321 246.162C116.692 246.014 112.322 244.533 111.508 243.792C111.119 243.439 111.068 242.901 111.121 242.434Z" fill="#EDE9FF" stroke="#4D21FF" stroke-width="0.8" stroke-miterlimit="10" stroke-linecap="round" stroke-linejoin="round"/>
<path d="M90.2532 239.127C87.8096 239.349 87.0686 241.793 86.4762 243.126C85.8838 244.458 84.9209 246.014 84.9949 247.273C85.0015 247.383 85.0189 247.49 85.0346 247.597C84.5967 246.476 84.4063 244.767 84.699 243.792C85.1434 242.311 86.8777 237.86 86.8777 237.86C86.8777 237.86 90.8957 236.075 93.6848 237.86C93.6848 237.86 93.9562 240.015 93.5118 241.275C93.5118 241.275 92.6974 238.905 90.2532 239.127Z" fill="#EDE9FF" stroke="#4D21FF" stroke-width="0.8" stroke-miterlimit="10" stroke-linecap="round" stroke-linejoin="round"/>
<path d="M93.6844 237.86C93.6844 237.86 93.9558 240.015 93.5114 241.275C93.0669 242.534 92.4005 243.645 92.4745 244.163C92.5485 244.681 94.1038 246.681 93.0669 247.422C92.0301 248.162 86.8463 248.903 85.8834 248.68C84.9205 248.458 84.2541 245.274 84.6986 243.792C85.143 242.311 86.8773 237.86 86.8773 237.86C86.8773 237.86 90.8953 236.075 93.6844 237.86Z" fill="#EDE9FF" stroke="#4D21FF" stroke-width="0.8" stroke-miterlimit="10" stroke-linecap="round" stroke-linejoin="round"/>
<path d="M84.592 245.627C84.7231 245.287 84.8423 245.008 84.9114 244.916C85.1317 244.623 87.4072 238.236 90.05 237.869C91.7924 237.627 93.0839 238.723 93.7644 239.5C93.7541 240.103 93.6926 240.762 93.512 241.275C93.512 241.275 92.6971 238.905 90.2534 239.127C87.8098 239.349 87.0689 241.793 86.4765 243.126C85.884 244.459 84.9212 246.014 84.9951 247.274C85.0017 247.384 85.0191 247.491 85.0349 247.597C84.814 247.033 84.6568 246.32 84.592 245.627Z" fill="#EDE9FF" stroke="#4D21FF" stroke-width="0.8" stroke-miterlimit="10" stroke-linecap="round" stroke-linejoin="round"/>
<path d="M129.933 162.64L129.507 183.402L119.807 236.158C119.807 236.158 120.913 236.838 120.658 237.945C120.403 239.051 119.978 240.497 119.978 240.497C119.978 240.497 117.17 242.114 115.042 241.774C112.915 241.433 112.149 239.476 112.149 239.476C112.149 239.476 112.234 236.583 112.405 235.647C112.575 234.711 113.255 233.095 113.341 231.733C113.426 230.371 114.447 226.712 114.447 226.712L114.362 181.785H112.66L99.6413 214.545L95.557 231.733C95.557 231.733 96.0678 233.009 94.8764 234.03C93.685 235.051 93.4299 235.988 93.4299 235.988L93.685 237.86C93.685 237.86 92.1531 237.349 90.5369 237.349C88.9207 237.349 86.878 237.86 86.878 237.86L86.5374 235.392C86.5374 235.392 85.5163 234.711 85.6012 234.116C85.6861 233.52 86.9628 231.478 87.0477 230.968C87.1331 230.457 86.3672 227.479 86.6223 226.713C86.8774 225.947 93.1742 201.271 93.1742 201.271L98.9602 173.617L102.789 163.151L129.933 162.64Z" fill="#4D21FF" stroke="#4D21FF" stroke-width="0.8" stroke-miterlimit="10" stroke-linecap="round" stroke-linejoin="round"/>
<path d="M138.76 79.1193C138.76 79.1193 137.794 79.1731 137.633 79.7639C137.472 80.3547 138.277 81.4824 138.277 81.4824C138.277 81.4824 138.706 79.71 138.76 79.1193Z" fill="#EDE9FF" stroke="#4D21FF" stroke-width="0.8" stroke-miterlimit="10" stroke-linecap="round" stroke-linejoin="round"/>
<path d="M137.633 79.7639C137.633 79.7639 136.881 80.3008 136.935 80.9455C136.989 81.5901 137.579 82.2881 137.901 82.2881C138.223 82.2881 138.277 81.4824 138.277 81.4824C138.277 81.4824 137.794 80.3008 137.633 79.7639Z" fill="#EDE9FF" stroke="#4D21FF" stroke-width="0.8" stroke-miterlimit="10" stroke-linecap="round" stroke-linejoin="round"/>
<path d="M136.934 80.9454C136.934 80.9454 136.29 81.4824 136.612 82.2342C136.934 82.986 137.472 83.2547 137.472 83.2547L137.901 82.288C137.901 82.288 137.203 81.4824 136.934 80.9454Z" fill="#EDE9FF" stroke="#4D21FF" stroke-width="0.8" stroke-miterlimit="10" stroke-linecap="round" stroke-linejoin="round"/>
<path d="M135.852 81.0701H144.763V66.5638H135.852V81.0701Z" fill="#00CC9B" stroke="#4D21FF" stroke-width="0.8" stroke-miterlimit="10" stroke-linecap="round" stroke-linejoin="round"/>
<path d="M136.504 104.253C136.504 104.253 138.008 96.8418 138.438 94.8551C138.868 92.8679 138.76 89.2698 138.76 89.2698C138.76 89.2698 137.847 88.1421 137.686 87.5514C137.525 86.9606 138.008 85.6718 138.008 85.6718C138.008 85.6718 137.471 84.5974 137.471 83.7385C137.471 82.8789 138.277 81.483 138.277 81.483C138.277 81.483 138.707 80.1943 138.76 79.1199C138.814 78.046 138.975 77.2404 139.566 77.4014C140.157 77.5624 140.479 77.8845 140.479 78.6901C140.479 79.4958 140.425 80.9994 140.425 80.9994L143.486 81.1066C143.486 81.1066 142.466 88.4103 142.519 88.8939C142.573 89.3776 144.399 103.34 144.292 104.683C144.185 106.026 144.023 107.798 144.023 107.798C144.023 107.798 140.425 104.791 139.029 104.737C137.633 104.683 136.504 104.253 136.504 104.253Z" fill="#EDE9FF" stroke="#4D21FF" stroke-width="0.8" stroke-miterlimit="10" stroke-linecap="round" stroke-linejoin="round"/>
<path d="M138.009 85.6713L139.179 87.1798" stroke="#4D21FF" stroke-width="0.8" stroke-miterlimit="10" stroke-linecap="round" stroke-linejoin="round"/>
<path d="M95.886 150.791C95.886 150.791 95.2588 153.926 93.8602 157.11C92.4615 160.293 92.1721 162.802 92.1721 162.802C92.1721 162.802 93.6676 165.696 93.426 166.757C93.185 167.819 92.3647 169.892 92.3168 170.423C92.2684 170.954 91.9311 171.919 91.2555 171.677C90.5804 171.436 90.1941 170.809 89.7122 170.664C89.2296 170.52 87.3969 169.651 87.2038 168.976C87.0106 168.301 87.2522 166.275 87.2522 166.275C87.2522 166.275 87.9284 162.167 87.9284 161.975C87.9284 161.782 87.831 157.497 88.2651 154.168C88.6992 150.84 89.3265 148.139 89.3265 148.139C89.3265 148.139 92.1721 150.743 95.886 150.791Z" fill="#EDE9FF" stroke="#4D21FF" stroke-width="0.8" stroke-miterlimit="10" stroke-linecap="round" stroke-linejoin="round"/>
<path d="M92.4131 169.748C92.4131 169.748 91.738 169.748 91.4965 169.072C91.2555 168.397 91.4965 167.143 91.4965 167.143C91.4965 167.143 90.3389 166.516 90.3389 165.358" fill="#EDE9FF"/>
<path d="M92.4131 169.748C92.4131 169.748 91.738 169.748 91.4965 169.072C91.2555 168.397 91.4965 167.143 91.4965 167.143C91.4965 167.143 90.3389 166.516 90.3389 165.358" stroke="#4D21FF" stroke-width="0.8" stroke-miterlimit="10" stroke-linecap="round" stroke-linejoin="round"/>
<path d="M90.0342 165.822C90.0342 165.822 90.2436 166.449 89.2573 166.778L90.0342 165.822Z" fill="#EDE9FF"/>
<path d="M90.0342 165.822C90.0342 165.822 90.2436 166.449 89.2573 166.778" stroke="#4D21FF" stroke-width="0.8" stroke-miterlimit="10" stroke-linecap="round" stroke-linejoin="round"/>
<path d="M88.0911 169.146C88.0911 169.146 88.146 168.128 88.3935 167.99C88.641 167.853 89.0262 167.798 89.1638 168.293C89.3015 168.788 89.6866 169.558 89.4391 169.916C89.1916 170.273 89.2743 170.356 88.6138 170.108" fill="#EDE9FF"/>
<path d="M88.0911 169.146C88.0911 169.146 88.146 168.128 88.3935 167.99C88.641 167.853 89.0262 167.798 89.1638 168.293C89.3015 168.788 89.6866 169.558 89.4391 169.916C89.1916 170.273 89.2743 170.356 88.6138 170.108" stroke="#4D21FF" stroke-width="0.8" stroke-miterlimit="10" stroke-linecap="round" stroke-linejoin="round"/>
<path d="M89.4663 168.266C89.4663 168.266 89.9613 167.936 90.2366 168.101C90.5119 168.266 90.952 169.119 90.8415 169.751C90.7317 170.384 90.5391 170.796 89.9891 170.687" fill="#EDE9FF"/>
<path d="M89.4663 168.266C89.4663 168.266 89.9613 167.936 90.2366 168.101C90.5119 168.266 90.952 169.119 90.8415 169.751C90.7317 170.384 90.5391 170.796 89.9891 170.687" stroke="#4D21FF" stroke-width="0.8" stroke-miterlimit="10" stroke-linecap="round" stroke-linejoin="round"/>
<path d="M90.7588 168.706C90.7588 168.706 90.9563 168.614 91.2266 168.843C91.497 169.072 91.7766 170.329 91.584 170.714C91.3915 171.099 91.2816 171.319 90.8137 171.291" fill="#EDE9FF"/>
<path d="M90.7588 168.706C90.7588 168.706 90.9563 168.614 91.2266 168.843C91.497 169.072 91.7766 170.329 91.584 170.714C91.3915 171.099 91.2816 171.319 90.8137 171.291" stroke="#4D21FF" stroke-width="0.8" stroke-miterlimit="10" stroke-linecap="round" stroke-linejoin="round"/>
<path d="M124.775 119.19L132.788 112.551L136.419 105.96C136.419 105.96 139.581 105.354 141.396 106.901C143.212 108.448 143.28 110.063 142.876 110.869C142.472 111.677 135.882 126.876 135.747 127.078C135.613 127.28 132.451 144.564 132.451 144.564C132.451 144.564 130.098 160.823 130.318 161.703C130.538 162.583 130.611 164.049 129.805 164.195C128.999 164.342 112.283 164.636 110.817 164.855C109.35 165.075 106.198 164.269 103.852 163.902C101.505 163.536 102.386 161.189 102.605 160.237C102.825 159.284 104.512 139.709 104.512 139.709L97.2536 149.533C97.2536 149.533 96.7406 150.633 93.9542 149.9C91.1684 149.166 90.4351 146.161 90.4351 145.794C90.4351 145.427 96.4468 135.384 97.3265 133.697C98.2061 132.011 100.625 125.266 102.825 123.873C105.025 122.48 114.115 120.794 114.115 120.794L124.775 119.19Z" fill="#00CC9B" stroke="#4D21FF" stroke-width="0.8" stroke-miterlimit="10" stroke-linecap="round" stroke-linejoin="round"/>
<path d="M120.443 160.686C119.744 161.233 119.025 161.731 118.289 162.163" stroke="#4D21FF" stroke-width="0.8" stroke-miterlimit="10" stroke-linecap="round" stroke-linejoin="round"/>
<path d="M131.799 145.985C131.799 145.985 127.568 154.445 121.577 159.74" stroke="#4D21FF" stroke-width="0.8" stroke-miterlimit="10" stroke-linecap="round" stroke-linejoin="round"/>
<path d="M127.296 156.325C127.296 156.325 122.625 161.83 118.456 163.997" stroke="#4D21FF" stroke-width="0.8" stroke-miterlimit="10" stroke-linecap="round" stroke-linejoin="round"/>
<path d="M122.125 152.99C122.125 152.99 116.455 158.994 113.285 160.829" stroke="#4D21FF" stroke-width="0.8" stroke-miterlimit="10" stroke-linecap="round" stroke-linejoin="round"/>
<path d="M130.062 133.289C129.671 133.773 129.25 134.281 128.796 134.81" stroke="#4D21FF" stroke-width="0.8" stroke-miterlimit="10" stroke-linecap="round" stroke-linejoin="round"/>
<path d="M134.301 127.138C134.301 127.138 133.399 128.941 131.131 131.925" stroke="#4D21FF" stroke-width="0.8" stroke-miterlimit="10" stroke-linecap="round" stroke-linejoin="round"/>
<path d="M104.512 139.709L105.613 134.143L102.007 143.08L104.512 139.709Z" fill="#4D21FF" stroke="#4D21FF" stroke-width="0.8" stroke-miterlimit="10" stroke-linecap="round" stroke-linejoin="round"/>
<path d="M126.286 118.081C126.286 118.081 125.333 117.641 124.82 117.568C124.307 117.495 115.802 118.814 115.215 118.888C114.629 118.961 113.383 120.94 113.383 120.94L124.774 119.19L126.286 118.081Z" fill="#00CC9B" stroke="#4D21FF" stroke-width="0.8" stroke-miterlimit="10" stroke-linecap="round" stroke-linejoin="round"/>
<path d="M91.1107 144.134C91.1107 144.134 91.2554 146.691 91.8343 147.463C92.4131 148.235 95.0177 148.717 95.7897 148.813C96.5616 148.91 97.8155 148.862 97.8155 148.862C97.8155 148.862 97.1883 150.357 96.851 150.888C96.5132 151.418 95.7897 151.563 93.7638 151.418C91.738 151.273 89.1333 149.296 88.8918 148.62C88.6508 147.945 89.5669 146.45 89.8563 145.726C90.1462 145.003 91.1107 144.134 91.1107 144.134Z" fill="#00CC9B" stroke="#4D21FF" stroke-width="0.8" stroke-miterlimit="10" stroke-linecap="round" stroke-linejoin="round"/>
<path d="M135.484 107.529C135.484 107.529 135.108 106.133 135.484 105.381C135.86 104.629 136.72 103.716 137.525 103.716C138.33 103.716 140.318 103.716 142.358 105.328C144.399 106.939 144.506 108.067 144.184 108.98C143.862 109.892 143.003 111.343 142.788 111.343C142.573 111.343 141.66 107.369 139.19 106.939C136.719 106.509 135.484 107.529 135.484 107.529Z" fill="#00CC9B" stroke="#4D21FF" stroke-width="0.8" stroke-miterlimit="10" stroke-linecap="round" stroke-linejoin="round"/>
</svg>
