<svg width="59" height="37" viewBox="0 0 59 37" fill="none" xmlns="http://www.w3.org/2000/svg">
<g clip-path="url(#clip0_127_546)">
<path d="M49.3236 27.3397V27.6808H51.3712V27.3397C51.3712 27.3397 54.2666 27.3397 55.1253 27.3397C56.8214 27.3397 58.1967 25.9651 58.1967 24.2699C58.1967 22.6784 56.9804 21.3849 55.429 21.2308C55.444 21.1073 55.4665 20.9865 55.4665 20.859C55.4665 19.1637 54.0912 17.7891 52.3951 17.7891C51.4136 17.7891 50.5501 18.2571 49.9877 18.9734C49.8922 17.1751 48.4165 15.7426 46.5934 15.7426C44.7089 15.7426 43.1806 17.27 43.1806 19.1535C43.1806 19.4577 43.2332 19.747 43.3083 20.0281C42.8701 19.498 42.2155 19.1535 41.4743 19.1535C40.2587 19.1535 39.2669 20.0642 39.1161 21.2376C38.9925 21.2226 38.8717 21.2001 38.7441 21.2001C37.0479 21.2001 35.6726 22.5747 35.6726 24.2699C35.6726 25.9651 37.0479 27.3397 38.7441 27.3397C40.4402 27.3397 45.2283 27.3397 45.2283 27.3397H49.3236Z" fill="#EDE9FF"/>
<path d="M46.5934 15.4015C44.5232 15.4015 42.8393 17.0844 42.8393 19.1535C42.8393 19.1644 42.8393 19.1747 42.8393 19.1856C42.4284 18.9434 41.9588 18.8124 41.4742 18.8124C40.2245 18.8124 39.1461 19.6727 38.841 20.8624C38.8089 20.8604 38.7768 20.859 38.744 20.859C36.8623 20.859 35.3313 22.3891 35.3313 24.2699C35.3313 26.1507 36.8623 27.6809 38.744 27.6809H49.3236C49.5119 27.6809 49.6648 27.5281 49.6648 27.3398C49.6648 27.1515 49.5119 26.9987 49.3236 26.9987H38.744C37.2383 26.9987 36.0138 25.7748 36.0138 24.2699C36.0138 22.765 37.2383 21.5412 38.744 21.5412C38.8239 21.5412 38.901 21.5528 38.9782 21.563L39.0744 21.576C39.0887 21.578 39.1024 21.5787 39.1167 21.5787C39.2846 21.5787 39.4321 21.4525 39.4546 21.2806C39.5849 20.2621 40.4531 19.4946 41.4742 19.4946C42.0783 19.4946 42.6503 19.7682 43.0448 20.245C43.1117 20.3255 43.2093 20.3692 43.3082 20.3692C43.3615 20.3692 43.4147 20.3569 43.4639 20.331C43.6065 20.258 43.6782 20.0949 43.6372 19.9401C43.5587 19.6433 43.5219 19.3937 43.5219 19.1535C43.5219 17.461 44.9 16.0837 46.5934 16.0837C48.2185 16.0837 49.5604 17.3607 49.6471 18.9918C49.6546 19.1337 49.7495 19.2558 49.8853 19.2988C49.9194 19.3097 49.9542 19.3152 49.989 19.3152C50.0914 19.3152 50.1911 19.2681 50.2566 19.1842C50.7828 18.5143 51.5616 18.1302 52.395 18.1302C53.9007 18.1302 55.1252 19.3541 55.1252 20.859C55.1252 20.9388 55.1136 21.0159 55.1034 21.093L55.0904 21.1892C55.0795 21.2806 55.1054 21.372 55.1628 21.4436C55.2201 21.5153 55.304 21.561 55.3948 21.5698C56.7981 21.7097 57.8554 22.8708 57.8554 24.2699C57.8554 25.7748 56.6309 26.9987 55.1252 26.9987H51.3712C51.1828 26.9987 51.0299 27.1515 51.0299 27.3398C51.0299 27.5281 51.1828 27.6809 51.3712 27.6809H55.1252C57.007 27.6809 58.538 26.1507 58.538 24.2699C58.538 22.6347 57.3851 21.2594 55.8057 20.9429C55.8071 20.9149 55.8078 20.887 55.8078 20.859C55.8078 18.9782 54.2768 17.4481 52.395 17.4481C51.5923 17.4481 50.8299 17.7318 50.2225 18.2421C49.8143 16.6021 48.3373 15.4015 46.5934 15.4015Z" fill="#714EFF"/>
<path d="M45.5696 20.1768C44.612 20.1768 43.7888 20.8583 43.5814 21.7738C43.3309 21.6223 43.0449 21.5411 42.7541 21.5411C41.9337 21.5411 41.2539 22.1531 41.1481 22.9519C41.0095 22.9205 40.8778 22.9055 40.7495 22.9055C39.7058 22.9055 38.8308 23.7241 38.7578 24.7692C38.751 24.8634 38.8219 24.9452 38.9154 24.9521C38.9195 24.9521 38.9236 24.9521 38.9277 24.9521C39.0165 24.9521 39.0915 24.8832 39.0977 24.7938C39.1584 23.9267 39.8833 23.2466 40.7488 23.2466C40.9051 23.2466 41.0696 23.2753 41.2525 23.3332C41.2675 23.338 41.2832 23.3401 41.2982 23.3401C41.3358 23.3401 41.3733 23.3264 41.4047 23.3032C41.4484 23.2718 41.4743 23.2159 41.4743 23.1613C41.4743 22.4559 42.0483 21.8822 42.7541 21.8822C43.0592 21.8822 43.3582 21.9968 43.5943 22.2049C43.6264 22.2329 43.6667 22.2479 43.7069 22.2479C43.7288 22.2479 43.7499 22.2438 43.7704 22.2349C43.8305 22.211 43.8714 22.1551 43.8762 22.0903C43.9472 21.2082 44.6905 20.5179 45.5696 20.5179C45.7116 20.5179 45.8597 20.541 46.0351 20.5908C46.0508 20.5956 46.0672 20.5977 46.0829 20.5977C46.1573 20.5977 46.2242 20.5479 46.246 20.4735C46.272 20.3828 46.2194 20.2886 46.1286 20.2627C45.9225 20.204 45.7443 20.1768 45.5696 20.1768ZM55.0454 21.2C54.1404 21.2 53.3336 21.812 53.0838 22.6886C53.0579 22.7793 53.1104 22.8734 53.2012 22.8994C53.2176 22.9035 53.2333 22.9055 53.2483 22.9055C53.3227 22.9055 53.3909 22.8564 53.4121 22.7814C53.6203 22.0514 54.2919 21.5411 55.0454 21.5411C55.1253 21.5411 55.2024 21.5507 55.2789 21.5609C55.2871 21.5623 55.2946 21.563 55.3028 21.563C55.3854 21.563 55.4591 21.5002 55.4707 21.4149C55.4836 21.3215 55.4181 21.2355 55.3246 21.2232C55.2331 21.211 55.1403 21.2 55.0454 21.2Z" fill="#714EFF"/>
<path d="M7.00563 20.8589H0.180142C-0.00824183 20.8589 -0.161133 20.7061 -0.161133 20.5178C-0.161133 20.3296 -0.00824183 20.1767 0.180142 20.1767H7.00563C7.19402 20.1767 7.34691 20.3296 7.34691 20.5178C7.34691 20.7061 7.1947 20.8589 7.00563 20.8589ZM9.05328 20.8589H8.37073C8.18235 20.8589 8.02946 20.7061 8.02946 20.5178C8.02946 20.3296 8.18235 20.1767 8.37073 20.1767H9.05328C9.24166 20.1767 9.39455 20.3296 9.39455 20.5178C9.39455 20.7061 9.24234 20.8589 9.05328 20.8589ZM12.4599 22.2233H6.32308C6.1347 22.2233 5.98181 22.0705 5.98181 21.8822C5.98181 21.6939 6.1347 21.5411 6.32308 21.5411H12.4599C12.6483 21.5411 12.8012 21.6939 12.8012 21.8822C12.8012 22.0705 12.6483 22.2233 12.4599 22.2233ZM4.95798 22.2233H4.27544C4.08705 22.2233 3.93416 22.0705 3.93416 21.8822C3.93416 21.6939 4.08705 21.5411 4.27544 21.5411H4.95798C5.14637 21.5411 5.29926 21.6939 5.29926 21.8822C5.29926 22.0705 5.14705 22.2233 4.95798 22.2233ZM2.91034 22.2233H1.54524C1.35686 22.2233 1.20397 22.0705 1.20397 21.8822C1.20397 21.6939 1.35686 21.5411 1.54524 21.5411H2.91034C3.09872 21.5411 3.25161 21.6939 3.25161 21.8822C3.25161 22.0705 3.0994 22.2233 2.91034 22.2233ZM7.00563 23.5877H5.64053C5.45215 23.5877 5.29926 23.4349 5.29926 23.2466C5.29926 23.0583 5.45215 22.9055 5.64053 22.9055H7.00563C7.19402 22.9055 7.34691 23.0583 7.34691 23.2466C7.34691 23.4349 7.19402 23.5877 7.00563 23.5877ZM9.05328 17.448C8.93247 17.448 8.49154 17.448 8.37073 17.448C8.18235 17.448 8.02946 17.6008 8.02946 17.7891C8.02946 17.9774 8.18235 18.1302 8.37073 18.1302C8.49154 18.1302 8.93247 18.1302 9.05328 18.1302C9.24166 18.1302 9.39455 17.9774 9.39455 17.7891C9.39455 17.6008 9.24166 17.448 9.05328 17.448ZM9.05328 18.8124C8.93247 18.8124 5.76134 18.8124 5.64053 18.8124C5.45215 18.8124 5.29926 18.9652 5.29926 19.1535C5.29926 19.3418 5.45215 19.4946 5.64053 19.4946C5.76134 19.4946 8.93247 19.4946 9.05328 19.4946C9.24166 19.4946 9.39455 19.3418 9.39455 19.1535C9.39455 18.9652 9.24166 18.8124 9.05328 18.8124ZM12.466 20.1767C12.3452 20.1767 10.5392 20.1767 10.4184 20.1767C10.23 20.1767 10.0771 20.3296 10.0771 20.5178C10.0771 20.7061 10.23 20.8589 10.4184 20.8589C10.5392 20.8589 12.3452 20.8589 12.466 20.8589C12.6544 20.8589 12.8073 20.7061 12.8073 20.5178C12.8073 20.3296 12.6544 20.1767 12.466 20.1767Z" fill="#714EFF"/>
<path d="M45.9109 2.43987H39.0854C38.897 2.43987 38.7441 2.28706 38.7441 2.09878C38.7441 1.9105 38.897 1.75769 39.0854 1.75769H45.9109C46.0993 1.75769 46.2522 1.9105 46.2522 2.09878C46.2522 2.28706 46.0993 2.43987 45.9109 2.43987ZM48.6411 2.43987H47.276C47.0876 2.43987 46.9347 2.28706 46.9347 2.09878C46.9347 1.9105 47.0876 1.75769 47.276 1.75769H48.6411C48.8295 1.75769 48.9824 1.9105 48.9824 2.09878C48.9824 2.28706 48.8295 2.43987 48.6411 2.43987ZM52.0538 3.80425H45.2284C45.04 3.80425 44.8871 3.65144 44.8871 3.46315C44.8871 3.27487 45.04 3.12206 45.2284 3.12206H52.0538C52.2422 3.12206 52.3951 3.27487 52.3951 3.46315C52.3951 3.65144 52.2429 3.80425 52.0538 3.80425ZM43.8633 3.80425H43.1807C42.9923 3.80425 42.8394 3.65144 42.8394 3.46315C42.8394 3.27487 42.9923 3.12206 43.1807 3.12206H43.8633C44.0516 3.12206 44.2045 3.27487 44.2045 3.46315C44.2045 3.65144 44.0516 3.80425 43.8633 3.80425ZM41.7951 3.80425H40.4505C40.2621 3.80425 40.1092 3.65144 40.1092 3.46315C40.1092 3.27487 40.2621 3.12206 40.4505 3.12206H41.7951C41.9835 3.12206 42.1364 3.27487 42.1364 3.46315C42.1364 3.65144 41.9835 3.80425 41.7951 3.80425ZM47.9586 1.0755H44.5458C44.3574 1.0755 44.2045 0.922688 44.2045 0.734404C44.2045 0.546121 44.3574 0.393311 44.5458 0.393311H47.9586C48.1469 0.393311 48.2998 0.546121 48.2998 0.734404C48.2998 0.922688 48.1476 1.0755 47.9586 1.0755ZM45.9109 5.16862H44.5458C44.3574 5.16862 44.2045 5.01581 44.2045 4.82753C44.2045 4.63925 44.3574 4.48644 44.5458 4.48644H45.9109C46.0993 4.48644 46.2522 4.63925 46.2522 4.82753C46.2522 5.01581 46.0993 5.16862 45.9109 5.16862Z" fill="#714EFF"/>
<path d="M31.9186 4.31592C27.7098 4.31592 23.6734 5.98697 20.6973 8.96146C17.7213 11.9359 16.0493 15.9702 16.0493 20.1768C16.0493 24.3833 17.7213 28.4176 20.6973 31.3921C23.6734 34.3666 27.7098 36.0376 31.9186 36.0376C36.1274 36.0376 40.1638 34.3666 43.1398 31.3921C46.1159 28.4176 47.7878 24.3833 47.7878 20.1768C47.7878 15.9702 46.1159 11.9359 43.1398 8.96146C40.1638 5.98697 36.1274 4.31592 31.9186 4.31592Z" fill="#48BED8"/>
<path d="M31.9186 36.5152C22.9048 36.5152 15.5715 29.1857 15.5715 20.1768C15.5715 11.1678 22.9048 3.83838 31.9186 3.83838C40.9323 3.83838 48.2656 11.1678 48.2656 20.1768C48.2656 29.1857 40.9323 36.5152 31.9186 36.5152ZM31.9186 4.79344C23.4318 4.79344 16.5271 11.6938 16.5271 20.1768C16.5271 28.6598 23.4318 35.5601 31.9186 35.5601C40.4054 35.5601 47.3101 28.6598 47.3101 20.1768C47.3101 11.6938 40.4054 4.79344 31.9186 4.79344Z" fill="#714EFF"/>
<path d="M44.6298 16.757C44.4837 16.757 44.3486 16.6628 44.3035 16.5162C44.2462 16.3286 44.1841 16.1423 44.1186 15.9595C43.8626 15.2446 43.5391 14.5481 43.1575 13.8884C43.0627 13.7253 43.1186 13.5166 43.2818 13.4224C43.4456 13.3269 43.6538 13.3836 43.7479 13.5473C44.15 14.2424 44.4906 14.9765 44.7602 15.7282C44.8298 15.9213 44.8946 16.1178 44.9561 16.3149C45.0113 16.4957 44.9103 16.686 44.7301 16.7413C44.6967 16.7522 44.6626 16.757 44.6298 16.757Z" fill="#714EFF"/>
<path d="M31.9185 33.8444C24.3784 33.8444 18.2437 27.7313 18.2437 20.217C18.2437 12.7034 24.3777 6.59033 31.9185 6.59033C35.8323 6.59033 39.5658 8.26647 42.1615 11.1883C42.3574 11.4086 42.5465 11.6365 42.7287 11.8705C42.8441 12.0192 42.8175 12.2334 42.6693 12.3487C42.5206 12.4653 42.3062 12.4374 42.1902 12.2886C42.0175 12.0669 41.838 11.8507 41.6517 11.6412C39.1849 8.86474 35.6377 7.27252 31.9192 7.27252C24.7552 7.27252 18.9269 13.0793 18.9269 20.217C18.9269 27.3548 24.7545 33.1622 31.9185 33.1622C39.0826 33.1622 44.9108 27.3548 44.9108 20.217C44.9108 19.5655 44.8617 18.9127 44.7655 18.2755C44.7375 18.0893 44.8658 17.9153 45.0521 17.8874C45.2398 17.8614 45.4125 17.9876 45.4405 18.1732C45.5422 18.8438 45.5934 19.5314 45.5934 20.217C45.5934 27.7313 39.4586 33.8444 31.9185 33.8444Z" fill="#714EFF"/>
<path d="M21.3391 36.2082C21.3391 36.2082 22.4087 36.2082 23.728 36.2082C25.0474 36.2082 26.1169 35.1392 26.1169 33.8205C26.1169 32.6055 25.2057 31.6143 24.0318 31.4635C24.0509 31.3414 24.0693 31.2193 24.0693 31.0918C24.0693 29.7731 22.9997 28.7041 21.6804 28.7041C20.976 28.7041 20.3494 29.0145 19.9126 29.4988C19.6505 28.2655 18.5564 27.3397 17.2438 27.3397C15.7361 27.3397 14.5136 28.5615 14.5136 30.0685C14.5136 30.1988 14.5341 30.3236 14.5518 30.4491C14.2597 30.2145 13.8939 30.0685 13.4898 30.0685C12.6516 30.0685 11.9575 30.6736 11.8141 31.4704C11.692 31.4513 11.5698 31.4328 11.4421 31.4328C10.1228 31.4328 9.05322 32.5018 9.05322 33.8205C9.05322 35.1392 10.1228 36.2082 11.4421 36.2082C12.7615 36.2082 16.5613 36.2082 16.5613 36.2082V36.5493H21.3391V36.2082Z" fill="#EDE9FF"/>
<path d="M22.5334 33.1384C22.4392 33.1384 22.3628 33.0619 22.3628 32.9678C22.3628 32.1335 23.0419 31.4547 23.8767 31.4547C23.8999 31.4609 24.3797 31.454 24.7258 31.5475C24.8166 31.572 24.8705 31.6655 24.8459 31.7562C24.8213 31.8477 24.7278 31.9015 24.6371 31.8763C24.334 31.7944 23.8863 31.7944 23.8774 31.7958C23.2303 31.7958 22.7041 32.3218 22.7041 32.9678C22.7041 33.0619 22.6276 33.1384 22.5334 33.1384ZM17.9262 35.8671C17.8357 35.8671 17.7489 35.903 17.6849 35.967C17.6209 36.031 17.585 36.1177 17.585 36.2082C17.585 36.2987 17.6209 36.3854 17.6849 36.4494C17.7489 36.5134 17.8357 36.5493 17.9262 36.5493C18.0167 36.5493 18.1036 36.5134 18.1676 36.4494C18.2316 36.3854 18.2675 36.2987 18.2675 36.2082C18.2675 36.1177 18.2316 36.031 18.1676 35.967C18.1036 35.903 18.0167 35.8671 17.9262 35.8671Z" fill="#714EFF"/>
<path d="M23.728 36.5493H21.3391C21.1507 36.5493 20.9978 36.3965 20.9978 36.2082C20.9978 36.0199 21.1507 35.8671 21.3391 35.8671H23.728C24.8569 35.8671 25.7756 34.9489 25.7756 33.8205C25.7756 32.8 25.0078 31.9322 23.9887 31.8019C23.8973 31.7897 23.8147 31.7419 23.7594 31.6682C23.7041 31.5946 23.6809 31.5018 23.6952 31.411C23.7109 31.306 23.728 31.2009 23.728 31.0918C23.728 29.9634 22.8093 29.0452 21.6803 29.0452C21.1002 29.0452 20.5623 29.2874 20.1658 29.7274C20.0805 29.8222 19.9467 29.8625 19.8245 29.8284C19.7003 29.7949 19.6054 29.6953 19.5788 29.5698C19.346 28.4756 18.3638 27.6808 17.2438 27.6808C15.9265 27.6808 14.8549 28.7519 14.8549 30.0685C14.8549 30.1661 14.8692 30.2595 14.8828 30.3537C14.9026 30.4921 14.8398 30.6525 14.7177 30.722C14.5955 30.7916 14.4474 30.8025 14.3382 30.7152C14.089 30.5153 13.7962 30.4096 13.4898 30.4096C12.8304 30.4096 12.2666 30.881 12.1499 31.5311C12.1172 31.7133 11.9479 31.8354 11.7615 31.8074C11.6564 31.791 11.5513 31.774 11.4421 31.774C10.3132 31.774 9.39446 32.6922 9.39446 33.8205C9.39446 34.9489 10.3132 35.8671 11.4421 35.8671H16.5612C16.7496 35.8671 16.9025 36.0199 16.9025 36.2082C16.9025 36.3965 16.7496 36.5493 16.5612 36.5493H11.4421C9.93641 36.5493 8.71191 35.3254 8.71191 33.8205C8.71191 32.3156 9.93641 31.0918 11.4421 31.0918C11.4824 31.0918 11.5213 31.0931 11.5609 31.0959C11.8434 30.2868 12.61 29.7274 13.4898 29.7274C13.728 29.7274 13.96 29.769 14.1798 29.8502C14.2924 28.2587 15.6234 26.9987 17.2438 26.9987C18.4935 26.9987 19.6095 27.7675 20.0784 28.891C20.5425 28.5513 21.1036 28.363 21.6803 28.363C23.186 28.363 24.4105 29.5869 24.4105 31.0918C24.4105 31.1245 24.4099 31.1566 24.4078 31.1887C25.5975 31.4943 26.4582 32.5714 26.4582 33.8205C26.4582 35.3254 25.2337 36.5493 23.728 36.5493Z" fill="#714EFF"/>
<path d="M19.974 35.8671C19.8655 35.8671 19.4 35.8671 19.2915 35.8671C19.1031 35.8671 18.9502 36.0199 18.9502 36.2082C18.9502 36.3964 19.1031 36.5493 19.2915 36.5493C19.4 36.5493 19.8655 36.5493 19.974 36.5493C20.1624 36.5493 20.3153 36.3964 20.3153 36.2082C20.3153 36.0199 20.1624 35.8671 19.974 35.8671Z" fill="#714EFF"/>
<path d="M31.0981 25.4896L28.3672 28.0103C28.3672 28.0103 28.1543 28.174 27.9202 28.0717L28.443 23.3892L31.0981 25.4896Z" fill="#B5CFE4"/>
<path d="M28.0793 28.275C28.0062 28.275 27.9291 28.2607 27.852 28.2272L27.7373 28.1774L28.3086 23.0645L31.361 25.4801L28.4833 28.1358C28.398 28.2006 28.2492 28.275 28.0793 28.275ZM28.5782 23.7132L28.1072 27.9339C28.1946 27.925 28.2629 27.8752 28.2629 27.8752L30.8361 25.5005L28.5782 23.7132Z" fill="#714EFF"/>
<path d="M39.9179 12.9715L36.9256 28.2437C36.9256 28.2437 36.5072 29.3031 35.3565 28.7942L28.4511 23.4349L25.94 22.2063L21.713 20.7662C21.713 20.7662 21.0639 20.5336 21.0011 20.0254C20.9383 19.5171 21.7335 19.2415 21.7335 19.2415L38.5378 12.5691C38.5365 12.5684 39.9179 11.9544 39.9179 12.9715Z" fill="#EDE9FF"/>
<path d="M35.9449 29.1032C35.7381 29.1032 35.5183 29.052 35.2876 28.9497L28.3468 23.5693L25.865 22.3598L21.6578 20.9272C21.625 20.9156 20.9063 20.6516 20.8319 20.0458C20.7527 19.4073 21.6394 19.0934 21.6769 19.0798L38.4737 12.4107L38.4751 12.4148C38.6956 12.292 39.258 12.1597 39.5904 12.2463C39.7761 12.2961 40.088 12.4571 40.088 12.9715L40.0846 13.0042L37.0923 28.2764C37.0759 28.3269 36.8779 28.8167 36.3845 29.0186C36.2459 29.0745 36.0992 29.1032 35.9449 29.1032ZM38.6888 12.6911V12.6925L38.6007 12.728L21.7963 19.3998C21.7827 19.4045 21.1268 19.6447 21.1704 20.0049C21.2196 20.4012 21.7649 20.6038 21.7704 20.6059L25.994 22.0453L28.5249 23.2821L35.4603 28.6598C35.7381 28.7778 36.0166 28.7996 36.2521 28.7034C36.6097 28.5581 36.7646 28.1836 36.7667 28.1795L39.7467 12.9551C39.7426 12.7089 39.6395 12.642 39.6047 12.6202C39.3768 12.4721 38.9038 12.6099 38.6888 12.6911Z" fill="#714EFF"/>
<path d="M27.9195 28.071C27.9195 28.071 27.7181 28.0519 27.4663 27.2469C27.2151 26.4419 25.9387 22.2055 25.9387 22.2055L36.0882 15.6811C36.0882 15.6811 36.6739 15.3209 36.6534 15.6811C36.6534 15.6811 36.7578 15.7445 36.4438 16.0413C36.1299 16.338 28.4703 23.3066 28.4703 23.3066L27.9195 28.071Z" fill="#EDE9FF"/>
<path d="M28.0696 28.2573L27.9031 28.2416C27.7597 28.2272 27.5393 28.0533 27.3038 27.2974C27.0526 26.4931 25.7756 22.2554 25.7756 22.2554L25.738 22.1319L25.8466 22.0623L35.9961 15.5379C36.136 15.4519 36.4773 15.2691 36.6854 15.3932C36.7332 15.4219 36.8063 15.4853 36.8219 15.6136L36.8397 15.6961C36.8533 15.8258 36.7673 15.9704 36.5619 16.1655C36.2602 16.4513 29.3371 22.75 28.6334 23.3905L28.0696 28.2573ZM26.1387 22.2799C26.3503 22.9812 27.4035 26.4733 27.6294 27.1958C27.6908 27.3922 27.7481 27.5362 27.7973 27.6406L28.3085 23.2234L28.3556 23.1804C28.4321 23.1102 36.0179 16.2091 36.3264 15.9172C36.4117 15.8367 36.4561 15.7821 36.4786 15.7487L36.4814 15.6941C36.409 15.7084 36.28 15.763 36.1769 15.8258L26.1387 22.2799Z" fill="#714EFF"/>
<path d="M35.9444 29.2737C35.7144 29.2737 35.4714 29.2178 35.2181 29.1059L35.156 29.0704L30.985 26.0531L28.5988 28.26C28.5387 28.3077 28.2104 28.5472 27.8186 28.3978C27.4344 28.29 27.2159 27.5901 27.1395 27.3472C26.9218 26.65 25.9321 23.3687 25.6734 22.5098L25.6618 22.4716L21.602 21.0888C21.5624 21.0745 20.7488 20.775 20.6621 20.0662C20.5679 19.3063 21.5132 18.9556 21.6211 18.9181L38.4104 12.2518L38.4125 12.2572C38.7162 12.0956 39.3107 11.9946 39.6342 12.0812C40.0315 12.1876 40.2588 12.5117 40.2588 12.9708L37.261 28.3084C37.2201 28.4271 37.0003 28.9497 36.4501 29.1755C36.2897 29.241 36.1212 29.2737 35.9444 29.2737ZM35.526 28.4953C35.7819 28.6024 36.0038 28.6188 36.186 28.5458C36.4754 28.4299 36.6078 28.1181 36.6092 28.1147L39.583 12.9053C39.5769 12.8944 39.566 12.7968 39.5134 12.7634C39.3878 12.6809 39.0582 12.7423 38.8104 12.8275L21.86 19.558C21.6545 19.6303 21.3214 19.8288 21.3406 19.9823C21.3699 20.2238 21.7125 20.4019 21.8299 20.4455L26.2017 21.9354L26.2583 22.0862C26.2583 22.0862 26.2843 22.1687 26.3279 22.3134C26.5866 23.1715 27.575 26.4481 27.7927 27.1453C27.9258 27.5717 28.0295 27.7204 28.0643 27.7613C28.106 27.7736 28.1592 27.7395 28.1592 27.7395L30.9324 25.1724L35.526 28.4953Z" fill="#714EFF"/>
</g>
<defs>
<clipPath id="clip0_127_546">
<rect width="59" height="37" fill="white"/>
</clipPath>
</defs>
</svg>
